<svg width="16" height="16" viewBox="0 0 16 16" fill="none" xmlns="http://www.w3.org/2000/svg">
<g clip-path="url(#clip0_47_4136)">
<path d="M15.62 4.19H14.855V4.95H15.62V4.19Z" fill="#E5E1F9"/>
<path d="M14.855 4.95001H14.095V5.71501H14.855V4.95001Z" fill="#E5E1F9"/>
<path d="M14.855 3.42999H14.095V4.18999H14.855V3.42999Z" fill="#E5E1F9"/>
<path d="M14.095 4.19H13.335V4.95H14.095V4.19Z" fill="#E5E1F9"/>
<path d="M13.3348 14.095V13.33H14.0948V12.57H13.3348V11.81H12.5698V12.57H11.8098V13.33H12.5698V14.095H13.3348Z" fill="#E5E1F9"/>
<path d="M13.3348 6.47501H12.5698V8.00001H13.3348V6.47501Z" fill="#E5E1F9"/>
<path d="M12.5698 8H11.8098V8.76H12.5698V8Z" fill="#E5E1F9"/>
<path d="M12.5698 1.905H11.8098V2.665H12.5698V1.905Z" fill="#E5E1F9"/>
<path d="M11.8099 8.76001H11.0449V9.52501H11.8099V8.76001Z" fill="#E5E1F9"/>
<path d="M11.8099 2.66501H11.0449V3.43001H11.8099V2.66501Z" fill="#E5E1F9"/>
<path d="M11.0449 9.52499H10.2849V10.285H11.0449V9.52499Z" fill="#E5E1F9"/>
<path d="M11.0449 3.42999H10.2849V4.18999H11.0449V3.42999Z" fill="#E5E1F9"/>
<path d="M10.2849 10.285H9.5249V11.045H10.2849V10.285Z" fill="#E5E1F9"/>
<path d="M10.2849 4.19H9.5249V4.95H10.2849V4.19Z" fill="#E5E1F9"/>
<path d="M9.52477 14.855H8.75977V15.62H9.52477V14.855Z" fill="#E5E1F9"/>
<path d="M9.52477 11.045H8.75977V11.81H9.52477V11.045Z" fill="#E5E1F9"/>
<path d="M8.76 4.95001V5.71501H8V6.47501H12.57V5.71501H9.525V4.95001H8.76Z" fill="#E5E1F9"/>
<path d="M8.76 11.81H8V12.57H8.76V11.81Z" fill="#E5E1F9"/>
<path d="M12.57 1.14V1.905H13.335V0.380005H7.23999V1.14H12.57Z" fill="#E5E1F9"/>
<path d="M7.99999 12.57H7.23999V13.33H7.99999V12.57Z" fill="#E5E1F9"/>
<path d="M7.23985 13.33H6.47485V14.095H7.23985V13.33Z" fill="#E5E1F9"/>
<path d="M7.23985 1.14001H6.47485V1.90501H7.23985V1.14001Z" fill="#E5E1F9"/>
<path d="M6.47484 14.095H5.71484V14.855H6.47484V14.095Z" fill="#E5E1F9"/>
<path d="M6.47478 8H1.90479V8.76H5.71479V10.285H6.47478V8Z" fill="#E5E1F9"/>
<path d="M6.47484 1.905H5.71484V2.665H6.47484V1.905Z" fill="#E5E1F9"/>
<path d="M5.71495 14.855H4.94995V15.62H5.71495V14.855Z" fill="#E5E1F9"/>
<path d="M5.71495 10.285H4.94995V12.57H5.71495V10.285Z" fill="#E5E1F9"/>
<path d="M5.71495 2.66501H4.94995V3.43001H5.71495V2.66501Z" fill="#E5E1F9"/>
<path d="M4.94994 12.57H4.18994V14.855H4.94994V12.57Z" fill="#E5E1F9"/>
<path d="M4.94994 3.42999H4.18994V4.18999H4.94994V3.42999Z" fill="#E5E1F9"/>
<path d="M4.18993 4.19H3.42993V4.95H4.18993V4.19Z" fill="#E5E1F9"/>
<path d="M3.4298 4.95001H2.66479V5.71501H3.4298V4.95001Z" fill="#E5E1F9"/>
<path d="M2.66479 11.045H1.90479V11.81H2.66479V11.045Z" fill="#E5E1F9"/>
<path d="M2.66479 5.715H1.90479V6.475H2.66479V5.715Z" fill="#E5E1F9"/>
<path d="M1.90478 0.380005V1.14H1.14478V1.905H1.90478V2.665H2.66478V1.905H3.42978V1.14H2.66478V0.380005H1.90478Z" fill="#E5E1F9"/>
<path d="M1.90478 11.81H1.14478V12.57H1.90478V11.81Z" fill="#E5E1F9"/>
<path d="M1.90478 10.285H1.14478V11.045H1.90478V10.285Z" fill="#E5E1F9"/>
<path d="M1.90478 6.47501H1.14478V8.00001H1.90478V6.47501Z" fill="#E5E1F9"/>
<path d="M1.14488 11.045H0.379883V11.81H1.14488V11.045Z" fill="#E5E1F9"/>
</g>
<defs>
<clipPath id="clip0_47_4136">
<rect width="16" height="16" fill="white"/>
</clipPath>
</defs>
</svg>
