<svg width="16" height="16" viewBox="0 0 16 16" fill="none" xmlns="http://www.w3.org/2000/svg">
<g clip-path="url(#clip0_47_4177)">
<path d="M15.62 9.905H14.855V12.19H15.62V9.905Z" fill="#E5E1F9"/>
<path d="M14.8548 0H14.0948V0.76H13.3298V1.525H14.0948V2.285H14.8548V1.525H15.6198V0.76H14.8548V0Z" fill="#E5E1F9"/>
<path d="M14.855 5.33501H14.095V9.90501H14.855V5.33501Z" fill="#E5E1F9"/>
<path d="M14.8548 12.19H13.3298V12.95H14.8548V12.19Z" fill="#E5E1F9"/>
<path d="M14.0948 3.81H13.3298V5.335H14.0948V3.81Z" fill="#E5E1F9"/>
<path d="M13.3298 12.95H12.5698V13.715H13.3298V12.95Z" fill="#E5E1F9"/>
<path d="M13.3298 10.665H12.5698V12.19H13.3298V10.665Z" fill="#E5E1F9"/>
<path d="M13.3298 3.05H12.5698V3.81H13.3298V3.05Z" fill="#E5E1F9"/>
<path d="M12.5698 13.715H11.8098V14.475H12.5698V13.715Z" fill="#E5E1F9"/>
<path d="M12.5699 5.33501H11.8099V6.09501H11.0449V6.85501H11.8099V7.62001H12.5699V6.85501H13.3299V6.09501H12.5699V5.33501Z" fill="#E5E1F9"/>
<path d="M12.5699 2.285H11.0449V3.05H12.5699V2.285Z" fill="#E5E1F9"/>
<path d="M11.8099 14.475H10.2849V15.24H11.8099V14.475Z" fill="#E5E1F9"/>
<path d="M8.75977 7.62V9.90499H11.0448V7.62H8.75977ZM10.2848 9.145H9.51977V8.38H10.2848V9.145Z" fill="#E5E1F9"/>
<path d="M10.285 15.24H4.94995V16H10.285V15.24Z" fill="#E5E1F9"/>
<path d="M8.76 10.665H8V12.19H8.76V10.665Z" fill="#E5E1F9"/>
<path d="M11.0449 1.52499H7.23486V2.28499H11.0449V1.52499Z" fill="#E5E1F9"/>
<path d="M7.23485 7.62001H7.99985V6.85501H8.75985V6.09501H7.99985V5.33501H7.23485V6.09501H6.47485V6.85501H7.23485V7.62001Z" fill="#E5E1F9"/>
<path d="M7.99985 12.19H6.47485V12.95H7.99985V12.19Z" fill="#E5E1F9"/>
<path d="M7.23484 2.285H5.71484V3.05H7.23484V2.285Z" fill="#E5E1F9"/>
<path d="M6.47484 10.665H5.71484V12.19H6.47484V10.665Z" fill="#E5E1F9"/>
<path d="M5.71495 3.05H4.94995V3.81H5.71495V3.05Z" fill="#E5E1F9"/>
<path d="M5.71495 0H4.94995V0.76H5.71495V0Z" fill="#E5E1F9"/>
<path d="M4.9498 14.475H3.4248V15.24H4.9498V14.475Z" fill="#E5E1F9"/>
<path d="M4.94994 3.81H4.18994V5.335H4.94994V3.81Z" fill="#E5E1F9"/>
<path d="M4.1898 5.33501H3.4248V9.90501H4.1898V5.33501Z" fill="#E5E1F9"/>
<path d="M3.42479 13.715H2.66479V14.475H3.42479V13.715Z" fill="#E5E1F9"/>
<path d="M3.42479 2.285H2.66479V4.57H3.42479V2.285Z" fill="#E5E1F9"/>
<path d="M2.66479 12.95H1.90479V13.715H2.66479V12.95Z" fill="#E5E1F9"/>
<path d="M3.42479 9.905H1.90479V10.665H3.42479V9.905Z" fill="#E5E1F9"/>
<path d="M2.66489 1.52499H1.13989V2.28499H2.66489V1.52499Z" fill="#E5E1F9"/>
<path d="M1.90489 12.19H1.13989V12.95H1.90489V12.19Z" fill="#E5E1F9"/>
<path d="M1.90489 9.145H1.13989V9.905H1.90489V9.145Z" fill="#E5E1F9"/>
<path d="M2.66488 4.57001H0.379883V5.33501H2.66488V4.57001Z" fill="#E5E1F9"/>
<path d="M1.90489 3.05H1.13989V3.81H1.90489V3.05Z" fill="#E5E1F9"/>
<path d="M1.13988 9.905H0.379883V12.19H1.13988V9.905Z" fill="#E5E1F9"/>
<path d="M1.13988 6.855H0.379883V7.62H1.13988V6.855Z" fill="#E5E1F9"/>
<path d="M1.13988 2.285H0.379883V3.05H1.13988V2.285Z" fill="#E5E1F9"/>
</g>
<defs>
<clipPath id="clip0_47_4177">
<rect width="16" height="16" fill="white"/>
</clipPath>
</defs>
</svg>
