 <svg  version="1.0" xmlns="http://www.w3.org/2000/svg"  width="300.000000pt" height="331.000000pt" viewBox="0 0 300.000000 331.000000"  preserveAspectRatio="xMidYMid meet">  <g transform="translate(0.000000,331.000000) scale(0.100000,-0.100000)" fill="#e5e1f9" stroke="none"> <path d="M1332 3192 c-24 -2 -33 -8 -31 -20 3 -33 -1 -40 -19 -35 -10 2 -24 -3 -31 -11 -8 -9 -21 -16 -30 -16 -11 1 -7 8 14 26 17 13 38 23 48 20 15 -4 16 -2 6 10 -13 16 -12 16 -94 -42 -33 -23 -82 -52 -110 -64 -115 -50 -154 -74 -142 -87 7 -6 78 17 92 31 6 6 6 6 -2 2 -7 -4 -13 -2 -13 4 0 7 7 9 16 6 10 -4 37 7 69 29 29 19 77 40 107 46 65 14 121 46 114 65 -6 17 10 19 20 3 5 -8 9 -8 14 1 6 10 19 10 56 1 27 -6 68 -12 92 -13 42 -2 61 -18 20 -18 -32 0 -18 -6 31 -14 38 -6 42 -5 32 8 -7 8 -10 19 -7 25 9 14 -16 20 -107 27 -45 4 -89 10 -97 13 -8 4 -30 5 -48 3z"/> <path d="M2030 3169 c-76 -6 -103 -16 -96 -35 7 -18 -18 -18 -33 0 -29 35 -202 48 -268 21 -29 -12 -33 -18 -23 -29 11 -14 39 -11 50 4 9 13 180 18 180 6 0 -24 55 -33 160 -26 58 4 92 8 75 10 -16 2 -34 4 -40 5 -5 2 -28 3 -50 4 -54 2 -26 19 44 27 42 4 58 1 91 -19 26 -15 36 -27 30 -33 -7 -7 5 -21 35 -42 25 -18 50 -32 56 -32 6 0 8 -4 5 -8 -2 -4 0 -14 5 -22 8 -11 12 -12 15 -3 6 13 58 -1 84 -22 17 -14 60 -29 60 -21 0 3 -30 21 -67 40 -80 41 -185 110 -178 118 3 2 -12 18 -33 34 -35 27 -41 29 -102 23z"/> <path d="M1340 3118 c-56 -17 -19 -20 41 -4 39 11 46 15 24 14 -16 0 -46 -4 -65 -10z"/> <path d="M1685 3112 c-30 -26 -216 -80 -300 -87 -51 -4 -95 -21 -95 -36 0 -23 149 -4 220 29 36 16 95 42 132 58 37 16 68 32 68 37 0 10 -14 9 -25 -1z"/> <path d="M1234 3081 c3 -5 -5 -12 -18 -15 -15 -4 -26 -16 -31 -33 -3 -16 -15 -37 -25 -48 -10 -11 -31 -44 -46 -74 -16 -29 -35 -56 -41 -58 -22 -8 -14 -21 8 -16 13 4 29 24 41 52 11 25 31 62 46 81 15 19 28 40 28 45 1 6 2 15 3 21 0 6 12 16 26 22 25 12 34 32 14 32 -5 0 -8 -4 -5 -9z"/> <path d="M1933 3074 c-41 -18 -49 -32 -27 -49 15 -11 131 -33 142 -27 11 8 1 16 -35 28 -31 11 -48 12 -62 4 -14 -7 -22 -7 -26 1 -9 14 0 22 38 35 20 7 26 12 16 16 -8 3 -28 -1 -46 -8z"/> <path d="M2116 3059 c9 -10 28 -23 44 -29 20 -8 30 -20 32 -38 2 -22 11 -29 43 -39 184 -54 246 -75 259 -89 9 -8 16 -30 16 -48 0 -19 6 -39 14 -45 7 -6 16 -28 19 -49 4 -20 15 -68 26 -107 11 -38 21 -90 21 -115 0 -25 4 -61 9 -80 5 -19 12 -47 15 -62 4 -16 11 -28 17 -28 6 0 8 4 5 9 -8 13 5 71 15 71 12 0 11 -75 -2 -119 -8 -27 -7 -66 4 -151 8 -63 15 -160 16 -215 3 -151 18 -256 48 -322 31 -70 36 -107 17 -151 -7 -18 -18 -81 -24 -140 -12 -115 -18 -145 -28 -138 -4 2 -8 -6 -9 -17 -4 -62 -23 -226 -29 -254 -3 -17 -1 -39 5 -50 9 -16 11 -14 12 12 1 17 1 41 0 54 -1 13 1 31 5 40 4 9 8 21 8 26 10 78 20 115 26 105 5 -8 10 -9 14 -2 3 6 2 13 -4 17 -13 8 -13 65 0 65 6 0 10 10 10 23 0 13 3 27 7 31 4 4 9 33 10 64 1 30 9 86 18 123 21 93 19 132 -11 214 -23 64 -26 91 -34 312 -12 321 -19 398 -40 463 -10 30 -23 79 -29 109 -6 29 -34 122 -61 205 -38 117 -57 159 -79 180 -16 16 -34 25 -40 21 -7 -4 -10 -1 -9 7 2 9 -9 13 -35 15 -20 0 -49 9 -63 18 -20 13 -28 14 -34 5 -6 -9 -10 -8 -17 5 -6 10 -13 13 -16 8 -10 -16 -52 -3 -68 20 -32 47 -76 86 -97 84 -19 -1 -20 -3 -6 -18z"/> <path d="M1105 3016 c-65 -49 -134 -114 -80 -76 42 30 155 122 155 126 0 7 -2 5 -75 -50z"/> <path d="M2020 3054 c0 -3 11 -15 25 -26 14 -11 23 -24 20 -29 -4 -5 9 -9 27 -9 18 0 48 -9 66 -20 l33 -20 -11 20 c-6 11 -16 20 -23 20 -7 0 -37 16 -67 35 -54 34 -70 41 -70 29z"/> <path d="M892 2947 c-18 -18 -32 -38 -32 -45 0 -7 -3 -12 -7 -12 -10 0 -133 -155 -133 -166 0 -5 -20 -29 -44 -54 -24 -25 -55 -65 -68 -90 -14 -25 -35 -62 -48 -83 -12 -21 -19 -41 -15 -45 3 -4 11 2 17 13 6 10 28 37 48 59 20 23 40 48 44 56 18 38 33 59 39 53 4 -3 7 -1 7 6 0 6 18 31 41 55 23 26 39 52 37 63 -2 12 2 17 13 15 15 -2 39 35 39 60 0 5 10 23 23 38 12 16 29 37 37 47 8 11 23 24 32 29 10 6 14 14 9 22 -5 8 -16 2 -39 -21z"/> <path d="M2040 2871 c14 -11 39 -21 55 -21 17 -1 43 -7 60 -14 l30 -12 -43 -11 c-25 -7 -39 -7 -36 -1 4 5 -7 7 -28 3 -48 -8 -167 -26 -210 -32 -53 -7 -47 -23 7 -23 25 0 45 5 45 10 0 6 7 10 15 10 8 0 15 -5 15 -11 0 -14 90 -4 159 17 52 15 100 19 86 5 -6 -4 -48 -21 -95 -36 -47 -16 -92 -31 -100 -33 -9 -4 -5 -7 12 -10 15 -2 36 2 47 7 11 6 33 11 50 11 17 0 31 5 31 11 0 6 7 9 15 5 9 -3 15 0 15 10 0 11 6 15 20 11 22 -6 28 21 9 40 -16 16 0 20 54 15 40 -3 46 -6 36 -18 -7 -8 -20 -12 -30 -9 -25 8 -24 -7 1 -23 17 -10 20 -10 20 4 0 13 3 14 14 5 9 -7 17 -8 20 -2 3 5 0 12 -6 14 -10 4 -10 6 0 6 34 2 18 -77 -23 -111 -11 -10 -14 -17 -8 -18 9 0 11 -13 7 -42 -3 -24 -1 -63 4 -88 8 -40 9 -34 9 45 -1 96 13 137 47 143 13 3 17 -1 13 -12 -4 -10 -1 -13 8 -10 7 3 16 -3 20 -15 3 -12 13 -21 20 -21 14 0 34 -38 65 -120 7 -19 18 -41 23 -47 6 -9 6 -13 -1 -13 -5 0 -19 15 -31 33 -11 17 -21 27 -21 21 0 -5 14 -31 30 -57 17 -26 30 -50 30 -54 0 -3 14 -21 30 -40 17 -18 30 -38 30 -44 0 -6 5 -7 11 -3 19 11 2 60 -56 160 -57 99 -62 109 -45 99 33 -21 -19 64 -81 132 -22 24 -39 47 -39 52 0 21 -61 46 -165 66 -60 13 -123 26 -140 30 l-30 7 25 -21z"/> <path d="M1850 2828 c0 -5 28 -8 63 -7 49 0 57 2 38 10 -26 10 -101 8 -101 -3z"/> <path d="M1033 2822 c-27 -17 -103 -87 -103 -94 0 -15 40 12 82 54 37 37 47 56 21 40z"/> <path d="M1205 2753 c-84 -30 -248 -116 -271 -141 -13 -15 -30 -41 -39 -59 -15 -30 -108 -113 -127 -113 -13 0 -2 16 68 96 66 76 89 112 80 122 -8 7 -56 -38 -56 -53 0 -6 -13 -24 -30 -40 -16 -16 -30 -37 -30 -47 0 -11 -4 -17 -9 -14 -10 7 -138 -132 -170 -184 -11 -19 -21 -44 -21 -55 0 -12 -9 -38 -20 -60 -22 -43 -25 -65 -10 -65 6 0 10 6 10 14 0 7 7 19 15 26 8 7 15 20 15 29 0 39 23 93 57 133 19 24 37 42 39 41 2 -1 29 9 59 22 31 14 63 25 71 25 32 0 113 53 155 101 23 26 46 46 51 43 5 -3 -2 -14 -14 -24 -20 -16 -21 -20 -9 -43 10 -19 11 -29 2 -39 -25 -30 -57 -74 -68 -95 -10 -17 -9 -22 2 -27 15 -5 19 4 16 35 -1 12 4 15 22 12 19 -4 26 1 37 26 14 36 35 42 25 9 -10 -32 -68 -117 -77 -112 -4 3 -12 -6 -19 -18 -7 -13 -19 -28 -28 -35 -14 -11 -14 -12 1 -13 47 -1 138 128 138 195 0 17 5 36 12 43 9 9 8 12 -5 12 -9 0 -17 -4 -17 -10 0 -5 -4 -10 -10 -10 -5 0 -10 6 -10 14 0 8 -6 16 -12 19 -9 3 -7 11 7 27 11 12 19 30 17 40 -3 17 44 57 55 46 8 -7 43 13 43 24 0 38 -107 -25 -174 -102 -26 -30 -66 -66 -89 -78 l-42 -24 35 41 c19 23 48 62 64 88 25 40 40 52 120 89 50 24 114 51 142 60 28 9 60 23 70 31 18 14 18 14 -6 14 -14 -1 -43 -8 -65 -16z"/> <path d="M2450 2755 c0 -8 5 -15 11 -15 6 0 8 -9 4 -22 -5 -21 -5 -21 5 -5 7 10 9 21 6 24 -3 4 -1 12 5 20 9 10 7 13 -10 13 -12 0 -21 -6 -21 -15z"/> <path d="M2230 2747 c-8 -7 -42 -24 -75 -38 -62 -25 -110 -27 -340 -18 -55 2 -77 -2 -98 -16 -36 -23 -28 -30 19 -15 26 9 60 10 113 4 106 -11 224 -9 279 7 53 14 121 57 122 77 0 15 -2 15 -20 -1z"/> <path d="M886 2715 c-9 -13 -16 -32 -15 -42 0 -14 2 -15 6 -3 3 8 15 27 25 43 11 15 15 27 10 27 -5 0 -17 -11 -26 -25z"/> <path d="M1258 2713 c-20 -5 -24 -23 -5 -23 24 0 57 12 57 21 0 9 -22 10 -52 2z"/> <path d="M2235 2707 c-25 -16 -48 -37 -39 -37 9 0 74 40 74 46 0 7 -14 3 -35 -9z"/> <path d="M1460 2675 c-13 -14 -31 -25 -39 -25 -13 1 -12 3 3 15 11 8 14 15 8 15 -20 0 -51 -37 -48 -57 3 -21 1 -21 49 7 35 21 64 56 55 66 -3 2 -15 -7 -28 -21z"/> <path d="M2326 2638 c4 -18 17 -59 30 -92 13 -32 30 -105 39 -162 8 -57 19 -114 24 -128 7 -16 5 -43 -4 -82 -8 -33 -14 -82 -15 -111 0 -61 -8 -85 -24 -76 -6 3 -6 1 2 -8 15 -16 16 -55 1 -65 -6 -3 -20 -26 -31 -50 -10 -24 -25 -44 -32 -44 -19 0 -36 -53 -36 -114 -1 -101 -59 -227 -181 -388 -68 -90 -242 -268 -263 -268 -5 0 -22 -12 -38 -27 -15 -14 -45 -33 -65 -41 -67 -25 -168 -49 -171 -40 -5 11 -62 10 -62 -1 0 -17 14 -20 107 -23 75 -2 95 1 110 15 11 9 28 17 39 17 11 0 29 17 44 40 13 22 28 40 34 40 5 0 17 7 27 16 16 15 17 13 9 -23 -4 -21 -13 -67 -20 -103 -6 -36 -22 -89 -36 -119 -13 -29 -24 -64 -24 -78 0 -13 -7 -26 -15 -29 -8 -4 -15 -18 -15 -33 -1 -44 -28 -144 -42 -152 -18 -11 -3 -23 16 -12 23 13 95 111 117 158 10 22 19 52 19 67 0 15 5 30 11 34 8 5 8 8 0 13 -8 6 -7 17 3 43 9 19 13 38 9 41 -3 4 2 18 11 31 9 14 16 34 16 45 0 15 5 19 17 14 10 -4 14 -2 10 4 -9 14 40 46 55 37 7 -4 8 -27 5 -65 -7 -60 -2 -77 41 -136 12 -17 22 -39 22 -48 0 -9 5 -13 10 -10 13 8 40 -12 40 -29 0 -6 -7 -2 -15 8 -8 11 -15 15 -15 9 0 -6 7 -16 15 -23 8 -7 15 -10 15 -6 0 15 43 -39 50 -63 11 -39 1 -93 -16 -87 -8 3 -14 1 -14 -4 0 -14 19 -22 38 -16 16 5 18 19 19 97 0 50 -4 85 -8 78 -4 -7 -5 -18 -2 -24 4 -5 -6 1 -20 14 -21 19 -24 27 -15 34 10 7 9 8 -2 4 -31 -10 -120 117 -120 171 0 24 61 146 80 157 5 3 11 1 15 -5 3 -5 1 -10 -4 -10 -6 0 -11 -12 -11 -26 0 -14 -4 -23 -10 -19 -13 8 -13 -21 1 -47 8 -15 8 -19 0 -13 -23 14 2 -50 33 -85 17 -19 35 -39 39 -45 5 -6 11 -5 16 4 19 30 124 -53 136 -108 4 -17 11 -31 16 -31 5 0 9 3 9 6 0 18 -34 120 -42 129 -7 7 -8 2 -3 -15 7 -22 6 -24 -9 -11 -9 8 -14 21 -11 29 4 10 0 12 -11 8 -18 -7 -49 7 -81 37 -13 11 -23 15 -23 9 0 -7 -4 -12 -10 -12 -5 0 -10 7 -10 15 0 8 -6 14 -12 13 -8 -2 -12 5 -10 17 9 74 10 88 1 74 -7 -11 -9 -9 -9 8 0 12 7 26 15 30 15 9 10 53 -6 53 -15 0 -10 48 7 64 13 13 14 32 8 110 -7 98 -3 109 34 99 16 -4 22 -13 22 -32 0 -15 6 -50 14 -79 12 -49 12 -52 -4 -47 -21 7 -33 -8 -48 -55 -11 -32 -10 -33 3 -16 8 11 15 23 15 28 0 4 5 8 11 8 7 0 9 -12 5 -35 -5 -24 -3 -35 5 -35 8 0 8 -4 1 -13 -18 -22 -32 -100 -21 -114 6 -6 8 -21 4 -32 -4 -15 -2 -19 7 -16 7 3 20 -8 30 -25 9 -16 22 -30 28 -30 7 0 3 14 -9 34 -31 50 -29 141 4 186 29 40 30 41 10 34 -9 -4 -15 0 -15 10 0 9 5 17 10 17 6 1 14 2 19 3 21 3 23 16 3 16 -19 0 -21 4 -16 33 4 23 3 28 -4 18 -8 -11 -12 -6 -17 23 -10 51 0 163 15 181 21 26 31 17 24 -22 -4 -26 -3 -35 4 -28 6 6 12 21 14 35 1 14 8 24 13 23 16 -3 18 -45 3 -54 -9 -6 -10 -11 -2 -16 6 -5 14 -31 17 -60 6 -50 18 -80 45 -115 17 -21 12 -49 -12 -67 -22 -17 -66 -108 -66 -138 0 -13 -4 -23 -10 -23 -5 0 -10 26 -10 58 0 40 -3 53 -10 42 -24 -37 -7 -138 25 -150 51 -19 107 -145 90 -201 -5 -14 -4 -19 4 -15 6 4 11 3 11 -3 0 -5 -8 -14 -17 -20 -18 -10 -29 -81 -12 -81 5 0 9 9 9 19 0 11 5 21 10 23 6 2 17 31 26 65 14 57 14 64 0 79 -9 8 -16 23 -16 32 0 10 -7 28 -16 40 -8 12 -12 22 -8 22 4 0 -1 9 -11 20 -10 11 -21 17 -25 15 -4 -2 -15 4 -24 14 -13 14 -15 24 -7 38 5 10 13 35 16 56 4 23 11 37 20 37 8 0 15 7 15 15 0 9 8 19 18 22 9 4 20 11 24 17 13 19 9 83 -6 95 -18 15 -46 133 -46 191 0 47 20 100 50 132 11 12 23 34 26 48 2 14 9 39 14 56 6 17 10 34 10 39 0 18 -18 -11 -29 -47 -7 -20 -18 -39 -26 -42 -8 -3 -15 -17 -15 -31 0 -14 -6 -25 -13 -25 -7 0 -17 -10 -22 -22 -15 -32 -32 -33 -38 -2 -4 21 1 32 19 47 13 10 24 23 24 29 0 6 14 41 32 76 31 66 52 172 30 158 -6 -4 -14 -23 -18 -44 -8 -47 -62 -179 -87 -214 -19 -25 -19 -39 -2 -80 6 -14 2 -18 -17 -18 -25 0 -50 -21 -61 -52 -7 -21 -35 -24 -43 -5 -2 8 15 49 39 93 57 101 85 182 91 262 4 57 21 100 34 87 3 -3 12 9 19 26 7 18 16 29 20 26 3 -4 0 -13 -7 -22 -7 -8 -9 -22 -6 -31 4 -9 2 -22 -3 -28 -6 -7 -4 -15 4 -23 10 -9 16 7 30 75 25 122 34 132 35 35 0 -45 5 -85 10 -88 6 -4 10 29 11 92 0 54 5 125 10 158 34 225 31 287 -18 375 -32 59 -85 196 -92 239 -4 19 -12 36 -18 38 -9 3 -11 -5 -7 -29z m128 -351 c2 -15 0 -29 -5 -32 -7 -5 -14 18 -7 28 1 1 -4 12 -10 23 -6 12 -8 24 -5 28 9 8 21 -13 27 -47z m-10 -239 c-28 -153 -39 -118 -19 57 2 17 9 55 17 85 l13 55 3 -50 c2 -27 -4 -94 -14 -147z m-322 -840 c5 -61 -14 -137 -42 -171 -6 -7 -19 -23 -30 -37 -16 -20 -21 -22 -29 -11 -14 22 -62 16 -82 -10 -21 -28 -39 -17 -21 12 12 19 11 19 -8 9 -18 -10 -20 -8 -20 22 0 28 12 44 78 108 43 41 91 92 106 112 16 21 32 36 36 33 4 -3 10 -33 12 -67z m-264 -420 c-1 -61 -56 -197 -79 -198 -13 0 12 94 41 156 17 35 33 64 35 64 2 0 3 -10 3 -22z"/> <path d="M730 2628 c-34 -37 -45 -51 -64 -82 -10 -16 -44 -57 -75 -91 -132 -144 -132 -144 -156 -295 -10 -63 -24 -116 -36 -132 -10 -15 -23 -46 -28 -70 -11 -48 -6 -151 9 -179 16 -28 12 -59 -12 -87 -13 -17 -19 -20 -15 -9 15 40 20 97 8 97 -13 0 -17 -17 -31 -135 -22 -178 -50 -332 -82 -443 -25 -91 -29 -115 -18 -122 8 -5 11 -18 7 -39 -5 -24 -3 -31 9 -31 14 0 15 10 9 71 -6 57 -5 70 6 64 9 -6 11 -3 5 10 -6 16 -4 16 10 4 16 -13 16 -12 4 10 -10 19 -10 32 0 65 7 23 16 46 21 52 5 6 13 53 18 105 16 148 30 209 62 279 28 60 29 70 21 123 -6 35 -5 75 0 100 5 23 9 52 9 64 0 12 6 40 14 63 8 22 22 87 31 143 11 66 25 115 41 139 12 21 23 40 23 43 0 9 41 47 46 42 8 -8 -8 -37 -17 -31 -5 3 -9 0 -9 -6 0 -7 -9 -25 -20 -41 -27 -37 -51 -158 -36 -182 8 -12 7 -26 -2 -49 -7 -20 -8 -36 -2 -42 15 -15 23 20 16 78 -7 64 11 131 54 199 16 26 30 60 30 75 0 19 14 40 45 71 25 24 59 67 77 95 17 28 41 61 52 74 11 12 14 22 8 22 -7 0 -21 -10 -32 -22z"/> <path d="M1128 2584 c-21 -9 -38 -20 -38 -25 0 -12 3 -12 36 6 20 10 42 13 69 9 27 -4 37 -3 30 4 -18 19 -60 22 -97 6z"/> <path d="M2071 2581 c-25 -22 -21 -42 7 -35 10 3 17 15 17 30 0 13 0 24 -1 24 -1 0 -11 -9 -23 -19z"/> <path d="M1133 2543 c-7 -2 -13 -9 -13 -14 0 -14 24 -11 46 6 19 14 19 14 -1 14 -11 0 -26 -3 -32 -6z"/> <path d="M2213 2521 c-30 -15 -45 -41 -24 -41 5 0 23 -13 40 -29 38 -36 41 -28 4 11 l-27 28 24 25 c13 14 22 24 19 24 -2 -1 -19 -9 -36 -18z"/> <path d="M2078 2514 c-11 -11 -13 -20 -7 -28 5 -6 15 -18 22 -27 7 -9 26 -20 42 -23 l30 -7 -33 21 c-39 24 -49 45 -32 65 17 20 -2 19 -22 -1z"/> <path d="M1138 2455 c-21 -14 -42 -35 -49 -46 -10 -20 -9 -20 23 3 62 44 90 68 76 68 -7 0 -30 -11 -50 -25z"/> <path d="M1325 2440 c-31 -12 -47 -37 -41 -58 4 -13 1 -22 -9 -26 -16 -6 -21 -46 -5 -46 6 0 10 7 10 15 0 8 5 15 10 15 6 0 10 8 10 19 0 22 52 79 68 73 7 -2 12 1 12 7 0 13 -26 13 -55 1z"/> <path d="M1137 2394 c-21 -14 -47 -39 -57 -57 -25 -40 -26 -72 -2 -38 9 14 39 47 66 73 53 53 51 60 -7 22z"/> <path d="M2162 2397 c-6 -6 -14 -25 -18 -40 -6 -26 -5 -28 12 -17 12 7 19 23 19 41 0 34 1 33 -13 16z"/> <path d="M794 2386 c-28 -21 -14 -27 29 -12 20 7 34 16 30 19 -11 11 -38 8 -59 -7z"/> <path d="M1146 2365 c-37 -40 -86 -141 -88 -179 -1 -19 -5 -33 -9 -30 -4 2 -10 -13 -12 -33 -3 -21 -4 -13 -2 17 1 30 6 66 10 80 8 24 8 25 -12 7 -11 -10 -33 -20 -49 -23 -15 -3 -31 -7 -36 -10 -4 -3 -34 -5 -67 -5 -32 0 -70 -7 -85 -14 -26 -14 -43 -5 -30 16 10 17 69 39 104 39 16 0 30 5 30 10 0 6 -16 10 -35 10 -24 0 -35 5 -35 15 0 22 4 30 13 27 4 -1 16 2 26 8 14 7 22 6 31 -5 7 -8 17 -12 22 -9 5 3 0 13 -12 21 -41 29 -140 -5 -140 -48 0 -12 -5 -19 -12 -16 -7 2 -18 -3 -25 -12 -17 -22 -16 -36 2 -21 23 19 19 -2 -15 -77 -35 -77 -36 -99 -10 -173 11 -30 19 -67 20 -82 0 -15 5 -30 10 -33 20 -12 20 22 0 86 -20 63 -28 177 -10 134 5 -11 9 -33 9 -48 1 -15 16 -56 34 -90 30 -58 32 -68 32 -167 0 -102 -1 -107 -39 -185 -45 -91 -52 -106 -37 -85 9 12 11 11 11 -8 0 -16 -5 -22 -17 -20 -16 3 -18 -10 -21 -131 l-3 -135 -35 -43 c-20 -24 -39 -41 -44 -38 -5 3 -12 0 -16 -6 -5 -8 -2 -10 7 -5 8 4 6 1 -5 -6 -52 -36 -70 -55 -103 -106 -19 -32 -43 -61 -52 -67 -23 -14 -113 -44 -132 -45 -9 0 -33 -14 -54 -30 -41 -33 -45 -35 -45 -20 0 8 69 80 102 106 7 6 19 9 26 6 6 -2 12 3 12 12 0 22 -28 20 -68 -4 -22 -14 -32 -26 -28 -36 3 -8 2 -13 -3 -9 -13 7 -41 -5 -41 -19 0 -6 -9 -22 -20 -36 -20 -26 -26 -55 -12 -64 4 -2 29 9 55 25 25 16 76 36 112 45 79 20 140 65 169 125 13 28 42 59 77 86 30 23 69 61 85 84 27 40 29 49 32 157 3 93 7 120 23 141 10 14 30 63 44 109 14 45 27 82 28 82 7 0 4 -97 -3 -105 -5 -6 -11 -27 -14 -46 -3 -19 -9 -48 -15 -66 -5 -17 -10 -135 -10 -262 0 -127 -5 -251 -11 -275 -17 -77 -50 -155 -73 -171 -15 -11 -18 -18 -10 -26 12 -12 44 27 63 75 5 14 14 26 19 26 6 0 8 6 5 14 -3 8 -1 23 6 33 9 15 10 9 7 -29 -3 -27 -1 -48 3 -48 14 0 20 103 19 345 -1 250 2 290 28 415 9 43 17 127 17 195 l1 121 24 -29 c25 -30 48 -30 85 2 11 9 17 11 13 5 -12 -21 55 -72 98 -76 28 -2 41 -8 43 -20 2 -11 -3 -18 -12 -18 -17 0 -22 -15 -7 -24 13 -8 38 3 45 20 3 8 2 24 -3 36 -7 19 -16 23 -56 23 -37 1 -51 5 -66 24 -28 35 -23 61 23 130 31 46 42 72 42 103 1 24 -4 43 -11 45 -8 3 -13 -4 -13 -16 0 -11 -5 -23 -11 -27 -6 -3 -8 -17 -4 -33 4 -14 3 -23 0 -19 -4 4 -22 -24 -41 -62 -47 -98 -91 -117 -131 -55 -13 19 -23 37 -23 39 0 2 -13 18 -29 35 -43 46 -65 110 -57 164 8 53 27 72 79 80 38 6 39 5 32 -20 -16 -66 -16 -82 0 -106 17 -26 89 -62 106 -51 15 9 0 24 -25 24 -47 0 -75 60 -52 113 11 28 21 36 51 41 20 4 43 10 52 13 12 5 14 -5 10 -65 -4 -56 -2 -74 10 -84 14 -11 15 -9 8 21 -6 28 -5 33 8 28 18 -7 22 4 32 73 11 73 74 192 112 211 18 9 30 19 26 23 -13 12 -34 5 -57 -19z"/> <path d="M1620 2360 c0 -10 17 -19 68 -34 16 -5 22 -3 22 8 0 9 -15 19 -37 25 -47 13 -53 14 -53 1z"/> <path d="M753 2343 c-7 -2 -13 -9 -13 -15 0 -14 43 -6 48 10 4 12 -12 15 -35 5z"/> <path d="M1720 2336 c0 -8 6 -16 13 -19 20 -7 1 -18 -42 -24 -51 -7 -53 -19 -3 -28 20 -3 47 -9 60 -12 31 -7 28 13 -5 24 l-26 9 31 13 c18 8 32 17 32 22 0 5 10 3 23 -5 12 -8 39 -18 59 -21 67 -13 70 -33 8 -62 -14 -6 -18 -12 -10 -12 8 -1 28 6 44 14 36 19 50 19 42 0 -3 -8 -1 -15 4 -15 5 0 6 -7 3 -17 -4 -11 -3 -14 5 -9 16 10 15 57 -2 78 -19 25 -187 80 -203 66 -9 -7 -13 -7 -13 1 0 6 -4 11 -10 11 -5 0 -10 -6 -10 -14z"/> <path d="M2261 2337 c-31 -39 -19 -136 17 -133 12 1 18 -8 20 -31 2 -18 8 -33 13 -33 19 0 -1 54 -32 82 -24 22 -30 34 -24 51 3 12 7 28 7 35 1 6 7 12 13 12 6 0 12 7 12 15 0 19 -11 19 -26 2z"/> <path d="M1173 2323 c4 -17 1 -23 -11 -23 -14 0 -14 -2 -3 -9 9 -6 11 -18 7 -36 -11 -41 12 -20 23 23 9 30 8 39 -5 52 -15 14 -16 13 -11 -7z"/> <path d="M666 2256 c-25 -30 -46 -58 -46 -62 0 -5 7 2 16 15 13 18 18 20 25 10 6 -10 9 -8 9 8 0 12 6 27 13 33 6 6 23 19 36 30 17 14 20 20 9 20 -9 0 -36 -24 -62 -54z"/> <path d="M2546 2295 c-3 -8 -1 -15 4 -15 6 0 10 -29 10 -65 0 -36 4 -65 9 -65 11 0 19 -91 26 -290 5 -146 9 -173 40 -288 16 -62 14 -140 -4 -171 -16 -26 -70 88 -87 184 l-12 70 2 -65 c2 -47 11 -80 31 -120 26 -52 49 -166 35 -172 -12 -5 -22 -78 -11 -78 11 0 20 25 25 70 1 14 11 41 21 60 14 26 20 59 21 127 2 51 -2 95 -7 98 -5 4 -9 14 -9 23 0 15 2 15 10 2 8 -13 10 -13 10 2 0 9 -6 23 -14 31 -14 14 -20 61 -31 262 -9 167 -18 245 -26 251 -5 3 -9 27 -9 53 0 87 -18 137 -34 96z"/> <path d="M1594 2285 c-4 -9 -4 -18 -2 -21 9 -8 39 8 35 19 -6 18 -27 20 -33 2z"/> <path d="M1134 2246 c-6 -25 -1 -112 11 -177 4 -23 3 -39 -4 -43 -6 -4 -11 -20 -11 -36 0 -16 -4 -32 -10 -35 -5 -3 -10 -15 -10 -26 0 -10 5 -19 10 -19 6 0 10 -6 10 -14 0 -19 19 -31 31 -19 6 6 4 15 -6 23 -19 16 -19 40 1 104 28 87 34 96 31 46 -2 -25 -7 -53 -11 -62 -5 -10 -4 -18 1 -18 12 0 33 59 33 91 0 13 -7 37 -15 53 -8 15 -15 44 -15 62 0 19 -5 34 -11 34 -8 0 -9 -18 -4 -57 5 -47 4 -56 -6 -46 -8 8 -12 38 -11 88 1 77 -3 93 -14 51z"/> <path d="M1799 2233 c-3 -31 4 -135 10 -165 7 -31 6 -37 -10 -41 -11 -3 -22 -1 -25 4 -7 13 -54 11 -54 -2 0 -5 5 -7 10 -4 6 3 10 1 10 -5 0 -8 -7 -9 -17 -5 -43 18 -56 18 -50 3 4 -12 1 -14 -14 -11 -19 5 -19 6 -2 26 17 20 17 20 0 14 -10 -4 -21 -7 -23 -7 -2 0 -4 -7 -4 -15 0 -8 -4 -15 -10 -15 -5 0 -10 -5 -10 -10 0 -6 40 -9 105 -8 86 1 105 4 105 16 0 9 7 24 17 34 11 12 12 18 3 18 -8 0 -11 10 -8 30 3 20 0 31 -11 35 -12 5 -13 8 -3 14 9 5 11 20 6 50 -6 36 -23 66 -25 44z"/> <path d="M2516 2208 c-3 -13 -9 -68 -12 -123 -5 -95 -5 -99 10 -71 10 17 16 52 16 86 0 33 4 70 9 84 7 18 6 27 -3 35 -11 9 -15 6 -20 -11z"/> <path d="M1558 2129 c40 -39 75 -69 78 -66 4 3 -14 26 -40 51 l-45 45 32 5 c18 3 50 7 72 8 34 3 40 0 40 -17 1 -38 14 -46 42 -28 l25 17 -27 24 c-25 21 -36 23 -114 21 -47 -1 -97 1 -111 5 -18 6 -6 -11 48 -65z"/> <path d="M616 2161 c-25 -26 -27 -34 -23 -92 l3 -64 2 67 c2 55 6 69 21 78 16 8 20 6 24 -8 3 -9 5 -2 6 16 0 17 0 32 -2 32 -2 0 -16 -13 -31 -29z"/> <path d="M2207 2163 c-4 -3 -7 -13 -7 -20 0 -16 -3 -21 -62 -87 l-42 -48 -8 -147 c-5 -80 -11 -173 -16 -206 -7 -59 -8 -60 -49 -79 -48 -22 -49 -24 -28 -52 14 -18 16 -18 26 -1 5 9 18 17 28 17 32 0 47 31 49 105 1 39 7 82 13 97 6 16 9 38 6 50 -4 14 0 30 11 42 12 14 14 20 5 23 -7 3 -13 19 -13 36 1 31 1 32 18 12 26 -29 79 -57 87 -45 3 5 2 10 -3 10 -17 0 -93 66 -107 93 -8 15 -10 25 -5 22 6 -4 10 0 10 8 0 21 29 42 59 42 14 0 27 5 29 10 1 6 -2 10 -8 10 -5 0 -9 5 -7 10 1 6 6 9 10 7 4 -1 15 4 23 13 9 8 24 15 34 15 32 0 33 19 1 38 -17 9 -31 20 -31 25 0 9 -14 9 -23 0z"/> <path d="M1640 2119 c5 -18 12 -34 14 -37 5 -5 74 -5 96 0 8 2 14 -3 15 -9 0 -7 3 -13 8 -13 9 0 10 5 2 41 -6 28 -8 29 -24 15 -23 -21 -73 -22 -65 -1 4 10 0 15 -15 15 -12 0 -21 5 -21 10 0 6 -4 10 -9 10 -6 0 -6 -12 -1 -31z"/> <path d="M926 2098 c-6 -28 -2 -48 8 -37 10 11 17 69 8 69 -5 0 -12 -14 -16 -32z"/> <path d="M2236 2043 c-3 -3 3 -12 13 -20 19 -13 61 -89 61 -111 0 -7 5 -12 10 -12 17 0 11 28 -14 77 -25 46 -58 78 -70 66z"/> <path d="M546 1984 c4 -27 12 -66 20 -88 7 -21 10 -45 7 -54 -4 -10 -2 -13 5 -8 7 4 14 -3 18 -18 3 -13 14 -32 25 -42 17 -15 19 -15 25 0 9 24 -2 60 -36 113 -17 26 -33 65 -37 85 -3 21 -12 43 -19 49 -12 10 -13 3 -8 -37z"/> <path d="M1537 2014 c-11 -12 4 -24 29 -24 17 0 23 -4 18 -12 -5 -10 -4 -10 6 -1 18 17 5 43 -23 43 -13 0 -27 -3 -30 -6z"/> <path d="M2140 1980 c0 -5 13 -10 29 -10 26 0 30 -4 33 -32 2 -17 8 -33 14 -35 7 -2 10 6 6 24 -4 23 -2 26 9 16 7 -8 13 -34 12 -63 -1 -42 2 -50 18 -50 10 0 21 5 24 10 3 6 -1 10 -9 10 -20 0 -21 16 -1 24 25 9 17 42 -19 80 -28 30 -40 36 -75 36 -22 0 -41 -4 -41 -10z"/> <path d="M1070 1909 c0 -9 -9 -25 -20 -37 -12 -12 -18 -22 -14 -22 3 0 0 -7 -7 -16 -14 -17 -4 -29 44 -55 23 -13 23 9 0 26 -15 11 -15 17 -3 59 7 26 10 49 6 53 -3 3 -6 0 -6 -8z"/> <path d="M1150 1850 c0 -6 7 -13 15 -16 8 -4 15 -14 15 -24 0 -11 5 -22 10 -25 15 -9 12 37 -4 58 -14 19 -36 23 -36 7z"/> <path d="M2163 1829 c1 -11 7 -19 14 -19 8 0 16 -7 19 -15 4 -8 12 -15 20 -15 19 0 18 16 -2 24 -8 3 -13 9 -10 14 2 4 -6 12 -19 18 -20 10 -23 9 -22 -7z"/> <path d="M736 1818 c-3 -7 -7 -35 -10 -63 -7 -56 -47 -125 -74 -125 -16 -1 -16 -1 1 -11 22 -13 32 -6 61 39 30 48 48 101 39 116 -13 20 -12 36 3 36 8 0 14 5 14 10 0 14 -30 12 -34 -2z"/> <path d="M1130 1807 c0 -7 5 -18 11 -24 6 -6 13 -39 16 -73 4 -39 9 -57 14 -48 15 23 10 77 -11 118 -21 41 -30 49 -30 27z"/> <path d="M566 1783 c4 -10 7 -31 6 -48 -1 -16 -3 -42 -3 -57 -1 -16 -5 -28 -9 -28 -12 0 -19 26 -14 52 4 17 3 19 -4 8 -15 -24 -24 -73 -12 -65 12 8 13 -5 0 -25 -7 -12 -11 -10 -19 10 -5 14 -10 19 -10 12 -1 -7 4 -22 9 -32 13 -23 -29 -149 -90 -274 -44 -92 -48 -105 -23 -85 15 13 16 11 9 -16 -4 -16 -12 -33 -18 -36 -6 -4 -12 -31 -14 -60 -2 -30 -1 -46 2 -36 3 9 11 17 17 17 7 0 24 15 39 34 22 28 26 39 19 58 l-10 23 0 -26 c-1 -24 -30 -69 -45 -69 -12 0 -6 31 7 36 8 3 14 19 15 36 0 17 6 36 11 41 17 17 13 30 -5 23 -13 -5 -14 -3 -7 6 6 7 23 49 38 93 16 44 32 85 36 90 4 6 20 42 35 80 15 39 39 88 54 111 24 37 26 42 11 52 -14 9 -13 10 5 6 22 -6 53 21 39 34 -4 4 -10 1 -12 -5 -3 -7 -9 -13 -15 -13 -6 0 -8 7 -4 15 3 8 1 15 -4 15 -6 0 -10 9 -10 20 0 12 -7 20 -16 20 -12 0 -14 -5 -8 -17z"/> <path d="M774 1703 c-17 -54 -29 -80 -42 -95 -8 -9 -12 -22 -10 -29 6 -18 47 55 57 102 9 39 5 54 -5 22z"/> <path d="M1775 1640 c-25 -11 -23 -12 48 -15 43 -2 57 0 57 11 0 16 -71 19 -105 4z"/> <path d="M2470 1624 c-6 -14 -13 -43 -16 -64 -4 -22 -13 -45 -20 -51 -8 -6 -14 -19 -14 -27 0 -12 5 -9 18 8 l17 25 5 -45 c3 -25 2 -55 -2 -68 -4 -13 -8 -65 -8 -116 0 -69 4 -97 16 -112 15 -18 15 -18 10 6 -17 68 -18 84 -11 147 8 67 8 67 16 28 4 -22 10 -89 14 -150 l7 -110 -21 30 c-12 17 -21 25 -21 18 0 -6 4 -14 9 -17 18 -11 29 -114 17 -161 -6 -28 -6 -28 9 5 9 19 15 47 12 63 -2 15 -2 27 -1 27 9 0 35 -71 29 -79 -4 -7 0 -8 11 -4 14 5 16 3 11 -12 -6 -15 -5 -16 7 -6 13 11 13 8 4 -21 -6 -18 -19 -51 -29 -74 -11 -23 -19 -62 -19 -88 0 -34 -4 -46 -15 -46 -11 0 -15 -11 -15 -40 0 -29 4 -40 15 -40 8 0 15 -5 15 -11 0 -6 -9 -9 -20 -6 -18 5 -20 0 -20 -56 0 -34 5 -69 11 -77 7 -11 8 2 3 43 -5 45 -3 57 8 57 10 0 13 -17 10 -78 -5 -125 -18 -135 -52 -39 -29 78 -40 91 -40 46 0 -19 4 -39 9 -44 6 -6 23 -35 39 -65 16 -30 36 -55 43 -55 8 0 17 -4 21 -10 4 -5 8 48 9 120 2 241 9 348 25 390 21 52 21 154 -1 192 -16 27 -16 27 -12 3 3 -14 8 -33 12 -42 4 -11 3 -18 -4 -18 -18 0 -30 44 -42 148 -5 53 -19 151 -30 217 -21 132 -24 220 -9 259 5 14 7 26 5 26 -3 0 -10 -12 -15 -26z"/> <path d="M1929 1621 c12 -8 10 -11 -10 -15 -13 -3 -37 -7 -53 -8 -42 -4 -44 -25 -2 -30 26 -3 39 1 51 15 11 12 24 17 39 13 12 -3 35 -2 51 3 l30 8 -40 8 c-22 3 -49 9 -60 12 -16 3 -17 2 -6 -6z"/> <path d="M555 1535 c-19 -41 -39 -75 -45 -75 -5 0 -10 -12 -10 -27 0 -16 -9 -43 -20 -61 -22 -36 -24 -42 -12 -42 5 0 14 10 20 23 6 12 11 16 11 10 1 -7 6 -13 11 -13 6 0 10 22 10 49 0 28 5 53 10 56 6 4 18 24 27 46 8 21 19 39 24 39 5 0 9 9 9 19 0 30 17 34 40 11 21 -21 22 -21 35 -3 22 28 18 36 -15 30 -16 -4 -32 -2 -35 3 -14 22 -28 6 -60 -65z"/> <path d="M1924 1563 c-17 -3 -23 -14 -27 -51 -4 -26 -10 -58 -13 -72 l-7 -25 27 24 c25 23 38 59 16 46 -6 -4 -10 6 -9 22 0 15 3 22 6 16 7 -18 23 -16 23 2 0 9 7 18 15 21 8 4 15 10 15 15 0 9 -8 10 -46 2z"/> <path d="M580 1503 c-30 -50 -34 -98 -17 -218 13 -94 14 -98 27 -73 11 24 10 37 -5 93 -19 73 -15 146 11 197 23 44 10 45 -16 1z"/> <path d="M630 1531 c0 -5 5 -11 11 -13 9 -3 9 -10 0 -27 -21 -38 3 -50 33 -18 13 14 21 29 18 32 -4 3 0 10 8 15 11 7 11 10 2 10 -7 0 -16 -8 -19 -17 -7 -20 -28 -43 -38 -43 -3 0 1 13 9 29 14 26 14 30 0 35 -21 8 -24 8 -24 -3z"/> <path d="M1690 1469 c-11 -7 -6 -8 19 -4 24 5 31 4 27 -4 -4 -6 -4 -11 1 -10 44 9 113 -44 113 -85 0 -24 -15 -19 -28 9 -7 15 -20 25 -32 25 -11 0 -20 6 -20 14 0 8 -22 18 -60 25 -33 7 -62 16 -65 21 -11 19 -74 11 -85 -9 -5 -11 -10 -21 -10 -23 0 -2 24 -1 54 0 67 5 157 -32 207 -84 31 -32 32 -35 16 -51 -18 -18 -11 -20 -107 33 -34 18 -54 23 -80 19 -62 -11 -70 -15 -70 -42 0 -20 4 -24 18 -18 9 4 36 12 60 17 35 8 47 7 61 -6 10 -9 21 -13 26 -9 4 5 5 0 2 -9 -4 -12 -1 -18 8 -18 21 0 18 -23 -6 -49 -18 -19 -20 -27 -10 -47 6 -14 11 -29 11 -34 0 -17 -18 -11 -23 8 -2 9 -3 4 -2 -11 2 -29 -25 -54 -45 -42 -6 3 -10 1 -10 -6 0 -8 -5 -6 -13 4 -9 13 -20 16 -45 11 -25 -5 -30 -9 -20 -16 9 -7 7 -8 -8 -5 -16 3 -21 0 -19 -12 2 -18 20 -18 103 -3 70 12 84 28 91 102 3 33 8 60 11 60 13 -3 40 14 40 24 0 7 17 24 38 37 24 16 36 31 34 43 -2 9 2 24 8 31 9 10 7 18 -9 34 -12 12 -21 25 -21 30 0 4 -17 20 -38 35 -40 27 -95 34 -122 15z"/> <path d="M2135 1459 c-16 -10 -40 -19 -52 -19 -16 0 -21 -4 -17 -15 4 -10 0 -15 -12 -15 -33 0 -81 -43 -110 -97 -15 -30 -43 -71 -61 -92 -18 -22 -33 -42 -33 -45 0 -15 71 75 100 127 38 67 72 97 111 97 16 0 29 5 29 11 0 5 3 8 8 5 8 -5 29 10 56 42 23 26 20 27 -19 1z"/> <path d="M634 1429 c-4 -7 -7 -58 -8 -114 l-1 -102 23 15 c15 10 21 20 16 31 -15 37 -25 99 -22 139 3 45 3 48 -8 31z"/> <path d="M2284 1275 c9 -67 30 -88 23 -22 -2 27 -10 54 -17 60 -10 10 -11 2 -6 -38z"/> <path d="M480 1271 c-9 -23 -10 -38 -3 -54 10 -21 11 -19 21 17 15 52 0 81 -18 37z"/> <path d="M296 1255 c-3 -9 -6 -24 -5 -33 0 -14 2 -13 9 3 8 19 9 19 9 -2 1 -12 6 -25 11 -28 11 -7 4 37 -10 64 -6 10 -8 10 -14 -4z"/> <path d="M2750 1226 c0 -5 10 -21 21 -38 12 -17 22 -43 23 -58 1 -16 3 -27 5 -24 2 2 13 -13 23 -33 11 -20 26 -43 34 -51 27 -26 27 -3 2 36 -14 21 -36 61 -48 89 -19 46 -60 99 -60 79z"/> <path d="M2732 1127 c0 -58 -3 -80 -16 -92 -37 -37 -29 -96 11 -81 17 7 17 8 1 17 -19 11 -24 44 -8 54 6 3 10 1 10 -4 0 -6 3 -11 8 -11 17 0 21 165 4 182 -8 8 -11 -7 -10 -65z"/> <path d="M480 1159 c-19 -16 -34 -36 -32 -44 2 -9 -5 -15 -18 -15 -11 0 -23 -8 -27 -17 -3 -10 -17 -33 -30 -51 -14 -18 -23 -35 -20 -38 7 -8 67 30 67 42 0 18 69 75 116 95 23 10 47 26 54 34 11 13 9 13 -23 0 -19 -8 -37 -11 -41 -8 -3 4 -6 -1 -6 -10 0 -9 -4 -17 -9 -17 -5 0 -18 -3 -28 -6 -15 -5 -15 -3 3 13 17 14 40 54 31 53 -1 -1 -18 -14 -37 -31z"/> <path d="M644 1080 c-44 -47 -92 -106 -107 -131 -27 -48 -59 -73 -170 -133 -55 -30 -73 -47 -96 -88 -49 -86 -49 -163 0 -275 28 -64 20 -97 -28 -128 -18 -11 -33 -27 -33 -35 -1 -10 -3 -11 -7 -2 -8 21 -23 2 -23 -31 0 -44 15 -67 23 -35 4 12 29 48 58 78 50 53 51 55 45 102 -4 26 -15 66 -26 90 -13 29 -20 65 -20 110 0 64 2 69 43 120 56 69 206 164 224 142 9 -13 12 -10 18 18 4 18 13 48 21 66 7 18 14 36 16 40 7 19 34 42 50 42 11 0 18 8 18 20 0 11 4 20 9 20 12 0 74 78 69 87 -1 5 -39 -30 -84 -77z"/> <path d="M737 1133 c-4 -3 -7 -16 -7 -28 0 -13 -7 -28 -15 -35 -8 -7 -22 -35 -30 -63 -19 -63 -18 -70 1 -34 22 40 27 28 13 -29 -15 -62 -41 -113 -74 -143 -27 -25 -31 -36 -15 -46 27 -17 119 145 125 220 1 11 5 53 10 93 7 69 6 80 -8 65z"/> <path d="M1197 1114 c-9 -9 4 -34 18 -34 6 0 20 -9 30 -20 17 -19 45 -27 45 -14 0 4 -8 13 -17 21 -17 13 -16 14 5 8 13 -4 22 -2 22 4 0 6 -9 11 -20 11 -12 0 -34 7 -49 15 -16 8 -31 12 -34 9z"/> <path d="M2290 1085 c-12 -20 -20 -38 -17 -41 2 -3 15 11 27 31 12 20 20 38 17 41 -2 3 -15 -11 -27 -31z"/> <path d="M510 1065 c-18 -19 -32 -37 -29 -39 2 -3 20 13 40 35 44 48 35 52 -11 4z"/> <path d="M1420 1084 c0 -14 -3 -14 -15 -4 -11 9 -15 9 -15 1 0 -7 -4 -9 -10 -6 -6 3 -10 -4 -9 -17 0 -13 3 -18 5 -11 3 7 12 9 20 6 8 -3 21 3 29 13 9 13 31 21 72 25 l58 6 -67 2 c-57 1 -68 -2 -68 -15z"/> <path d="M1450 1075 c0 -2 17 -12 38 -22 20 -9 43 -23 50 -30 7 -7 18 -13 23 -13 5 0 0 9 -11 20 -11 11 -25 20 -31 20 -5 0 -8 4 -5 9 3 5 -4 11 -17 15 -26 7 -47 8 -47 1z"/> <path d="M1310 1052 c0 -24 48 -68 82 -76 22 -5 30 -2 39 16 11 21 11 22 -4 10 -21 -18 -52 -1 -72 38 -17 33 -45 40 -45 12z"/> <path d="M1720 1029 c-14 -6 -37 -9 -52 -6 -28 4 -39 -7 -15 -16 12 -4 94 17 105 27 8 9 -10 6 -38 -5z"/> <path d="M437 985 c-10 -14 -23 -25 -29 -25 -6 0 -5 7 3 17 13 15 12 15 -8 3 -18 -12 -29 -50 -13 -50 3 0 25 18 50 40 25 22 38 39 30 39 -8 0 -23 -11 -33 -24z"/> <path d="M2774 968 c-10 -43 -5 -300 6 -312 5 -5 16 -6 25 -2 13 5 16 19 13 85 -2 43 -6 77 -10 75 -12 -7 -20 77 -13 132 7 60 -8 76 -21 22z"/> <path d="M229 953 c-40 -36 -77 -99 -65 -110 3 -3 10 6 16 21 5 15 31 49 56 76 55 59 51 65 -7 13z"/> <path d="M1426 954 c-9 -23 -8 -23 19 -20 31 3 34 17 7 27 -14 5 -22 3 -26 -7z"/> <path d="M2357 943 c-13 -12 -7 -61 9 -74 8 -7 22 -26 30 -42 9 -16 18 -26 21 -23 3 3 -4 21 -16 41 -11 20 -21 43 -21 51 0 8 -4 12 -10 9 -14 -9 -12 19 2 33 7 7 8 12 2 12 -6 0 -14 -3 -17 -7z"/> <path d="M1380 905 c-5 -14 -16 -25 -24 -25 -15 0 -19 -10 -31 -67 -5 -24 -2 -36 14 -52 12 -12 21 -25 21 -29 0 -5 17 -16 37 -26 l37 -18 -47 45 c-41 40 -47 51 -47 86 0 41 14 62 24 36 3 -8 3 -29 -1 -46 -6 -30 -5 -31 18 -18 14 7 19 14 11 17 -17 5 -15 57 3 92 9 18 11 30 5 30 -6 0 -15 -11 -20 -25z"/> <path d="M2463 892 c-6 -21 -7 -58 -3 -83 4 -24 8 -39 9 -34 2 16 7 155 5 155 -1 0 -6 -17 -11 -38z"/> <path d="M2842 870 c-6 -25 -6 -42 -1 -46 6 -3 7 -14 4 -25 -4 -13 -2 -19 9 -19 18 0 22 25 6 35 -7 4 -8 24 -4 51 8 55 0 57 -14 4z"/> <path d="M616 861 c-16 -17 -58 -44 -94 -61 -97 -45 -136 -80 -160 -146 -12 -30 -22 -70 -22 -88 0 -18 -5 -37 -11 -43 -7 -7 1 -31 27 -80 33 -64 35 -74 25 -105 -7 -20 -24 -41 -42 -52 -58 -34 -70 -51 -58 -86 13 -35 29 -40 29 -7 0 28 26 67 46 67 8 0 23 15 35 33 16 26 19 42 14 82 -3 28 -6 59 -6 70 0 11 -7 31 -15 44 -10 14 -16 46 -16 80 -1 63 16 98 58 126 19 12 23 21 18 38 -5 17 -4 19 6 10 10 -9 28 -1 84 38 103 71 119 85 115 98 -3 7 -16 0 -33 -18z"/> <path d="M2870 878 c0 -8 5 -19 11 -25 13 -13 39 -109 39 -148 0 -16 5 -37 11 -45 18 -25 0 126 -21 175 -19 44 -40 67 -40 43z"/> <path d="M1541 793 c17 -35 26 -43 48 -42 14 0 19 3 11 6 -8 3 -30 21 -47 41 l-33 37 21 -42z"/> <path d="M1961 785 c0 -21 9 -37 28 -52 29 -23 29 -23 34 -2 4 15 2 19 -9 15 -8 -3 -14 0 -14 7 0 7 -9 23 -20 37 l-20 25 1 -30z"/> <path d="M196 748 c-21 -33 -46 -134 -46 -190 0 -63 18 -144 36 -159 20 -16 19 3 -2 44 -12 21 -13 32 -5 35 15 5 14 31 -3 80 -17 46 -4 67 16 28 12 -24 13 -23 13 22 0 26 4 60 8 75 5 19 4 27 -3 22 -14 -9 -13 1 5 35 18 35 2 41 -19 8z"/> <path d="M535 750 c-51 -33 -65 -44 -65 -53 0 -4 -10 -18 -21 -30 -25 -25 -63 -106 -55 -114 3 -3 13 9 23 27 10 18 26 40 36 49 9 8 17 20 17 25 0 14 73 80 90 80 8 1 16 9 18 19 4 21 -5 21 -43 -3z"/> <path d="M1420 760 c0 -16 83 -60 113 -60 9 0 17 -4 17 -10 0 -5 7 -7 16 -3 13 5 13 7 2 14 -7 5 -23 9 -35 9 -25 0 -82 29 -100 50 -11 13 -12 13 -13 0z"/> <path d="M2233 752 c4 -17 2 -22 -8 -18 -8 3 -17 1 -20 -4 -4 -6 5 -10 19 -10 21 0 27 -7 37 -42 7 -24 11 -60 10 -81 -1 -27 2 -38 10 -35 7 2 15 10 17 18 3 7 0 10 -7 6 -7 -5 -11 1 -11 13 0 12 4 21 10 21 6 0 6 9 0 26 -6 14 -10 36 -10 49 0 13 -12 37 -26 52 -25 27 -25 27 -21 5z"/> <path d="M763 735 c-6 -11 -13 -33 -17 -48 -4 -17 -17 -32 -34 -38 -24 -10 -25 -12 -8 -18 16 -6 13 -12 -24 -44 -47 -40 -75 -46 -106 -22 -19 14 -19 14 1 16 11 1 24 1 28 0 5 -1 6 3 3 8 -4 5 2 12 12 15 22 7 70 56 55 56 -6 0 -22 -9 -36 -20 -14 -11 -28 -20 -31 -20 -3 0 -12 16 -20 35 -17 39 -41 54 -59 36 -9 -9 -8 -11 4 -6 9 3 24 -1 33 -10 18 -18 22 -55 6 -55 -5 0 -10 -10 -10 -22 0 -19 -2 -20 -10 -8 -5 8 -10 10 -10 4 0 -17 43 -52 73 -59 41 -11 99 52 152 163 17 36 15 70 -2 37z"/> <path d="M1930 739 c0 -8 13 -28 30 -44 16 -15 27 -33 23 -38 -3 -6 -1 -7 5 -3 7 4 12 3 12 -2 0 -5 8 -18 18 -30 9 -11 22 -29 29 -39 10 -15 10 -12 3 14 -5 18 -12 38 -16 45 -4 7 5 2 19 -11 23 -21 27 -33 27 -77 0 -29 5 -56 10 -59 11 -7 14 19 10 75 -3 48 -14 65 -57 91 -21 12 -55 38 -75 58 -25 23 -38 30 -38 20z"/> <path d="M1892 685 c-7 -14 -15 -45 -18 -68 -4 -23 -13 -53 -21 -65 -8 -13 -12 -26 -10 -29 11 -10 48 86 61 155 7 39 3 41 -12 7z"/> <path d="M1411 649 c-13 -17 -35 -36 -48 -42 -28 -13 -28 -15 2 -52 l24 -29 24 22 c13 12 28 22 34 22 5 0 18 9 28 20 10 11 24 20 32 20 7 0 13 4 13 8 0 22 -17 19 -60 -13 -76 -56 -110 -45 -55 17 19 21 35 43 35 48 0 14 -2 13 -29 -21z"/> <path d="M2313 578 c-1 -43 -6 -66 -17 -74 -19 -13 -21 -24 -5 -24 24 0 38 36 39 98 0 81 -14 81 -17 0z"/> <path d="M1952 567 c-9 -10 -4 -12 23 -9 19 2 35 8 35 13 0 14 -46 11 -58 -4z"/> <path d="M2275 542 c-6 -4 -16 -19 -24 -34 -8 -15 -17 -26 -20 -24 -3 2 -14 -7 -24 -20 -17 -23 -17 -24 3 -24 11 0 23 7 26 15 4 8 12 15 19 15 8 0 11 8 8 20 -4 13 -1 20 7 18 6 -2 16 7 21 20 8 22 2 28 -16 14z"/> <path d="M1597 513 c-4 -3 -7 -34 -7 -68 0 -93 16 -100 83 -40 28 27 58 54 65 60 11 10 6 12 -23 8 -31 -3 -36 -1 -32 12 4 8 4 15 2 15 -3 0 -17 -27 -32 -60 -15 -33 -31 -60 -35 -60 -13 0 -21 49 -15 96 5 46 4 48 -6 37z"/> <path d="M2094 455 c-30 -36 -44 -45 -70 -45 -37 0 -51 14 -34 35 9 11 7 12 -9 8 -11 -3 -25 -11 -31 -18 -9 -11 -5 -17 19 -29 16 -9 37 -16 46 -16 31 0 72 29 98 69 35 53 29 52 -19 -4z"/> <path d="M1877 453 c-8 -12 16 -34 60 -57 45 -23 54 -20 14 5 -19 11 -42 30 -51 41 -10 13 -19 17 -23 11z"/> <path d="M2270 425 c0 -14 6 -25 14 -25 9 0 12 8 8 25 -2 14 -8 25 -13 25 -5 0 -9 -11 -9 -25z"/> <path d="M2066 383 c-4 -4 -21 -7 -39 -7 -29 1 -29 1 -4 -3 17 -3 35 -15 45 -32 9 -16 32 -41 50 -56 31 -26 38 -27 98 -22 71 5 114 27 114 57 0 26 -3 25 -38 -10 -17 -16 -41 -30 -54 -31 -13 -1 -36 -2 -52 -4 -34 -2 -70 30 -92 83 -15 34 -17 36 -28 25z"/> <path d="M2293 362 c-7 -19 -17 -31 -22 -28 -5 4 -12 2 -15 -3 -4 -5 -1 -13 5 -17 17 -10 51 30 47 57 -3 22 -4 21 -15 -9z"/> </g> </svg> 