<svg width="447" height="336" viewBox="0 0 447 336" fill="none" xmlns="http://www.w3.org/2000/svg">
<g clip-path="url(#clip0_5401_7173)">
<rect width="446.561" height="336" fill="#0B0911"/>
<mask id="mask0_5401_7173" style="mask-type:alpha" maskUnits="userSpaceOnUse" x="0" y="-10" width="447" height="457">
<path d="M447 -10C447 116.707 447 447 447 447C323.564 447 0 447 0 447C0 320.293 0 -10 0 -10L447 -10Z" fill="#0B0911"/>
</mask>
<g mask="url(#mask0_5401_7173)">
<g filter="url(#filter0_f_5401_7173)">
<path d="M73.5808 152.012C17.0707 179.48 39.5096 250.092 57.7928 281.964C93.4408 287.992 167.232 291.77 177.21 258.662C189.684 217.279 267.775 235.196 257.879 188.101C247.983 141.007 197.997 154.837 232.594 98.7686C267.191 42.6998 114.389 11.9362 110.129 46.9959C105.87 82.0556 144.218 117.678 73.5808 152.012Z" fill="url(#paint0_radial_5401_7173)"/>
</g>
<g filter="url(#filter1_f_5401_7173)">
<path d="M222.224 106.275L148.724 -57.8419L405.214 -18.1528L377.458 281.562L324.624 180.755L222.224 106.275Z" fill="url(#paint1_linear_5401_7173)"/>
</g>
<g style="mix-blend-mode:color">
<g filter="url(#filter2_f_5401_7173)">
<path d="M221.002 221.986L55.6527 186.547L17.022 310.856L64.6835 425.869L198.17 387.016L221.002 221.986Z" fill="url(#paint2_linear_5401_7173)"/>
<path d="M221.002 221.986L55.6527 186.547L17.022 310.856L64.6835 425.869L198.17 387.016L221.002 221.986Z" stroke="#8215B5" stroke-width="55.9511"/>
</g>
<g filter="url(#filter3_f_5401_7173)">
<path d="M207.503 430.816L259.936 592.964L385.915 564.426L460.691 465.189L360.495 368.083L207.503 430.816Z" fill="url(#paint3_linear_5401_7173)"/>
<path d="M207.503 430.816L259.936 592.964L385.915 564.426L460.691 465.189L360.495 368.083L207.503 430.816Z" stroke="#8215B5" stroke-width="55.9011"/>
</g>
<g filter="url(#filter4_f_5401_7173)">
<path d="M59.7287 -17.1473C78.0829 -104.882 198.561 -36.192 256.506 9.11991L260.856 5.56772L484.767 205.258C464.357 247.843 399.964 342.311 305.663 379.51C187.787 426.009 36.7859 92.5212 59.7287 -17.1473Z" fill="url(#paint4_radial_5401_7173)"/>
<path d="M59.7287 -17.1473C78.0829 -104.882 198.561 -36.192 256.506 9.11991L260.856 5.56772L484.767 205.258C464.357 247.843 399.964 342.311 305.663 379.51C187.787 426.009 36.7859 92.5212 59.7287 -17.1473Z" stroke="black" stroke-width="0.561682"/>
</g>
<g filter="url(#filter5_f_5401_7173)">
<path d="M563.473 16.1438L450.469 -8.07647C435.777 -11.2254 421.06 -2.41962 416.502 12.2477L389.172 100.193C387.069 106.959 387.395 114.25 390.09 120.753L423.63 201.691C429.318 215.416 444.137 222.616 458.247 218.509L548.666 192.191C559.838 188.939 568.112 179.25 569.735 167.519L586.108 49.1739C588.243 33.7416 578.372 19.3371 563.473 16.1438Z" fill="url(#paint5_linear_5401_7173)"/>
<path d="M563.473 16.1438L450.469 -8.07647C435.777 -11.2254 421.06 -2.41962 416.502 12.2477L389.172 100.193C387.069 106.959 387.395 114.25 390.09 120.753L423.63 201.691C429.318 215.416 444.137 222.616 458.247 218.509L548.666 192.191C559.838 188.939 568.112 179.25 569.735 167.519L586.108 49.1739C588.243 33.7416 578.372 19.3371 563.473 16.1438Z" stroke="#FBC13A" stroke-width="55.9511"/>
</g>
<g filter="url(#filter6_f_5401_7173)">
<path d="M319.339 104.35C268.133 92.672 69.7931 247.184 -22.9759 325.9L-90.5904 278.09C-53.7092 246.826 27.8441 165.916 59.0085 92.3883C97.9639 0.479157 383.346 118.947 319.339 104.35Z" fill="#FF4AA9"/>
</g>
<g filter="url(#filter7_f_5401_7173)">
<path d="M382.632 249.222C432.5 261.969 350.646 420.511 303.486 498.188C240.071 471.612 104.713 413.662 70.6013 394.475C27.9616 370.492 159.295 301.673 203.685 265.253C248.074 228.833 247.236 334.452 285.873 343.625C324.511 352.799 320.296 233.287 382.632 249.222Z" fill="url(#paint6_linear_5401_7173)"/>
</g>
<g filter="url(#filter8_f_5401_7173)">
<path d="M577.574 492.858L599.287 354.25L496.396 327.596L404.804 372.077L442.208 481.06L577.574 492.858Z" fill="url(#paint7_linear_5401_7173)"/>
<path d="M577.574 492.858L599.287 354.25L496.396 327.596L404.804 372.077L442.208 481.06L577.574 492.858Z" stroke="#8215B5" stroke-width="55.9186"/>
</g>
</g>
<path d="M99.7273 144.455L109.273 177.273H109.636L119.182 144.455H133.455L118.091 191H100.818L85.4545 144.455H99.7273ZM180.091 167.727C180.091 172.909 179.083 177.28 177.068 180.841C175.053 184.386 172.333 187.076 168.909 188.909C165.485 190.727 161.667 191.636 157.455 191.636C153.212 191.636 149.379 190.72 145.955 188.886C142.545 187.038 139.833 184.341 137.818 180.795C135.818 177.235 134.818 172.879 134.818 167.727C134.818 162.545 135.818 158.182 137.818 154.636C139.833 151.076 142.545 148.386 145.955 146.568C149.379 144.735 153.212 143.818 157.455 143.818C161.667 143.818 165.485 144.735 168.909 146.568C172.333 148.386 175.053 151.076 177.068 154.636C179.083 158.182 180.091 162.545 180.091 167.727ZM167.091 167.727C167.091 164.939 166.72 162.591 165.977 160.682C165.25 158.758 164.167 157.303 162.727 156.318C161.303 155.318 159.545 154.818 157.455 154.818C155.364 154.818 153.598 155.318 152.159 156.318C150.735 157.303 149.652 158.758 148.909 160.682C148.182 162.591 147.818 164.939 147.818 167.727C147.818 170.515 148.182 172.871 148.909 174.795C149.652 176.705 150.735 178.159 152.159 179.159C153.598 180.144 155.364 180.636 157.455 180.636C159.545 180.636 161.303 180.144 162.727 179.159C164.167 178.159 165.25 176.705 165.977 174.795C166.72 172.871 167.091 170.515 167.091 167.727ZM180.778 144.455H194.869L203.96 163.364H204.324L213.415 144.455H227.506L210.415 176.364V191H197.869V176.364L180.778 144.455ZM238.966 191H225.33L240.693 144.455H257.966L273.33 191H259.693L249.511 157.273H249.148L238.966 191ZM236.42 172.636H262.057V182.091H236.42V172.636ZM305.852 159.818C305.655 159.015 305.345 158.311 304.92 157.705C304.496 157.083 303.966 156.561 303.33 156.136C302.708 155.697 301.981 155.371 301.148 155.159C300.33 154.932 299.428 154.818 298.443 154.818C296.322 154.818 294.511 155.326 293.011 156.341C291.527 157.356 290.39 158.818 289.602 160.727C288.83 162.636 288.443 164.939 288.443 167.636C288.443 170.364 288.814 172.697 289.557 174.636C290.299 176.576 291.405 178.061 292.875 179.091C294.345 180.121 296.17 180.636 298.352 180.636C300.277 180.636 301.875 180.356 303.148 179.795C304.436 179.235 305.398 178.439 306.034 177.409C306.67 176.379 306.989 175.167 306.989 173.773L309.17 174H298.534V165H319.17V171.455C319.17 175.697 318.269 179.326 316.466 182.341C314.678 185.341 312.208 187.644 309.057 189.25C305.92 190.841 302.322 191.636 298.261 191.636C293.731 191.636 289.754 190.674 286.33 188.75C282.905 186.826 280.231 184.083 278.307 180.523C276.398 176.962 275.443 172.727 275.443 167.818C275.443 163.97 276.027 160.561 277.193 157.591C278.375 154.621 280.011 152.114 282.102 150.068C284.193 148.008 286.61 146.455 289.352 145.409C292.095 144.348 295.034 143.818 298.17 143.818C300.928 143.818 303.489 144.212 305.852 145C308.231 145.773 310.33 146.879 312.148 148.318C313.981 149.742 315.458 151.432 316.58 153.386C317.701 155.341 318.383 157.485 318.625 159.818H305.852ZM325.062 191V144.455H358.608V154.636H337.699V162.636H356.881V172.818H337.699V180.818H358.517V191H325.062Z" fill="white" fill-opacity="0.5"/>
</g>
</g>
<defs>
<filter id="filter0_f_5401_7173" x="-83.0173" y="-88.49" width="462.363" height="495.076" filterUnits="userSpaceOnUse" color-interpolation-filters="sRGB">
<feFlood flood-opacity="0" result="BackgroundImageFix"/>
<feBlend mode="normal" in="SourceGraphic" in2="BackgroundImageFix" result="shape"/>
<feGaussianBlur stdDeviation="60.3011" result="effect1_foregroundBlur_5401_7173"/>
</filter>
<filter id="filter1_f_5401_7173" x="28.1223" y="-178.444" width="497.694" height="580.609" filterUnits="userSpaceOnUse" color-interpolation-filters="sRGB">
<feFlood flood-opacity="0" result="BackgroundImageFix"/>
<feBlend mode="normal" in="SourceGraphic" in2="BackgroundImageFix" result="shape"/>
<feGaussianBlur stdDeviation="60.3011" result="effect1_foregroundBlur_5401_7173"/>
</filter>
<filter id="filter2_f_5401_7173" x="-58.5562" y="107.525" width="356.659" height="398.415" filterUnits="userSpaceOnUse" color-interpolation-filters="sRGB">
<feFlood flood-opacity="0" result="BackgroundImageFix"/>
<feBlend mode="normal" in="SourceGraphic" in2="BackgroundImageFix" result="shape"/>
<feGaussianBlur stdDeviation="23.1431" result="effect1_foregroundBlur_5401_7173"/>
</filter>
<filter id="filter3_f_5401_7173" x="127.728" y="288.237" width="416.149" height="384.937" filterUnits="userSpaceOnUse" color-interpolation-filters="sRGB">
<feFlood flood-opacity="0" result="BackgroundImageFix"/>
<feBlend mode="normal" in="SourceGraphic" in2="BackgroundImageFix" result="shape"/>
<feGaussianBlur stdDeviation="23.1225" result="effect1_foregroundBlur_5401_7173"/>
</filter>
<filter id="filter4_f_5401_7173" x="-111.385" y="-228.281" width="765" height="780.997" filterUnits="userSpaceOnUse" color-interpolation-filters="sRGB">
<feFlood flood-opacity="0" result="BackgroundImageFix"/>
<feBlend mode="normal" in="SourceGraphic" in2="BackgroundImageFix" result="shape"/>
<feGaussianBlur stdDeviation="84.2522" result="effect1_foregroundBlur_5401_7173"/>
</filter>
<filter id="filter5_f_5401_7173" x="267.72" y="-129.375" width="438.763" height="469.695" filterUnits="userSpaceOnUse" color-interpolation-filters="sRGB">
<feFlood flood-opacity="0" result="BackgroundImageFix"/>
<feBlend mode="normal" in="SourceGraphic" in2="BackgroundImageFix" result="shape"/>
<feGaussianBlur stdDeviation="46.2862" result="effect1_foregroundBlur_5401_7173"/>
</filter>
<filter id="filter6_f_5401_7173" x="-258.626" y="-110.917" width="755.317" height="604.852" filterUnits="userSpaceOnUse" color-interpolation-filters="sRGB">
<feFlood flood-opacity="0" result="BackgroundImageFix"/>
<feBlend mode="normal" in="SourceGraphic" in2="BackgroundImageFix" result="shape"/>
<feGaussianBlur stdDeviation="84.0179" result="effect1_foregroundBlur_5401_7173"/>
</filter>
<filter id="filter7_f_5401_7173" x="-105.835" y="79.7211" width="672.061" height="586.503" filterUnits="userSpaceOnUse" color-interpolation-filters="sRGB">
<feFlood flood-opacity="0" result="BackgroundImageFix"/>
<feBlend mode="normal" in="SourceGraphic" in2="BackgroundImageFix" result="shape"/>
<feGaussianBlur stdDeviation="84.0179" result="effect1_foregroundBlur_5401_7173"/>
</filter>
<filter id="filter8_f_5401_7173" x="202.95" y="130.008" width="595.058" height="560.956" filterUnits="userSpaceOnUse" color-interpolation-filters="sRGB">
<feFlood flood-opacity="0" result="BackgroundImageFix"/>
<feBlend mode="normal" in="SourceGraphic" in2="BackgroundImageFix" result="shape"/>
<feGaussianBlur stdDeviation="83.8778" result="effect1_foregroundBlur_5401_7173"/>
</filter>
<radialGradient id="paint0_radial_5401_7173" cx="0" cy="0" r="1" gradientUnits="userSpaceOnUse" gradientTransform="translate(214.984 265.85) rotate(-125.789) scale(235.576 312.748)">
<stop stop-color="#FBC13A"/>
<stop offset="0.454084" stop-color="#FF4AA9"/>
<stop offset="0.979167" stop-color="#004E95"/>
</radialGradient>
<linearGradient id="paint1_linear_5401_7173" x1="394.073" y1="132.128" x2="130.856" y2="102.862" gradientUnits="userSpaceOnUse">
<stop stop-color="#FBC13A"/>
<stop offset="0.505208" stop-color="#FF4AA9"/>
<stop offset="1" stop-color="#004E95"/>
</linearGradient>
<linearGradient id="paint2_linear_5401_7173" x1="24.5869" y1="286.513" x2="211.365" y2="344.557" gradientUnits="userSpaceOnUse">
<stop stop-color="#34D399"/>
<stop offset="1" stop-color="#3B82F6"/>
</linearGradient>
<linearGradient id="paint3_linear_5401_7173" x1="361.245" y1="570.015" x2="317.697" y2="377.778" gradientUnits="userSpaceOnUse">
<stop stop-color="#34D399"/>
<stop offset="1" stop-color="#6366F1"/>
</linearGradient>
<radialGradient id="paint4_radial_5401_7173" cx="0" cy="0" r="1" gradientUnits="userSpaceOnUse" gradientTransform="translate(-37.8811 44.7189) rotate(18.9992) scale(575.516 234.02)">
<stop offset="0.697917" stop-color="#3966FF"/>
<stop offset="1" stop-color="#FF599C"/>
</radialGradient>
<linearGradient id="paint5_linear_5401_7173" x1="317.662" y1="244.87" x2="283.933" y2="173.233" gradientUnits="userSpaceOnUse">
<stop offset="0.03235" stop-color="#4EADCB"/>
<stop offset="0.473958" stop-color="#3ECDBE"/>
<stop offset="0.484375" stop-color="#C1FFF4"/>
<stop offset="0.671875" stop-color="#59D5B8"/>
<stop offset="0.96875" stop-color="#329CAF"/>
</linearGradient>
<linearGradient id="paint6_linear_5401_7173" x1="186.002" y1="448.952" x2="286.667" y2="208.754" gradientUnits="userSpaceOnUse">
<stop stop-color="#0E7490"/>
<stop offset="1" stop-color="#0F766E"/>
</linearGradient>
<linearGradient id="paint7_linear_5401_7173" x1="516.545" y1="332.816" x2="475.882" y2="489.783" gradientUnits="userSpaceOnUse">
<stop stop-color="#06B6D4"/>
<stop offset="1" stop-color="#3B82F6"/>
</linearGradient>
<clipPath id="clip0_5401_7173">
<rect width="446.561" height="336" fill="white"/>
</clipPath>
</defs>
</svg>
