<svg viewBox="0 0 12 12" fill="none" xmlns="http://www.w3.org/2000/svg">
<path fill-rule="evenodd" clip-rule="evenodd" d="M4.48907 0.080247C4.68084 0.194241 4.8 0.412086 4.8 0.6487V11.3513C4.8 11.7096 4.53138 12 4.20001 12C3.86864 12 3.60002 11.7096 3.60002 11.3513V1.82862L0.921536 3.66626C0.641747 3.85822 0.271007 3.7686 0.0934644 3.4661C-0.0840782 3.16359 -0.00119116 2.76276 0.278598 2.5708L3.87854 0.10097C4.06333 -0.0258056 4.29729 -0.0337471 4.48907 0.080247Z" fill="#857EA5"/>
<path fill-rule="evenodd" clip-rule="evenodd" d="M7.8 0C8.13137 0 8.39999 0.290433 8.39999 0.6487V10.1714L11.0785 8.33374C11.3583 8.14178 11.729 8.2314 11.9065 8.5339C12.0841 8.8364 12.0012 9.23724 11.7214 9.4292L8.12147 11.899C7.93669 12.0258 7.70272 12.0337 7.51094 11.9198C7.31917 11.8058 7.20001 11.5879 7.20001 11.3513V0.6487C7.20001 0.290433 7.46864 0 7.8 0Z" fill="#E1DDF7"/>
</svg>
