<svg width="25" height="24" viewBox="0 0 25 24" fill="none" xmlns="http://www.w3.org/2000/svg">
    <path d="M12.9921 0C19.6201 0 24.9921 5.37305 24.9921 12C24.9921 18.628 19.6201 24 12.9921 24C6.36522 24 0.992188 18.6275 0.992188 12C0.992188 5.37305 6.36522 0 12.9921 0Z" fill="#0C0A14"/>
    <path d="M15.0266 11.4111L16.2146 9.3953L19.4169 14.3826L19.4184 15.3398L19.4079 8.75348C19.4004 8.59243 19.3149 8.44511 19.1785 8.35821L13.4132 5.04222C13.2784 4.97593 13.1073 4.97672 12.9727 5.04431C12.9545 5.05347 12.9375 5.06332 12.9212 5.07417L12.9011 5.08681L7.30488 8.32955L7.28318 8.3395C7.25521 8.35224 7.22704 8.36867 7.20046 8.38758C7.09435 8.46363 7.02387 8.5762 7.00108 8.70232C6.99769 8.72143 6.99511 8.74094 6.99401 8.76065L7.00277 14.1278L9.98556 9.50499C10.361 8.89204 11.1793 8.69445 11.9389 8.7053L12.8303 8.72879L7.57773 17.152L8.19688 17.5084L13.5123 8.73735L15.8618 8.72879L10.5601 17.7212L12.7695 18.992L13.0334 19.1437C13.1451 19.1891 13.2767 19.1914 13.3893 19.1507L19.2356 15.7628L18.1179 16.4105L15.0266 11.4111ZM15.4798 17.9393L13.2484 14.4371L14.6106 12.1256L17.5412 16.7447L15.4798 17.9393Z" fill="#0F0D18"/>
    <path d="M13.2402 14.4355L15.4718 17.9376L17.5331 16.7431L14.6025 12.124L13.2402 14.4355Z" fill="#A49EBF"/>
    <path d="M19.4231 15.339L19.4216 14.3819L16.2193 9.39453L15.0312 11.4104L18.1226 16.4097L19.2404 15.762C19.35 15.6731 19.4164 15.5424 19.4234 15.4014L19.4231 15.339Z" fill="#A49EBF"/>
    <path d="M6 16.2397L7.57844 17.1492L12.831 8.72605L11.9396 8.70256C11.1801 8.69181 10.3618 8.88929 9.98627 9.50225L7.00349 14.1251L6 15.6668V16.2397V16.2397Z" fill="#E1DDF7"/>
    <path d="M15.8661 8.72852L13.5166 8.73708L8.20117 17.5081L10.0591 18.5778L10.5643 17.7209L15.8661 8.72852Z" fill="#E1DDF7"/>
    <path d="M20.4091 8.71748C20.3895 8.22617 20.1235 7.77645 19.7068 7.51457L13.8659 4.15578C13.4537 3.94824 12.9388 3.94794 12.5258 4.15568C12.477 4.18026 6.84571 7.44609 6.84571 7.44609C6.76777 7.48342 6.69271 7.52791 6.62214 7.57847C6.25015 7.84514 6.02339 8.25941 6 8.7145V15.6705L7.00349 14.1287L6.99473 8.76148C6.99592 8.74187 6.99841 8.72246 7.00179 8.70345C7.02449 8.57713 7.09506 8.46456 7.20118 8.38841C7.22775 8.3695 12.9551 5.0543 12.9733 5.04514C13.108 4.97756 13.279 4.97676 13.4138 5.04305L19.1791 8.35905C19.3155 8.44594 19.401 8.59326 19.4085 8.75431V15.4029C19.4016 15.5439 19.3458 15.6746 19.2362 15.7635L18.1185 16.4112L17.5417 16.7455L15.4804 17.94L13.3899 19.1514C13.2773 19.1921 13.1456 19.1898 13.0341 19.1444L10.5607 17.7219L10.0555 18.5788L12.2782 19.8584C12.3517 19.9002 12.4172 19.9373 12.4709 19.9675C12.5542 20.0142 12.6109 20.0454 12.6309 20.0551C12.7889 20.1319 13.0161 20.1764 13.221 20.1764C13.4087 20.1764 13.5919 20.142 13.7652 20.0741L19.8372 16.558C20.1857 16.2879 20.3907 15.8807 20.4091 15.4397V8.71748Z" fill="#E1DDF7"/>
</svg>
