<svg width="24" height="24" viewBox="0 0 24 24" fill="none" xmlns="http://www.w3.org/2000/svg">
    <g clip-path="url(#clip0_4904_15990)">
        <path d="M19.4014 4.11719H4.58301V17.5853H19.4014V4.11719Z" fill="#E1DDF7"/>
        <path fill-rule="evenodd" clip-rule="evenodd"
              d="M23.9923 12.0006C23.9923 18.6193 18.6234 23.9847 12.0003 23.9847C5.37731 23.9847 0.00830078 18.6193 0.00830078 12.0006C0.00830078 5.38204 5.37731 0.0166016 12.0003 0.0166016C18.6234 0.0166016 23.9923 5.38204 23.9923 12.0006ZM8.60212 16.7697H6.27481C5.78577 16.7697 5.54421 16.7697 5.39692 16.6755C5.23783 16.5725 5.14061 16.4017 5.12883 16.2133C5.11998 16.0396 5.24078 15.8276 5.48234 15.4036L11.2288 5.28152C11.4733 4.85169 11.597 4.63678 11.7531 4.55729C11.9211 4.47192 12.1214 4.47192 12.2893 4.55729C12.4455 4.63678 12.5692 4.85169 12.8137 5.28152L13.995 7.34233L14.0011 7.35285C14.2652 7.81397 14.3991 8.04781 14.4576 8.29323C14.5224 8.56114 14.5224 8.84377 14.4576 9.11168C14.3986 9.35897 14.2661 9.5945 13.998 10.0626L10.9795 15.3948L10.9717 15.4085C10.7059 15.8734 10.5712 16.109 10.3844 16.2868C10.1812 16.4812 9.93665 16.6224 9.66856 16.702C9.42405 16.7697 9.15008 16.7697 8.60212 16.7697ZM14.4794 16.7697H17.8141C18.3061 16.7697 18.5536 16.7697 18.701 16.6727C18.86 16.5696 18.9602 16.3958 18.9691 16.2075C18.9776 16.0395 18.8594 15.8357 18.6279 15.4364C18.6199 15.4228 18.6119 15.409 18.6038 15.3949L16.9333 12.5392L16.9143 12.5071C16.6796 12.1104 16.5611 11.9101 16.4089 11.8326C16.2411 11.7473 16.0436 11.7473 15.8757 11.8326C15.7226 11.9121 15.5988 12.1212 15.3543 12.5421L13.6898 15.3978L13.6841 15.4077C13.4405 15.828 13.3187 16.038 13.3275 16.2104C13.3393 16.3988 13.4365 16.5725 13.5956 16.6755C13.7399 16.7697 13.9874 16.7697 14.4794 16.7697Z"
              fill="#0B0911"/>
    </g>
    <defs>
        <clipPath id="clip0_4904_15990">
            <rect width="24" height="24" fill="white"/>
        </clipPath>
    </defs>
</svg>
