<svg width="24" height="24" viewBox="0 0 24 24" fill="none" xmlns="http://www.w3.org/2000/svg">
    <path d="M12 0C18.628 0 24 5.37305 24 12C24 18.628 18.628 24 12 24C5.37305 24 0 18.6275 0 12C0 5.37305 5.37305 0 12 0Z" fill="#0C0A14"/>
    <path d="M11.9923 4L11.883 4.37113V15.1394L11.9923 15.2484L16.9907 12.2938L11.9923 4Z" fill="#565468"/>
    <path d="M11.9922 4L6.99365 12.2938L11.9922 15.2484V10.0218V4Z" fill="#E5E1F9"/>
    <path d="M11.992 16.1948L11.9304 16.2699V20.1057L11.992 20.2854L16.9935 13.2417L11.992 16.1948Z" fill="#6C697E"/>
    <path d="M11.9922 20.2854V16.1948L6.99365 13.2417L11.9922 20.2854Z" fill="#E5E1F9"/>
    <path d="M11.9919 15.2484L16.9903 12.2938L11.9919 10.0218V15.2484Z" fill="#2D2B3D"/>
    <path d="M6.99365 12.2938L11.9922 15.2484V10.0218L6.99365 12.2938Z" fill="#6C697E"/>
</svg>
