<svg width="14" height="13" viewBox="0 0 14 13" fill="none" xmlns="http://www.w3.org/2000/svg">
    <g clip-path="url(#clip0_2300_2004)">
        <path d="M7.76592 1.23241C7.69026 1.10528 7.57931 0.999301 7.44462 0.925499C7.30993 0.851691 7.15639 0.812767 7 0.812767C6.84355 0.812767 6.69002 0.851691 6.55533 0.925499C6.42063 0.999301 6.30968 1.10528 6.23408 1.23241L0.546566 10.9824C0.473018 11.1061 0.435482 11.2455 0.437662 11.3868C0.439843 11.528 0.481664 11.6664 0.558999 11.788C0.636336 11.9097 0.746505 12.0106 0.878647 12.0807C1.01078 12.1507 1.16032 12.1876 1.31248 12.1876H12.6875C12.8396 12.1876 12.9892 12.1507 13.1213 12.0807C13.2535 12.0106 13.3636 11.9097 13.441 11.788C13.5183 11.6664 13.5601 11.528 13.5623 11.3868C13.5645 11.2455 13.5269 11.1061 13.4534 10.9824L7.76592 1.23241Z" stroke="#FBC13A" stroke-linecap="round" stroke-linejoin="round"/>
        <path d="M7 8.125V4.46875" stroke="#FBC13A" stroke-linecap="round" stroke-linejoin="round"/>
        <path d="M7 10.1563C6.87919 10.1563 6.78125 10.0653 6.78125 9.95313C6.78125 9.84095 6.87919 9.75 7 9.75" stroke="#FBC13A"/>
        <path d="M7 10.1563C7.12081 10.1563 7.21875 10.0653 7.21875 9.95313C7.21875 9.84095 7.12081 9.75 7 9.75" stroke="#FBC13A"/>
    </g>
    <defs>
        <clipPath id="clip0_2300_2004">
            <rect width="14" height="13" fill="white"/>
        </clipPath>
    </defs>
</svg>
