<svg fill="none" height="216" viewBox="0 0 474 216" width="474" xmlns="http://www.w3.org/2000/svg" xmlns:xlink="http://www.w3.org/1999/xlink"><filter id="a" color-interpolation-filters="sRGB" filterUnits="userSpaceOnUse" height="777.756" width="809.226" x="-357.069" y="-273.794"><feFlood flood-opacity="0" result="BackgroundImageFix"/><feBlend in="SourceGraphic" in2="BackgroundImageFix" mode="normal" result="shape"/><feGaussianBlur result="effect1_foregroundBlur_5187_9139" stdDeviation="45.56"/></filter><filter id="b" color-interpolation-filters="sRGB" filterUnits="userSpaceOnUse" height="758.506" width="739.35" x="124.739" y="-309.051"><feFlood flood-opacity="0" result="BackgroundImageFix"/><feBlend in="SourceGraphic" in2="BackgroundImageFix" mode="normal" result="shape"/><feGaussianBlur result="effect1_foregroundBlur_5187_9139" stdDeviation="45.56"/></filter><filter id="c" color-interpolation-filters="sRGB" filterUnits="userSpaceOnUse" height="329.541" width="759.929" x="-142.139" y="136.58"><feFlood flood-opacity="0" result="BackgroundImageFix"/><feColorMatrix in="SourceAlpha" result="hardAlpha" type="matrix" values="0 0 0 0 0 0 0 0 0 0 0 0 0 0 0 0 0 0 127 0"/><feMorphology in="SourceAlpha" operator="dilate" radius="7.94074" result="effect1_dropShadow_5187_9139"/><feOffset dy="-1.58815"/><feGaussianBlur stdDeviation="39.7037"/><feComposite in2="hardAlpha" operator="out"/><feColorMatrix type="matrix" values="0 0 0 0 0.882353 0 0 0 0 0.866667 0 0 0 0 0.968627 0 0 0 1 0"/><feBlend in2="BackgroundImageFix" mode="normal" result="effect1_dropShadow_5187_9139"/><feBlend in="SourceGraphic" in2="effect1_dropShadow_5187_9139" mode="normal" result="shape"/></filter><radialGradient id="d" cx="0" cy="0" gradientTransform="matrix(-369.66315191 -76.3180896 39.57285197 -191.67965638 238.222 134)" gradientUnits="userSpaceOnUse" r="1"><stop offset=".776042" stop-color="#19152a"/><stop offset="1" stop-color="#0b0911"/></radialGradient><radialGradient id="e" cx="0" cy="0" gradientTransform="matrix(708.5057508 148.80197061 -61.16977922 291.25380646 -224.04 139.217)" gradientUnits="userSpaceOnUse" r="1"><stop offset=".411458" stop-color="#3966ff" stop-opacity="0"/><stop offset="1" stop-color="#ff599c"/></radialGradient><radialGradient id="f" cx="0" cy="0" gradientTransform="matrix(-782.67504534 67.33285796 -30.01567472 -348.9012688 836.358 34.3142)" gradientUnits="userSpaceOnUse" r="1"><stop offset=".65784" stop-color="#3966ff" stop-opacity="0"/><stop offset="1" stop-color="#ff599c"/></radialGradient><radialGradient id="g" cx="0" cy="0" gradientTransform="matrix(0 74.0474 -279.861 0 237.825 225.517)" gradientUnits="userSpaceOnUse" r="1"><stop offset="0" stop-color="#5d5296" stop-opacity=".71"/><stop offset="1" stop-opacity="0"/></radialGradient><clipPath id="h"><rect height="216" rx="4" width="474"/></clipPath><clipPath id="i"><path d="m0 0h476.444v268h-476.444z"/></clipPath><g clip-path="url(#h)"><g clip-path="url(#i)"><path d="m0 0h476.444v268h-476.444z" fill="url(#d)"/><g filter="url(#a)" opacity=".3"><path d="m208.681 352.066-61.092 9.736-105.9195 51.04-134.9946-126.907 9.0176-91.943-181.6415-58.894 25.183-86.4222 80.046-132.2245 97.8564-99.1253 57.49178 1.991 129.39182 83.7924 175.141 64.9748 32.162 152.0908 29.713 156.809z" fill="url(#e)"/></g><g filter="url(#b)" opacity=".3"><path d="m397.173-165.159 58.083-7.287 109.508-45.485 90.073 126.636-31.91 88.11605 150.042 62.81325-45.192 82.2577-106.907 124.44-114.573 92.003-79.238-34.146-164.515-28.565-46.685-94.581 9.961-147.3603 13.406-151.8152z" fill="url(#f)"/></g><g filter="url(#c)" shape-rendering="crispEdges"><ellipse cx="237.825" cy="302.939" fill="#0b0911" fill-opacity=".69" rx="292.616" ry="77.4222"/><path d="m530.045 302.939c0 10.474-8.029 20.554-22.809 29.799-14.759 9.233-36.143 17.562-62.601 24.563-52.912 13.999-126.03 22.663-206.81 22.663-80.779 0-153.8977-8.664-206.8091-22.663-26.45866-7.001-47.8419-15.33-62.6011-24.563-14.7798-9.245-22.8088-19.325-22.8088-29.799s8.029-20.554 22.8088-29.8c14.7592-9.232 36.14244-17.562 62.6011-24.562 52.9114-14 126.0301-22.663 206.8091-22.663 80.78 0 153.898 8.663 206.81 22.663 26.458 7 47.842 15.33 62.601 24.562 14.78 9.246 22.809 19.326 22.809 29.8z" stroke="url(#g)" stroke-width=".794074"/></g><g fill="#e1ddf7"><circle cx="78.4352" cy="164.927" fill-opacity=".4" r=".198519" transform="matrix(-.99834383 .05752918 -.05752918 -.99834383 166.228612 325.068539)"/><circle cx="99.6437" cy="132.685" fill-opacity=".4" r=".198519" transform="matrix(-.99834383 .05752918 -.05752918 -.99834383 206.755632 259.41783)"/><circle cx="204.942" cy="144.912" fill-opacity=".4" r=".198519" transform="matrix(-.99834383 .05752918 -.05752918 -.99834383 417.881249 277.793856)"/><circle cx="310.241" cy="157.137" fill-opacity=".4" r=".198519" transform="matrix(-.99834383 .05752918 -.05752918 -.99834383 629.008149 296.165844)"/><circle cx="299.61" cy="117.583" fill-opacity=".4" r=".198519" transform="matrix(-.99834383 .05752918 -.05752918 -.99834383 605.488247 217.734945)"/><circle cx="352.337" cy="87.1033" fill-opacity=".4" r=".198519" transform="matrix(-.99834383 .05752918 -.05752918 -.99834383 709.10145 153.792684)"/><circle cx="268.389" cy="100.293" fill-opacity=".4" r=".198519" transform="matrix(-.99834383 .05752918 -.05752918 -.99834383 542.103275 184.979699)"/><circle cx="350.673" cy="134.128" fill-opacity=".4" r=".198519" transform="matrix(-.99834383 .05752918 -.05752918 -.99834383 708.481498 247.859931)"/><circle cx="226.161" cy="181.868" fill-opacity=".4" r=".198519" transform="matrix(-.99834383 .05752918 -.05752918 -.99834383 462.410154 350.423938)"/><circle cx="146.769" cy="108.494" fill-opacity=".2" r=".992593" transform="matrix(-.99834383 .05752918 -.05752918 -.99834383 299.536496 208.364815)"/><circle cx="239.725" cy="127.397" fill-opacity=".3" r=".992593" transform="matrix(-.99834383 .05752918 -.05752918 -.99834383 486.382018 240.791826)"/><circle cx="60.6038" cy="83.2341" fill-opacity=".4" r=".992593" transform="matrix(-.99834383 .05752918 -.05752918 -.99834383 125.895619 162.843863)"/><circle cx="170.464" cy="160.817" fill-opacity=".4" r=".992593" transform="matrix(-.99834383 .05752918 -.05752918 -.99834383 349.897352 311.561005)"/><circle cx="435.763" cy="102.777" fill-opacity=".4" opacity=".5" r=".794074" transform="matrix(-.99834383 .05752918 -.05752918 -.99834383 876.716977 180.314696)"/><circle cx="384.908" cy="165.76" fill-opacity=".4" opacity=".5" r=".794074" transform="matrix(-.99834383 .05752918 -.05752918 -.99834383 778.714562 309.102032)"/><circle cx="441.704" cy="132.015" fill-opacity=".4" r=".198519"/><circle cx="418.676" cy="162.984" fill-opacity=".4" r=".198519"/><circle cx="314.255" cy="144.72" fill-opacity=".4" r=".198519"/><circle cx="209.834" cy="126.456" fill-opacity=".4" r=".198519"/><circle cx="218.172" cy="166.557" fill-opacity=".4" r=".198519"/><circle cx="163.778" cy="193.952" fill-opacity=".4" r=".198519"/><circle cx="248.347" cy="185.615" fill-opacity=".4" r=".198519"/><circle cx="168.145" cy="147.102" fill-opacity=".4" r=".198519"/><circle cx="295.197" cy="106.604" fill-opacity=".4" r=".198519"/><circle cx="422.249" cy="66.1067" fill-opacity=".4" r=".198519"/><circle cx="205.467" cy="212.614" fill-opacity=".4" r=".198519"/><circle cx="261.449" cy="213.01" fill-opacity=".4" r=".198519"/><circle cx="370.237" cy="184.423" fill-opacity=".2" r=".992593"/><circle cx="278.522" cy="160.205" fill-opacity=".3" r=".992593"/><circle cx="454.806" cy="214.598" fill-opacity=".4" r=".992593"/><circle cx="349.591" cy="130.824" fill-opacity=".4" r=".992593"/><circle cx="241.796" cy="68.2902" fill-opacity=".4" opacity=".5" r=".794074"/><circle cx="81.3927" cy="173.505" fill-opacity=".4" opacity=".5" r=".794074"/><circle cx="135.787" cy="113.552" fill-opacity=".4" opacity=".5" r=".794074"/><circle cx="393.255" cy="22.7708" fill-opacity=".4" r=".124205" transform="matrix(.44279266 -.89662404 .89662404 .44279266 198.707726 365.289942)"/><circle cx="404.249" cy="44.2688" fill-opacity=".4" r=".124205" transform="matrix(.44279266 -.89662404 .89662404 .44279266 185.55804 387.12627)"/><circle cx="365.075" cy="97.7874" fill-opacity=".4" r=".124205" transform="matrix(.44279266 -.89662404 .89662404 .44279266 115.743937 381.822877)"/><circle cx="325.901" cy="151.306" fill-opacity=".4" r=".124205" transform="matrix(.44279266 -.89662404 .89662404 .44279266 45.929833 376.519484)"/><circle cx="350.706" cy="157.738" fill-opacity=".4" r=".124205" transform="matrix(.44279266 -.89662404 .89662404 .44279266 53.984276 402.3442)"/><circle cx="351.005" cy="195.842" fill-opacity=".4" r=".124205" transform="matrix(.44279266 -.89662404 .89662404 .44279266 19.985918 423.84412)"/><circle cx="369.757" cy="146.09" fill-opacity=".4" r=".124205" transform="matrix(.44279266 -.89662404 .89662404 .44279266 75.043509 412.935434)"/><circle cx="325.933" cy="180.412" fill-opacity=".4" r=".124205" transform="matrix(.44279266 -.89662404 .89662404 .44279266 19.850525 392.766252)"/><circle cx="338.412" cy="97.9192" fill-opacity=".4" r=".124205" transform="matrix(.44279266 -.89662404 .89662404 .44279266 100.768942 357.98963)"/><circle cx="350.892" cy="15.4261" fill-opacity=".4" r=".124205" transform="matrix(.44279266 -.89662404 .89662404 .44279266 181.688186 323.213737)"/><circle cx="402.857" cy="77.3822" fill-opacity=".2" r=".621027" transform="matrix(.44279266 -.89662404 .89662404 .44279266 155.092137 404.329199)"/><circle cx="363.861" cy="122.123" fill-opacity=".3" r=".621027" transform="matrix(.44279266 -.89662404 .89662404 .44279266 93.247603 394.29435)"/><circle cx="443.213" cy="38.2992" fill-opacity=".4" r=".621027" transform="matrix(.44279266 -.89662404 .89662404 .44279266 212.621554 418.736024)"/><circle cx="367.069" cy="74.1146" fill-opacity=".4" r=".621027" transform="matrix(.44279266 -.89662404 .89662404 .44279266 138.08061 370.420087)"/><circle cx="302.125" cy="117.262" fill-opacity=".4" opacity=".5" r=".496822" transform="matrix(.44279266 -.89662404 .89662404 .44279266 63.20634 336.231784)"/><circle cx="298.148" cy="189.271" fill-opacity=".4" opacity=".5" r=".496822" transform="matrix(.44279266 -.89662404 .89662404 .44279266 -3.574674 372.789854)"/><circle cx="289.229" cy="208.502" fill-opacity=".4" r=".124205" transform="matrix(-.49363833 .86966729 -.86966729 -.49363833 613.33089 59.893576)"/><circle cx="331.417" cy="157.326" fill-opacity=".4" r=".124205" transform="matrix(-.49363833 .86966729 -.86966729 -.49363833 631.83841 -53.234383)"/><circle cx="373.606" cy="106.149" fill-opacity=".4" r=".124205" transform="matrix(-.49363833 .86966729 -.86966729 -.49363833 650.346554 -166.364705)"/><circle cx="349.211" cy="98.3006" fill-opacity=".4" r=".124205" transform="matrix(-.49363833 .86966729 -.86966729 -.49363833 607.08375 -156.871842)"/><circle cx="351.104" cy="60.243" fill-opacity=".4" r=".124205" transform="matrix(-.49363833 .86966729 -.86966729 -.49363833 576.813757 -215.362412)"/><circle cx="329.522" cy="108.834" fill-opacity=".4" r=".124205" transform="matrix(-.49363833 .86966729 -.86966729 -.49363833 586.836059 -124.015873)"/><circle cx="375.247" cy="77.0897" fill-opacity=".4" r=".124205" transform="matrix(-.49363833 .86966729 -.86966729 -.49363833 627.525692 -211.195913)"/><circle cx="358.043" cy="158.728" fill-opacity=".4" r=".124205" transform="matrix(-.49363833 .86966729 -.86966729 -.49363833 672.827297 -74.296063)"/><circle cx="328.075" cy="77.1629" fill-opacity=".4" r=".124205" transform="matrix(-.49363833 .86966729 -.86966729 -.49363833 557.131444 -170.062633)"/><circle cx="310.569" cy="107.502" fill-opacity=".4" r=".124205" transform="matrix(-.49363833 .86966729 -.86966729 -.49363833 557.368735 -109.522595)"/><circle cx="292.524" cy="175.524" fill-opacity=".2" r=".621027" transform="matrix(-.49363833 .86966729 -.86966729 -.49363833 589.57254 7.770818)"/><circle cx="334.028" cy="133.1" fill-opacity=".3" r=".621027" transform="matrix(-.49363833 .86966729 -.86966729 -.49363833 614.66974 -91.689966)"/><circle cx="249.986" cy="212.22" fill-opacity=".4" r=".621027" transform="matrix(-.49363833 .86966729 -.86966729 -.49363833 557.949464 99.575277)"/><circle cx="328.065" cy="180.845" fill-opacity=".4" r=".621027" transform="matrix(-.49363833 .86966729 -.86966729 -.49363833 647.285439 -15.190378)"/><circle cx="395.383" cy="141.505" fill-opacity=".4" opacity=".5" r=".496822" transform="matrix(-.49363833 .86966729 -.86966729 -.49363833 713.621473 -132.494373)"/><circle cx="387.675" cy="21.7308" fill-opacity=".4" opacity=".5" r=".496822" transform="matrix(-.49363833 .86966729 -.86966729 -.49363833 597.944804 -304.690313)"/><circle cx="403.497" cy="69.844" fill-opacity=".4" opacity=".5" r=".496822" transform="matrix(-.49363833 .86966729 -.86966729 -.49363833 663.419626 -246.586469)"/><circle cx="347.89" cy="139.441" fill-opacity=".4" r=".125127" transform="matrix(.95486973 -.29702492 .29702492 .95486973 -25.717081 109.625008)"/><circle cx="339.828" cy="162.391" fill-opacity=".4" r=".125127" transform="matrix(.95486973 -.29702492 .29702492 .95486973 -32.897643 108.266133)"/><circle cx="273.562" cy="170.949" fill-opacity=".4" r=".125127" transform="matrix(.95486973 -.29702492 .29702492 .95486973 -38.430185 88.969705)"/><circle cx="207.296" cy="179.505" fill-opacity=".4" r=".125127" transform="matrix(.95486973 -.29702492 .29702492 .95486973 -43.962133 69.673186)"/><circle cx="219.822" cy="202.079" fill-opacity=".4" r=".125127" transform="matrix(.95486973 -.29702492 .29702492 .95486973 -50.101872 74.412491)"/><circle cx="241.551" cy="207.901" fill-opacity=".4" r=".125127" transform="matrix(.95486973 -.29702492 .29702492 .95486973 -50.850515 81.129294)"/><circle cx="186.07" cy="199.736" fill-opacity=".4" r=".125127" transform="matrix(.95486973 -.29702492 .29702492 .95486973 -50.929179 64.281566)"/><circle cx="254.956" cy="151.575" fill-opacity=".4" r=".125127" transform="matrix(.95486973 -.29702492 .29702492 .95486973 -33.515318 82.568905)"/><circle cx="323.842" cy="103.415" fill-opacity=".4" r=".125127" transform="matrix(.95486973 -.29702492 .29702492 .95486973 -16.101754 100.85629)"/><circle cx="314.689" cy="184.364" fill-opacity=".2" r=".625637" transform="matrix(.95486973 -.29702492 .29702492 .95486973 -40.558702 101.790871)"/><circle cx="254.955" cy="186.957" fill-opacity=".3" r=".625637" transform="matrix(.95486973 -.29702492 .29702492 .95486973 -44.024699 84.165408)"/><circle cx="371.237" cy="186.692" fill-opacity=".4" r=".625637" transform="matrix(.95486973 -.29702492 .29702492 .95486973 -38.698149 118.692099)"/><circle cx="292.228" cy="155.969" fill-opacity=".4" r=".625637" transform="matrix(.95486973 -.29702492 .29702492 .95486973 -33.13835 93.83792)"/><circle cx="215.643" cy="138.514" fill-opacity=".4" opacity=".5" r=".50051" transform="matrix(.95486973 -.29702492 .29702492 .95486973 -31.410082 70.302518)"/><circle cx="160.314" cy="185.602" fill-opacity=".4" opacity=".5" r=".50051" transform="matrix(.95486973 -.29702492 .29702492 .95486973 -47.893404 55.993521)"/><circle cx="130.715" cy="214.891" fill-opacity=".4" r=".125127" transform="matrix(-.9703759 .24160012 -.24160012 -.9703759 309.475377 391.835287)"/><circle cx="140.083" cy="192.443" fill-opacity=".4" r=".125127" transform="matrix(-.9703759 .24160012 -.24160012 -.9703759 322.510419 345.340979)"/><circle cx="206.732" cy="187.712" fill-opacity=".4" r=".125127" transform="matrix(-.9703759 .24160012 -.24160012 -.9703759 452.690992 319.916724)"/><circle cx="273.38" cy="182.981" fill-opacity=".4" r=".125127" transform="matrix(-.9703759 .24160012 -.24160012 -.9703759 582.869594 294.492711)"/><circle cx="262.174" cy="159.724" fill-opacity=".4" r=".125127" transform="matrix(-.9703759 .24160012 -.24160012 -.9703759 555.170668 251.37505)"/><circle cx="291.271" cy="134.685" fill-opacity=".4" r=".125127" transform="matrix(-.9703759 .24160012 -.24160012 -.9703759 606.45327 195.008969)"/><circle cx="240.816" cy="152.663" fill-opacity=".4" r=".125127" transform="matrix(-.9703759 .24160012 -.24160012 -.9703759 511.381441 242.622321)"/><circle cx="295.735" cy="164.005" fill-opacity=".4" r=".125127" transform="matrix(-.9703759 .24160012 -.24160012 -.9703759 622.332744 251.701888)"/><circle cx="224.193" cy="208.123" fill-opacity=".4" r=".125127" transform="matrix(-.9703759 .24160012 -.24160012 -.9703759 492.027025 355.915487)"/><circle cx="262.931" cy="129.62" fill-opacity=".4" r=".125127" transform="matrix(-.9703759 .24160012 -.24160012 -.9703759 549.389113 191.875963)"/><circle cx="228.63" cy="137.902" fill-opacity=".4" r=".125127" transform="matrix(-.9703759 .24160012 -.24160012 -.9703759 483.804181 216.481742)"/><circle cx="166.445" cy="171.953" fill-opacity=".2" r=".625637" transform="matrix(-.9703759 .24160012 -.24160012 -.9703759 369.503082 298.598915)"/><circle cx="226.23" cy="172.8" fill-opacity=".3" r=".625637" transform="matrix(-.9703759 .24160012 -.24160012 -.9703759 487.50664 285.82376)"/><circle cx="110.125" cy="166.375" fill-opacity=".4" r=".625637" transform="matrix(-.9703759 .24160012 -.24160012 -.9703759 257.183866 301.215077)"/><circle cx="187.235" cy="201.593" fill-opacity=".4" r=".625637" transform="matrix(-.9703759 .24160012 -.24160012 -.9703759 417.628224 351.97799)"/><circle cx="344.775" cy="134.645" fill-opacity=".4" opacity=".5" r=".50051" transform="matrix(-.9703759 .24160012 -.24160012 -.9703759 711.866598 182.003581)"/><circle cx="320.635" cy="179.597" fill-opacity=".4" opacity=".5" r=".50051" transform="matrix(-.9703759 .24160012 -.24160012 -.9703759 675.162133 276.408146)"/><path d="m106.58 105.029-2.484-8.3757h1.068l1.188 4.1877.9 3.168h.06l.9-3.168 1.188-4.1877h1.032l-2.484 8.3757zm8.12.144c-.432 0-.824-.076-1.176-.228-.344-.152-.64-.368-.888-.648-.24-.288-.424-.628-.552-1.02-.128-.4-.192-.848-.192-1.344 0-.488.064-.932.192-1.332s.312-.7397.552-1.0197c.248-.288.544-.508.888-.66.352-.152.744-.228 1.176-.228s.82.076 1.164.228c.352.152.648.372.888.66.248.28.436.6197.564 1.0197s.192.844.192 1.332c0 .496-.064.944-.192 1.344-.128.392-.316.732-.564 1.02-.24.28-.536.496-.888.648-.344.152-.732.228-1.164.228zm0-.828c.536 0 .968-.16 1.296-.48s.492-.816.492-1.488v-.888c0-.672-.164-1.168-.492-1.488-.328-.3197-.76-.4797-1.296-.4797s-.968.16-1.296.4797c-.328.32-.492.816-.492 1.488v.888c0 .672.164 1.168.492 1.488s.76.48 1.296.48zm4.795-.132h2.16v-7.2477h-2.16v-.816h3.12v8.0637h2.16v.816h-5.28zm10.375.816c-.472 0-.82-.132-1.044-.396-.216-.264-.324-.604-.324-1.02v-3.9597h-2.064v-.816h1.536c.208 0 .352-.04.432-.12.088-.088.132-.236.132-.444v-1.62h.924v2.184h2.82v.816h-2.82v4.5597h2.82v.816zm4.556 0v-.924l3.996-4.4517h-3.864v-.816h4.908v.924l-3.996 4.4517h4.116v.816zm16.838 0-2.22-6.1917h.972l.888 2.5917.96 2.796h.048l.96-2.796.888-2.5917h.948l-2.22 6.1917zm10.892 0h-5.592v-1.032l2.796-2.52c.408-.368.744-.744 1.008-1.128.264-.3917.396-.8037.396-1.2357v-.144c0-.504-.132-.892-.396-1.164-.264-.28-.656-.42-1.176-.42-.512 0-.908.132-1.188.396-.272.256-.476.6-.612 1.032l-.9-.336c.08-.248.188-.488.324-.72.144-.24.324-.452.54-.636s.476-.332.78-.444c.312-.112.672-.168 1.08-.168.416 0 .784.06 1.104.18.328.12.6.288.816.504.224.216.392.472.504.768.12.296.18.62.18.972 0 .32-.048.62-.144.9-.088.2797-.216.5477-.384.8037-.16.256-.356.508-.588.756-.224.24-.476.48-.756.72l-2.34 2.04h4.548zm11.342 0-2.484-8.3757h1.068l1.188 4.1877.9 3.168h.06l.9-3.168 1.188-4.1877h1.032l-2.484 8.3757zm8.119.144c-.432 0-.824-.076-1.176-.228-.344-.152-.64-.368-.888-.648-.24-.288-.424-.628-.552-1.02-.128-.4-.192-.848-.192-1.344 0-.488.064-.932.192-1.332s.312-.7397.552-1.0197c.248-.288.544-.508.888-.66.352-.152.744-.228 1.176-.228s.82.076 1.164.228c.352.152.648.372.888.66.248.28.436.6197.564 1.0197s.192.844.192 1.332c0 .496-.064.944-.192 1.344-.128.392-.316.732-.564 1.02-.24.28-.536.496-.888.648-.344.152-.732.228-1.164.228zm0-.828c.536 0 .968-.16 1.296-.48s.492-.816.492-1.488v-.888c0-.672-.164-1.168-.492-1.488-.328-.3197-.76-.4797-1.296-.4797s-.968.16-1.296.4797c-.328.32-.492.816-.492 1.488v.888c0 .672.164 1.168.492 1.488s.76.48 1.296.48zm9.44-5.5077h.96l-3.072 7.5477c-.072.176-.152.328-.24.456-.088.136-.192.244-.312.324-.12.088-.264.152-.432.192-.168.048-.368.072-.6.072h-.912v-.816h1.44l.696-1.704-2.496-6.0717h.984l1.044 2.5917.924 2.352h.048l.924-2.352zm7.771 6.1917c-.376 0-.644-.096-.804-.288s-.26-.432-.3-.72h-.06c-.136.36-.356.644-.66.852-.296.2-.696.3-1.2.3-.648 0-1.164-.168-1.548-.504s-.576-.796-.576-1.38c0-.576.208-1.02.624-1.332.424-.312 1.104-.468 2.04-.468h1.32v-.612c0-.456-.128-.796-.384-1.0197-.256-.232-.62-.348-1.092-.348-.416 0-.756.084-1.02.252-.264.16-.476.3797-.636.6597l-.648-.4797c.08-.16.188-.316.324-.468s.304-.284.504-.396c.2-.12.428-.212.684-.276.256-.072.54-.108.852-.108.728 0 1.304.184 1.728.552.432.368.648.8797.648 1.5357v3.408h.864v.84zm-2.856-.66c.248 0 .472-.028.672-.084.208-.064.388-.144.54-.24.152-.104.268-.224.348-.36.088-.144.132-.296.132-.456v-1.02h-1.32c-.576 0-.996.08-1.26.24s-.396.392-.396.696v.252c0 .32.112.564.336.732.232.16.548.24.948.24zm11.083 1.368c0 .624-.26 1.084-.78 1.38-.52.304-1.3.456-2.34.456-1 0-1.72-.132-2.16-.396-.432-.264-.648-.644-.648-1.14 0-.336.088-.596.264-.78s.424-.32.744-.408v-.144c-.176-.088-.312-.2-.408-.336s-.144-.308-.144-.516c0-.32.104-.56.312-.72.216-.16.484-.28.804-.36v-.048c-.384-.168-.684-.416-.9-.744-.208-.328-.312-.712-.312-1.152 0-.312.056-.6.168-.8637.112-.264.272-.488.48-.672.216-.192.472-.34.768-.444s.624-.156.984-.156c.464 0 .872.084 1.224.252v-.108c0-.24.056-.44.168-.6s.304-.24.576-.24h1.14v.84h-1.392v.42c.224.192.396.42.516.684.12.2637.18.5597.18.8877 0 .312-.06.6-.18.864-.112.264-.272.492-.48.684-.208.184-.464.328-.768.432-.296.104-.624.156-.984.156-.104 0-.204-.004-.3-.012s-.192-.02-.288-.036c-.096.016-.196.044-.3.084-.104.032-.2.08-.288.144-.088.056-.16.124-.216.204s-.084.172-.084.276c0 .184.092.308.276.372.184.056.424.084.72.084h1.368c.8 0 1.38.152 1.74.456.36.296.54.696.54 1.2zm-.9.048c0-.248-.1-.448-.3-.6-.2-.144-.548-.216-1.044-.216h-2.148c-.416.168-.624.448-.624.84 0 .272.108.504.324.696.216.2.576.3 1.08.3h.936c.56 0 .996-.088 1.308-.264.312-.168.468-.42.468-.756zm-2.268-3.564c.48 0 .832-.112 1.056-.336.232-.224.348-.52.348-.888v-.348c0-.368-.116-.6597-.348-.8757-.224-.224-.576-.336-1.056-.336s-.832.112-1.056.336c-.224.216-.336.5077-.336.8757v.348c0 .368.112.664.336.888s.576.336 1.056.336zm7.58 2.952c-.448 0-.852-.076-1.212-.228-.352-.152-.656-.368-.912-.648-.248-.288-.44-.628-.576-1.02-.136-.4-.204-.844-.204-1.332 0-.496.068-.944.204-1.344.144-.4.34-.7397.588-1.0197.248-.288.544-.508.888-.66.352-.152.74-.228 1.164-.228.416 0 .792.076 1.128.228.344.152.636.364.876.636.24.264.424.5797.552.9477s.192.772.192 1.212v.456h-4.584v.288c0 .272.044.524.132.756s.212.432.372.6c.168.168.368.3.6.396.24.088.504.132.792.132.416 0 .776-.096 1.08-.288s.536-.456.696-.792l.708.48c-.184.416-.492.76-.924 1.032-.424.264-.944.396-1.56.396zm-.06-5.6877c-.264 0-.508.048-.732.144s-.42.228-.588.3957c-.16.168-.288.368-.384.6-.088.224-.132.472-.132.744v.084h3.552v-.132c0-.272-.044-.52-.132-.744-.08-.224-.196-.416-.348-.576-.144-.1677-.324-.2957-.54-.3837-.208-.088-.44-.132-.696-.132zm11.966 1.0797v-.8157h5.712v.8157zm0 2.4v-.816h5.712v.816zm15.207 2.064v-8.3757h5.16v.876h-4.152v2.8197h4.008v.876h-4.008v2.928h4.152v.876zm12.295 0c-.376 0-.644-.096-.804-.288s-.26-.432-.3-.72h-.06c-.136.36-.356.644-.66.852-.296.2-.696.3-1.2.3-.648 0-1.164-.168-1.548-.504s-.576-.796-.576-1.38c0-.576.208-1.02.624-1.332.424-.312 1.104-.468 2.04-.468h1.32v-.612c0-.456-.128-.796-.384-1.0197-.256-.232-.62-.348-1.092-.348-.416 0-.756.084-1.02.252-.264.16-.476.3797-.636.6597l-.648-.4797c.08-.16.188-.316.324-.468s.304-.284.504-.396c.2-.12.428-.212.684-.276.256-.072.54-.108.852-.108.728 0 1.304.184 1.728.552.432.368.648.8797.648 1.5357v3.408h.864v.84zm-2.856-.66c.248 0 .472-.028.672-.084.208-.064.388-.144.54-.24.152-.104.268-.224.348-.36.088-.144.132-.296.132-.456v-1.02h-1.32c-.576 0-.996.08-1.26.24s-.396.392-.396.696v.252c0 .32.112.564.336.732.232.16.548.24.948.24zm5.276-.156h1.812v-4.5597h-1.812v-.816h2.772v1.5597h.06c.128-.4877.368-.8677.72-1.1397.36-.28.816-.42 1.368-.42h.864v.96h-1.164c-.552 0-1 .16-1.344.4797-.336.32-.504.74-.504 1.26v2.676h2.4v.816h-5.172zm7.471 0h2.16v-7.2477h-2.16v-.816h3.12v8.0637h2.16v.816h-5.28zm12.079-5.3757h.96l-3.072 7.5477c-.072.176-.152.328-.24.456-.088.136-.192.244-.312.324-.12.088-.264.152-.432.192-.168.048-.368.072-.6.072h-.912v-.816h1.44l.696-1.704-2.496-6.0717h.984l1.044 2.5917.924 2.352h.048l.924-2.352zm15.207 6.1917c-.376 0-.644-.096-.804-.288s-.26-.432-.3-.72h-.06c-.136.36-.356.644-.66.852-.296.2-.696.3-1.2.3-.648 0-1.164-.168-1.548-.504s-.576-.796-.576-1.38c0-.576.208-1.02.624-1.332.424-.312 1.104-.468 2.04-.468h1.32v-.612c0-.456-.128-.796-.384-1.0197-.256-.232-.62-.348-1.092-.348-.416 0-.756.084-1.02.252-.264.16-.476.3797-.636.6597l-.648-.4797c.08-.16.188-.316.324-.468s.304-.284.504-.396c.2-.12.428-.212.684-.276.256-.072.54-.108.852-.108.728 0 1.304.184 1.728.552.432.368.648.8797.648 1.5357v3.408h.864v.84zm-2.856-.66c.248 0 .472-.028.672-.084.208-.064.388-.144.54-.24.152-.104.268-.224.348-.36.088-.144.132-.296.132-.456v-1.02h-1.32c-.576 0-.996.08-1.26.24s-.396.392-.396.696v.252c0 .32.112.564.336.732.232.16.548.24.948.24zm8.167.804c-.448 0-.848-.076-1.2-.228-.344-.16-.636-.38-.876-.66s-.424-.62-.552-1.02c-.12-.4-.18-.844-.18-1.332s.064-.932.192-1.332.312-.7397.552-1.0197c.24-.288.532-.508.876-.66s.736-.228 1.176-.228c.6 0 1.088.132 1.464.396s.652.608.828 1.0317l-.768.408c-.112-.32-.3-.5677-.564-.7437-.256-.176-.576-.264-.96-.264-.28 0-.532.048-.756.144-.216.088-.4.216-.552.3837-.152.168-.268.368-.348.6-.072.232-.108.484-.108.756v1.056c0 .272.036.524.108.756.08.232.196.432.348.6s.34.3.564.396c.224.088.48.132.768.132.416 0 .76-.096 1.032-.288s.488-.456.648-.792l.684.468c-.184.416-.472.76-.864 1.032-.384.272-.888.408-1.512.408zm7.435 0c-.448 0-.848-.076-1.2-.228-.344-.16-.636-.38-.876-.66s-.424-.62-.552-1.02c-.12-.4-.18-.844-.18-1.332s.064-.932.192-1.332.312-.7397.552-1.0197c.24-.288.532-.508.876-.66s.736-.228 1.176-.228c.6 0 1.088.132 1.464.396s.652.608.828 1.0317l-.768.408c-.112-.32-.3-.5677-.564-.7437-.256-.176-.576-.264-.96-.264-.28 0-.532.048-.756.144-.216.088-.4.216-.552.3837-.152.168-.268.368-.348.6-.072.232-.108.484-.108.756v1.056c0 .272.036.524.108.756.08.232.196.432.348.6s.34.3.564.396c.224.088.48.132.768.132.416 0 .76-.096 1.032-.288s.488-.456.648-.792l.684.468c-.184.416-.472.76-.864 1.032-.384.272-.888.408-1.512.408zm7.328 0c-.448 0-.852-.076-1.212-.228-.352-.152-.656-.368-.912-.648-.248-.288-.44-.628-.576-1.02-.136-.4-.204-.844-.204-1.332 0-.496.068-.944.204-1.344.144-.4.34-.7397.588-1.0197.248-.288.544-.508.888-.66.352-.152.74-.228 1.164-.228.416 0 .792.076 1.128.228.344.152.636.364.876.636.24.264.424.5797.552.9477s.192.772.192 1.212v.456h-4.584v.288c0 .272.044.524.132.756s.212.432.372.6c.168.168.368.3.6.396.24.088.504.132.792.132.416 0 .776-.096 1.08-.288s.536-.456.696-.792l.708.48c-.184.416-.492.76-.924 1.032-.424.264-.944.396-1.56.396zm-.06-5.6877c-.264 0-.508.048-.732.144s-.42.228-.588.3957c-.16.168-.288.368-.384.6-.088.224-.132.472-.132.744v.084h3.552v-.132c0-.272-.044-.52-.132-.744-.08-.224-.196-.416-.348-.576-.144-.1677-.324-.2957-.54-.3837-.208-.088-.44-.132-.696-.132zm7.459 5.6877c-.648 0-1.208-.108-1.68-.324-.464-.224-.86-.52-1.188-.888l.648-.564c.296.312.62.552.972.72s.776.252 1.272.252c.48 0 .872-.084 1.176-.252.312-.176.468-.448.468-.816 0-.16-.032-.292-.096-.396-.056-.112-.136-.2-.24-.264s-.22-.112-.348-.144c-.128-.04-.264-.072-.408-.096l-.972-.144c-.216-.032-.452-.076-.708-.132-.248-.056-.476-.144-.684-.264-.208-.128-.384-.296-.528-.504-.136-.208-.204-.48-.204-.816 0-.312.06-.5797.18-.8037.128-.232.304-.424.528-.576.224-.16.488-.276.792-.348.304-.08.636-.12.996-.12.56 0 1.044.088 1.452.264.416.176.772.42 1.068.732l-.624.5877c-.072-.088-.164-.176-.276-.264-.104-.0957-.236-.1797-.396-.2517-.152-.08-.332-.144-.54-.192s-.448-.072-.72-.072c-.488 0-.864.084-1.128.252-.256.168-.384.4117-.384.7317 0 .16.028.296.084.408.064.104.148.188.252.252s.22.116.348.156c.136.032.272.06.408.084l.972.144c.224.032.46.076.708.132s.476.148.684.276c.208.12.38.284.516.492.144.208.216.48.216.816 0 .616-.24 1.092-.72 1.428-.472.336-1.104.504-1.896.504zm7.435 0c-.648 0-1.208-.108-1.68-.324-.464-.224-.86-.52-1.188-.888l.648-.564c.296.312.62.552.972.72s.776.252 1.272.252c.48 0 .872-.084 1.176-.252.312-.176.468-.448.468-.816 0-.16-.032-.292-.096-.396-.056-.112-.136-.2-.24-.264s-.22-.112-.348-.144c-.128-.04-.264-.072-.408-.096l-.972-.144c-.216-.032-.452-.076-.708-.132-.248-.056-.476-.144-.684-.264-.208-.128-.384-.296-.528-.504-.136-.208-.204-.48-.204-.816 0-.312.06-.5797.18-.8037.128-.232.304-.424.528-.576.224-.16.488-.276.792-.348.304-.08.636-.12.996-.12.56 0 1.044.088 1.452.264.416.176.772.42 1.068.732l-.624.5877c-.072-.088-.164-.176-.276-.264-.104-.0957-.236-.1797-.396-.2517-.152-.08-.332-.144-.54-.192s-.448-.072-.72-.072c-.488 0-.864.084-1.128.252-.256.168-.384.4117-.384.7317 0 .16.028.296.084.408.064.104.148.188.252.252s.22.116.348.156c.136.032.272.06.408.084l.972.144c.224.032.46.076.708.132s.476.148.684.276c.208.12.38.284.516.492.144.208.216.48.216.816 0 .616-.24 1.092-.72 1.428-.472.336-1.104.504-1.896.504zm15.099-.144c-.472 0-.82-.132-1.044-.396-.216-.264-.324-.604-.324-1.02v-3.9597h-2.064v-.816h1.536c.208 0 .352-.04.432-.12.088-.088.132-.236.132-.444v-1.62h.924v2.184h2.82v.816h-2.82v4.5597h2.82v.816zm7.135.144c-.432 0-.824-.076-1.176-.228-.344-.152-.64-.368-.888-.648-.24-.288-.424-.628-.552-1.02-.128-.4-.192-.848-.192-1.344 0-.488.064-.932.192-1.332s.312-.7397.552-1.0197c.248-.288.544-.508.888-.66.352-.152.744-.228 1.176-.228s.82.076 1.164.228c.352.152.648.372.888.66.248.28.436.6197.564 1.0197s.192.844.192 1.332c0 .496-.064.944-.192 1.344-.128.392-.316.732-.564 1.02-.24.28-.536.496-.888.648-.344.152-.732.228-1.164.228zm0-.828c.536 0 .968-.16 1.296-.48s.492-.816.492-1.488v-.888c0-.672-.164-1.168-.492-1.488-.328-.3197-.76-.4797-1.296-.4797s-.968.16-1.296.4797c-.328.32-.492.816-.492 1.488v.888c0 .672.164 1.168.492 1.488s.76.48 1.296.48zm14.259.684-2.22-6.1917h.972l.888 2.5917.96 2.796h.048l.96-2.796.888-2.5917h.948l-2.22 6.1917zm10.891 0h-5.592v-1.032l2.796-2.52c.408-.368.744-.744 1.008-1.128.264-.3917.396-.8037.396-1.2357v-.144c0-.504-.132-.892-.396-1.164-.264-.28-.656-.42-1.176-.42-.512 0-.908.132-1.188.396-.272.256-.476.6-.612 1.032l-.9-.336c.08-.248.188-.488.324-.72.144-.24.324-.452.54-.636s.476-.332.78-.444c.312-.112.672-.168 1.08-.168.416 0 .784.06 1.104.18.328.12.6.288.816.504.224.216.392.472.504.768.12.296.18.62.18.972 0 .32-.048.62-.144.9-.088.2797-.216.5477-.384.8037-.16.256-.356.508-.588.756-.224.24-.476.48-.756.72l-2.34 2.04h4.548zm-249.467 17c-.376 0-.644-.096-.804-.288s-.26-.432-.3-.72h-.06c-.136.36-.356.644-.66.852-.296.2-.696.3-1.2.3-.648 0-1.164-.168-1.548-.504s-.576-.796-.576-1.38c0-.576.208-1.02.624-1.332.424-.312 1.104-.468 2.04-.468h1.32v-.612c0-.456-.128-.796-.384-1.02-.256-.232-.62-.348-1.092-.348-.416 0-.756.084-1.02.252-.264.16-.476.38-.636.66l-.648-.48c.08-.16.188-.316.324-.468s.304-.284.504-.396c.2-.12.428-.212.684-.276.256-.072.54-.108.852-.108.728 0 1.304.184 1.728.552.432.368.648.88.648 1.536v3.408h.864v.84zm-2.856-.66c.248 0 .472-.028.672-.084.208-.064.388-.144.54-.24.152-.104.268-.224.348-.36.088-.144.132-.296.132-.456v-1.02h-1.32c-.576 0-.996.08-1.26.24s-.396.392-.396.696v.252c0 .32.112.564.336.732.232.16.548.24.948.24zm5.312-.156h2.16v-7.248h-2.16v-.816h3.12v8.064h2.16v.816h-5.28zm10.075.96c-.432 0-.824-.076-1.176-.228-.344-.152-.64-.368-.888-.648-.24-.288-.424-.628-.552-1.02-.128-.4-.192-.848-.192-1.344 0-.488.064-.932.192-1.332s.312-.74.552-1.02c.248-.288.544-.508.888-.66.352-.152.744-.228 1.176-.228s.82.076 1.164.228c.352.152.648.372.888.66.248.28.436.62.564 1.02s.192.844.192 1.332c0 .496-.064.944-.192 1.344-.128.392-.316.732-.564 1.02-.24.28-.536.496-.888.648-.344.152-.732.228-1.164.228zm0-.828c.536 0 .968-.16 1.296-.48s.492-.816.492-1.488v-.888c0-.672-.164-1.168-.492-1.488s-.76-.48-1.296-.48-.968.16-1.296.48-.492.816-.492 1.488v.888c0 .672.164 1.168.492 1.488s.76.48 1.296.48zm5.011.684v-6.192h.96v1.008h.048c.064-.152.144-.296.24-.432.096-.144.212-.268.348-.372.144-.104.312-.188.504-.252s.416-.096.672-.096c.648 0 1.168.208 1.56.624.392.408.588.988.588 1.74v3.972h-.96v-3.804c0-.568-.124-.988-.372-1.26-.248-.28-.612-.42-1.092-.42-.192 0-.38.024-.564.072s-.348.12-.492.216-.26.22-.348.372-.132.328-.132.528v4.296zm12.992.708c0 .624-.26 1.084-.78 1.38-.52.304-1.3.456-2.34.456-1 0-1.72-.132-2.16-.396-.432-.264-.648-.644-.648-1.14 0-.336.088-.596.264-.78s.424-.32.744-.408v-.144c-.176-.088-.312-.2-.408-.336s-.144-.308-.144-.516c0-.32.104-.56.312-.72.216-.16.484-.28.804-.36v-.048c-.384-.168-.684-.416-.9-.744-.208-.328-.312-.712-.312-1.152 0-.312.056-.6.168-.864s.272-.488.48-.672c.216-.192.472-.34.768-.444s.624-.156.984-.156c.464 0 .872.084 1.224.252v-.108c0-.24.056-.44.168-.6s.304-.24.576-.24h1.14v.84h-1.392v.42c.224.192.396.42.516.684s.18.56.18.888c0 .312-.06.6-.18.864-.112.264-.272.492-.48.684-.208.184-.464.328-.768.432-.296.104-.624.156-.984.156-.104 0-.204-.004-.3-.012s-.192-.02-.288-.036c-.096.016-.196.044-.3.084-.104.032-.2.08-.288.144-.088.056-.16.124-.216.204s-.084.172-.084.276c0 .184.092.308.276.372.184.056.424.084.72.084h1.368c.8 0 1.38.152 1.74.456.36.296.54.696.54 1.2zm-.9.048c0-.248-.1-.448-.3-.6-.2-.144-.548-.216-1.044-.216h-2.148c-.416.168-.624.448-.624.84 0 .272.108.504.324.696.216.2.576.3 1.08.3h.936c.56 0 .996-.088 1.308-.264.312-.168.468-.42.468-.756zm-2.268-3.564c.48 0 .832-.112 1.056-.336.232-.224.348-.52.348-.888v-.348c0-.368-.116-.66-.348-.876-.224-.224-.576-.336-1.056-.336s-.832.112-1.056.336c-.224.216-.336.508-.336.876v.348c0 .368.112.664.336.888s.576.336 1.056.336zm11.666-3.384h.852l.708 5.352h.108l1.056-5.352h1.056l1.056 5.352h.108l.708-5.352h.828l-.948 6.192h-1.248l-.984-5.184h-.096l-1.008 5.184h-1.248zm11.06-1.368c-.28 0-.476-.056-.588-.168-.112-.12-.168-.268-.168-.444v-.192c0-.176.056-.32.168-.432.112-.12.308-.18.588-.18s.476.06.588.18c.112.112.168.256.168.432v.192c0 .176-.056.324-.168.444-.112.112-.308.168-.588.168zm-2.712 6.744h2.232v-4.56h-2.232v-.816h3.192v5.376h2.088v.816h-5.28zm10.063.816c-.472 0-.82-.132-1.044-.396-.216-.264-.324-.604-.324-1.02v-3.96h-2.064v-.816h1.536c.208 0 .352-.04.432-.12.088-.088.132-.236.132-.444v-1.62h.924v2.184h2.82v.816h-2.82v4.56h2.82v.816zm4.711-8.88h.96v3.696h.048c.064-.152.144-.296.24-.432.096-.144.212-.268.348-.372.144-.104.312-.188.504-.252s.416-.096.672-.096c.648 0 1.168.208 1.56.624.392.408.588.988.588 1.74v3.972h-.96v-3.804c0-.568-.124-.988-.372-1.26-.248-.28-.612-.42-1.092-.42-.192 0-.38.024-.564.072s-.348.12-.492.216-.26.22-.348.372-.132.328-.132.528v4.296h-.96zm17.295 9.024c-.432 0-.824-.076-1.176-.228-.344-.152-.64-.368-.888-.648-.24-.288-.424-.628-.552-1.02-.128-.4-.192-.848-.192-1.344 0-.488.064-.932.192-1.332s.312-.74.552-1.02c.248-.288.544-.508.888-.66.352-.152.744-.228 1.176-.228s.82.076 1.164.228c.352.152.648.372.888.66.248.28.436.62.564 1.02s.192.844.192 1.332c0 .496-.064.944-.192 1.344-.128.392-.316.732-.564 1.02-.24.28-.536.496-.888.648-.344.152-.732.228-1.164.228zm0-.828c.536 0 .968-.16 1.296-.48s.492-.816.492-1.488v-.888c0-.672-.164-1.168-.492-1.488s-.76-.48-1.296-.48-.968.16-1.296.48-.492.816-.492 1.488v.888c0 .672.164 1.168.492 1.488s.76.48 1.296.48zm7.735.684c-.472 0-.82-.132-1.044-.396-.216-.264-.324-.604-.324-1.02v-3.96h-2.064v-.816h1.536c.208 0 .352-.04.432-.12.088-.088.132-.236.132-.444v-1.62h.924v2.184h2.82v.816h-2.82v4.56h2.82v.816zm4.711-8.88h.96v3.696h.048c.064-.152.144-.296.24-.432.096-.144.212-.268.348-.372.144-.104.312-.188.504-.252s.416-.096.672-.096c.648 0 1.168.208 1.56.624.392.408.588.988.588 1.74v3.972h-.96v-3.804c0-.568-.124-.988-.372-1.26-.248-.28-.612-.42-1.092-.42-.192 0-.38.024-.564.072s-.348.12-.492.216-.26.22-.348.372-.132.328-.132.528v4.296h-.96zm9.968 9.024c-.448 0-.852-.076-1.212-.228-.352-.152-.656-.368-.912-.648-.248-.288-.44-.628-.576-1.02-.136-.4-.204-.844-.204-1.332 0-.496.068-.944.204-1.344.144-.4.34-.74.588-1.02.248-.288.544-.508.888-.66.352-.152.74-.228 1.164-.228.416 0 .792.076 1.128.228.344.152.636.364.876.636.24.264.424.58.552.948s.192.772.192 1.212v.456h-4.584v.288c0 .272.044.524.132.756s.212.432.372.6c.168.168.368.3.6.396.24.088.504.132.792.132.416 0 .776-.096 1.08-.288s.536-.456.696-.792l.708.48c-.184.416-.492.76-.924 1.032-.424.264-.944.396-1.56.396zm-.06-5.688c-.264 0-.508.048-.732.144s-.42.228-.588.396c-.16.168-.288.368-.384.6-.088.224-.132.472-.132.744v.084h3.552v-.132c0-.272-.044-.52-.132-.744-.08-.224-.196-.416-.348-.576-.144-.168-.324-.296-.54-.384-.208-.088-.44-.132-.696-.132zm4.711 4.728h1.812v-4.56h-1.812v-.816h2.772v1.56h.06c.128-.488.368-.868.72-1.14.36-.28.816-.42 1.368-.42h.864v.96h-1.164c-.552 0-1 .16-1.344.48-.336.32-.504.74-.504 1.26v2.676h2.4v.816h-5.172zm19.011-.192h-.048c-.064.152-.144.3-.24.444-.096.136-.216.256-.36.36-.136.104-.3.188-.492.252s-.416.096-.672.096c-.648 0-1.168-.204-1.56-.612-.392-.416-.588-1-.588-1.752v-3.972h.96v3.804c0 .568.124.992.372 1.272.248.272.612.408 1.092.408.192 0 .38-.024.564-.072s.348-.12.492-.216.26-.216.348-.36c.088-.152.132-.332.132-.54v-4.296h.96v6.192h-.96zm3.547 1.008v-6.192h.96v1.008h.048c.064-.152.144-.296.24-.432.096-.144.212-.268.348-.372.144-.104.312-.188.504-.252s.416-.096.672-.096c.648 0 1.168.208 1.56.624.392.408.588.988.588 1.74v3.972h-.96v-3.804c0-.568-.124-.988-.372-1.26-.248-.28-.612-.42-1.092-.42-.192 0-.38.024-.564.072s-.348.12-.492.216-.26.22-.348.372-.132.328-.132.528v4.296zm10.243-7.56c-.28 0-.476-.056-.588-.168-.112-.12-.168-.268-.168-.444v-.192c0-.176.056-.32.168-.432.112-.12.308-.18.588-.18s.476.06.588.18c.112.112.168.256.168.432v.192c0 .176-.056.324-.168.444-.112.112-.308.168-.588.168zm-2.712 6.744h2.232v-4.56h-2.232v-.816h3.192v5.376h2.088v.816h-5.28zm11.264-.192h-.048c-.4.768-1.036 1.152-1.908 1.152-.76 0-1.356-.284-1.788-.852-.424-.568-.636-1.364-.636-2.388s.212-1.82.636-2.388c.432-.568 1.028-.852 1.788-.852.872 0 1.508.384 1.908 1.152h.048v-1.008h.96v8.592h-.96zm-1.584.3c.216 0 .42-.028.612-.084s.36-.136.504-.24c.144-.112.256-.244.336-.396.088-.16.132-.344.132-.552v-2.232c0-.208-.044-.388-.132-.54-.08-.16-.192-.292-.336-.396-.144-.112-.312-.196-.504-.252s-.396-.084-.612-.084c-.56 0-.996.172-1.308.516-.304.336-.456.784-.456 1.344v1.056c0 .56.152 1.012.456 1.356.312.336.748.504 1.308.504zm8.983-.3h-.048c-.064.152-.144.3-.24.444-.096.136-.216.256-.36.36-.136.104-.3.188-.492.252s-.416.096-.672.096c-.648 0-1.168-.204-1.56-.612-.392-.416-.588-1-.588-1.752v-3.972h.96v3.804c0 .568.124.992.372 1.272.248.272.612.408 1.092.408.192 0 .38-.024.564-.072s.348-.12.492-.216.26-.216.348-.36c.088-.152.132-.332.132-.54v-4.296h.96v6.192h-.96zm6.079 1.152c-.448 0-.852-.076-1.212-.228-.352-.152-.656-.368-.912-.648-.248-.288-.44-.628-.576-1.02-.136-.4-.204-.844-.204-1.332 0-.496.068-.944.204-1.344.144-.4.34-.74.588-1.02.248-.288.544-.508.888-.66.352-.152.74-.228 1.164-.228.416 0 .792.076 1.128.228.344.152.636.364.876.636.24.264.424.58.552.948s.192.772.192 1.212v.456h-4.584v.288c0 .272.044.524.132.756s.212.432.372.6c.168.168.368.3.6.396.24.088.504.132.792.132.416 0 .776-.096 1.08-.288s.536-.456.696-.792l.708.48c-.184.416-.492.76-.924 1.032-.424.264-.944.396-1.56.396zm-.06-5.688c-.264 0-.508.048-.732.144s-.42.228-.588.396c-.16.168-.288.368-.384.6-.088.224-.132.472-.132.744v.084h3.552v-.132c0-.272-.044-.52-.132-.744-.08-.224-.196-.416-.348-.576-.144-.168-.324-.296-.54-.384-.208-.088-.44-.132-.696-.132zm12.363-3.336h.96v3.696h.048c.4-.768 1.036-1.152 1.908-1.152.76 0 1.352.284 1.776.852.432.568.648 1.364.648 2.388s-.216 1.82-.648 2.388c-.424.568-1.016.852-1.776.852-.872 0-1.508-.384-1.908-1.152h-.048v1.008h-.96zm2.544 8.172c.56 0 .992-.168 1.296-.504.312-.344.468-.796.468-1.356v-1.056c0-.56-.156-1.008-.468-1.344-.304-.344-.736-.516-1.296-.516-.216 0-.42.028-.612.084s-.36.14-.504.252c-.144.104-.26.236-.348.396-.08.152-.12.332-.12.54v2.232c0 .208.04.392.12.552.088.152.204.284.348.396.144.104.312.184.504.24s.396.084.612.084zm7.459.852c-.448 0-.852-.076-1.212-.228-.352-.152-.656-.368-.912-.648-.248-.288-.44-.628-.576-1.02-.136-.4-.204-.844-.204-1.332 0-.496.068-.944.204-1.344.144-.4.34-.74.588-1.02.248-.288.544-.508.888-.66.352-.152.74-.228 1.164-.228.416 0 .792.076 1.128.228.344.152.636.364.876.636.24.264.424.58.552.948s.192.772.192 1.212v.456h-4.584v.288c0 .272.044.524.132.756s.212.432.372.6c.168.168.368.3.6.396.24.088.504.132.792.132.416 0 .776-.096 1.08-.288s.536-.456.696-.792l.708.48c-.184.416-.492.76-.924 1.032-.424.264-.944.396-1.56.396zm-.06-5.688c-.264 0-.508.048-.732.144s-.42.228-.588.396c-.16.168-.288.368-.384.6-.088.224-.132.472-.132.744v.084h3.552v-.132c0-.272-.044-.52-.132-.744-.08-.224-.196-.416-.348-.576-.144-.168-.324-.296-.54-.384-.208-.088-.44-.132-.696-.132zm4.963 5.544v-6.192h.96v1.008h.048c.064-.152.144-.296.24-.432.096-.144.212-.268.348-.372.144-.104.312-.188.504-.252s.416-.096.672-.096c.648 0 1.168.208 1.56.624.392.408.588.988.588 1.74v3.972h-.96v-3.804c0-.568-.124-.988-.372-1.26-.248-.28-.612-.42-1.092-.42-.192 0-.38.024-.564.072s-.348.12-.492.216-.26.22-.348.372-.132.328-.132.528v4.296zm9.968.144c-.448 0-.852-.076-1.212-.228-.352-.152-.656-.368-.912-.648-.248-.288-.44-.628-.576-1.02-.136-.4-.204-.844-.204-1.332 0-.496.068-.944.204-1.344.144-.4.34-.74.588-1.02.248-.288.544-.508.888-.66.352-.152.74-.228 1.164-.228.416 0 .792.076 1.128.228.344.152.636.364.876.636.24.264.424.58.552.948s.192.772.192 1.212v.456h-4.584v.288c0 .272.044.524.132.756s.212.432.372.6c.168.168.368.3.6.396.24.088.504.132.792.132.416 0 .776-.096 1.08-.288s.536-.456.696-.792l.708.48c-.184.416-.492.76-.924 1.032-.424.264-.944.396-1.56.396zm-.06-5.688c-.264 0-.508.048-.732.144s-.42.228-.588.396c-.16.168-.288.368-.384.6-.088.224-.132.472-.132.744v.084h3.552v-.132c0-.272-.044-.52-.132-.744-.08-.224-.196-.416-.348-.576-.144-.168-.324-.296-.54-.384-.208-.088-.44-.132-.696-.132zm4.783 4.728h2.088v-4.56h-2.208v-.816h2.208v-1.272c0-.416.108-.756.324-1.02.224-.264.572-.396 1.044-.396h2.076v.816h-2.484v1.872h2.484v.816h-2.484v4.56h2.208v.816h-5.256zm10.423-6.744c-.28 0-.476-.056-.588-.168-.112-.12-.168-.268-.168-.444v-.192c0-.176.056-.32.168-.432.112-.12.308-.18.588-.18s.476.06.588.18c.112.112.168.256.168.432v.192c0 .176-.056.324-.168.444-.112.112-.308.168-.588.168zm-2.712 6.744h2.232v-4.56h-2.232v-.816h3.192v5.376h2.088v.816h-5.28zm10.064.816c-.472 0-.82-.132-1.044-.396-.216-.264-.324-.604-.324-1.02v-3.96h-2.064v-.816h1.536c.208 0 .352-.04.432-.12.088-.088.132-.236.132-.444v-1.62h.924v2.184h2.82v.816h-2.82v4.56h2.82v.816zm7.207.144c-.648 0-1.208-.108-1.68-.324-.464-.224-.86-.52-1.188-.888l.648-.564c.296.312.62.552.972.72s.776.252 1.272.252c.48 0 .872-.084 1.176-.252.312-.176.468-.448.468-.816 0-.16-.032-.292-.096-.396-.056-.112-.136-.2-.24-.264s-.22-.112-.348-.144c-.128-.04-.264-.072-.408-.096l-.972-.144c-.216-.032-.452-.076-.708-.132-.248-.056-.476-.144-.684-.264-.208-.128-.384-.296-.528-.504-.136-.208-.204-.48-.204-.816 0-.312.06-.58.18-.804.128-.232.304-.424.528-.576.224-.16.488-.276.792-.348.304-.08.636-.12.996-.12.56 0 1.044.088 1.452.264.416.176.772.42 1.068.732l-.624.588c-.072-.088-.164-.176-.276-.264-.104-.096-.236-.18-.396-.252-.152-.08-.332-.144-.54-.192s-.448-.072-.72-.072c-.488 0-.864.084-1.128.252-.256.168-.384.412-.384.732 0 .16.028.296.084.408.064.104.148.188.252.252s.22.116.348.156c.136.032.272.06.408.084l.972.144c.224.032.46.076.708.132s.476.148.684.276c.208.12.38.284.516.492.144.208.216.48.216.816 0 .616-.24 1.092-.72 1.428-.472.336-1.104.504-1.896.504zm7.363-.036c-.328 0-.56-.068-.696-.204-.128-.136-.192-.308-.192-.516v-.216c0-.208.064-.38.192-.516.136-.136.368-.204.696-.204s.556.068.684.204c.136.136.204.308.204.516v.216c0 .208-.068.38-.204.516-.128.136-.356.204-.684.204z" opacity=".8"/></g></g></g></svg>