<svg fill="none" height="216" viewBox="0 0 474 216" width="474" xmlns="http://www.w3.org/2000/svg" xmlns:xlink="http://www.w3.org/1999/xlink"><filter id="a" color-interpolation-filters="sRGB" filterUnits="userSpaceOnUse" height="777.756" width="809.226" x="-357.069" y="-273.794"><feFlood flood-opacity="0" result="BackgroundImageFix"/><feBlend in="SourceGraphic" in2="BackgroundImageFix" mode="normal" result="shape"/><feGaussianBlur result="effect1_foregroundBlur_5187_9354" stdDeviation="45.56"/></filter><filter id="b" color-interpolation-filters="sRGB" filterUnits="userSpaceOnUse" height="758.506" width="739.35" x="124.739" y="-309.051"><feFlood flood-opacity="0" result="BackgroundImageFix"/><feBlend in="SourceGraphic" in2="BackgroundImageFix" mode="normal" result="shape"/><feGaussianBlur result="effect1_foregroundBlur_5187_9354" stdDeviation="45.56"/></filter><filter id="c" color-interpolation-filters="sRGB" filterUnits="userSpaceOnUse" height="329.541" width="759.929" x="-142.139" y="208.581"><feFlood flood-opacity="0" result="BackgroundImageFix"/><feColorMatrix in="SourceAlpha" result="hardAlpha" type="matrix" values="0 0 0 0 0 0 0 0 0 0 0 0 0 0 0 0 0 0 127 0"/><feMorphology in="SourceAlpha" operator="dilate" radius="7.94074" result="effect1_dropShadow_5187_9354"/><feOffset dy="-1.58815"/><feGaussianBlur stdDeviation="39.7037"/><feComposite in2="hardAlpha" operator="out"/><feColorMatrix type="matrix" values="0 0 0 0 0.882353 0 0 0 0 0.866667 0 0 0 0 0.968627 0 0 0 1 0"/><feBlend in2="BackgroundImageFix" mode="normal" result="effect1_dropShadow_5187_9354"/><feBlend in="SourceGraphic" in2="effect1_dropShadow_5187_9354" mode="normal" result="shape"/></filter><radialGradient id="d" cx="0" cy="0" gradientTransform="matrix(-369.66315191 -76.3180896 39.57285197 -191.67965638 238.222 134)" gradientUnits="userSpaceOnUse" r="1"><stop offset=".776042" stop-color="#19152a"/><stop offset="1" stop-color="#0b0911"/></radialGradient><radialGradient id="e" cx="0" cy="0" gradientTransform="matrix(708.5057508 148.80197061 -61.16977922 291.25380646 -224.04 139.217)" gradientUnits="userSpaceOnUse" r="1"><stop offset=".411458" stop-color="#3966ff" stop-opacity="0"/><stop offset="1" stop-color="#ff599c"/></radialGradient><radialGradient id="f" cx="0" cy="0" gradientTransform="matrix(-782.67504534 67.33285796 -30.01567472 -348.9012688 836.358 34.3142)" gradientUnits="userSpaceOnUse" r="1"><stop offset=".65784" stop-color="#3966ff" stop-opacity="0"/><stop offset="1" stop-color="#ff599c"/></radialGradient><radialGradient id="g" cx="0" cy="0" gradientTransform="matrix(0 74.0474 -279.861 0 237.825 297.518)" gradientUnits="userSpaceOnUse" r="1"><stop offset="0" stop-color="#5d5296" stop-opacity=".71"/><stop offset="1" stop-opacity="0"/></radialGradient><clipPath id="h"><rect height="216" rx="4" width="474"/></clipPath><clipPath id="i"><path d="m0 0h476.444v268h-476.444z"/></clipPath><g clip-path="url(#h)"><g clip-path="url(#i)"><path d="m0 0h476.444v268h-476.444z" fill="url(#d)"/><g filter="url(#a)" opacity=".3"><path d="m208.681 352.066-61.092 9.736-105.9195 51.04-134.9946-126.907 9.0176-91.943-181.6415-58.894 25.183-86.4222 80.046-132.2245 97.8564-99.1253 57.49178 1.991 129.39182 83.7924 175.141 64.9748 32.162 152.0908 29.713 156.809z" fill="url(#e)"/></g><g filter="url(#b)" opacity=".3"><path d="m397.173-165.159 58.083-7.287 109.508-45.485 90.073 126.636-31.91 88.11605 150.042 62.81325-45.192 82.2577-106.907 124.44-114.573 92.003-79.238-34.146-164.515-28.565-46.685-94.581 9.961-147.3603 13.406-151.8152z" fill="url(#f)"/></g><g filter="url(#c)" shape-rendering="crispEdges"><ellipse cx="237.825" cy="374.94" fill="#0b0911" fill-opacity=".69" rx="292.616" ry="77.4222"/><path d="m530.045 374.94c0 10.474-8.029 20.554-22.809 29.799-14.759 9.233-36.143 17.562-62.601 24.563-52.912 13.999-126.03 22.663-206.81 22.663-80.779 0-153.8977-8.664-206.8091-22.663-26.45866-7.001-47.8419-15.33-62.6011-24.563-14.7798-9.245-22.8088-19.325-22.8088-29.799s8.029-20.554 22.8088-29.8c14.7592-9.232 36.14244-17.562 62.6011-24.562 52.9114-14 126.0301-22.663 206.8091-22.663 80.78 0 153.898 8.663 206.81 22.663 26.458 7 47.842 15.33 62.601 24.562 14.78 9.246 22.809 19.326 22.809 29.8z" stroke="url(#g)" stroke-width=".794074"/></g><g fill="#e1ddf7"><circle cx="15.7982" cy="122.711" fill-opacity=".4" r=".281269" transform="matrix(-.99834383 .05752918 -.05752918 -.99834383 38.629698 244.309912)"/><circle cx="164.989" cy="140.034" fill-opacity=".4" r=".281269" transform="matrix(-.99834383 .05752918 -.05752918 -.99834383 337.76079 270.344398)"/><circle cx="314.18" cy="157.357" fill-opacity=".4" r=".281269" transform="matrix(-.99834383 .05752918 -.05752918 -.99834383 636.892282 296.378872)"/><circle cx="299.118" cy="101.314" fill-opacity=".4" r=".281269" transform="matrix(-.99834383 .05752918 -.05752918 -.99834383 603.56912 185.252194)"/><circle cx="373.825" cy="58.1299" fill-opacity=".4" r=".281269" transform="matrix(-.99834383 .05752918 -.05752918 -.99834383 750.375046 94.657682)"/><circle cx="254.882" cy="76.8164" fill-opacity=".4" r=".281269" transform="matrix(-.99834383 .05752918 -.05752918 -.99834383 513.761055 138.842427)"/><circle cx="371.466" cy="124.755" fill-opacity=".4" r=".281269" transform="matrix(-.99834383 .05752918 -.05752918 -.99834383 749.49384 227.93325)"/><circle cx="195.053" cy="192.395" fill-opacity=".4" r=".281269" transform="matrix(-.99834383 .05752918 -.05752918 -.99834383 400.851284 373.250121)"/><circle cx="82.5664" cy="88.4367" fill-opacity=".2" r="1.40634" transform="matrix(-.99834383 .05752918 -.05752918 -.99834383 170.083746 171.976956)"/><circle cx="214.271" cy="115.219" fill-opacity=".3" r="1.40634" transform="matrix(-.99834383 .05752918 -.05752918 -.99834383 434.815584 217.920343)"/><circle cx="116.139" cy="162.57" fill-opacity=".4" r="1.40634" transform="matrix(-.99834383 .05752918 -.05752918 -.99834383 241.438172 318.189374)"/><circle cx="419.971" cy="169.573" fill-opacity=".4" opacity=".5" r="1.12507" transform="matrix(-.99834383 .05752918 -.05752918 -.99834383 849.00185 314.704571)"/><circle cx="467.815" cy="165.64" fill-opacity=".4" r=".281269"/><circle cx="319.868" cy="139.763" fill-opacity=".4" r=".281269"/><circle cx="171.92" cy="113.886" fill-opacity=".4" r=".281269"/><circle cx="183.734" cy="170.702" fill-opacity=".4" r=".281269"/><circle cx="106.666" cy="209.518" fill-opacity=".4" r=".281269"/><circle cx="226.486" cy="197.703" fill-opacity=".4" r=".281269"/><circle cx="112.854" cy="143.138" fill-opacity=".4" r=".281269"/><circle cx="292.866" cy="85.7588" fill-opacity=".4" r=".281269"/><circle cx="472.878" cy="28.3799" fill-opacity=".4" r=".281269"/><circle cx="399.185" cy="196.016" fill-opacity=".2" r="1.40634"/><circle cx="269.239" cy="161.701" fill-opacity=".3" r="1.40634"/><circle cx="369.933" cy="120.074" fill-opacity=".4" r="1.40634"/><circle cx="217.205" cy="31.4737" fill-opacity=".4" opacity=".5" r="1.12507"/><circle cx="67.0072" cy="95.6036" fill-opacity=".4" opacity=".5" r="1.12507"/><circle cx="391.871" cy="73.2658" fill-opacity=".4" r=".175979" transform="matrix(.44279266 -.89662404 .89662404 .44279266 152.661521 392.185199)"/><circle cx="336.368" cy="149.093" fill-opacity=".4" r=".175979" transform="matrix(.44279266 -.89662404 .89662404 .44279266 53.746351 384.671348)"/><circle cx="371.513" cy="158.206" fill-opacity=".4" r=".175979" transform="matrix(.44279266 -.89662404 .89662404 .44279266 65.158469 421.26103)"/><circle cx="371.937" cy="212.194" fill-opacity=".4" r=".175979" transform="matrix(.44279266 -.89662404 .89662404 .44279266 16.987786 451.723708)"/><circle cx="398.505" cy="141.704" fill-opacity=".4" r=".175979" transform="matrix(.44279266 -.89662404 .89662404 .44279266 94.994699 436.26767)"/><circle cx="336.414" cy="190.332" fill-opacity=".4" r=".175979" transform="matrix(.44279266 -.89662404 .89662404 .44279266 16.796104 407.691266)"/><circle cx="354.095" cy="73.4533" fill-opacity=".4" r=".175979" transform="matrix(.44279266 -.89662404 .89662404 .44279266 131.444339 358.418806)"/><circle cx="445.402" cy="44.3556" fill-opacity=".2" r=".879895" transform="matrix(.44279266 -.89662404 .89662404 .44279266 208.410967 424.073405)"/><circle cx="390.152" cy="107.745" fill-opacity=".3" r=".879895" transform="matrix(.44279266 -.89662404 .89662404 .44279266 120.788802 409.855966)"/><circle cx="394.696" cy="39.7257" fill-opacity=".4" r=".879895" transform="matrix(.44279266 -.89662404 .89662404 .44279266 184.308491 376.029372)"/><circle cx="302.681" cy="100.859" fill-opacity=".4" opacity=".5" r=".703916" transform="matrix(.44279266 -.89662404 .89662404 .44279266 78.223472 327.590435)"/><circle cx="297.047" cy="202.884" fill-opacity=".4" opacity=".5" r=".703916" transform="matrix(.44279266 -.89662404 .89662404 .44279266 -16.393902 379.387934)"/><circle cx="344.184" cy="157.622" fill-opacity=".4" r=".175979" transform="matrix(-.49363833 .86966729 -.86966729 -.49363833 651.165112 -63.895308)"/><circle cx="403.958" cy="85.114" fill-opacity=".4" r=".175979" transform="matrix(-.49363833 .86966729 -.86966729 -.49363833 677.388013 -224.179529)"/><circle cx="369.395" cy="73.9939" fill-opacity=".4" r=".175979" transform="matrix(-.49363833 .86966729 -.86966729 -.49363833 616.092604 -210.730625)"/><circle cx="372.077" cy="20.072" fill-opacity=".4" r=".175979" transform="matrix(-.49363833 .86966729 -.86966729 -.49363833 573.204429 -293.60289)"/><circle cx="341.498" cy="88.9168" fill-opacity=".4" r=".175979" transform="matrix(-.49363833 .86966729 -.86966729 -.49363833 587.402534 -164.180102)"/><circle cx="406.284" cy="43.9402" fill-opacity=".4" r=".175979" transform="matrix(-.49363833 .86966729 -.86966729 -.49363833 645.054708 -287.70114)"/><circle cx="381.908" cy="159.609" fill-opacity=".4" r=".175979" transform="matrix(-.49363833 .86966729 -.86966729 -.49363833 709.239153 -93.734778)"/><circle cx="339.449" cy="44.0457" fill-opacity=".4" r=".175979" transform="matrix(-.49363833 .86966729 -.86966729 -.49363833 545.319141 -229.419348)"/><circle cx="314.645" cy="87.03" fill-opacity=".4" r=".175979" transform="matrix(-.49363833 .86966729 -.86966729 -.49363833 545.652976 -143.645122)"/><circle cx="289.078" cy="183.407" fill-opacity=".2" r=".879895" transform="matrix(-.49363833 .86966729 -.86966729 -.49363833 591.281049 22.542042)"/><circle cx="347.883" cy="123.299" fill-opacity=".3" r=".879895" transform="matrix(-.49363833 .86966729 -.86966729 -.49363833 626.840489 -118.378356)"/><circle cx="339.434" cy="190.944" fill-opacity=".4" r=".879895" transform="matrix(-.49363833 .86966729 -.86966729 -.49363833 673.049383 -9.993372)"/><circle cx="434.813" cy="135.206" fill-opacity=".4" opacity=".5" r=".703916" transform="matrix(-.49363833 .86966729 -.86966729 -.49363833 767.037597 -176.193782)"/><circle cx="446.308" cy="33.6748" fill-opacity=".4" opacity=".5" r=".703916" transform="matrix(-.49363833 .86966729 -.86966729 -.49363833 695.908606 -337.841499)"/><circle cx="367.523" cy="132.284" fill-opacity=".4" r=".177285" transform="matrix(.95486973 -.29702492 .29702492 .95486973 -22.705231 115.133501)"/><circle cx="356.1" cy="164.799" fill-opacity=".4" r=".177285" transform="matrix(.95486973 -.29702492 .29702492 .95486973 -32.87852 113.207996)"/><circle cx="262.212" cy="176.924" fill-opacity=".4" r=".177285" transform="matrix(.95486973 -.29702492 .29702492 .95486973 -40.717138 85.868125)"/><circle cx="168.324" cy="189.047" fill-opacity=".4" r=".177285" transform="matrix(.95486973 -.29702492 .29702492 .95486973 -48.555162 58.528164)"/><circle cx="235.851" cy="149.476" fill-opacity=".4" r=".177285" transform="matrix(.95486973 -.29702492 .29702492 .95486973 -33.754077 76.799516)"/><circle cx="333.45" cy="81.2416" fill-opacity=".4" r=".177285" transform="matrix(.95486973 -.29702492 .29702492 .95486973 -9.082091 102.709414)"/><circle cx="320.482" cy="195.931" fill-opacity=".2" r=".886426" transform="matrix(.95486973 -.29702492 .29702492 .95486973 -43.732949 104.033558)"/><circle cx="235.848" cy="199.606" fill-opacity=".3" r=".886426" transform="matrix(.95486973 -.29702492 .29702492 .95486973 -48.644071 79.061005)"/><circle cx="400.601" cy="199.23" fill-opacity=".4" r=".886426" transform="matrix(.95486973 -.29702492 .29702492 .95486973 -41.097042 127.979782)"/><circle cx="288.659" cy="155.7" fill-opacity=".4" r=".886426" transform="matrix(.95486973 -.29702492 .29702492 .95486973 -33.219521 92.765698)"/><circle cx="180.15" cy="130.969" fill-opacity=".4" opacity=".5" r=".709141" transform="matrix(.95486973 -.29702492 .29702492 .95486973 -30.770838 59.419705)"/><circle cx="101.758" cy="197.686" fill-opacity=".4" opacity=".5" r=".709141" transform="matrix(.95486973 -.29702492 .29702492 .95486973 -54.125301 39.146284)"/><circle cx="73.0947" cy="207.379" fill-opacity=".4" r=".177285" transform="matrix(-.9703759 .24160012 -.24160012 -.9703759 194.126826 390.954895)"/><circle cx="167.525" cy="200.675" fill-opacity=".4" r=".177285" transform="matrix(-.9703759 .24160012 -.24160012 -.9703759 378.570326 354.931123)"/><circle cx="261.955" cy="193.972" fill-opacity=".4" r=".177285" transform="matrix(-.9703759 .24160012 -.24160012 -.9703759 563.013477 318.909394)"/><circle cx="246.077" cy="161.02" fill-opacity=".4" r=".177285" transform="matrix(-.9703759 .24160012 -.24160012 -.9703759 523.766641 257.817694)"/><circle cx="287.304" cy="125.544" fill-opacity=".4" r=".177285" transform="matrix(-.9703759 .24160012 -.24160012 -.9703759 596.428322 177.956191)"/><circle cx="215.816" cy="151.016" fill-opacity=".4" r=".177285" transform="matrix(-.9703759 .24160012 -.24160012 -.9703759 461.724128 245.417115)"/><circle cx="293.627" cy="167.086" fill-opacity=".4" r=".177285" transform="matrix(-.9703759 .24160012 -.24160012 -.9703759 618.923561 258.281909)"/><circle cx="247.151" cy="118.368" fill-opacity=".4" r=".177285" transform="matrix(-.9703759 .24160012 -.24160012 -.9703759 515.578096 173.517743)"/><circle cx="198.551" cy="130.102" fill-opacity=".4" r=".177285" transform="matrix(-.9703759 .24160012 -.24160012 -.9703759 422.652764 208.3799)"/><circle cx="110.445" cy="178.347" fill-opacity=".2" r=".886426" transform="matrix(-.9703759 .24160012 -.24160012 -.9703759 260.706823 324.727105)"/><circle cx="195.15" cy="179.546" fill-opacity=".3" r=".886426" transform="matrix(-.9703759 .24160012 -.24160012 -.9703759 427.897192 306.624847)"/><circle cx="30.6483" cy="170.444" fill-opacity=".4" r=".886426" transform="matrix(-.9703759 .24160012 -.24160012 -.9703759 101.567962 328.434116)"/><circle cx="363.109" cy="125.488" fill-opacity=".4" opacity=".5" r=".709141" transform="matrix(-.9703759 .24160012 -.24160012 -.9703759 745.779138 159.531353)"/><circle cx="328.907" cy="189.179" fill-opacity=".4" opacity=".5" r=".709141" transform="matrix(-.9703759 .24160012 -.24160012 -.9703759 693.776094 293.289771)"/><path d="m144.877 106.029-2.484-8.3757h1.068l1.188 4.1877.9 3.168h.06l.9-3.168 1.188-4.1877h1.032l-2.484 8.3757zm8.119.144c-.432 0-.824-.076-1.176-.228-.344-.152-.64-.368-.888-.648-.24-.288-.424-.628-.552-1.02-.128-.4-.192-.848-.192-1.344 0-.488.064-.932.192-1.332s.312-.74.552-1.02c.248-.288.544-.508.888-.6597.352-.152.744-.228 1.176-.228s.82.076 1.164.228c.352.1517.648.3717.888.6597.248.28.436.62.564 1.02s.192.844.192 1.332c0 .496-.064.944-.192 1.344-.128.392-.316.732-.564 1.02-.24.28-.536.496-.888.648-.344.152-.732.228-1.164.228zm0-.828c.536 0 .968-.16 1.296-.48s.492-.816.492-1.488v-.888c0-.672-.164-1.168-.492-1.488s-.76-.48-1.296-.48-.968.16-1.296.48-.492.816-.492 1.488v.888c0 .672.164 1.168.492 1.488s.76.48 1.296.48zm4.796-.132h2.16v-7.2477h-2.16v-.816h3.12v8.0637h2.16v.816h-5.28zm10.375.816c-.472 0-.82-.132-1.044-.396-.216-.264-.324-.604-.324-1.02v-3.96h-2.064v-.8157h1.536c.208 0 .352-.04.432-.12.088-.088.132-.236.132-.444v-1.62h.924v2.184h2.82v.8157h-2.82v4.56h2.82v.816zm4.555 0v-.924l3.996-4.452h-3.864v-.8157h4.908v.9237l-3.996 4.452h4.116v.816zm16.839 0-2.22-6.1917h.972l.888 2.5917.96 2.796h.048l.96-2.796.888-2.5917h.948l-2.22 6.1917zm10.891 0h-5.592v-1.032l2.796-2.52c.408-.368.744-.744 1.008-1.128.264-.392.396-.804.396-1.236v-.1437c0-.504-.132-.892-.396-1.164-.264-.28-.656-.42-1.176-.42-.512 0-.908.132-1.188.396-.272.256-.476.6-.612 1.032l-.9-.336c.08-.248.188-.488.324-.72.144-.24.324-.452.54-.636s.476-.332.78-.444c.312-.112.672-.168 1.08-.168.416 0 .784.06 1.104.18.328.12.6.288.816.504.224.216.392.472.504.768.12.296.18.62.18.972 0 .3197-.048.6197-.144.8997-.088.28-.216.548-.384.804-.16.256-.356.508-.588.756-.224.24-.476.48-.756.72l-2.34 2.04h4.548zm11.343 0-2.484-8.3757h1.068l1.188 4.1877.9 3.168h.06l.9-3.168 1.188-4.1877h1.032l-2.484 8.3757zm8.119.144c-.432 0-.824-.076-1.176-.228-.344-.152-.64-.368-.888-.648-.24-.288-.424-.628-.552-1.02-.128-.4-.192-.848-.192-1.344 0-.488.064-.932.192-1.332s.312-.74.552-1.02c.248-.288.544-.508.888-.6597.352-.152.744-.228 1.176-.228s.82.076 1.164.228c.352.1517.648.3717.888.6597.248.28.436.62.564 1.02s.192.844.192 1.332c0 .496-.064.944-.192 1.344-.128.392-.316.732-.564 1.02-.24.28-.536.496-.888.648-.344.152-.732.228-1.164.228zm0-.828c.536 0 .968-.16 1.296-.48s.492-.816.492-1.488v-.888c0-.672-.164-1.168-.492-1.488s-.76-.48-1.296-.48-.968.16-1.296.48-.492.816-.492 1.488v.888c0 .672.164 1.168.492 1.488s.76.48 1.296.48zm9.439-5.5077h.96l-3.072 7.5477c-.072.176-.152.328-.24.456-.088.136-.192.244-.312.324-.12.088-.264.152-.432.192-.168.048-.368.072-.6.072h-.912v-.816h1.44l.696-1.704-2.496-6.0717h.984l1.044 2.5917.924 2.352h.048l.924-2.352zm7.772 6.1917c-.376 0-.644-.096-.804-.288s-.26-.432-.3-.72h-.06c-.136.36-.356.644-.66.852-.296.2-.696.3-1.2.3-.648 0-1.164-.168-1.548-.504s-.576-.796-.576-1.38c0-.576.208-1.02.624-1.332.424-.312 1.104-.468 2.04-.468h1.32v-.612c0-.456-.128-.796-.384-1.02-.256-.232-.62-.348-1.092-.348-.416 0-.756.084-1.02.252-.264.16-.476.38-.636.66l-.648-.48c.08-.16.188-.316.324-.468s.304-.284.504-.396c.2-.1197.428-.2117.684-.2757.256-.072.54-.108.852-.108.728 0 1.304.184 1.728.5517.432.368.648.88.648 1.536v3.408h.864v.84zm-2.856-.66c.248 0 .472-.028.672-.084.208-.064.388-.144.54-.24.152-.104.268-.224.348-.36.088-.144.132-.296.132-.456v-1.02h-1.32c-.576 0-.996.08-1.26.24s-.396.392-.396.696v.252c0 .32.112.564.336.732.232.16.548.24.948.24zm11.083 1.368c0 .624-.26 1.084-.78 1.38-.52.304-1.3.456-2.34.456-1 0-1.72-.132-2.16-.396-.432-.264-.648-.644-.648-1.14 0-.336.088-.596.264-.78s.424-.32.744-.408v-.144c-.176-.088-.312-.2-.408-.336s-.144-.308-.144-.516c0-.32.104-.56.312-.72.216-.16.484-.28.804-.36v-.048c-.384-.168-.684-.416-.9-.744-.208-.328-.312-.712-.312-1.152 0-.312.056-.6.168-.864s.272-.488.48-.672c.216-.192.472-.3397.768-.4437s.624-.156.984-.156c.464 0 .872.084 1.224.252v-.108c0-.24.056-.44.168-.6s.304-.24.576-.24h1.14v.84h-1.392v.4197c.224.192.396.42.516.684s.18.56.18.888c0 .312-.06.6-.18.864-.112.264-.272.492-.48.684-.208.184-.464.328-.768.432-.296.104-.624.156-.984.156-.104 0-.204-.004-.3-.012s-.192-.02-.288-.036c-.096.016-.196.044-.3.084-.104.032-.2.08-.288.144-.088.056-.16.124-.216.204s-.084.172-.084.276c0 .184.092.308.276.372.184.056.424.084.72.084h1.368c.8 0 1.38.152 1.74.456.36.296.54.696.54 1.2zm-.9.048c0-.248-.1-.448-.3-.6-.2-.144-.548-.216-1.044-.216h-2.148c-.416.168-.624.448-.624.84 0 .272.108.504.324.696.216.2.576.3 1.08.3h.936c.56 0 .996-.088 1.308-.264.312-.168.468-.42.468-.756zm-2.268-3.564c.48 0 .832-.112 1.056-.336.232-.224.348-.52.348-.888v-.348c0-.368-.116-.66-.348-.876-.224-.224-.576-.336-1.056-.336s-.832.112-1.056.336c-.224.216-.336.508-.336.876v.348c0 .368.112.664.336.888s.576.336 1.056.336zm7.579 2.952c-.448 0-.852-.076-1.212-.228-.352-.152-.656-.368-.912-.648-.248-.288-.44-.628-.576-1.02-.136-.4-.204-.844-.204-1.332 0-.496.068-.944.204-1.344.144-.4.34-.74.588-1.02.248-.288.544-.508.888-.6597.352-.152.74-.228 1.164-.228.416 0 .792.076 1.128.228.344.1517.636.3637.876.6357.24.264.424.58.552.948s.192.772.192 1.212v.456h-4.584v.288c0 .272.044.524.132.756s.212.432.372.6c.168.168.368.3.6.396.24.088.504.132.792.132.416 0 .776-.096 1.08-.288s.536-.456.696-.792l.708.48c-.184.416-.492.76-.924 1.032-.424.264-.944.396-1.56.396zm-.06-5.688c-.264 0-.508.048-.732.144s-.42.228-.588.396c-.16.168-.288.368-.384.6-.088.224-.132.472-.132.744v.084h3.552v-.132c0-.272-.044-.52-.132-.744-.08-.224-.196-.416-.348-.576-.144-.168-.324-.296-.54-.384-.208-.088-.44-.132-.696-.132zm11.967 1.08v-.816h5.712v.816zm0 2.4v-.816h5.712v.816zm18.663 2.064v-1.644h-4.128v-.888l3.624-5.8437h1.464v5.9037h1.248v.828h-1.248v1.644zm-3.228-2.472h3.228v-5.1237h-.048zm14.642 2.472-.66-8.3757h.9l.348 4.7997.18 2.532h.096l1.104-5.1477h1.128l1.104 5.1477h.096l.18-2.532.348-4.7997h.876l-.66 8.3757h-1.452l-1.02-5.004h-.096l-1.02 5.004zm10.063.144c-.448 0-.852-.076-1.212-.228-.352-.152-.656-.368-.912-.648-.248-.288-.44-.628-.576-1.02-.136-.4-.204-.844-.204-1.332 0-.496.068-.944.204-1.344.144-.4.34-.74.588-1.02.248-.288.544-.508.888-.6597.352-.152.74-.228 1.164-.228.416 0 .792.076 1.128.228.344.1517.636.3637.876.6357.24.264.424.58.552.948s.192.772.192 1.212v.456h-4.584v.288c0 .272.044.524.132.756s.212.432.372.6c.168.168.368.3.6.396.24.088.504.132.792.132.416 0 .776-.096 1.08-.288s.536-.456.696-.792l.708.48c-.184.416-.492.76-.924 1.032-.424.264-.944.396-1.56.396zm-.06-5.688c-.264 0-.508.048-.732.144s-.42.228-.588.396c-.16.168-.288.368-.384.6-.088.224-.132.472-.132.744v.084h3.552v-.132c0-.272-.044-.52-.132-.744-.08-.224-.196-.416-.348-.576-.144-.168-.324-.296-.54-.384-.208-.088-.44-.132-.696-.132zm7.496 5.688c-.448 0-.852-.076-1.212-.228-.352-.152-.656-.368-.912-.648-.248-.288-.44-.628-.576-1.02-.136-.4-.204-.844-.204-1.332 0-.496.068-.944.204-1.344.144-.4.34-.74.588-1.02.248-.288.544-.508.888-.6597.352-.152.74-.228 1.164-.228.416 0 .792.076 1.128.228.344.1517.636.3637.876.6357.24.264.424.58.552.948s.192.772.192 1.212v.456h-4.584v.288c0 .272.044.524.132.756s.212.432.372.6c.168.168.368.3.6.396.24.088.504.132.792.132.416 0 .776-.096 1.08-.288s.536-.456.696-.792l.708.48c-.184.416-.492.76-.924 1.032-.424.264-.944.396-1.56.396zm-.06-5.688c-.264 0-.508.048-.732.144s-.42.228-.588.396c-.16.168-.288.368-.384.6-.088.224-.132.472-.132.744v.084h3.552v-.132c0-.272-.044-.52-.132-.744-.08-.224-.196-.416-.348-.576-.144-.168-.324-.296-.54-.384-.208-.088-.44-.132-.696-.132zm5.047-3.3357h.96v5.6037h.048l1.08-1.02 2.064-1.8957h1.176l-2.568 2.4237 2.868 3.768h-1.188l-2.412-3.216-1.068.972v2.244h-.96zm9.847 9.0237c-.648 0-1.208-.108-1.68-.324-.464-.224-.86-.52-1.188-.888l.648-.564c.296.312.62.552.972.72s.776.252 1.272.252c.48 0 .872-.084 1.176-.252.312-.176.468-.448.468-.816 0-.16-.032-.292-.096-.396-.056-.112-.136-.2-.24-.264s-.22-.112-.348-.144c-.128-.04-.264-.072-.408-.096l-.972-.144c-.216-.032-.452-.076-.708-.132-.248-.056-.476-.144-.684-.264-.208-.128-.384-.296-.528-.504-.136-.208-.204-.48-.204-.816 0-.312.06-.58.18-.804.128-.232.304-.424.528-.576.224-.16.488-.2757.792-.3477.304-.08.636-.12.996-.12.56 0 1.044.088 1.452.264.416.1757.772.4197 1.068.7317l-.624.588c-.072-.088-.164-.176-.276-.264-.104-.096-.236-.18-.396-.252-.152-.08-.332-.144-.54-.192s-.448-.072-.72-.072c-.488 0-.864.084-1.128.252-.256.168-.384.412-.384.732 0 .16.028.296.084.408.064.104.148.188.252.252s.22.116.348.156c.136.032.272.06.408.084l.972.144c.224.032.46.076.708.132s.476.148.684.276c.208.12.38.284.516.492.144.208.216.48.216.816 0 .616-.24 1.092-.72 1.428-.472.336-1.104.504-1.896.504zm7.364-.036c-.328 0-.56-.068-.696-.204-.128-.136-.192-.308-.192-.516v-.216c0-.208.064-.38.192-.516.136-.136.368-.204.696-.204s.556.068.684.204c.136.136.204.308.204.516v.216c0 .208-.068.38-.204.516-.128.136-.356.204-.684.204zm-161.371 16.892h-1.008v-8.376h3.048c.776 0 1.368.212 1.776.636s.612 1.016.612 1.776c0 .68-.176 1.224-.528 1.632s-.864.644-1.536.708l2.136 3.624h-1.128l-2.04-3.576h-1.332zm2.016-4.428c.424 0 .752-.104.984-.312.24-.216.36-.52.36-.912v-.624c0-.392-.12-.692-.36-.9-.232-.216-.56-.324-.984-.324h-2.016v3.072zm7.039 4.572c-.448 0-.852-.076-1.212-.228-.352-.152-.656-.368-.912-.648-.248-.288-.44-.628-.576-1.02-.136-.4-.204-.844-.204-1.332 0-.496.068-.944.204-1.344.144-.4.34-.74.588-1.02.248-.288.544-.508.888-.66.352-.152.74-.228 1.164-.228.416 0 .792.076 1.128.228.344.152.636.364.876.636.24.264.424.58.552.948s.192.772.192 1.212v.456h-4.584v.288c0 .272.044.524.132.756s.212.432.372.6c.168.168.368.3.6.396.24.088.504.132.792.132.416 0 .776-.096 1.08-.288s.536-.456.696-.792l.708.48c-.184.416-.492.76-.924 1.032-.424.264-.944.396-1.56.396zm-.06-5.688c-.264 0-.508.048-.732.144s-.42.228-.588.396c-.16.168-.288.368-.384.6-.088.224-.132.472-.132.744v.084h3.552v-.132c0-.272-.044-.52-.132-.744-.08-.224-.196-.416-.348-.576-.144-.168-.324-.296-.54-.384-.208-.088-.44-.132-.696-.132zm6.775 5.544-2.22-6.192h.972l.888 2.592.96 2.796h.048l.96-2.796.888-2.592h.948l-2.22 6.192zm8.155.144c-.448 0-.852-.076-1.212-.228-.352-.152-.656-.368-.912-.648-.248-.288-.44-.628-.576-1.02-.136-.4-.204-.844-.204-1.332 0-.496.068-.944.204-1.344.144-.4.34-.74.588-1.02.248-.288.544-.508.888-.66.352-.152.74-.228 1.164-.228.416 0 .792.076 1.128.228.344.152.636.364.876.636.24.264.424.58.552.948s.192.772.192 1.212v.456h-4.584v.288c0 .272.044.524.132.756s.212.432.372.6c.168.168.368.3.6.396.24.088.504.132.792.132.416 0 .776-.096 1.08-.288s.536-.456.696-.792l.708.48c-.184.416-.492.76-.924 1.032-.424.264-.944.396-1.56.396zm-.06-5.688c-.264 0-.508.048-.732.144s-.42.228-.588.396c-.16.168-.288.368-.384.6-.088.224-.132.472-.132.744v.084h3.552v-.132c0-.272-.044-.52-.132-.744-.08-.224-.196-.416-.348-.576-.144-.168-.324-.296-.54-.384-.208-.088-.44-.132-.696-.132zm9.728 5.544c-.376 0-.644-.096-.804-.288s-.26-.432-.3-.72h-.06c-.136.36-.356.644-.66.852-.296.2-.696.3-1.2.3-.648 0-1.164-.168-1.548-.504s-.576-.796-.576-1.38c0-.576.208-1.02.624-1.332.424-.312 1.104-.468 2.04-.468h1.32v-.612c0-.456-.128-.796-.384-1.02-.256-.232-.62-.348-1.092-.348-.416 0-.756.084-1.02.252-.264.16-.476.38-.636.66l-.648-.48c.08-.16.188-.316.324-.468s.304-.284.504-.396c.2-.12.428-.212.684-.276.256-.072.54-.108.852-.108.728 0 1.304.184 1.728.552.432.368.648.88.648 1.536v3.408h.864v.84zm-2.856-.66c.248 0 .472-.028.672-.084.208-.064.388-.144.54-.24.152-.104.268-.224.348-.36.088-.144.132-.296.132-.456v-1.02h-1.32c-.576 0-.996.08-1.26.24s-.396.392-.396.696v.252c0 .32.112.564.336.732.232.16.548.24.948.24zm5.311-.156h2.16v-7.248h-2.16v-.816h3.12v8.064h2.16v.816h-5.28zm17.619.96c-.448 0-.852-.076-1.212-.228-.352-.152-.656-.368-.912-.648-.248-.288-.44-.628-.576-1.02-.136-.4-.204-.844-.204-1.332 0-.496.068-.944.204-1.344.144-.4.34-.74.588-1.02.248-.288.544-.508.888-.66.352-.152.74-.228 1.164-.228.416 0 .792.076 1.128.228.344.152.636.364.876.636.24.264.424.58.552.948s.192.772.192 1.212v.456h-4.584v.288c0 .272.044.524.132.756s.212.432.372.6c.168.168.368.3.6.396.24.088.504.132.792.132.416 0 .776-.096 1.08-.288s.536-.456.696-.792l.708.48c-.184.416-.492.76-.924 1.032-.424.264-.944.396-1.56.396zm-.06-5.688c-.264 0-.508.048-.732.144s-.42.228-.588.396c-.16.168-.288.368-.384.6-.088.224-.132.472-.132.744v.084h3.552v-.132c0-.272-.044-.52-.132-.744-.08-.224-.196-.416-.348-.576-.144-.168-.324-.296-.54-.384-.208-.088-.44-.132-.696-.132zm9.727 5.544c-.376 0-.644-.096-.804-.288s-.26-.432-.3-.72h-.06c-.136.36-.356.644-.66.852-.296.2-.696.3-1.2.3-.648 0-1.164-.168-1.548-.504s-.576-.796-.576-1.38c0-.576.208-1.02.624-1.332.424-.312 1.104-.468 2.04-.468h1.32v-.612c0-.456-.128-.796-.384-1.02-.256-.232-.62-.348-1.092-.348-.416 0-.756.084-1.02.252-.264.16-.476.38-.636.66l-.648-.48c.08-.16.188-.316.324-.468s.304-.284.504-.396c.2-.12.428-.212.684-.276.256-.072.54-.108.852-.108.728 0 1.304.184 1.728.552.432.368.648.88.648 1.536v3.408h.864v.84zm-2.856-.66c.248 0 .472-.028.672-.084.208-.064.388-.144.54-.24.152-.104.268-.224.348-.36.088-.144.132-.296.132-.456v-1.02h-1.32c-.576 0-.996.08-1.26.24s-.396.392-.396.696v.252c0 .32.112.564.336.732.232.16.548.24.948.24zm8.167.804c-.448 0-.848-.076-1.2-.228-.344-.16-.636-.38-.876-.66s-.424-.62-.552-1.02c-.12-.4-.18-.844-.18-1.332s.064-.932.192-1.332.312-.74.552-1.02c.24-.288.532-.508.876-.66s.736-.228 1.176-.228c.6 0 1.088.132 1.464.396s.652.608.828 1.032l-.768.408c-.112-.32-.3-.568-.564-.744-.256-.176-.576-.264-.96-.264-.28 0-.532.048-.756.144-.216.088-.4.216-.552.384s-.268.368-.348.6c-.072.232-.108.484-.108.756v1.056c0 .272.036.524.108.756.08.232.196.432.348.6s.34.3.564.396c.224.088.48.132.768.132.416 0 .76-.096 1.032-.288s.488-.456.648-.792l.684.468c-.184.416-.472.76-.864 1.032-.384.272-.888.408-1.512.408zm4.796-9.024h.96v3.696h.048c.064-.152.144-.296.24-.432.096-.144.212-.268.348-.372.144-.104.312-.188.504-.252s.416-.096.672-.096c.648 0 1.168.208 1.56.624.392.408.588.988.588 1.74v3.972h-.96v-3.804c0-.568-.124-.988-.372-1.26-.248-.28-.612-.42-1.092-.42-.192 0-.38.024-.564.072s-.348.12-.492.216-.26.22-.348.372-.132.328-.132.528v4.296h-.96zm19.154 4.68v-2.652h-.096l-1.764 4.308-1.764-4.308h-.096v2.652 4.2h-.924v-8.376h1.296l1.476 3.696h.072l1.476-3.696h1.248v8.376h-.924zm5.576 4.344c-.432 0-.824-.076-1.176-.228-.344-.152-.64-.368-.888-.648-.24-.288-.424-.628-.552-1.02-.128-.4-.192-.848-.192-1.344 0-.488.064-.932.192-1.332s.312-.74.552-1.02c.248-.288.544-.508.888-.66.352-.152.744-.228 1.176-.228s.82.076 1.164.228c.352.152.648.372.888.66.248.28.436.62.564 1.02s.192.844.192 1.332c0 .496-.064.944-.192 1.344-.128.392-.316.732-.564 1.02-.24.28-.536.496-.888.648-.344.152-.732.228-1.164.228zm0-.828c.536 0 .968-.16 1.296-.48s.492-.816.492-1.488v-.888c0-.672-.164-1.168-.492-1.488s-.76-.48-1.296-.48-.968.16-1.296.48-.492.816-.492 1.488v.888c0 .672.164 1.168.492 1.488s.76.48 1.296.48zm5.011.684v-6.192h.96v1.008h.048c.064-.152.144-.296.24-.432.096-.144.212-.268.348-.372.144-.104.312-.188.504-.252s.416-.096.672-.096c.648 0 1.168.208 1.56.624.392.408.588.988.588 1.74v3.972h-.96v-3.804c0-.568-.124-.988-.372-1.26-.248-.28-.612-.42-1.092-.42-.192 0-.38.024-.564.072s-.348.12-.492.216-.26.22-.348.372-.132.328-.132.528v4.296zm11.359-1.008h-.048c-.4.768-1.036 1.152-1.908 1.152-.76 0-1.356-.284-1.788-.852-.424-.568-.636-1.364-.636-2.388s.212-1.82.636-2.388c.432-.568 1.028-.852 1.788-.852.872 0 1.508.384 1.908 1.152h.048v-3.696h.96v8.88h-.96zm-1.584.3c.216 0 .42-.028.612-.084s.36-.136.504-.24c.144-.112.256-.244.336-.396.088-.16.132-.344.132-.552v-2.232c0-.208-.044-.388-.132-.54-.08-.16-.192-.292-.336-.396-.144-.112-.312-.196-.504-.252s-.396-.084-.612-.084c-.56 0-.996.172-1.308.516-.304.336-.456.784-.456 1.344v1.056c0 .56.152 1.012.456 1.356.312.336.748.504 1.308.504zm9.86.708c-.376 0-.644-.096-.804-.288s-.26-.432-.3-.72h-.06c-.136.36-.356.644-.66.852-.296.2-.696.3-1.2.3-.648 0-1.164-.168-1.548-.504s-.576-.796-.576-1.38c0-.576.208-1.02.624-1.332.424-.312 1.104-.468 2.04-.468h1.32v-.612c0-.456-.128-.796-.384-1.02-.256-.232-.62-.348-1.092-.348-.416 0-.756.084-1.02.252-.264.16-.476.38-.636.66l-.648-.48c.08-.16.188-.316.324-.468s.304-.284.504-.396c.2-.12.428-.212.684-.276.256-.072.54-.108.852-.108.728 0 1.304.184 1.728.552.432.368.648.88.648 1.536v3.408h.864v.84zm-2.856-.66c.248 0 .472-.028.672-.084.208-.064.388-.144.54-.24.152-.104.268-.224.348-.36.088-.144.132-.296.132-.456v-1.02h-1.32c-.576 0-.996.08-1.26.24s-.396.392-.396.696v.252c0 .32.112.564.336.732.232.16.548.24.948.24zm9.955-5.532h.96l-3.072 7.548c-.072.176-.152.328-.24.456-.088.136-.192.244-.312.324-.12.088-.264.152-.432.192-.168.048-.368.072-.6.072h-.912v-.816h1.44l.696-1.704-2.496-6.072h.984l1.044 2.592.924 2.352h.048l.924-2.352zm5.431 6.3c-.328 0-.56-.068-.696-.204-.128-.136-.192-.308-.192-.516v-.216c0-.208.064-.38.192-.516.136-.136.368-.204.696-.204s.556.068.684.204c.136.136.204.308.204.516v.216c0 .208-.068.38-.204.516-.128.136-.356.204-.684.204z" opacity=".8"/></g></g></g></svg>