<svg width="25" height="25" viewBox="0 0 25 25" fill="none" xmlns="http://www.w3.org/2000/svg">
<circle cx="12.1739" cy="12.1739" r="12.1739" fill="#0C0A14"/>
<path d="M17.5017 17.0247L13.3851 7.07222C13.153 6.55765 12.8078 6.30664 12.3529 6.30664H11.9889C11.534 6.30664 11.1888 6.55765 10.9566 7.07222L9.16506 11.4084H7.80962C7.40487 11.4115 7.07542 11.7378 7.07228 12.1457V12.1551C7.07542 12.5599 7.40487 12.8893 7.80962 12.8925H8.53754L6.82755 17.0247C6.79617 17.1157 6.77734 17.2098 6.77734 17.3071C6.77734 17.5393 6.84951 17.7213 6.97815 17.8624C7.10679 18.0036 7.29191 18.0727 7.52409 18.0727C7.67784 18.0695 7.8253 18.0225 7.94767 17.9315C8.07945 17.8405 8.17044 17.7087 8.24261 17.5581L10.1252 12.8893H11.4304C11.8352 12.8862 12.1646 12.5599 12.1678 12.152V12.1332C12.1646 11.7284 11.8352 11.399 11.4304 11.3958H10.7339L12.1709 7.81583L16.0866 17.555C16.1588 17.7056 16.2498 17.8373 16.3816 17.9283C16.5039 18.0193 16.6545 18.0664 16.8051 18.0695C17.0373 18.0695 17.2193 18.0005 17.3511 17.8593C17.4829 17.7181 17.5519 17.5361 17.5519 17.304C17.555 17.2098 17.5393 17.1126 17.5017 17.0247Z" fill="#E5E1F9"/>
</svg>
