<svg width="38" height="38" viewBox="0 0 38 38" fill="none" xmlns="http://www.w3.org/2000/svg">
<circle cx="18.9156" cy="18.9156" r="18.9156" fill="url(#paint0_linear_1920_6664)"/>
<path d="M27.1945 26.4526L20.7983 10.9887C20.4375 10.1891 19.9013 9.79913 19.1944 9.79913H18.6289C17.922 9.79913 17.3857 10.1891 17.0249 10.9887L14.2412 17.7261H12.1352C11.5063 17.731 10.9944 18.238 10.9895 18.8718V18.8864C10.9944 19.5153 11.5063 20.0272 12.1352 20.0321H13.2662L10.6093 26.4526C10.5605 26.594 10.5312 26.7403 10.5312 26.8914C10.5312 27.2521 10.6434 27.5349 10.8433 27.7543C11.0431 27.9737 11.3308 28.0809 11.6915 28.0809C11.9304 28.076 12.1595 28.0029 12.3497 27.8615C12.5544 27.7202 12.6958 27.5154 12.8079 27.2814L15.733 20.0272H17.7611C18.39 20.0223 18.9019 19.5153 18.9067 18.8815V18.8523C18.9019 18.2234 18.39 17.7115 17.7611 17.7066H16.6788L18.9116 12.1441L24.9958 27.2765C25.1079 27.5105 25.2493 27.7153 25.4541 27.8567C25.6442 27.998 25.8782 28.0712 26.1122 28.076C26.473 28.076 26.7557 27.9688 26.9605 27.7494C27.1652 27.53 27.2725 27.2473 27.2725 26.8865C27.2774 26.7403 27.253 26.5891 27.1945 26.4526Z" fill="#E5E1F9"/>
<defs>
<linearGradient id="paint0_linear_1920_6664" x1="21.1776" y1="-7.02438" x2="-6.96876" y2="16.6579" gradientUnits="userSpaceOnUse">
<stop stop-color="#0F0C1D"/>
<stop offset="1" stop-color="#0F0C1D"/>
</linearGradient>
</defs>
</svg>
