<svg width="24" height="24" viewBox="0 0 24 24" fill="none" xmlns="http://www.w3.org/2000/svg">
<path d="M12 24C18.6276 24 24 18.6276 24 12C24 5.3724 18.6276 0 12 0C5.3724 0 0 5.3724 0 12C0 18.6276 5.3724 24 12 24Z" fill="#0C0A14"/>
<path fill-rule="evenodd" clip-rule="evenodd" d="M6.93192 16.0237C6.57312 15.8041 6.35352 15.4141 6.35352 14.9941V12.6493C6.35352 12.3709 6.58032 12.1453 6.85872 12.1465C6.94752 12.1465 7.03512 12.1705 7.11192 12.2149L12.4027 15.3001C12.7123 15.4801 12.9031 15.8113 12.9031 16.1701V18.5989C12.9043 18.9325 12.6343 19.2037 12.3007 19.2037C12.1891 19.2037 12.0787 19.1725 11.9839 19.1149L6.93192 16.0237ZM14.8182 11.5729C15.1278 11.7529 15.3174 12.0853 15.3186 12.4429V17.3725C15.3186 17.5177 15.2406 17.6521 15.1134 17.7229L13.9554 18.3745C13.941 18.3829 13.9254 18.3889 13.9086 18.3937V15.6565C13.9086 15.3025 13.7226 14.9737 13.4178 14.7913L8.77139 12.0121V8.92212C8.77139 8.64372 8.99819 8.41812 9.27659 8.41932C9.36539 8.41932 9.45299 8.44332 9.52979 8.48772L14.8182 11.5729ZM17.1341 7.93201C17.4449 8.11201 17.6357 8.44441 17.6357 8.80321V16.0032C17.6345 16.1508 17.5529 16.2864 17.4233 16.3572L16.3253 16.95V11.9376C16.3253 11.5836 16.1393 11.256 15.8369 11.0736L11.0873 8.22481V5.29441C11.0873 5.20561 11.1113 5.11801 11.1545 5.04121C11.2949 4.80121 11.6033 4.71961 11.8433 4.85881L17.1341 7.93201Z" fill="#E5E1F9"/>
</svg>
