<svg width="24" height="24" viewBox="0 0 24 24" fill="none" xmlns="http://www.w3.org/2000/svg">
<path d="M12 0C18.628 0 24 5.37305 24 12C24 18.628 18.628 24 12 24C5.37305 24 0 18.6275 0 12C0 5.37305 5.37305 0 12 0Z" fill="#0C0A14"/>
<path fill-rule="evenodd" clip-rule="evenodd" d="M6.28505 18.615V18.6599L6.28289 18.6615V18.669H11.488C12.0772 18.6771 12.6641 18.6302 13.243 18.5265C13.8527 18.4071 14.4467 18.2192 15.0132 17.9643C15.2588 17.8506 15.4944 17.7131 15.7322 17.5744C15.7924 17.5393 15.8527 17.5041 15.9134 17.4691C16.1931 17.2699 16.4609 17.0539 16.7158 16.8244C17.4135 16.1937 17.9535 15.4069 18.291 14.5294C18.3137 14.4311 18.4098 14.3679 18.5086 14.3868H19.9261C20.039 14.3868 20.0763 14.349 20.0763 14.2216V13.3138C20.0838 13.2269 20.0838 13.1388 20.0763 13.0519C20.0763 13.0292 20.0821 13.0065 20.0879 12.9839C20.0996 12.9388 20.1111 12.8938 20.0763 12.8489H18.892C18.7489 12.8489 18.7489 12.8337 18.7489 12.7063C18.79 12.2495 18.79 11.791 18.7489 11.3341C18.7414 11.1991 18.7716 11.1991 18.8764 11.1991H19.9115C20.032 11.1991 20.0768 11.1689 20.0768 11.049V9.81889C20.0731 9.73741 20.0712 9.6961 20.0496 9.67517C20.0273 9.65365 19.9843 9.65365 19.897 9.65365H18.5545C18.4498 9.67147 18.3493 9.60073 18.3304 9.49597C18.1765 9.09367 17.9805 8.70864 17.7445 8.34846C17.5069 7.99314 17.2391 7.65941 16.9421 7.35107C16.5473 6.95687 16.104 6.6145 15.6223 6.331C14.896 5.90926 14.1016 5.61387 13.2749 5.46105C12.8737 5.38707 12.4681 5.34225 12.0599 5.32605H6.43518C6.28505 5.32605 6.28505 5.35629 6.28505 5.47617V9.51865C6.28505 9.66121 6.25481 9.66121 6.14249 9.66121H4.53004C4.41016 9.66121 4.41016 9.68335 4.41016 9.76597V11.0857C4.41016 11.2056 4.44742 11.2056 4.5376 11.2056H6.16517C6.28505 11.2056 6.28505 11.2278 6.28505 11.3179V12.7279C6.28505 12.8553 6.24725 12.8553 6.15005 12.8553H4.41016V14.2804C4.41016 14.4003 4.44742 14.4003 4.5376 14.4003H6.16517C6.28505 14.4003 6.28505 14.4149 6.28505 14.5126V16.2752V16.8676V18.615ZM16.6429 9.53269C16.6559 9.56617 16.6559 9.60343 16.6429 9.63745H16.6791C16.664 9.68227 16.5889 9.69739 16.5889 9.69739H7.93424C7.79168 9.69739 7.79168 9.66715 7.79168 9.55483V6.8926C7.79168 6.79486 7.8068 6.75004 7.91912 6.75004H11.9465C12.3752 6.74626 12.8029 6.79108 13.2214 6.88504C14.0509 7.08161 14.8226 7.47257 15.4716 8.025C15.6012 8.12166 15.7168 8.2356 15.8167 8.3625C16.0284 8.57256 16.2141 8.80638 16.3718 9.06019C16.4766 9.20869 16.5668 9.36691 16.6429 9.53269ZM17.0019 12.8472H12.4421H7.97196C7.88076 12.8472 7.83582 12.8472 7.81366 12.8248C7.79214 12.8029 7.79214 12.7599 7.79214 12.675V11.3401C7.79214 11.2348 7.82238 11.1975 7.9347 11.1975H17.0095C17.1072 11.1975 17.1521 11.2348 17.1521 11.325C17.1893 11.7894 17.1893 12.2559 17.1521 12.7198C17.145 12.8472 17.0991 12.8472 17.0019 12.8472ZM16.6428 14.4073C16.5154 14.3933 16.3869 14.3933 16.2594 14.4073H7.94226C7.82994 14.4073 7.79214 14.4073 7.79214 14.5574V17.1603C7.79214 17.2801 7.79214 17.3104 7.94226 17.3104H11.7822C11.9658 17.3244 12.1494 17.3115 12.3293 17.2731C12.8865 17.2332 13.4347 17.1122 13.9574 16.9129C14.1475 16.8471 14.3311 16.7612 14.5044 16.6581H14.5568C15.457 16.1899 16.1881 15.4544 16.6493 14.5515C16.6493 14.5515 16.7017 14.4381 16.6428 14.4084V14.4073Z" fill="#E5E1F9"/>
</svg>
