<svg width="24" height="24" viewBox="0 0 24 24" fill="none" xmlns="http://www.w3.org/2000/svg">
<path d="M12 0C18.628 0 24 5.37305 24 12C24 18.628 18.628 24 12 24C5.37305 24 0 18.6275 0 12C0 5.37305 5.37305 0 12 0Z" fill="#0C0A14"/>
<path d="M11.9921 4L11.8828 4.37113V15.1394L11.9921 15.2484L16.9905 12.2938L11.9921 4Z" fill="#565468"/>
<path d="M11.9927 4L6.99414 12.2938L11.9927 15.2484V10.0218V4Z" fill="#E5E1F9"/>
<path d="M11.9932 16.1948L11.9316 16.2699V20.1057L11.9932 20.2854L16.9947 13.2417L11.9932 16.1948Z" fill="#6C697E"/>
<path d="M11.9927 20.2854V16.1948L6.99414 13.2417L11.9927 20.2854Z" fill="#E5E1F9"/>
<path d="M11.9922 15.2483L16.9906 12.2937L11.9922 10.0217V15.2483Z" fill="#2D2B3D"/>
<path d="M6.99414 12.2937L11.9927 15.2483V10.0217L6.99414 12.2937Z" fill="#6C697E"/>
</svg>
