<svg width="38" height="38" viewBox="0 0 38 38" fill="none" xmlns="http://www.w3.org/2000/svg">
<path d="M18.9156 37.8311C29.398 37.8311 37.8311 29.398 37.8311 18.9156C37.8311 8.43312 29.398 0 18.9156 0C8.43312 0 0 8.43312 0 18.9156C0 29.398 8.43312 37.8311 18.9156 37.8311Z" fill="#040018"/>
<path d="M7.4168 24.8982L7.21449 24.5123H10.6188L10.7018 24.6312C11.785 26.2137 13.298 27.4535 15.0626 28.2044C16.8272 28.9553 18.7696 29.186 20.661 28.8693C25.7674 28.0001 29.3775 23.3473 28.9707 18.1966L22.8896 18.1858L24.6635 23.2066L22.4924 26.1929L18.5934 15.138L31.4224 15.1596L31.4719 15.3509C31.6207 15.8391 31.7369 16.3367 31.8196 16.8404C31.9426 17.5576 32.0029 18.2841 31.9999 19.0118C31.9999 25.23 27.5124 30.7521 21.1713 31.8233C20.4426 31.9394 19.7061 31.9997 18.9682 32.0036C16.5735 32.0061 14.2252 31.3429 12.1854 30.0882C10.1456 28.8335 8.49466 27.0367 7.4168 24.8982ZM9.59912 22.8204H6.55902L6.50476 22.6293C6.3668 22.1474 6.25971 21.6571 6.18414 21.1615C4.98591 14.0992 9.7621 7.37966 16.8275 6.1893C19.5534 5.7181 22.3585 6.13199 24.8321 7.37036C27.3057 8.60873 29.3178 10.6065 30.5739 13.0712L30.7765 13.4572H27.3517L27.264 13.3382C26.183 11.7579 24.6722 10.5202 22.9103 9.77111C21.1483 9.02204 19.2087 8.79298 17.3207 9.11098C12.214 9.98014 8.59278 14.633 8.99956 19.7729L15.103 19.7836L13.3243 14.7628L15.51 11.7765L19.3993 22.8315L9.59912 22.8204Z" fill="#E1DDF7"/>
</svg>
