<svg width="26" height="25" viewBox="0 0 26 25" fill="none" xmlns="http://www.w3.org/2000/svg">
<path d="M12.9155 24.9933C19.6618 24.9933 25.0893 19.5658 25.0893 12.8194C25.0893 6.073 19.6618 0.645508 12.9155 0.645508C6.16914 0.645508 0.741699 6.073 0.741699 12.8194C0.741699 19.5658 6.16914 24.9933 12.9155 24.9933Z" fill="#040018"/>
<path d="M5.44715 16.6715L5.31881 16.4232H7.4785L7.53114 16.4997C8.21831 17.5182 9.1782 18.3161 10.2976 18.7994C11.4171 19.2827 12.6494 19.4311 13.8492 19.2273C17.0887 18.6679 19.379 15.6734 19.1209 12.3585L15.2631 12.3515L16.3884 15.5828L15.0111 17.5048L12.5375 10.3899L20.6763 10.4039L20.7077 10.527C20.8021 10.8412 20.8758 11.1614 20.9283 11.4856C21.0063 11.9472 21.0446 12.4148 21.0426 12.8831C21.0426 16.8851 18.1958 20.439 14.173 21.1285C13.7107 21.2032 13.2435 21.242 12.7754 21.2445C11.2561 21.2461 9.76636 20.8193 8.47234 20.0118C7.17831 19.2043 6.13095 18.0478 5.44715 16.6715ZM6.83161 15.3343H4.90298L4.86856 15.2113C4.78104 14.9011 4.7131 14.5856 4.66516 14.2666C3.905 9.72135 6.93501 5.39673 11.4173 4.63062C13.1466 4.32736 14.9261 4.59373 16.4954 5.39074C18.0646 6.18775 19.3411 7.47352 20.138 9.05977L20.2665 9.3082H18.0938L18.0382 9.23157C17.3524 8.21455 16.394 7.41794 15.2762 6.93584C14.1584 6.45375 12.9279 6.30633 11.7302 6.511C8.4905 7.07038 6.1932 10.0649 6.45126 13.3729L10.3233 13.3798L9.19486 10.1485L10.5815 8.22648L13.0488 15.3414L6.83161 15.3343Z" fill="#E1DDF7"/>
</svg>
