<svg width="24" height="24" viewBox="0 0 24 24" fill="none" xmlns="http://www.w3.org/2000/svg">
<path d="M12 0C18.6279 0 24 5.37305 24 12C24 18.6279 18.6279 24 12 24C5.37305 24 0 18.6274 0 12C0 5.37305 5.37305 0 12 0Z" fill="#0C0A14"/>
<path fill-rule="evenodd" clip-rule="evenodd" d="M12.0002 3L16.2428 9.64209L12 12.1151L7.75781 9.64202L12.0002 3ZM9.05652 9.32793L12.0002 4.71917L14.9439 9.32794L12 11.0439L9.05652 9.32793Z" fill="#E5E1F9"/>
<path d="M11.9954 13.575L7.07403 10.706L6.93963 10.9164C5.42386 13.2895 5.76238 16.3975 7.75352 18.3886C10.0966 20.7317 13.8955 20.7317 16.2386 18.3886C18.2296 16.3975 18.5682 13.2895 17.0525 10.9164L16.918 10.7059L11.9954 13.575Z" fill="#E5E1F9"/>
</svg>
