<svg width="24" height="24" viewBox="0 0 24 24" fill="none" xmlns="http://www.w3.org/2000/svg">
<path d="M12 0C18.6279 0 24 5.37305 24 12C24 18.6279 18.6279 24 12 24C5.37305 24 0 18.6274 0 12C0 5.37305 5.37305 0 12 0Z" fill="#0C0A14"/>
<path d="M11.996 4.00024L11.8867 4.37137V15.1396L11.996 15.2486L16.9944 12.294L11.996 4.00024Z" fill="#E5E1F9"/>
<path d="M11.9927 4.00024L6.99414 12.294L11.9927 15.2486V10.022V4.00024Z" fill="#E5E1F9"/>
<path d="M11.9913 16.1944L11.9297 16.2695V20.1053L11.9913 20.2851L16.9927 13.2413L11.9913 16.1944Z" fill="#E5E1F9"/>
<path d="M11.9927 20.2851V16.1944L6.99414 13.2413L11.9927 20.2851Z" fill="#E5E1F9"/>
<path d="M11.9941 15.2487L16.9925 12.2941L11.9941 10.0221V15.2487Z" fill="#E5E1F9"/>
<path d="M6.99414 12.2941L11.9927 15.2487V10.0221L6.99414 12.2941Z" fill="#E5E1F9"/>
</svg>
