<svg fill="none" height="40" viewBox="0 0 40 40" width="40" xmlns="http://www.w3.org/2000/svg">
    <path d="m19.9998 40c11.0833 0 19.9998-8.9166 19.9998-20s-8.9165-20-19.9998-20-19.9998 8.9166-19.9998 20 8.9165 20 19.9998 20z"
          fill="#181524"/>
    <g fill="#e1ddf7">
        <path d="m19.5136 9-.0927.00578-.0829.01473-.0725.02108-.0624.03091-.052.0364-.0407.03581-.0373.04651-.0309.04304-.0358.08694-.022.07308-.0098.07222h-.2851l-.1765.04737-.1456.05748-.1138.06672-.0924.07799-.074.08204-.0473.0829-.035.08377-.0211.08783-.0055.0829v.078l.0211.1349.026.0935.0145.031.3593-.1968.1236-.0049.13.0104.139.0156.0577-.0107h.0471l.0942.0107.0774.0358.0673.0414.0569.0519.0358.0416.0373.0413.0514.031.0315.0366.0089.0471.0058.0561-.0147.0626-.0211.0673-.0673.1398-.082.13-.0789.1147-.0878.108.2891.2187.0376.0156.0358.0104.0884.0098.0887-.0098.0878-.0211.1398-.052.0624-.026.0416-.0511.0413-.0376.0465-.0242.052-.0113h.052l.0528.0046.0983.0367.0878.0471.0667.052.0673.0569.052.0514.0523.0413.0479.0318.0405.0202.0415.0156.0405.0055.0676-.0098.052-.022.0421-.0306.0295-.0309.0534-.0465.0367-.052.0569-.104.026-.0887.0098-.0355v-1.58258l-.0049-.1089-.0161-.09821-.026-.0829-.0309-.07799-.0408-.06268-.0421-.05691-.0465-.04621-.0471-.0416-.0928-.0569-.0779-.03149-.078-.02051zm-3.5939.73139-.1765.00549-.1601.0205-.1513.03091-.13.03582-.1178.04217-.1009.04131-.16.08377-.0927.06094-.0315.026-.1349.0945-.1513.1135-.16.1294-.165.1511-.3683.3316-.3957.3836-.4087.4153-.4261.4405-.8452.9088-.7775.8654-.6488.7313-.60285.695.06326.0309.05691.026.05777.0162.06239.0049h.05632l.0615-.0049.1196-.0318.1147-.0511.1144-.0682.1089-.0771.1043-.0936.0924-.0936.0887-.0941.1447-.1757.0927-.13.0315-.0511.0887.0878.0829.0624.0829.0367.073.0202h.0725l.0723-.0153.0626-.0251.0561-.0376.052-.0413.0479-.0416.078-.0927.061-.0991.1291-.2437.1302-.2389.1349-.2334.1398-.2219.1404-.2186.1456-.2071.29-.3998.2903-.3683.2909-.3373.2862-.3062.2698-.2747.2582-.2438.2334-.2123.2129-.1811.186-.1505.2612-.1982.0973-.0667.1927-.0673.16-.0309.1303-.0049.0569.0098.047.0096.0454.021.0376.0214.056.0561.0422.0681.026.0771.0156.0829v.0838l-.0156.1609-.026.1138-.0104.0465-.0994.0731-.0713.0618-.0471.0624-.0309.0569-.0156.0511v.0523l.0098.0422.0153.0358.0326.0315.0243.0309.0685.0416.0779.0364.0933.0927.1658.1416.4405.3365.5968.4364.052.0512.0511.0363.0529.0255.0462.0161.0465.0099h.0471l.082-.0099.0633-.026.052-.0317.0465-.0367.0098-.1031.0211-.1193.035-.1245.043-.1242.0722-.2025.0318-.0829-.104.0462-.104.0318-.0985.0211-.0869.0098-.1318.0049-.0511-.0049-.1097-.0058-.0974-.0153-.0936-.026-.0829-.0309-.0771-.0358-.0685-.0413-.1143-.0945-.0829-.0933-.0578-.0823-.0407-.078-.0569-.0422-.0414-.0349-.0259-.0422-.0211-.0425-.0099-.0355v-.0358l.0154-.0627.026-.0569.0366-.0413.0408-.0367.1308-.1398.0974-.1242.0684-.1196.0405-.1089.0205-.104v-.0878l-.0148-.0837-.0317-.078-.0359-.0618-.0413-.0569-.0462-.04626-.0474-.03668-.0722-.05199-.0317-.02022-.2389-.06269-.2227-.0413-.2025-.02051zm7.437.00029-.1438.00982-.1251.02109-.0985.026-.0835.0309-.0569.03669-.0456.03091-.0327.02599-.0202.02109-.2536.06733-.2022.0725-.078.0413-.0725.0416-.0577.0413-.052.0416-.0413.0462-.026.0422-.0252.0465-.0164.0462-.0049.0887.0098.0878.0309.0829.0471.078.0514.0722.0534.0627.0927.0883.0416.0359.0673.1245.0416.1031.0153.0895-.0057.0722-.0203.052-.0309.0463-.0471.0309-.056.021-.0569.0107-.0618.0099-.121-.005-.1196-.0153-.2008-.0147-.1672.0098-.1352.0309-.1072.0364-.0837.0408-.0578.0372-.0404.0407-.0887.0569-.078.0463-.0829.0317-.0722.0211-.0676.0107h-.0667l-.0624-.0058-.052-.0107-.0936-.0306-.0731-.0416-.0569-.0462-.0667-.0627-.0641-.0358-.061-.0162h-.056l-.0425.0107-.0364.0153-.0309.0211-.0838.0725-.0927.0575-.0982.0407-.0895.0367-.1488.0315-.0575.0098-.0985-.0982-.0933-.0725-.0838-.0471-.0779-.026-.0717-.0098-.0632.0098-.0627.0211-.052.0309-.0457.0358-.0363.0463-.0619.0837-.0366.0731-.0104.0254-.13.2184-.0985.2016-.0673.1918-.0416.1774-.0145.1658.0041.1502.017.1349.035.1245.043.1089.0448.0991.0479.0771.0462.0676.0829.0878.0309.0315 1.4744 2.1271.0713-.4674-.0309-.2284-.0046-.2022.0202-.1708.0358-.151.0471-.1237.0627-.1039.0722-.0879.0722-.0684.0774-.052.0789-.0404.0785-.0318.0668-.0153.104-.0205h.0358l.1245-.0104h.1184l.1213.0153.1121.0202.1202.0358.1138.0425.1089.052.1146.0624.1032.0618.1097.0739.2025.16.186.1699.1771.1822.1594.1878.1456.1753.234.3276.1511.2276.0511.0878.0563.0893.0584.0667.0511.0627.0528.047.0928.0561.0788.0309h.061l.0462-.0098.0424-.0211.4047-.0829.3738-.0667.3478-.052.3203-.0373.2967-.026.264-.0098.2383-.0049.2129.0049.3478.0202.2429.0318.1464.0309.0454.0156.1025-.0107.091-.0147.0659-.0211.0511-.0211.043-.026.0301-.026.0173-.03.009-.026-.005-.0578-.0164-.0471-.0292-.0465-1.2247-1.9804-.061-.1245-.0586-.1-.0633-.0722-.0569-.052-.056-.026-.0511-.0147h-.0529l-.0465.0147-.0422.0211-.0407.0309-.0633.0624-.056.078-2.0174 1.4053-.0942.078-.0886.0471-.0829.0309-.0812.0107-.0789-.0058-.0676-.0202-.0673-.0318-.0618-.0413-.052-.0416-.0479-.0462-.078-.0936-.0609-.0982-.0627-.1456-.0569-.1187-.0529-.0933-.0511-.078-.0462-.0569-.0465-.0471-.0413-.026-.0376-.0165-.03-.0098h-.0315l-.0465.0165-.0309.0193-.0104.0107-.0945-.0407-.0878-.0413-.1453-.0936-.1138-.1-.0829-.0918-.0627-.078-.0364-.0676-.026-.0615-.0676-.1098-.0511-.0985-.0358-.0829-.0211-.078-.0058-.0673.0058-.0577.0145-.0512.0213-.0416.0266-.0364.026-.0309.0612-.0366.0624-.031.2747-.2022.2438-.2131.2195-.2063.1852-.2129.1658-.2082.1415-.2071.1188-.1927.099-.186.0821-.1724.0627-.1543.0878-.2603.0421-.1707.0099-.0618.0309-.1095.0372-.0823.0399-.0624.043-.0471.0408-.03.0323-.0173.0254-.009.1658-.0372.1462-.0203.1291-.0057.1124.0112.095.0205.0829.0315.0667.0407.0575.0416.0465.0471.0364.0462.0465.0936.0211.0618.0058.0266 4.5373 7.1318.0636.104.056.0725.052.0569.0471.0315.0413.0156h.0349l.026-.0107.0278-.0211.0416-.0618.026-.0673.0144-.0823-.0364-.1355-.0165-.0887.0075-.056.0049-.0165.0145-.0104.0309.005.0422.0314.0514.0416.0569.0618.1259.1453.1081.1505.1138.1618.0528.1193.0511.0878.0408.056.043.0376.035.0147h.0323l.0246-.0214.0268-.0251.0405-.0829.0317-.0878.0211-.0982.0156-.1251v-.1352l-.0205-.1349-.0309-.1348-.0413-.1349-.0528-.1349-.0619-.1292-.0632-.1245-.1294-.2273-.1138-.1828-.1136-.1603-.1658-.2747-.1089-.208-.0618-.1505-.0219-.0982v-.0309l.0098-.0211.017-.0098h.026l.0616.0202.0782.0456.0925.0633.0999.0829.1953.1658.2079.2025.1292.078.0993.0511.078.0318.0511.0098.0367-.0098.0153-.0211.0058-.0367-.0058-.0399-.0349-.1045-.0578-.1034-.0624-.1098-2.5936-3.5321-.3567-.3989-.3284-.3487-.29-.2998-.2689-.2643-.2398-.2186-.2123-.1811-.182-.1511-.1658-.1187-.1349-.0936-.1196-.0722-.1704-.0838-.0985-.0309-.026-.0049-.3729-.1502-.3374-.1196-.2966-.09359-.264-.0624-.2343-.04072-.2016-.02109zm.4733.80852-.0627.0104-.0511.026-.0465.0251-.0422.0376-.0673.0771-.0367.0577-.0147.0252-.0226.1204-.0303.1234-.0355.1196-.0465.1193-.1098.2391-.1291.234-.1511.2218-.1609.2129-.1658.2025-.1707.1918-.1658.1716-.1658.1609-.2805.2533-.1967.1667-.078.0569.1292.2334.1138.1658.0993.1089.0829.0673.0616.0309.0514.0115h.026l.0121-.0057.1447-.1245.29-.2707.8097-.7614 1.136-1.0792.0301-.0618.0268-.0627.0153-.0577.0107-.0512v-.0933l-.0211-.0782-.0317-.0561-.0301-.0421-.0367-.0359-.2183-.3948-.0928-.1089-.0829-.078-.0837-.0569-.078-.0358-.0725-.0162zm-8.2526.1762-.0569.0058-.0618.0049-.1095.0309-.1195.0413-.8299.8298-.0722.0578-.0578.0569-.0422.0471-.0254.0462-.0193.0416-.0067.0413v.0309l.0116.0318.0251.052.0358.0349.0422.0269.4512.3209.4194.2805.3948.2447.3689.2071.3365.1707.3163.1406.2851.1139.2594.0935.2291.0673.1967.052.1716.0367.1398.0202.1868.0156h.0668l-.0416-.1822-.0422-.1543-.0456-.1357-.0503-.108-.052-.0887-.0529-.0731-.056-.0569-.0511-.0407-.0529-.0318-.0462-.0153-.0829-.0211-.0569.0055-.0165.0049-.16-.0673-.16-.0829-.1618-.0886-.1618-.0982-.3154-.2083-.2909-.2071-.2478-.1967-.2033-.1609-.1754-.1505-.047-.0413-.031-.0407-.026-.0431-.0106-.0407-.005-.0413.005-.0367.0251-.0722.0425-.0627.0363-.0462.0465-.0465.0624-.1355.0359-.1089.0161-.0878-.0063-.0676-.026-.052-.0301-.0309-.0473-.0211-.0512-.0107zm9.2846 1.1993-.0269.004-.026.0154-.0358.0421-.0251.0578-.0162.0618-2.0497 1.8726-.0511.0511-.0303.057-.0095.0626.0049.0673.0144.0676.0309.0673.0358.0676.0431.0673.0976.1254.0878.1031.1.0933.0251.0465.0309.0309.0373.026.0407.0113.0462.0049.0471-.0049.0976-.0269.0942-.0364.0838-.0407.073-.0462 1.8354-1.4792.0349-.0359.0324-.0366.0309-.078.0107-.0772-.0107-.073-.0162-.0668-.0205-.052-.0266-.047-.3194-.6121-.0587-.0991-.0575-.0716-.0456-.052-.0407-.0373-.0373-.0205zm-10.9302.3631-.2325.2487-.2169.2536-.1976.2493-.1716.2284-.2429.3576-.0895.1349.2536.1448.2917.1412.3221.1439.342.1406.7103.2649.716.2432.6525.208.5358.1609.4966.1398-.0207-.099-.0104-.0829-.0049-.0774.0049-.0673.0104-.0627.0156-.052.043-.0878.0511-.0569.0416-.0364.052-.026.0618-.078.0723-.0569.0886-.0416.0925-.0259.1042-.0154h.1032l.1106.0099.1031.0161.2022.0413.1658.052.1554.0627-.2903-.4307-.2013-.0049-.2034-.0112-.2016-.0263-.1973-.0306-.1984-.0474-.1967-.0454-.1967-.0577-.1918-.0668-.1878-.073-.186-.0731-.3527-.1658-.3423-.1756-.316-.182-.2909-.1814-.2585-.182-.2339-.1649-.1927-.1511-.2738-.2236zm-1.3365 1.7585-.052.0148-.052.0251-.056.0425-.1202.1089-.1187.13-.1089.134-.0886.1138-.0838.1202-.0731.0976-.0771.078-.078.0635-.0774.0405-.0789.0317-.0713.0203-.0725.0115h-.0673l-.126-.0211-.0918-.026-.0878-.0424-.2796.3015-.2236.2227-.1771.1456-.1349.0933-.0936.0465-.0569.0211h-.0309l-.0104-.0058-.06756.0619-.0569.0632-.04709.0618-.04217.0569-.05113.1196-.02686.104-.00982.0887v.0664l.00982.0627-.46562.9388.12911-.0254.10399-.0113.0829.0049.06672.0153.04795.026.02513.0367.02282.0367.00405.047v.0463l-.01069.0465-.03149.0829-.04072.0892-.64934 1.0468.21866.0113h.1918l.1658-.0113.13894-.0251.11612-.0318.09763-.0358.07795-.0413.0569-.0425.0471-.0462.0309-.0462.0269-.0425.009-.0404.0104-.0586v-.026-.0919l.0106-.0788.0153-.0619.0156-.0528.026-.035.0203-.0315.0268-.0156.0309-.0144.0512-.0066.047.0107.0425.021.2022-.0886.1658-.0879.134-.0883.1092-.0887.0829-.0722.0575-.0618.0407-.052.0171-.0829.0196-.0627.0251-.0511.0324-.0416.0309-.0318.0309-.0153.0367-.0153.0364-.0058.0618.0107.0569.0162.048.0251h.1227l.1202-.0153.1138-.0367.1155-.0511.1072-.0619.104-.0779.0985-.078.0933-.0838.1612-.1658.1192-.1496.1098-.1462 3.8888.2909.0838.0098h.078l.0627-.0049.0462-.0107.0407-.0153.0318-.0162.0251-.0205.0162-.0251.0162-.0462.0049-.0425-.0104-.0462-.0627-.2025-.0416-.1811-.052-.2805-.0202-.1762-.0058-.0569-.5378-.1196-.5096-.125-.4667-.1294-.4316-.13-.3989-.13-.3567-.1291-.3276-.1245-.2903-.1187-.2533-.1144-.2187-.1034-.3373-.1713-.1959-.1138-.0681-.0422zm8.2526.5653-.0878.026-.0731.0356-.0563.0473-.048.0561-.0349.0569-.0266.0575-.0309.0935-.0049.0367-.0327.0364-.0242.0408-.0422.1097-.0309.1349-.026.1551-.0156.1707-.0058.182v.3741l.0156.3622.026.3065.0251.2903-.0251.1349-.0309.0982-.026.0676-.026.0462-.0318.0211-.0251.0058-.0251-.0156-.0269-.0266-.0416-.0725-.0364-.0884-.0251-.0976-.0676-.1765-.0731-.1762-.1505-.3423-.1664-.3227-.1652-.29-.1502-.2437-.1196-.1919-.1144-.1658-.1195-.1348-.1147-.1147-.1072-.0878-.1048-.0731-.0977-.052-.0933-.0358-.0837-.0202-.078-.0107-.0725-.0058-.0624.0058-.0985.0202-.0618.026-.0211.0156-.078-.0049h-.0722l-.0618.0098-.0636.0153-.0511.022-.0471.026-.0407.03-.0364.0425-.0569.0875-.0416.0993-.0309.1081-.0171.1146-.0049.1193.0049.1139.0171.2024.026.1453.0138.0569.0587.1918.0309.1765.0104.1707-.0104.1569-.0309.1438-.0465.13-.052.1242-.0633.1098-.0667.0936-.0731.0878-.0676.0673-.0615.0618-.0936.078-.0416.026-.0046.0248 6.6291-.1291.3458-.028-.0246-.0075-.0993-.0364-.0772-.0416-.0673-.0413-.0823-.0667-.0315-.0318-.0985-.0624-.078-.0774-.0624-.0829-.0473-.0835-.0364-.0774-.0197-.0633-.017-.0569-.0869-.2235-.0936-.2071-.104-.1913-.1031-.177-.1147-.1601-.1098-.1505-.108-.1348-.1089-.1147-.1973-.1964-.1612-.1352-.104-.0829-.0398-.0306-.2138-.1497-.186-.1155-.1617-.0829-.1453-.0471-.1237-.0144zm3.0072 2.9429.0899.0282-.3487.1205-.3827.1242-.4729.1447-.5341.1511-.5598.1389-.2755.0635-.2747.0512-.2594.0407-.2438.026-3.7767-.3934.0635-.3385-.0416.0008-1.8377-.2178-1.1872 1.4784.3218 1.515.0153 5.9035.8625.5234v-5.6589l.009-.0985.0219-.0942.0396-.0869.0587-.078.0716-.0682.0835-.0523.1042-.0306.1193-.0098.0717.0049.0682.0202.0569.0269.0462.0309.0416.0413.0367.0416.0519.0933.0315.0994.0148.0771.0106.0829.0113 6.0784.8339.255.0104-6.2033.0058-.0627.009-.078.026-.0878.0421-.0884.0627-.0829.0358-.0318.0471-.0309.0462-.0251.0636-.0211.0618-.0107.0722-.0049.0829.0049.0731.0156.0569.0266.0569.0309.0416.0416.0355.0413.0578.0927.0309.0991.0156.0829.0049.0774v6.5042l.9035.3105-.021-6.7685.0049-.1025.0202-.0835.0358-.0985.0277-.0471.0292-.0462.0381-.0416.0448-.0358.0529-.0323.0632-.0197.0725-.0153.0821-.0049.0829.0049.073.0153.0561.026.0569.0318.043.0398.035.0422.0569.0936.0326.0982.0153.078.0041.0829v6.8921h.8934l-.0254-6.8871.0098-.0927.0196-.0884.0364-.0991.0636-.0935.0358-.0457.0471-.0372.0511-.0309.0627-.0252.0673-.0162.078-.0049.0878.0049.0774.0211.0682.0252.0569.0372.0462.0408.0367.0415.0309.0526.0211.0465.0317.0982.0145.0829v.0829l.0115 6.6904.7663-.2227-.0049-6.5301v-.0514l.0162-.0722.0318-.0838.0407-.0878.0618-.082.0422-.0381.0453-.035.052-.026.0569-.0219.0627-.0098.0682-.005.0936.005.078.021.0618.0269.0569.03.0422.0416.0349.0463.0269.047.0202.052.0254.0985.0064.0829v.0829l.0156 6.2034.7825-.269-.0049-6.1257.0107-.1094.021-.0829.0413-.0878.0564-.0829.0421-.0425.0399-.0306.0584-.0309.0569-.0269.0725-.0147.078-.0058.0837.0058.0722.0098.0618.0269.052.0309.0471.0404.035.0425.052.0982.0317.0927.0154.0846.0049.0829.0115 5.7257.8963-.4879.0113-5.9287.4301-1.515-1.0786-1.5147zm3.7302.3509-.0567.0196-.0254.0211-.0251.026-.0422.078-.026.1146-.0156.156.0058.1959.0246.0471.017.047.0145.0668-.0058.0837-.0211.0927-.0511.0991-.0359.0512-.0519.0519-.0682.0359-.061.0421-.0528.052-.0211.0358-.009.0367.0041.0413.0104.0465.0317.0471.0466.052.0681.0561.0878.0577.087.0318.0788.0355.0829.0569.0373.0367.03.0367.0211.0462.0156.0471v.0569l-.0156.0569-.0315.0676-.052.0731-.0317.0569-.0148.0618v.0835l.0099.0407.021.0471.0318.0416.0462.0462.0569.0422.0731.0407.0927.0422.1098.0358.082-.0104h.0838l.104.0055.1031.0156.1002.0358.0445.0219.0358.031.0367.0346.022.048.0193-.1193.0269-.1196.0462-.1453.0627-.1563.0422-.0713.0447-.0731.0578-.0685.0578-.0609.0731-.0471.0771-.0422.1308-.1034.117-.1089.1147-.1299.0471-.0659.0375-.0682.0203-.0676v-.0624l-.0203-.0569-.017-.0309-.0301-.0211-.0742-.0465-.1144-.0309-.0609-.0055-.0676-.0205-.0731-.0364-.0309-.026-.0373-.0366-.0245-.0359-.0202-.0519-.0162-.0575-.0098-.0676.004-.0771.0153-.0887-.0049-.0771-.0144-.0789-.0309-.0774-.0278-.0355-.03-.031-.0422-.021-.0456-.0165h-.0624l-.0667.0107-.0829.0318-.0942.0413-.0618.026-.0685.0147-.0722.0113-.0731-.0064-.03-.0098-.0309-.0211-.026-.0251-.0211-.0309-.0116-.0474-.0031-.052-.0335-.0355-.0812-.0887-.1202-.0985-.0676-.0471-.0681-.0364-.0668-.0196zm-15.5968.4667-.0367.0104-.1022.035-.147.0627-.1748.099-.0999.0668-.0927.078-.0936.0941-.087.1034-.0835.1193-.0788.1349-.0676.1447-.0511.1716-.0731.0878-.0659.104-.0635.13-.026.0725-.022.0771-.0098.0838v.0829l.0098.0835.0327.0829.0453.0829.0627.0823.0269.0575.026.0676.026.0927.021.1202.005.1505-.005.1753-.0268.2033.1456-.1765.1551-.1975.1869-.2487.1869-.2851.0878-.156.0878-.1554.078-.1551.0635-.156.0511-.1563.0359-.1501-.0203-.0627-.0098-.0722-.0164-.1139v-.151l.0164-.1959.0358-.2391zm.9029 1.1563-.0422.0829-.0569.0982-.0936.1303-.1233.1551-.1724.1716-.1032.0875-.1146.0936-.1283.0936-.1415.0941-.0202.0148-.0627.0471-.0829.0771-.0471.0578-.0399.0673-.0479.0774-.0413.0941-.0367.1032-.0309.1146-.0202.1294-.0156.1462v.1545l.0156.1771-.0156.056-.026.1511-.0055.1034v.1144l.0162.1245.0309.134.0624-.0973.0823-.1049.1089-.1343.1404-.156.1649-.1609.1927-.1658.1089-.078.1089-.0716.0366-.0269.0936-.0722.0575-.0569.0676-.0731.0609-.0927.0633-.104.0569-.1242.0514-.1398.0364-.1666.026-.182.0049-.2025-.0153-.2227-.0424-.2487zm-3.06565.104-.24466.5858-.15511.3365-.07712.1568-.02599.0408.0049.0935.00954.0991.02195.0927.01964.0876.06817.1828.08781.1658.10312.1554.12045.1502.1193.1398.12945.1245.1299.1153.1188.0967.2227.1627.1568.0976.056.0364-.0626-.1551-.0503-.1603-.0425-.156-.0364-.1618-.0456-.3007-.0219-.2802-.0099-.2374.0058-.1878.009-.1608-.0359-.1139-.073-.1559-.2071-.3732-.20252-.3322zm20.28785.0823-.0372.0107-.0408.0211-.0479.0251-.0456.0367-.0933.1089-.104.1502.0309.0474.0251.0462.0058.0578-.0107.0309-.0153.03-.026.0315-.0407.0263-.0569.0315-.0731.0205-.0878.0202-.1147.0162h-.0202-.0538l-.0707.0147-.0422.0162-.0367.0251-.0355.0318-.0309.0416-.026.0525-.0165.0619-.0112.0779.0063.0928.0156.1097.0367.1242-.0936.0725-.0771.0789-.0425.0511-.0413.0618-.0367.0619-.026.0681-.0138.0722-.0064.0829.0098.0829.0275.0829.0514.0945.0673.0927.0358.0422.0422.0511.0358.0627.0422.078.0254.0829.0095.0927v.0462l-.0095.0471-.0586.0569-.0399.0627-.0358.0838-.0049.047v.0512l.0098.052.0196.056.0364.0578.052.0618.074.0578.0878.0615.0676.0725.1496.1762.1502.1926.0471.0731.0202.0555v-.0407l.0147-.0463.0327-.0626.0566-.078.0936-.0829.13-.0933.1756-.0936.0569-.026.0569-.0301.0632-.047.0515-.0685.017-.0404.0144-.0465.005-.0529-.005-.056-.0144-.0682-.0269-.0676-.0416-.0722-.0268-.0722-.0211-.0878v-.0529l.0049-.0456.0121-.048.0254-.0462.0356-.0465.0473-.0413.0624-.0367.0775-.026.0785-.0055.0725-.0205.0373-.0202.0349-.0211.0309-.0358.0211-.0422.0156-.0514v-.0624l-.0107-.078-.026-.0878-.0462-.1034-.0618-.1193-.0367-.0416-.026-.0422-.0211-.052-.0098-.0681.0058-.035.009-.0367.0211-.0413.0309-.0367.047-.0416.0515-.0413.0421-.0511.0309-.0586.0194-.0829.0075-.0454-.0121-.0523-.0148-.0574-.0251-.0619-.0424-.0635-.0567-.0664-.0742-.0725-.0924-.0731-.0098-.052-.0367-.1236-.0624-.1618-.0399-.0829-.0479-.0722-.0512-.0676-.0635-.0462-.0667-.026-.0373-.0058zm-3.0979.934-.0506.0106-.0577.031-.052.0519-.048.0789-.0453.1072-.0474.1464.0058.0462-.0058.0578-.0095.0618-.026.078-.0367.078-.0627.078-.078.0667-.0722.0731-.0635.0771-.0511.0936-.0203.052-.0049.0569v.052l.0153.0511.026.052.0474.052.0656.0471.0953.0416.0202.0471.0367.108.0104.0734.0049.078-.0113.0829-.026.0829-.0147.0251-.026.0673-.026.1048-.0058.057v.056l.0116.0618.0202.0635.0358.0575.048.0514.0673.0463.082.0416.1089.0314.1303.0206.0355.0259.0376.0315.0268.0416.009.052-.0058.0309-.0153.0318-.0205.03-.0364.0318-.0407.0355-.0636.0416-.0615.078-.0465.0829-.022.0462-.0144.0471-.0067.048.0067.0448.0193.0424.0318.0355.0537.0318.078.026.091.0156.1251.0046.104.0847.2692.186.1713.1129.182.1043.1814.0942.1707.0667-.0058-.0465.0058-.0633.0211-.0771.0407-.0985.0731-.1089.1097-.1187.0731-.0682.078-.0676.035-.0095.0829-.0416.1039-.0627.0578-.0421.0454-.0512.0366-.0511.031-.0578.0112-.0676-.0112-.0722-.0252-.0731-.0577-.0779-.083-.087-.1195-.0895-.0876-.026-.0837-.0301-.0457-.0317-.0364-.031-.0358-.0413-.03-.047-.0228-.0619-.0041-.0675.0041-.0772.0228-.0887.0398-.1048.0624-.1138.0668-.0569.047-.0615.0416-.0783.0104-.0355v-.0425l-.017-.0364-.0243-.0416-.0465-.0358-.0632-.0315-.0821-.0254-.1089-.026h-.0733l-.0665-.022-.0317-.0144-.0252-.0252-.0268-.0317-.0156-.0367-.0104-.0529.004-.056.0179-.0731.0309-.0878.0511-.0982.0726-.1138.0161-.104.0041-.104-.009-.1092-.0211-.0566-.0268-.0474-.0359-.0462-.0511-.0309-.0635-.026-.0771-.0107-.0936.0049-.1089.0269-.048.0147-.0445.0049h-.0626l-.0723-.0147-.0788-.0367-.0829-.0566-.0829-.0944-.0676-.0974-.078-.0829-.0462-.0367-.052-.0317-.052-.0203zm-13.8383.8616.0017.0326.0032-.0075v-.0202zm.0017.0326-.013.0292-.0407.0682-.082.0927-.1416.1245-.2022.1658-.279.2022-.0323.0162-.078.0523-.113.0924-.0577.0635-.0682.0722-.0569.0821-.0618.0993-.0511.113-.0416.1259-.0367.1398-.0211.1551-.0041.1716.009.186.0162.0422.0147.0563.0121.0835.0049.1034v.1202l-.017.1447-.0309.1667.1456-.1716.3478-.3998.4055-.4405.1797-.1877.1453-.1291.0375-.1138.0309-.1349.0301-.1765.0317-.2178.0266-.2536.0043-.2756zm-4.0003.4342v.0664l.00982.182.01445.1254.02599.1452.03669.1612.05199.1649.06817.1762.08694.1765.1089.1762.12941.1774.07394.0829.0829.0713.08868.0838.09242.0725.1034.0722.1144.0682.1187.0618.126.056.0349-.0098h.0471l.0734.0098.104.0385.134.0664.1811.1034.2178.1502-.1395-.3316-.1187-.3056-.0985-.2958-.0269-.0722-.0355-.0887-.0725-.1138-.104-.1357-.1456-.1497-.0875-.0835-.1034-.0829-.1211-.0829-.134-.0878-.11958-.0416-.12911-.052-.15193-.0673-.15945-.0935-.15598-.1153-.06759-.0609-.06153-.0685-.05199-.0713zm3.9246 1.6178-.0251.0096-.0731.0384-.0985.0829-.0615.0569-.0578.0771-.0635.0887-.0665.1089-.0569.1291-.0569.1511-.052.1707-.0471.1975-.0358.2227-.026.2487.0618.104.0575.1196.0676.1609.0624.182.0205.1022.0202.1043.0156.1095.0047.1129-.0047.1147-.0156.1147.0578-.0367.0618-.0569.0789-.0942.0811-.1291.0422-.0878.0408-.0985.043-.1098.0358-.1291.0318-.1456.0309-.1559.0453-.0619.0416-.078.0422-.1187.0422-.1614.0254-.2074.0055-.1196v-.134l-.0055-.1462-.0165-.1658-.0202-.0098-.0211-.026-.03-.0471-.0358-.0716-.0422-.0991-.0523-.1398zm16.1586.773-.061.0049-.0583.0211-.056.0367-.0578.0569-.0471.0731-.0407.0973-.0373.1213-.0254.1445-.052.383-.0049.0315v-.0364l.0205-.2698-.0765-.0254-.0789-.0154-.0422-.0049-.0367.0049-.0355.0154-.0318.0196-.0196.0381-.0104.0457-.0049.0624.0153.0782.0254.0974.0422.1146.0349.0269.0991.0673.1716.0919.2389.104.0731.0268.0771.0098.0887-.0049.0416-.0098.0355-.0219.0303-.0309.0324-.0463.0196-.0569.0121-.0673v-.0887l-.017-.1039.0673-.1254.0578-.1233.0569-.1505.0211-.078.0107-.0771.0049-.0731-.0049-.0734-.0211-.0682-.0327-.056-.0502-.0462-.0725-.0309-.0269-.0165-.0664-.0309-.0945-.0315-.0578-.0098zm-19.54532.0878.01705.048.03495.1398.07799.2024.12016.2586.08287.1403.0936.1505.1031.1502.126.1554.1438.1552.1618.1513.1756.1453.1976.1398 1.2961.2903.0049-.0569-.0202-.1505-.0211-.1031-.0358-.1196-.057-.13-.0722-.1456-.1048-.1453-.1294-.1559-.1551-.1497-.0928-.078-.1048-.0716-.108-.078-.1251-.0731-.1309-.0676-.1398-.0664-.1554-.0684-.164-.0624-.178-.0627-.1918-.0511-.0251.0153-.0416.0057-.0682-.0057-.0829-.026-.1129-.052-.14068-.0942zm17.53712.1456-.0512.0107-.0586.026-.0609.0364-.061.0667-.0326.0381-.0185.0512-.022.0514-.0115.0673-.0095.0725.0049.0829.0104.0112.0107.0148-.005.0251-.0115.0269-.035.026-.0583.0364-.0927.0416-.0668.0153-.0673.026-.0684.0473-.0306.0307-.0263.0358-.0145.0375-.0121.0511-.004.052.0095.0619.0254.0673.0431.078.0202.0465.0147.052.0055.0577-.0104.0665-.0098.0309-.0202.0366-.0318.0318-.0422.0252-.0456.0259-.0627.0211-.0673.0252-.0627.0317-.0673.0463-.0618.0675-.0269.0422-.0196.0471-.0104.0514v.0575l.0049.0667.0202.0725.0107.0413v.0422l-.0058.0563-.0147.0682-.0364.0627-.052.0664-.0774.0578-.069.0569-.0561.0609-.0479.0893-.0081.0456-.0107.0578.0058.0529.013.0618.0332.0615.0514.0627.0673.0667.0878.0664.0578.0734.1193.1762.1447.2383.0627.1193.052.1147.0462-.0569.0618-.0578.0838-.0618.1089-.0624.1407-.0511.0771-.0214.0837-.0104.0919-.0049h.0991l.104-.0098.0985-.0211.1143-.0422.0564-.0309.0479-.0358.0454-.0471.0317-.0569.0252-.0627.0115-.078-.0115-.0869-.0194-.1031-.026-.0685-.0164-.0713-.005-.0774.005-.0471.0164-.0422.0202-.0358.0364-.0373.0399-.03.0578-.0269.0739-.0211.0829-.0098h.0976l.0829-.0107.0471-.0153.0422-.0211.0407-.0245.0269-.0373.0193-.0465.0116-.0575-.0116-.0734-.0251-.082-.0479-.0933-.0668-.1138-.03-.0309-.0269-.0416-.021-.0529-.0096-.0615.0096-.0733.0415-.0821.0318-.0471.0413-.0462.0462-.078.0376-.0878.0243-.1097v-.0512l-.005-.0627-.0144-.0569-.026-.0511-.0465-.052-.0575-.0528-.0783-.0416-.0973-.0413-.0121.0049-.035.0055-.0578-.0154-.0829-.0415-.0511-.0364-.0586-.0512-.0618-.0684-.0673-.0829-.0717-.1031-.078-.1245-.0895-.1453zm-13.7959 1.2603-.0219.0156-.0255.0413-.0309.0788-.0251.1294-.0269.1918-.0112.264.0058.3585.0054.1098.005.1138.0219.1398.0309.1609.0399.1591.0641.1551.039.0676.0479.0682.052.0147.0569.0269.0725.0364.0829.0569.0838.0783.0829.0924.0722.1245.0367-.1187.0309-.1309.0306-.1756.02-.2026v-.2233l-.0049-.1187-.022-.1187-.0251-.126-.0309-.1187-.0878-.134-.1976-.3218-.2178-.3781-.0887-.1771-.0569-.1406h-.0095zm-2.2258 1.1519.0578.0734.0511.0933.0878.2276.0682.2016.026.0878.1652.1291.1722.1156.1707.0982.1762.0927.1707.078.1725.0682.3217.1034.2797.0722.2227.0413.2022.0309-.0835-.0875-.0774-.0936-.1398-.1918-.1349-.2025-.1453-.2071-.1236-.1554-.104-.1135-.0789-.0783-.056-.0511-.0367-.0318-.0318-.0095-.2013-.0269-.2178-.0349-.2236-.048-.2129-.0511-.3373-.0887zm3.2427.6112.1967.2227.1806.2334.1666.2291.1448.2169.2079.3325.078.1349.2227.099.2285.0717.2224.0577.2083.0413.3218.0416.1291.0099-.0673-.1612-.0676-.1494-.0673-.1357-.0725-.1294-.1439-.2178-.1357-.1713-.1251-.1294-.0991-.0933-.0878-.0731-.1236-.0774-.1251-.0731-.1242-.0618-.1245-.052-.2438-.0762-.2244-.0466-.1909-.0268-.1502-.0162zm11.0019.4512-.0364.0049-.0422.0153-.0407.026-.0471.0416-.0465.0373-.0479.0358-.0454.0569-.0479.0682-.026.0774v.0462.0471l.0161.0465.022.0569.0398.0113.0414.0202.0479.0309.0407.0367.026.052.0067.026v.0358l-.0116.0358-.0153.0364.0095.0627.026.056.0425.0627.0309.026.0405.0315.0528.0196.0569.0162.0731.0107h.0823l.0942-.0107.1089-.0211.0202-.0349.0514-.0887.0624-.1355.0269-.0823.0147-.0933.0049-.0685-.0049-.0722-.0098-.0771-.0269-.0725-.0147-.0315-.0217-.026-.0309-.0156-.0309-.0104h-.0367l-.0407.0153-.026.0049-.0569-.0049-.0364-.0098-.0355-.0118-.03-.0309-.0324-.0471-.0214-.0511-.0242-.0474-.0431-.052-.0465-.0355-.0306-.0058-.0303-.0049zm-2.3657.2224-.0569.0067-.052.0153-.0479.03-.0359.0367-.0358.0364-.052.0829-.0421.0927-.1552.078-.1178.048-.0895.03-.0619.0098-.0413-.0049-.0211-.0049-.0156-.0153-.108-.0578-.0991-.0398-.0878-.0269-.0731-.0162h-.0675l-.0619.0058-.047.0153-.048.022-.03.0251-.0318.0309-.0413.052-.0251.0627-.825.6479-.1389.099-.1214.0772-.1138.0569-.0982.0416-.0927.0265-.0771.0099-.0691.0057-.0618-.0106-.052-.0096-.0358-.0219-.0627-.0416-.0364-.0358-.0098-.0153-.1349-.078-.1551-.0928-.1782-.1195-.2941-.1982-.2755-.16-.2545-.1294-.2389-.1-.2169-.0707-.1976-.052-.1753-.0324-.1612-.0107-.1404-.004-.1245.0098-.104.0211-.0829.0211-.1089.0407-.0413.0162.0575.0878.0569.0771.0627.0734.061.0731.1461.1193.1496.1083.1609.0875.1609.0734.1603.0569.1615.0479.1563.035.1398.026.2429.0251.1722.0113h.0569l.1658.0156.1398.0211.1196.0193.0933.0269.0829.026.0609.0254.0523.0266.0372.0268.0203.0301.0164.0214.0153.0462-.0066.026-.0046.0153-.1392.078-.1349.0829-.1202.0886-.1138.0936-.0991.0974-.0927.0944-.156.1861-.1138.1715-.082.1349-.0636.1242.2187.0723.0609-.1705.0789-.1455.0878-.1341.0936-.1196.0942-.1039.1031-.0936.0985-.078.099-.0682.1806-.0976.1511-.0618.0982-.0364.0366-.0107.0408-.0358.0372-.0266.0766-.026.0722-.0049.0699.0144.0569.022.0407.0251.0364.0318.0985.0421.0884.0515.0823.0618.078.0673.0673.078.0618.0779.104.1609.078.1497.0578.1308.0407.1196.2536-.1106-.0358-.0668-.0416-.0779-.1022-.1494-.126-.1612-.1308-.1453-.2213-.2388-.0991-.0936.0116-.0578.0202-.0462.0251-.0309.0367-.026.0355-.0211.0483-.0107.0869-.0049.0884.0107.0774.0162.0731.026.1242.078.1147.0514.0878.026.078.0095h.056l.0488-.0095.0292-.0107.0627.0635.0624.0462.0537.0367.039.0194.0431.0058h.0349l.0309-.0107.0277-.0145.0359-.0424.026-.0529.0153-.0511.0416-.0318.0413-.0211.073-.0138.0676.0089.0561.0214.0528.0364.0359.0318.0309.0367.0673.1129.0684.0893.0722.0618.0668.0358.0673.0202.0684.0058.0624-.0107.056-.0202.0578-.0309.052-.0318.0774-.0731.0566-.0618.0214-.0251.052-.0896.0575-.0462.0563-.0251h.0471l.0453.0098.031.0211.0335.0211.1022.0982.0829.0676.078.0462.0627.0269.0511.0098.0471-.0049.0358-.0162.0269-.026.0211-.0358.0138-.0367.0171-.078v-.0829-.0413-.03l.0089-.0269.0179-.0156.0399-.0309.0462-.0104h.0529.0413l.0465.0104.1389-.0829.1049-.0682.0779-.0673.0561-.0976.0684-.1049.0829-.1031.0884-.0944.1456-.1494.0682-.0627-.2455.0627-.1656.0364-.1083.0107-.0575-.0107-.0213-.0162v-.0202l.0213-.026-.0626-.1294-.0627-.1048-.0673-.078-.0618-.0561-.0578-.0416-.061-.026-.0569-.0112h-.0511l-.0537.0112-.0462.0156-.0731.0413-.0523.0367-.0144.0153-.1658.0205-.1147-.0057-.0789-.0148-.0502-.0251-.0205-.0269-.0055-.0251v-.026l-.0838-.1048-.0771-.0723-.0734-.052-.0673-.0254zm-8.6885.6387-.0367.0055-.0147.0098-.0055.0058-1.007.0722.0835.0528.087.0775.0846.0875.078.0936.1236.1617.048.0668.1542.0982.1465.0829.1438.0618.1358.0528.1291.0359.1201.0265.1147.0148.1034.0049.1811-.0049.1341-.0203.0837-.021.0309-.0058.4194-.139.3331-.0886.2123-.0471.078-.0156-.1716-.0252-.186-.0421-.1886-.052-.1748-.0561-.2805-.1039-.1144-.0425-.2845-.1496-.2235-.0991-.1551-.0624-.1098-.0303zm2.6453.8142-.2074.0315-.186.0408-.1667.052-.1502.0528-.1349.0618-.1146.0618-.104.0682-.0878.0618-.0722.0618-.0636.0624-.0861.104-.0528.0667-.0153.0318.1973.0413.1967.0165.1918.0046.182-.0095.1554-.0165.125-.0162.1081-.0202.5081-.0829.3217-.0465.2129-.017.052-.0861.078-.0893.0869-.0878.0945-.0878.1609-.1357.0673-.052-.3331-.0049-.2796-.005-.3983-.026-.2187-.026z"/>
        <path d="m36 20c0 8.8366-7.1634 16-16 16s-16-7.1634-16-16 7.1634-16 16-16 16 7.1634 16 16zm-29.83651 0c0 7.6417 6.19481 13.8365 13.83651 13.8365s13.8365-6.1948 13.8365-13.8365-6.1948-13.83651-13.8365-13.83651-13.83651 6.19481-13.83651 13.83651z"/>
    </g>
</svg>