<svg width="39" height="39" viewBox="0 0 39 39" fill="none" xmlns="http://www.w3.org/2000/svg">
<path d="M19.3433 38.5403C29.8257 38.5403 38.2588 30.1072 38.2588 19.6248C38.2588 9.14235 29.8257 0.709229 19.3433 0.709229C8.86086 0.709229 0.427734 9.14235 0.427734 19.6248C0.427734 30.1072 8.86086 38.5403 19.3433 38.5403Z" fill="#040018"/>
<path d="M24.5455 22.6198C24.5455 19.8613 22.8904 18.9155 19.5802 18.5215C17.2157 18.2062 16.7428 17.5757 16.7428 16.4722C16.7428 15.3687 17.531 14.6595 19.1073 14.6595C20.5259 14.6595 21.3142 15.1324 21.7082 16.3146C21.787 16.5511 22.0235 16.7086 22.2599 16.7086H23.5208C23.8362 16.7086 24.0726 16.4722 24.0726 16.1571V16.0782C23.7573 14.3442 22.3386 13.0044 20.5259 12.8468V10.9553C20.5259 10.64 20.2895 10.4035 19.8955 10.3246H18.7133C18.3979 10.3246 18.1615 10.5611 18.0826 10.9553V12.768C15.7182 13.0833 14.2208 14.6595 14.2208 16.63C14.2208 19.2308 15.7971 20.2553 19.1073 20.6495C21.3142 21.0435 22.0235 21.5164 22.0235 22.7775C22.0235 24.0386 20.92 24.9055 19.4226 24.9055C17.3733 24.9055 16.664 24.0384 16.4275 22.8562C16.3488 22.5411 16.1124 22.3833 15.8759 22.3833H14.536C14.2208 22.3833 13.9844 22.6198 13.9844 22.9351V23.014C14.2995 24.9842 15.5606 26.4029 18.1615 26.7971V28.6886C18.1615 29.0038 18.3979 29.2402 18.792 29.3191H19.9742C20.2895 29.3191 20.5259 29.0826 20.6048 28.6886V26.7971C22.9693 26.4029 24.5455 24.7478 24.5455 22.6198Z" fill="#E5E1F9"/>
<path fill-rule="evenodd" clip-rule="evenodd" d="M8.30832 15.7627C6.02257 21.8316 9.17522 28.6885 15.3228 30.8952C15.5592 31.0529 15.7957 31.3681 15.7957 31.6045V32.708C15.7957 32.8656 15.7957 32.9445 15.7168 33.0232C15.6381 33.3385 15.3228 33.4961 15.0075 33.3385C10.5939 31.9198 7.20479 28.5307 5.78612 24.1172C3.42168 16.6298 7.52011 8.66939 15.0075 6.30495C15.0863 6.22626 15.2439 6.22626 15.3228 6.22626C15.6381 6.30495 15.7957 6.54139 15.7957 6.85671V7.96006C15.7957 8.35426 15.6381 8.5907 15.3228 8.74827C12.0914 9.93049 9.49055 12.4525 8.30832 15.7627ZM22.9672 6.62001C23.0459 6.30469 23.3612 6.14712 23.6765 6.30469C28.0112 7.72335 31.4792 11.1125 32.8979 15.6049C35.2623 23.0922 31.1639 31.0527 23.6765 33.4171C23.5977 33.4958 23.4401 33.4958 23.3612 33.4958C23.0459 33.4171 22.8883 33.1807 22.8883 32.8653V31.762C22.8883 31.3678 23.0459 31.1314 23.3612 30.9738C26.5926 29.7916 29.1935 27.2696 30.3757 23.9593C32.6614 17.8905 29.5088 11.0336 23.3612 8.82689C23.1248 8.66913 22.8883 8.354 22.8883 8.03868V6.93533C22.8883 6.77758 22.8883 6.69889 22.9672 6.62001Z" fill="#E5E1F9"/>
</svg>
