<svg width="25" height="25" viewBox="0 0 25 25" fill="none" xmlns="http://www.w3.org/2000/svg">
<path d="M12.1739 24.3478C18.9203 24.3478 24.3478 18.9203 24.3478 12.1739C24.3478 5.4275 18.9203 0 12.1739 0C5.4275 0 0 5.4275 0 12.1739C0 18.9203 5.4275 24.3478 12.1739 24.3478Z" fill="#0C0A14"/>
<path d="M15.5217 14.1013C15.5217 12.326 14.4565 11.7173 12.326 11.4637C10.8043 11.2607 10.4999 10.855 10.4999 10.1448C10.4999 9.43453 11.0072 8.97813 12.0217 8.97813C12.9347 8.97813 13.442 9.28248 13.6956 10.0433C13.7463 10.1955 13.8985 10.2969 14.0507 10.2969H14.8622C15.0651 10.2969 15.2173 10.1448 15.2173 9.94194V9.89117C15.0144 8.77519 14.1013 7.91291 12.9347 7.8115V6.59411C12.9347 6.39117 12.7825 6.239 12.529 6.18823H11.7681C11.5651 6.18823 11.413 6.34041 11.3622 6.59411V7.76074C9.84047 7.96368 8.87678 8.97813 8.87678 10.2463C8.87678 11.9202 9.89124 12.5795 12.0217 12.8332C13.442 13.0868 13.8985 13.3912 13.8985 14.2028C13.8985 15.0144 13.1883 15.5724 12.2246 15.5724C10.9057 15.5724 10.4492 15.0143 10.297 14.2535C10.2463 14.0506 10.0942 13.9491 9.942 13.9491H9.0796C8.87678 13.9491 8.72461 14.1013 8.72461 14.3042V14.355C8.92743 15.623 9.73906 16.5361 11.413 16.7898V18.0072C11.413 18.21 11.5651 18.3621 11.8187 18.4129H12.5796C12.7825 18.4129 12.9347 18.2607 12.9855 18.0072V16.7898C14.5072 16.5361 15.5217 15.4708 15.5217 14.1013Z" fill="#E5E1F9"/>
<path fill-rule="evenodd" clip-rule="evenodd" d="M5.07332 9.68838C3.60223 13.5943 5.63125 18.0073 9.58778 19.4275C9.73995 19.529 9.89212 19.7319 9.89212 19.884V20.5943C9.89212 20.6957 9.89212 20.7464 9.84136 20.7971C9.79071 21 9.58778 21.1014 9.38484 21C6.5443 20.087 4.3631 17.9058 3.45005 15.0652C1.92831 10.2464 4.56604 5.12316 9.38484 3.60142C9.4356 3.55078 9.53701 3.55078 9.58778 3.55078C9.79071 3.60142 9.89212 3.7536 9.89212 3.95654V4.66664C9.89212 4.92035 9.79071 5.07252 9.58778 5.17393C7.50811 5.9348 5.83419 7.55795 5.07332 9.68838ZM14.5081 3.80422C14.5587 3.60128 14.7617 3.49987 14.9646 3.60128C17.7544 4.51433 19.9864 6.69553 20.8994 9.58683C22.4211 14.4056 19.7834 19.5289 14.9646 21.0506C14.9139 21.1013 14.8124 21.1013 14.7617 21.1013C14.5587 21.0506 14.4573 20.8985 14.4573 20.6955V19.9854C14.4573 19.7317 14.5587 19.5795 14.7617 19.4781C16.8413 18.7173 18.5153 17.0941 19.2761 14.9637C20.7472 11.0578 18.7182 6.64476 14.7617 5.22455C14.6095 5.12302 14.4573 4.9202 14.4573 4.71727V4.00716C14.4573 3.90563 14.4573 3.85499 14.5081 3.80422Z" fill="#E5E1F9"/>
</svg>
