<svg width="12" height="11" viewBox="0 0 12 11" fill="none" xmlns="http://www.w3.org/2000/svg">
<path d="M10.5 4.9H9.8V4.2H10.5V4.9Z" fill="#6A5116"/>
<path d="M8.4 6.3H7.7V5.6H8.4V6.3Z" fill="#6A5116"/>
<path d="M7.7 7H7V6.3H7.7V7Z" fill="#6A5116"/>
<path d="M7.7 8.4H7V7.7H7.7V8.4Z" fill="#6A5116"/>
<path d="M8.4 9.1H7.7V8.4H8.4V9.1Z" fill="#6A5116"/>
<path d="M9.1 9.8H8.4V9.1H9.1V9.8Z" fill="#6A5116"/>
<path d="M2.8 9.8H2.1V9.1H2.8V9.8Z" fill="#6A5116"/>
<path d="M3.5 9.1H2.8V8.4H3.5V9.1Z" fill="#6A5116"/>
<path d="M4.2 8.4H3.5V7.7H4.2V8.4Z" fill="#6A5116"/>
<path d="M4.2 7H3.5V6.3H4.2V7Z" fill="#6A5116"/>
<path d="M3.5 6.3H2.8V5.6H3.5V6.3Z" fill="#6A5116"/>
<path d="M1.4 4.9H0.7V4.2H1.4V4.9Z" fill="#6A5116"/>
<path d="M4.2 7.7H4.9V7H4.2V7.7Z" fill="#6A5116"/>
<path d="M2.8 0V0.7H5.6H8.4V0H2.8Z" fill="#6A5116"/>
<path d="M0.7 0.7V1.4H2.5V4.2H1.4L0.7 4.9H2.8V5.6L3.5 6.3L4.2 7H4.9L3.5 8.4L2.8 9.1V9.8H8.4V9.1L7.7 8.4L7 7.7V7L7.7 6.3L8.4 5.6L10.5 4.9L10.2336 4.2H8.76433V3V1.4L10.5 0.7H2.8H0.7Z" fill="#6A5116"/>
<path d="M0.7 1.4H0V4.2H0.7H1.4V2.74951V1.4H0.7Z" fill="#6A5116"/>
<path d="M8.4 0.7V1.4H8.76433H10.5V0.7H8.4Z" fill="#6A5116"/>
<path d="M11.2 1.4H10.5H9.8V2.74951V4.2H10.5H11.2V1.4Z" fill="#6A5116"/>
<path d="M9.8 5.6V4.9H8.4V5.6H9.8Z" fill="#6A5116"/>
<path d="M2.8 5.6V4.9H1.4V5.6H2.8Z" fill="#6A5116"/>
<path d="M8.4 10.5V9.8H2.8V10.5H8.4Z" fill="#6A5116"/>
</svg>
