<svg width="12" height="12" viewBox="0 0 12 12" fill="none" xmlns="http://www.w3.org/2000/svg">
<path d="M3.58828 9.06997L1.19922 9.5L1.5974 7.07909L6.95685 1.73556C7.03088 1.66092 7.11896 1.60167 7.216 1.56125C7.31304 1.52082 7.41713 1.5 7.52226 1.5C7.62739 1.5 7.73147 1.52082 7.82852 1.56125C7.92556 1.60167 8.01364 1.66092 8.08767 1.73556L8.9318 2.57969C9.00644 2.65373 9.06569 2.7418 9.10612 2.83885C9.14655 2.93589 9.16736 3.03998 9.16736 3.1451C9.16736 3.25023 9.14655 3.35432 9.10612 3.45136C9.06569 3.54841 9.00644 3.63648 8.9318 3.71051L3.58828 9.06997Z" stroke="#E5E1F9" stroke-linecap="round" stroke-linejoin="round"/>
</svg>
