<svg fill="none" xmlns="http://www.w3.org/2000/svg" viewBox="0 0 25 24"><path d="M12.006 0c6.628 0 12 5.373 12 12 0 6.628-5.372 12-12 12-6.627 0-12-5.372-12-12 0-6.627 5.373-12 12-12Z" fill="#1A1929"/><path fill-rule="evenodd" clip-rule="evenodd" d="M6.291 18.615v.045l-.002.002v.007h5.205a9.227 9.227 0 0 0 1.755-.143 8.113 8.113 0 0 0 1.77-.562c.246-.113.482-.25.72-.39l.18-.105c.28-.2.548-.415.803-.645a5.997 5.997 0 0 0 1.575-2.295.188.188 0 0 1 .218-.142h1.418c.112 0 .15-.038.15-.165v-.908a1.507 1.507 0 0 0 0-.262c0-.023.005-.045.011-.068.012-.045.023-.09-.011-.135h-1.185c-.143 0-.143-.015-.143-.143a7.668 7.668 0 0 0 0-1.372c-.007-.135.023-.135.128-.135h1.035c.12 0 .165-.03.165-.15V9.82c-.004-.082-.005-.123-.027-.144-.022-.021-.065-.021-.153-.021h-1.342a.195.195 0 0 1-.224-.158 6.02 6.02 0 0 0-.586-1.148 7.227 7.227 0 0 0-.803-.997 6.614 6.614 0 0 0-1.32-1.02 7.33 7.33 0 0 0-2.347-.87 8.569 8.569 0 0 0-1.215-.135H6.442c-.15 0-.15.03-.15.15V9.52c0 .142-.03.142-.143.142H4.536c-.12 0-.12.022-.12.105v1.32c0 .12.038.12.128.12h1.628c.12 0 .12.022.12.112v1.41c0 .127-.038.127-.136.127h-1.74v1.425c0 .12.038.12.128.12h1.628c.12 0 .12.015.12.113v4.102ZM16.65 9.533a.147.147 0 0 1 0 .104h.036c-.015.045-.09.06-.09.06H7.941c-.143 0-.143-.03-.143-.142V6.893c0-.098.015-.143.127-.143h4.028c.429-.004.856.041 1.275.135.83.197 1.6.588 2.25 1.14.13.097.245.21.345.338.212.21.398.443.555.697.105.149.195.307.271.473Zm.36 3.314h-9.03c-.092 0-.137 0-.159-.022-.022-.022-.022-.065-.022-.15V11.34c0-.105.03-.142.143-.142h9.075c.098 0 .142.037.142.127.038.464.038.931 0 1.395-.007.127-.053.127-.15.127Zm-.36 1.56a1.755 1.755 0 0 0-.383 0H7.949c-.113 0-.15 0-.15.15v2.603c0 .12 0 .15.15.15h3.84c.183.015.367.002.547-.037a5.72 5.72 0 0 0 1.628-.36c.19-.066.373-.152.547-.255h.052a4.873 4.873 0 0 0 2.093-2.107s.052-.113-.007-.143Z" fill="#B3AFC6"/></svg>