<svg width="24" height="24" viewBox="0 0 24 24" fill="none" xmlns="http://www.w3.org/2000/svg">
<path d="M12 24C18.65 24 24 18.65 24 12C24 5.34996 18.65 0 12 0C5.34996 0 0 5.34996 0 12C0 18.65 5.34996 24 12 24Z" fill="#1A1929"/>
<path d="M10.704 11.5196V8.57821H6.7146V6H17.8624V8.61452H13.8731V11.5196H10.704Z" fill="#B3AFC6"/>
<path fill-rule="evenodd" clip-rule="evenodd" d="M5 11.8464C5 10.866 8.20641 10.0671 12.1958 10.0671C16.1851 10.0671 19.3915 10.866 19.3915 11.8464C19.3915 12.8269 16.1851 13.6257 12.1958 13.6257C8.20641 13.6257 5 12.8269 5 11.8464ZM18.7953 11.8464C18.5343 11.4833 16.3719 10.3576 12.1961 10.3576C8.02031 10.3576 5.85785 11.447 5.59687 11.8464C5.85785 12.2095 8.02031 12.7542 12.1961 12.7542C16.4092 12.7542 18.5343 12.2095 18.7953 11.8464Z" fill="#B3AFC6"/>
<path d="M13.8733 12.4273V10.3938C13.3513 10.3575 12.7921 10.3212 12.2328 10.3212C11.7108 10.3212 11.2261 10.3212 10.7415 10.3575V12.391C11.1889 12.391 11.7108 12.4273 12.2328 12.4273C12.7921 12.4637 13.3513 12.4637 13.8733 12.4273Z" fill="#B3AFC6"/>
<path d="M12.1959 13.6257C11.674 13.6257 11.1893 13.6257 10.7046 13.5894V19H13.8364V13.5531C13.3145 13.5894 12.7552 13.6257 12.1959 13.6257Z" fill="#B3AFC6"/>
</svg>
