<svg width="18" height="21" viewBox="0 0 18 21" fill="none" xmlns="http://www.w3.org/2000/svg">
<path d="M11.2593 9.60093L12.732 7.1087L16.7014 13.2749L16.7033 14.4582L16.6903 6.31524C16.6809 6.11619 16.5749 5.93408 16.4059 5.82671L9.25945 1.72682C9.0923 1.6449 8.88028 1.64577 8.71344 1.72937C8.69091 1.74067 8.66969 1.75289 8.64946 1.76624L8.62457 1.78188L1.68782 5.79108L1.66088 5.80325C1.62628 5.81914 1.5913 5.83931 1.55845 5.86277C1.42695 5.95686 1.33958 6.09595 1.31133 6.25199C1.3071 6.27564 1.30398 6.29972 1.30249 6.32399L1.31338 12.9597L5.0107 7.24419C5.47619 6.48629 6.49043 6.24218 7.43192 6.25547L8.53695 6.28458L2.02611 16.6986L2.7936 17.1393L9.38248 6.29513L12.2948 6.28458L5.72287 17.4024L8.46153 18.9734L8.78874 19.1611C8.92714 19.2172 9.09031 19.22 9.22989 19.1698L16.4767 14.9812L15.0912 15.782L11.2593 9.60093ZM11.8212 17.672L9.05508 13.3421L10.7436 10.4844L14.3763 16.1952L11.8212 17.672Z" fill="#0B0911"/>
<path d="M9.05505 13.3421L11.8212 17.672L14.3764 16.1951L10.7436 10.4844L9.05505 13.3421Z" fill="#28A0F0"/>
<path d="M16.7032 14.4579L16.7014 13.2746L12.732 7.1084L11.2593 9.60063L15.0912 15.7817L16.4767 14.9809C16.6126 14.8709 16.6948 14.7093 16.7035 14.535L16.7032 14.4579Z" fill="#28A0F0"/>
<path d="M0.0695207 15.5741L2.02606 16.6985L8.5369 6.2845L7.43187 6.25539C6.49037 6.24211 5.4762 6.48622 5.01065 7.24412L1.31333 12.9597L0.069458 14.8658V15.5741H0.0695207Z" fill="white"/>
<path d="M12.2947 6.28418L9.38246 6.29473L2.79358 17.1389L5.09656 18.4614L5.72285 17.402L12.2947 6.28418Z" fill="white"/>
<path d="M17.9306 6.26952C17.9062 5.66207 17.5765 5.10596 17.0599 4.78222L9.81984 0.629636C9.30887 0.37299 8.6705 0.372679 8.15872 0.62945C8.09823 0.659863 1.11786 4.69756 1.11786 4.69756C1.02128 4.74373 0.928241 4.79879 0.840682 4.86123C0.379551 5.19086 0.0984552 5.70304 0.0695801 6.2658V14.8658L1.31345 12.9597L1.30256 6.32395C1.30405 6.29969 1.3071 6.27585 1.3114 6.25227C1.33946 6.09611 1.4269 5.95683 1.55851 5.86274C1.59137 5.83927 8.69092 1.74063 8.71351 1.72934C8.88041 1.64573 9.09243 1.64486 9.25952 1.72679L16.4059 5.82667C16.575 5.93405 16.681 6.11615 16.6904 6.3152V14.5353C16.6817 14.7096 16.6127 14.8711 16.4767 14.9812L15.0912 15.7819L14.3764 16.1951L11.8212 17.672L9.2299 19.1698C9.09031 19.2201 8.92714 19.2173 8.78874 19.1611L5.72288 17.4024L5.09659 18.4617L7.85179 20.0439C7.9429 20.0955 8.02411 20.1413 8.0907 20.1787C8.19388 20.2364 8.26414 20.275 8.28897 20.2869C8.48481 20.3818 8.76653 20.437 9.02043 20.437C9.25323 20.437 9.48019 20.3944 9.69501 20.3105L17.2215 15.9631C17.6535 15.6293 17.9077 15.1259 17.9306 14.5805V6.26952Z" fill="#96BEDC"/>
</svg>
