<svg width="40" height="40" viewBox="0 0 40 40" fill="none" xmlns="http://www.w3.org/2000/svg">
<g clip-path="url(#clip0_2896_6367)">
<path d="M20 0C31.0467 0 40 8.95508 40 20C40 31.0467 31.0467 40 20 40C8.95508 40 0 31.0458 0 20C0 8.95508 8.95508 0 20 0Z" fill="#38305B"/>
<path fill-rule="evenodd" clip-rule="evenodd" d="M10.4752 31.025V31.0998L10.4716 31.1025V31.115H19.1467C20.1287 31.1285 21.1069 31.0503 22.0717 30.8775C23.0879 30.6785 24.0779 30.3653 25.0221 29.9405C25.4314 29.751 25.8241 29.5218 26.2204 29.2906C26.3207 29.2321 26.4212 29.1735 26.5224 29.1151C26.9886 28.7831 27.4349 28.4231 27.8597 28.0406C29.0226 26.9895 29.9226 25.6781 30.4851 24.2156C30.5229 24.0518 30.6831 23.9465 30.8477 23.978H33.2102C33.3984 23.978 33.4606 23.915 33.4606 23.7026V22.1896C33.4731 22.0448 33.4731 21.898 33.4606 21.7531C33.4606 21.7153 33.4702 21.6775 33.4799 21.6398C33.4994 21.5646 33.5186 21.4896 33.4606 21.4148H31.4867C31.2482 21.4148 31.2482 21.3895 31.2482 21.1771C31.3167 20.4158 31.3167 19.6516 31.2482 18.8901C31.2357 18.6651 31.2861 18.6651 31.4607 18.6651H33.1859C33.3867 18.6651 33.4614 18.6148 33.4614 18.415V16.3648C33.4552 16.229 33.4521 16.1601 33.4161 16.1252C33.3789 16.0894 33.3072 16.0894 33.1617 16.0894H30.9242C30.7497 16.1191 30.5822 16.0012 30.5507 15.8266C30.2942 15.1561 29.9676 14.5144 29.5742 13.9141C29.1782 13.3219 28.7319 12.7656 28.2369 12.2517C27.5789 11.5947 26.8401 11.0241 26.0372 10.5516C24.8267 9.84873 23.5027 9.35641 22.1249 9.10171C21.4562 8.97841 20.7802 8.90371 20.0999 8.87671H10.7254C10.4752 8.87671 10.4752 8.92711 10.4752 9.12691V15.8644C10.4752 16.102 10.4248 16.102 10.2376 16.102H7.55014C7.35034 16.102 7.35034 16.1389 7.35034 16.2766V18.4761C7.35034 18.676 7.41244 18.676 7.56274 18.676H10.2754C10.4752 18.676 10.4752 18.713 10.4752 18.8631V21.2131C10.4752 21.4255 10.4122 21.4255 10.2502 21.4255H7.35034V23.8006C7.35034 24.0005 7.41244 24.0005 7.56274 24.0005H10.2754C10.4752 24.0005 10.4752 24.0248 10.4752 24.1876V27.1253V28.1126V31.025ZM27.7382 15.8878C27.7599 15.9436 27.7599 16.0057 27.7382 16.0624H27.7986C27.7734 16.1371 27.6482 16.1623 27.6482 16.1623H13.2238C12.9862 16.1623 12.9862 16.1119 12.9862 15.9247V11.4876C12.9862 11.3247 13.0114 11.25 13.1986 11.25H19.9109C20.6254 11.2437 21.3382 11.3184 22.0357 11.475C23.4182 11.8026 24.7044 12.4542 25.7861 13.375C26.0021 13.5361 26.1947 13.726 26.3612 13.9375C26.7141 14.2876 27.0236 14.6773 27.2864 15.1003C27.4611 15.3478 27.6114 15.6115 27.7382 15.8878ZM28.3366 21.412H20.7369H13.2867C13.1347 21.412 13.0598 21.412 13.0228 21.3746C12.987 21.3381 12.987 21.2665 12.987 21.125V18.9001C12.987 18.7246 13.0374 18.6625 13.2246 18.6625H28.3492C28.5121 18.6625 28.5869 18.7246 28.5869 18.875C28.6489 19.649 28.6489 20.4265 28.5869 21.1996C28.5751 21.412 28.4986 21.412 28.3366 21.412ZM27.7381 24.0121C27.5257 23.9888 27.3116 23.9888 27.0991 24.0121H13.2372C13.05 24.0121 12.987 24.0121 12.987 24.2623V28.6005C12.987 28.8001 12.987 28.8506 13.2372 28.8506H19.6371C19.9431 28.874 20.2491 28.8525 20.5489 28.7885C21.4776 28.722 22.3912 28.5203 23.2624 28.1881C23.5792 28.0785 23.8852 27.9353 24.1741 27.7635H24.2614C25.7617 26.9831 26.9802 25.7573 27.7489 24.2525C27.7489 24.2525 27.8362 24.0635 27.7381 24.014V24.0121Z" fill="#E5E1F9"/>
</g>
<defs>
<clipPath id="clip0_2896_6367">
<rect width="40" height="40" fill="white"/>
</clipPath>
</defs>
</svg>
