<svg width="38" height="32" viewBox="0 0 38 32" fill="none" xmlns="http://www.w3.org/2000/svg">
<g clip-path="url(#clip0_2256_6930)">
<path d="M37.9536 17.1168C37.9536 8.89676 31.2899 2.23309 23.0699 2.23309C14.8498 2.23309 8.18616 8.89676 8.18616 17.1168C8.18616 25.3369 14.8498 32.0005 23.0699 32.0005C31.2899 32.0005 37.9536 25.3369 37.9536 17.1168Z" fill="url(#paint0_linear_2256_6930)"/>
<path d="M36.9423 1.32235C37.056 0.716425 36.657 0.13305 36.0511 0.0193493C35.4452 -0.0943512 34.8618 0.304678 34.7481 0.910608L36.9423 1.32235ZM34.7481 0.910608C31.7053 17.1259 17.4706 29.3955 0.372437 29.3955V31.6281C18.5644 31.6281 33.7051 18.574 36.9423 1.32235L34.7481 0.910608Z" fill="url(#paint1_linear_2256_6930)"/>
</g>
<defs>
<linearGradient id="paint0_linear_2256_6930" x1="23.0699" y1="2.23309" x2="23.0699" y2="32.0005" gradientUnits="userSpaceOnUse">
<stop stop-color="#8450FF"/>
<stop offset="1" stop-color="#8450FF" stop-opacity="0"/>
</linearGradient>
<linearGradient id="paint1_linear_2256_6930" x1="36.4655" y1="-5.95329" x2="0.000343148" y2="32.0002" gradientUnits="userSpaceOnUse">
<stop stop-color="#F982EB"/>
<stop offset="0.307292" stop-color="#EC38D7"/>
<stop offset="0.661458" stop-color="#EC38D7"/>
<stop offset="1" stop-color="#EC38D7" stop-opacity="0"/>
</linearGradient>
<clipPath id="clip0_2256_6930">
<rect width="37.9535" height="32" fill="white"/>
</clipPath>
</defs>
</svg>
