<svg fill="none" height="14" viewBox="0 0 14 14" width="14" xmlns="http://www.w3.org/2000/svg" xmlns:xlink="http://www.w3.org/1999/xlink"><clipPath id="a"><path d="m0 0h14v14h-14z"/></clipPath><g clip-path="url(#a)" stroke="#857ea5" stroke-linecap="round" stroke-linejoin="round"><path d="m6.15005.530773c-.06046-.036117-.12958-.055187-.2-.055187-.07043 0-.13954.01907-.2.055187-.04987.039513-.08352.095943-.09458.158603s.00124.127199.03458.181397c1.23 2.129997 1.49 5.029997-.19 6.629997-.64638-.54318-1.15954-1.22739-1.5-2-.62127.34505-1.13615.8537-1.48874 1.47073-.35258.61702-.5294 1.31884-.51126 2.02927.02536.62628.17573 1.24113.44227 1.80843s.64385 1.0756 1.10974 1.4949c.4659.4193 1.01095.7412 1.60309.9467.59215.2055 1.21942.2905 1.8449.25 3.21995 0 4.88995-2 4.99995-4.50003.13-3-2-6.69-5.84995-8.469997z"/><path d="m9.5 9.00098c0 .53043-.21071 1.03912-.58579 1.41422-.37507.3751-.88378.5858-1.41421.5858"/></g></svg>