<svg fill="none" height="14" viewBox="0 0 14 14" width="14" xmlns="http://www.w3.org/2000/svg"><path d="m.5 7.08015h2.19c.09221-.00107.18248-.02663.26156-.07407.07907-.04745.14411-.11507.18844-.19593l1.8-3.6c.04436-.08964.11509-.16355.20268-.21181s.18785-.06857.28732-.05819c.09907.00669.19363.04395.27064.10663.07702.06269.13269.14771.15936.24337l2.23 7.41995c.02926.1007.08942.1896.17196.2542.08255.0646.18331.1016.28804.1058.09814-.0032.19315-.0353.27318-.0922s.14152-.1361.17682-.2278l1.37-3.34995c.0377-.09398.1026-.17459.1863-.23158s.1824-.08777.2837-.08842h2.66" stroke="#4de5ff" stroke-linecap="round" stroke-linejoin="round"/></svg>