<svg width="16" height="16" viewBox="0 0 16 16" fill="none" xmlns="http://www.w3.org/2000/svg">
    <g clip-path="url(#clip0_5791_9499)">
        <path d="M9.66682 5.49999L7.28948 6.28132C7.0999 6.3425 6.89422 6.32993 6.7135 6.24611C6.53278 6.16229 6.39032 6.01339 6.31457 5.82914C6.23882 5.6449 6.23535 5.43886 6.30484 5.25217C6.37434 5.06547 6.5117 4.91186 6.68948 4.82199L8.99282 3.67066C9.18929 3.57314 9.40355 3.51658 9.62256 3.50444C9.84157 3.49229 10.0608 3.5248 10.2668 3.59999L13.6668 4.83332V9.49999L9.66282 10.2607"
              stroke="#857EA5" stroke-linecap="round" stroke-linejoin="round"/>
        <path d="M2.3335 9.50065H4.00016L6.3935 12.1833C6.51525 12.3247 6.67737 12.4255 6.85808 12.4721C7.03879 12.5186 7.22942 12.5088 7.40436 12.4438C7.5793 12.3788 7.73016 12.2619 7.83667 12.1087C7.94318 11.9554 8.00023 11.7733 8.00016 11.5866V11.1673L8.1195 11.2153C8.29073 11.2837 8.47611 11.3091 8.65943 11.2893C8.84275 11.2695 9.01843 11.2051 9.17109 11.1017C9.32376 10.9983 9.44877 10.859 9.53519 10.6962C9.62161 10.5333 9.66681 10.3517 9.66683 10.1673H10.0002C10.1859 10.1673 10.3679 10.1156 10.5259 10.018C10.6839 9.92033 10.8115 9.78064 10.8946 9.61453C10.9776 9.44842 11.0128 9.26247 10.9961 9.07751C10.9794 8.89255 10.9116 8.71589 10.8002 8.56732L8.66683 5.83398"
              stroke="#857EA5" stroke-linecap="round" stroke-linejoin="round"/>
        <path d="M7.03483 4.64591L6.79083 4.44591C6.59514 4.30092 6.36565 4.20834 6.12413 4.17696C5.88261 4.14557 5.63708 4.17642 5.41083 4.26658L2.3335 5.49991"
              stroke="#857EA5" stroke-linecap="round" stroke-linejoin="round"/>
        <path d="M0.333496 4.16699H1.66683C1.84364 4.16699 2.01321 4.23723 2.13823 4.36225C2.26326 4.48728 2.3335 4.65685 2.3335 4.83366V9.50033C2.3335 9.67714 2.26326 9.84671 2.13823 9.97173C2.01321 10.0968 1.84364 10.167 1.66683 10.167H0.333496"
              stroke="#857EA5" stroke-linecap="round" stroke-linejoin="round"/>
        <path d="M15.6668 10.167H14.3335C14.1567 10.167 13.9871 10.0968 13.8621 9.97173C13.737 9.84671 13.6668 9.67714 13.6668 9.50033V4.83366C13.6668 4.65685 13.737 4.48728 13.8621 4.36225C13.9871 4.23723 14.1567 4.16699 14.3335 4.16699H15.6668"
              stroke="#857EA5" stroke-linecap="round" stroke-linejoin="round"/>
        <path d="M8.00016 11.1667L7.3335 10.5" stroke="#857EA5" stroke-linecap="round" stroke-linejoin="round"/>
        <path d="M8.66681 9.16699L9.66681 10.167" stroke="#857EA5" stroke-linecap="round" stroke-linejoin="round"/>
    </g>
    <defs>
        <clipPath id="clip0_5791_9499">
            <rect width="16" height="16" fill="white"/>
        </clipPath>
    </defs>
</svg>
