<svg viewBox="0 0 13 12" fill="none" xmlns="http://www.w3.org/2000/svg">
<path fill-rule="evenodd" clip-rule="evenodd" d="M4.6856 0.080247C4.87738 0.194241 4.99653 0.412086 4.99653 0.6487V11.3513C4.99653 11.7096 4.72791 12 4.39654 12C4.06518 12 3.79655 11.7096 3.79655 11.3513V1.82862L1.11807 3.66626C0.838281 3.85822 0.46754 3.7686 0.289998 3.4661C0.112455 3.16359 0.195342 2.76276 0.475131 2.5708L4.07507 0.10097C4.25986 -0.0258056 4.49383 -0.0337471 4.6856 0.080247Z" fill="#E1DDF7"/>
<path fill-rule="evenodd" clip-rule="evenodd" d="M7.99654 0C8.3279 0 8.59653 0.290433 8.59653 0.6487V10.1714L11.275 8.33374C11.5548 8.14178 11.9255 8.2314 12.1031 8.5339C12.2806 8.8364 12.1977 9.23724 11.9179 9.4292L8.31801 11.899C8.13322 12.0258 7.89925 12.0337 7.70748 11.9198C7.5157 11.8058 7.39655 11.5879 7.39655 11.3513V0.6487C7.39655 0.290433 7.66517 0 7.99654 0Z" fill="#857EA5"/>
</svg>
