<svg viewBox="0 0 12 11" fill="none" xmlns="http://www.w3.org/2000/svg">
<path fill-rule="evenodd" clip-rule="evenodd" d="M4.7039 0.499399C4.88655 0.599815 5.00003 0.791711 5.00003 1.00014V10.4279C5.00003 10.7435 4.74419 10.9993 4.4286 10.9993C4.11301 10.9993 3.85717 10.7435 3.85717 10.4279V2.03951L1.3062 3.65826C1.03973 3.82735 0.686634 3.74841 0.517543 3.48194C0.348452 3.21547 0.427393 2.86238 0.693863 2.69328L4.12243 0.517654C4.29842 0.405979 4.52125 0.398984 4.7039 0.499399Z" fill="#E1DDF7"/>
<path fill-rule="evenodd" clip-rule="evenodd" d="M7.8572 0.428711C8.17279 0.428711 8.42862 0.684548 8.42862 1.00014V9.3885L10.9796 7.76976C11.2461 7.60067 11.5992 7.67961 11.7683 7.94608C11.9373 8.21255 11.8584 8.56564 11.5919 8.73473L8.16336 10.9104C7.98737 11.022 7.76454 11.029 7.5819 10.9286C7.39925 10.8282 7.28577 10.6363 7.28577 10.4279V1.00014C7.28577 0.684548 7.5416 0.428711 7.8572 0.428711Z" fill="#857EA5"/>
</svg>
