<svg viewBox="0 0 12 11" fill="none" xmlns="http://www.w3.org/2000/svg">
<path fill-rule="evenodd" clip-rule="evenodd" d="M4.27537 0.0706882C4.45802 0.171104 4.5715 0.363 4.5715 0.571429V9.99916C4.5715 10.3148 4.31566 10.5706 4.00007 10.5706C3.68448 10.5706 3.42864 10.3148 3.42864 9.99916V1.6108L0.877667 3.22955C0.611198 3.39864 0.258106 3.3197 0.0890151 3.05323C-0.0800757 2.78676 -0.00113446 2.43366 0.265335 2.26457L3.69391 0.0889427C3.86989 -0.0227317 4.09273 -0.0297273 4.27537 0.0706882Z" fill="#857EA5"/>
<path fill-rule="evenodd" clip-rule="evenodd" d="M7.42867 0C7.74426 0 8.0001 0.255837 8.0001 0.571429V8.95979L10.5511 7.34105C10.8175 7.17195 11.1706 7.2509 11.3397 7.51737C11.5088 7.78384 11.4299 8.13693 11.1634 8.30602L7.73483 10.4816C7.55885 10.5933 7.33601 10.6003 7.15337 10.4999C6.97072 10.3995 6.85724 10.2076 6.85724 9.99916V0.571429C6.85724 0.255837 7.11308 0 7.42867 0Z" fill="#E1DDF7"/>
</svg>
