<svg
  width="17"
  height="16"
  fill="none"
  xmlns="http://www.w3.org/2000/svg">
  <path
    d="M15.35 1 9.451 5.377l1.096-2.582L15.35 1Z"
    fill="#E17726"
    stroke="#E17726"
    stroke-width=".063"
    stroke-linecap="round"
    stroke-linejoin="round">
  </path>

  <path
    d="m1.746 1 5.845 4.418L6.55 2.795 1.746 1ZM13.23 11.146l-1.57 2.404 3.358.924.96-3.275-2.749-.053ZM1.124 11.199l.954 3.275 3.358-.924-1.564-2.404-2.748.053Z"
    fill="#E27625"
    stroke="#E27625"
    stroke-width=".063"
    stroke-linecap="round"
    stroke-linejoin="round">
  </path>

  <path
    d="m5.252 7.082-.936 1.416 3.329.148-.113-3.583-2.28 2.02ZM11.844 7.082 9.528 5.02l-.077 3.625 3.329-.149-.936-1.415ZM5.436 13.55l2.007-.977-1.73-1.35-.277 2.327ZM9.652 12.573l2.008.977-.278-2.327-1.73 1.35Z"
    fill="#E27625"
    stroke="#E27625"
    stroke-width=".063"
    stroke-linecap="round"
    stroke-linejoin="round">
  </path>

  <path
    d="m11.66 13.55-2.008-.978.16 1.31-.017.55 1.865-.882ZM5.436 13.55l1.865.882-.012-.55.154-1.31-2.007.978Z"
    fill="#D5BFB2"
    stroke="#D5BFB2"
    stroke-width=".063"
    stroke-linecap="round"
    stroke-linejoin="round">
  </path>

  <path
    d="m7.336 10.358-1.67-.492 1.178-.539.492 1.03ZM9.759 10.358l.492-1.03 1.184.538-1.676.492Z"
    fill="#233447"
    stroke="#233447"
    stroke-width=".063"
    stroke-linecap="round"
    stroke-linejoin="round">
  </path>

  <path
    d="m5.435 13.55.29-2.404-1.853.053 1.563 2.351ZM11.37 11.146l.29 2.404 1.57-2.351-1.86-.053ZM12.78 8.498l-3.329.148.308 1.711.492-1.03 1.184.54 1.345-1.369ZM5.667 9.866l1.178-.539.492 1.03.308-1.71-3.329-.149 1.35 1.368Z"
    fill="#CC6228"
    stroke="#CC6228"
    stroke-width=".063"
    stroke-linecap="round"
    stroke-linejoin="round">
  </path>

  <path
    d="m4.316 8.498 1.398 2.725-.047-1.357-1.35-1.368ZM11.435 9.866l-.053 1.357 1.398-2.725-1.345 1.368ZM7.645 8.646l-.308 1.71.39 2.02.084-2.659-.166-1.071ZM9.45 8.646l-.159 1.066.077 2.664.39-2.02-.307-1.71Z"
    fill="#E27525"
    stroke="#E27525"
    stroke-width=".063"
    stroke-linecap="round"
    stroke-linejoin="round">
  </path>

  <path
    d="m9.758 10.358-.39 2.02.283.195 1.73-1.35.053-1.357-1.676.492ZM5.666 9.866l.047 1.357 1.73 1.35.284-.196-.39-2.02-1.671-.49Z"
    fill="#F5841F"
    stroke="#F5841F"
    stroke-width=".063"
    stroke-linecap="round"
    stroke-linejoin="round">
  </path>

  <path
    d="m9.794 14.431.018-.55-.148-.13H7.431l-.142.13.012.55-1.865-.882.651.533L7.414 15h2.268l1.326-.918.652-.533-1.866.882Z"
    fill="#C0AC9D"
    stroke="#C0AC9D"
    stroke-width=".063"
    stroke-linecap="round"
    stroke-linejoin="round">
  </path>

  <path
    d="m9.653 12.572-.285-.196h-1.64l-.284.196-.154 1.309.142-.13h2.233l.147.13-.16-1.31Z"
    fill="#C68E8E"
    stroke="#C68E8E"
    stroke-width=".063"
    stroke-linecap="round"
    stroke-linejoin="round">
  </path>

  <path
    d="m15.598 5.661.498-2.416L15.35 1 9.652 5.23l2.192 1.853 3.097.907.681-.8-.296-.213.474-.433-.361-.284.473-.361-.314-.237ZM1 3.245l.503 2.416-.32.237.474.361-.36.284.473.433-.296.213.681.8 3.097-.907L7.444 5.23 1.746 1 1 3.245Z"
    fill="#763E1A"
    stroke="#763E1A"
    stroke-width=".063"
    stroke-linecap="round"
    stroke-linejoin="round">
  </path>

  <path
    d="m14.94 7.988-3.096-.907.936 1.416-1.398 2.724 1.847-.024h2.748l-1.036-3.21ZM5.252 7.081l-3.097.907-1.031 3.21h2.748l1.842.023-1.398-2.724.936-1.416ZM9.45 8.647l.202-3.418.894-2.434H6.549l.894 2.434.201 3.418.077 1.077.006 2.653h1.64l.006-2.653.077-1.077Z"
    fill="#F5841F"
    stroke="#F5841F"
    stroke-width=".063"
    stroke-linecap="round"
    stroke-linejoin="round">
  </path>
</svg>
