<svg viewBox="0 0 23 22" fill="none" xmlns="http://www.w3.org/2000/svg">
  <path d="M20.9336 1L12.5063 7.25211L14.0715 3.56351L20.9336 1Z" fill="#E17726" stroke="#E17726" stroke-width="0.20701" stroke-linecap="round" stroke-linejoin="round"/>
  <path d="M1.49976 1L9.85034 7.31128L8.36191 3.56351L1.49976 1Z" fill="#E27625" stroke="#E27625" stroke-width="0.20701" stroke-linecap="round" stroke-linejoin="round"/>
  <path d="M17.9054 15.4935L15.6636 18.9287L20.4606 20.248L21.8315 15.5693L17.9054 15.4935Z" fill="#E27625" stroke="#E27625" stroke-width="0.20701" stroke-linecap="round" stroke-linejoin="round"/>
  <path d="M0.611084 15.5693L1.97368 20.248L6.77068 18.9287L4.53719 15.4935L0.611084 15.5693Z" fill="#E27625" stroke="#E27625" stroke-width="0.20701" stroke-linecap="round" stroke-linejoin="round"/>
  <path d="M6.50839 9.68849L5.17163 11.7111L9.92697 11.9228L9.76612 6.80328L6.50839 9.68849Z" fill="#E27625" stroke="#E27625" stroke-width="0.20701" stroke-linecap="round" stroke-linejoin="round"/>
  <path d="M15.9249 9.68784L12.6164 6.74347L12.5063 11.9222L17.2617 11.7105L15.9249 9.68784Z" fill="#E27625" stroke="#E27625" stroke-width="0.20701" stroke-linecap="round" stroke-linejoin="round"/>
  <path d="M6.77075 18.9286L9.63929 17.5318L7.16828 15.6033L6.77075 18.9286Z" fill="#E27625" stroke="#E27625" stroke-width="0.20701" stroke-linecap="round" stroke-linejoin="round"/>
  <path d="M12.7944 17.5318L15.663 18.9286L15.2654 15.6033L12.7944 17.5318Z" fill="#E27625" stroke="#E27625" stroke-width="0.20701" stroke-linecap="round" stroke-linejoin="round"/>
  <path d="M15.663 18.9289L12.7944 17.5321L13.0228 19.4022L12.9978 20.189L15.663 18.9289Z" fill="#D5BFB2" stroke="#D5BFB2" stroke-width="0.20701" stroke-linecap="round" stroke-linejoin="round"/>
  <path d="M6.77075 18.9289L9.43594 20.189L9.41927 19.4022L9.63929 17.5321L6.77075 18.9289Z" fill="#D5BFB2" stroke="#D5BFB2" stroke-width="0.20701" stroke-linecap="round" stroke-linejoin="round"/>
  <path d="M9.48634 14.3676L7.10034 13.6659L8.78379 12.8958L9.48634 14.3676Z" fill="#233447" stroke="#233447" stroke-width="0.20701" stroke-linecap="round" stroke-linejoin="round"/>
  <path d="M12.947 14.3676L13.6496 12.8958L15.3414 13.6659L12.947 14.3676Z" fill="#233447" stroke="#233447" stroke-width="0.20701" stroke-linecap="round" stroke-linejoin="round"/>
  <path d="M6.77109 18.9287L7.18528 15.4935L4.5376 15.5693L6.77109 18.9287Z" fill="#CC6228" stroke="#CC6228" stroke-width="0.20701" stroke-linecap="round" stroke-linejoin="round"/>
  <path d="M15.2493 15.4935L15.6635 18.9287L17.9053 15.5693L15.2493 15.4935Z" fill="#CC6228" stroke="#CC6228" stroke-width="0.20701" stroke-linecap="round" stroke-linejoin="round"/>
  <path d="M17.2617 11.7117L12.5063 11.9234L12.9464 14.3678L13.6489 12.896L15.3407 13.666L17.2617 11.7117Z" fill="#CC6228" stroke="#CC6228" stroke-width="0.20701" stroke-linecap="round" stroke-linejoin="round"/>
  <path d="M7.10093 13.666L8.78438 12.896L9.48694 14.3678L9.92697 11.9234L5.17163 11.7117L7.10093 13.666Z" fill="#CC6228" stroke="#CC6228" stroke-width="0.20701" stroke-linecap="round" stroke-linejoin="round"/>
  <path d="M5.17163 11.7117L7.16844 15.6037L7.10094 13.666L5.17163 11.7117Z" fill="#E27525" stroke="#E27525" stroke-width="0.20701" stroke-linecap="round" stroke-linejoin="round"/>
  <path d="M15.3422 13.666L15.2664 15.6037L17.2632 11.7117L15.3422 13.666Z" fill="#E27525" stroke="#E27525" stroke-width="0.20701" stroke-linecap="round" stroke-linejoin="round"/>
  <path d="M9.92685 11.9217L9.48682 14.366L10.0452 17.2512L10.1635 13.4526L9.92685 11.9217Z" fill="#E27525" stroke="#E27525" stroke-width="0.20701" stroke-linecap="round" stroke-linejoin="round"/>
  <path d="M12.5069 11.9217L12.2786 13.4443L12.3886 17.2512L12.9469 14.366L12.5069 11.9217Z" fill="#E27525" stroke="#E27525" stroke-width="0.20701" stroke-linecap="round" stroke-linejoin="round"/>
  <path d="M12.9463 14.3678L12.3879 17.253L12.7938 17.5322L15.2648 15.6037L15.3406 13.6661L12.9463 14.3678Z" fill="#F5841F" stroke="#F5841F" stroke-width="0.20701" stroke-linecap="round" stroke-linejoin="round"/>
  <path d="M7.10034 13.6661L7.16785 15.6037L9.63885 17.5322L10.0447 17.253L9.48634 14.3678L7.10034 13.6661Z" fill="#F5841F" stroke="#F5841F" stroke-width="0.20701" stroke-linecap="round" stroke-linejoin="round"/>
  <path d="M12.9979 20.1875L13.0229 19.4007L12.812 19.2149H9.62179L9.41927 19.4007L9.43594 20.1875L6.77075 18.9274L7.70165 19.6883L9.59678 21H12.837L14.7321 19.6883L15.663 18.9274L12.9979 20.1875Z" fill="#C0AC9D" stroke="#C0AC9D" stroke-width="0.20701" stroke-linecap="round" stroke-linejoin="round"/>
  <path d="M12.7949 17.5305L12.3891 17.2513H10.0456L9.63969 17.5305L9.41968 19.4007L9.62219 19.2148H12.8124L13.0233 19.4007L12.7949 17.5305Z" fill="#161616" stroke="#161616" stroke-width="0.20701" stroke-linecap="round" stroke-linejoin="round"/>
  <path d="M21.2892 7.6588L22.0001 4.20689L20.9342 1L12.7944 7.04126L15.9255 9.68894L20.35 10.984L21.3234 9.84146L20.9 9.53727L21.5767 8.91889L21.0608 8.51303L21.7376 7.99716L21.2892 7.6588Z" fill="#763E1A" stroke="#763E1A" stroke-width="0.20701" stroke-linecap="round" stroke-linejoin="round"/>
  <path d="M0.434082 4.20689L1.1533 7.6588L0.696601 7.99716L1.37332 8.51303L0.857445 8.91889L1.53416 9.53727L1.1108 9.84146L2.0842 10.984L6.50868 9.68894L9.63973 7.04126L1.49999 1L0.434082 4.20689Z" fill="#763E1A" stroke="#763E1A" stroke-width="0.20701" stroke-linecap="round" stroke-linejoin="round"/>
  <path d="M20.3509 10.9829L15.9264 9.68781L17.2632 11.7104L15.2664 15.6024L17.9057 15.5682H21.8318L20.3509 10.9829Z" fill="#F5841F" stroke="#F5841F" stroke-width="0.20701" stroke-linecap="round" stroke-linejoin="round"/>
  <path d="M6.50817 9.68781L2.08369 10.9829L0.611084 15.5682H4.53719L7.16821 15.6024L5.1714 11.7104L6.50817 9.68781Z" fill="#F5841F" stroke="#F5841F" stroke-width="0.20701" stroke-linecap="round" stroke-linejoin="round"/>
  <path d="M12.5074 11.9245L12.7949 7.04244L14.0725 3.5647H8.36206L9.63965 7.04244L9.92717 11.9245L10.0372 13.4637L10.0455 17.254H12.389L12.3973 13.4637L12.5074 11.9245Z" fill="#F5841F" stroke="#F5841F" stroke-width="0.20701" stroke-linecap="round" stroke-linejoin="round"/>
</svg>

