<svg width="20" height="30" viewBox="0 0 20 30" fill="none" xmlns="http://www.w3.org/2000/svg">
    <path fill-rule="evenodd" clip-rule="evenodd" d="M3.57959 8.06723L4.955 6.05042H7.09845L5.72305 8.06723H3.57959ZM11.0384 6.05042V7.79561H16.9412L16.9412 8.06723H9.26751V6.05042H11.0384Z" fill="#E5E1F9"/>
    <path fill-rule="evenodd" clip-rule="evenodd" d="M15.7286 12.1008L14.3863 14.1176H12.2591L13.6014 12.1008H15.7286ZM2.97209 12.1008H1.00342V14.1176H7.49651V13.4161V12.5307H6.61108H2.67892L2.97209 12.1008Z" fill="#E5E1F9"/>
    <path fill-rule="evenodd" clip-rule="evenodd" d="M5.72607 20.1681V18.1512H7.49693V20.1681H5.72607ZM11.7021 18.1512L10.3598 20.1681H8.23253L9.57484 18.1512H11.7021Z" fill="#E5E1F9"/>
    <path fill-rule="evenodd" clip-rule="evenodd" d="M12.2124 2.86986V0L10.5954 2.37099L6.12901 8.92029H8.2724L6.89699 10.9371H4.7536L3.66678 12.5308H5.81024L10.4415 5.73972V8.92029H12.2123V10.6655L12.2124 10.6655V2.86986ZM1.446 15.7872L2.58455 14.1177H4.72801L3.85308 15.4006H7.78524H8.67067V16.286V18.7558L7.73066 20.1681H8.67067V24.1432L16.4623 12.4363H15.004L15.2273 12.1009H13.1L12.8767 12.4363H11.327H10.4415V11.5509V10.9371H18.1152L18.1152 10.6655L18.1152 10.6655H19.7682L18.8523 12.0415L8.52233 27.5622L6.89981 30V27.0716V20.1681H6.99507V18.1513H6.89981V17.1715H2.17752H0.501953L1.446 15.7872Z" fill="#E5E1F9"/>
    <path fill-rule="evenodd" clip-rule="evenodd" d="M3.07812 8.06723L4.45353 6.05042H6.59699L5.22158 8.06723H3.07812ZM10.5369 6.05042V7.79561H16.4398L16.4398 8.06723H8.76605V6.05042H10.5369Z" fill="#E5E1F9"/>
    <path fill-rule="evenodd" clip-rule="evenodd" d="M15.2273 12.1008L13.885 14.1176H11.7577L13.1001 12.1008H15.2273ZM2.47078 12.1008H0.501953V14.1176H6.99519V13.4161V12.5307H6.10976H2.17761L2.47078 12.1008Z" fill="#E5E1F9"/>
    <path fill-rule="evenodd" clip-rule="evenodd" d="M5.22412 20.1681V18.1512H6.99498V20.1681H5.22412ZM11.2001 18.1512L9.8578 20.1681H7.73057L9.07289 18.1512H11.2001Z" fill="#E5E1F9"/>
    <path fill-rule="evenodd" clip-rule="evenodd" d="M11.7104 2.86986V0L10.0935 2.37099L5.62706 8.92029H7.77045L6.39504 10.9371H4.25165L3.16483 12.5308H5.30829L9.93957 5.73972V8.92029H11.7104V10.6655L11.7104 10.6655V2.86986ZM0.944052 15.7872L2.08259 14.1177H4.22605L3.35113 15.4006H7.28328H8.16871V16.286V18.756L7.22886 20.1681H8.16871V24.1432L15.9604 12.4363H14.502L14.7252 12.1009H12.598L12.3747 12.4363H10.825H9.93957V11.5509V10.9371H17.6132L17.6132 10.6655L17.6133 10.6655H19.2662L18.3504 12.0415L8.02038 27.5622L6.39786 30V27.0716V20.1681H6.49327V18.1513H6.39786V17.1715H1.67557H0L0.944052 15.7872Z" fill="#E5E1F9"/>
    <path fill-rule="evenodd" clip-rule="evenodd" d="M3.57959 8.06723L4.955 6.05042H7.09845L5.72305 8.06723H3.57959ZM11.0384 6.05042V7.79561H16.9412L16.9412 8.06723H9.26751V6.05042H11.0384Z" fill="#E5E1F9"/>
    <path fill-rule="evenodd" clip-rule="evenodd" d="M15.7286 12.1008L14.3863 14.1176H12.2591L13.6014 12.1008H15.7286ZM2.97209 12.1008H1.00342V14.1176H7.49651V13.4161V12.5307H6.61108H2.67892L2.97209 12.1008Z" fill="#E5E1F9"/>
    <path fill-rule="evenodd" clip-rule="evenodd" d="M5.72607 20.1681V18.1512H7.49693V20.1681H5.72607ZM11.7021 18.1512L10.3598 20.1681H8.23253L9.57484 18.1512H11.7021Z" fill="#E5E1F9"/>
    <path fill-rule="evenodd" clip-rule="evenodd" d="M12.2124 2.86986V0L10.5954 2.37099L6.12901 8.92029H8.2724L6.89699 10.9371H4.7536L3.66678 12.5308H5.81024L10.4415 5.73972V8.92029H12.2123V10.6655L12.2124 10.6655V2.86986ZM1.446 15.7872L2.58455 14.1177H4.72801L3.85308 15.4006H7.78524H8.67067V16.286V18.7558L7.73066 20.1681H8.67067V24.1432L16.4623 12.4363H15.004L15.2273 12.1009H13.1L12.8767 12.4363H11.327H10.4415V11.5509V10.9371H18.1152L18.1152 10.6655L18.1152 10.6655H19.7682L18.8523 12.0415L8.52233 27.5622L6.89981 30V27.0716V20.1681H6.99507V18.1513H6.89981V17.1715H2.17752H0.501953L1.446 15.7872Z" fill="#E5E1F9"/>
    <path fill-rule="evenodd" clip-rule="evenodd" d="M3.07812 8.06723L4.45353 6.05042H6.59699L5.22158 8.06723H3.07812ZM10.5369 6.05042V7.79561H16.4398L16.4398 8.06723H8.76605V6.05042H10.5369Z" fill="#E5E1F9"/>
    <path fill-rule="evenodd" clip-rule="evenodd" d="M15.2273 12.1008L13.885 14.1176H11.7577L13.1001 12.1008H15.2273ZM2.47078 12.1008H0.501953V14.1176H6.99519V13.4161V12.5307H6.10976H2.17761L2.47078 12.1008Z" fill="#E5E1F9"/>
    <path fill-rule="evenodd" clip-rule="evenodd" d="M5.22412 20.1681V18.1512H6.99498V20.1681H5.22412ZM11.2001 18.1512L9.8578 20.1681H7.73057L9.07289 18.1512H11.2001Z" fill="#E5E1F9"/>
    <path fill-rule="evenodd" clip-rule="evenodd" d="M11.7104 2.86986V0L10.0935 2.37099L5.62706 8.92029H7.77045L6.39504 10.9371H4.25165L3.16483 12.5308H5.30829L9.93957 5.73972V8.92029H11.7104V10.6655L11.7104 10.6655V2.86986ZM0.944052 15.7872L2.08259 14.1177H4.22605L3.35113 15.4006H7.28328H8.16871V16.286V18.756L7.22886 20.1681H8.16871V24.1432L15.9604 12.4363H14.502L14.7252 12.1009H12.598L12.3747 12.4363H10.825H9.93957V11.5509V10.9371H17.6132L17.6132 10.6655L17.6133 10.6655H19.2662L18.3504 12.0415L8.02038 27.5622L6.39786 30V27.0716V20.1681H6.49327V18.1513H6.39786V17.1715H1.67557H0L0.944052 15.7872Z" fill="#E5E1F9"/>
</svg>
