<svg
  fill="none"
  height="30"
  width="20"
  filter="drop-shadow(0px 0px 10px #FF4AA9) drop-shadow(0px 0px 16px #FF4AA9) drop-shadow(0px 0px 40px rgba(255, 74, 169, 0.8))"
  xmlns="http://www.w3.org/2000/svg">
  <path
    fill-rule="evenodd"
    clip-rule="evenodd"
    d="M3.58 8.067 4.954 6.05h2.143L5.723 8.067H3.579Zm7.458-2.017v1.746h5.903v.271H9.267V6.05h1.771ZM15.729 12.1l-1.342 2.018h-2.128l1.343-2.017h2.127Zm-12.757 0H1.004v2.018h6.493V12.53H2.679l.293-.43ZM5.726 20.168v-2.017h1.77v2.017h-1.77Zm5.976-2.017-1.342 2.017H8.232l1.343-2.017h2.127Z"
    fill="#E5E1F9">
  </path>

  <path
    fill-rule="evenodd"
    clip-rule="evenodd"
    d="M12.212 2.87V0l-1.617 2.371-4.466 6.55h2.143l-1.375 2.016H4.754l-1.087 1.594H5.81l4.631-6.791v3.18h1.771v1.745V2.87ZM1.446 15.787l1.139-1.67h2.143l-.875 1.284h4.818V18.756l-.94 1.412h.94v3.975l7.791-11.707h-1.458l.223-.335H13.1l-.223.335H10.44v-1.499h7.674v-.271h1.653l-.916 1.375-10.33 15.521L6.9 30v-9.832h.095v-2.017H6.9v-.98H.502l.944-1.384Z"
    fill="#E5E1F9">
  </path>

  <path
    fill-rule="evenodd"
    clip-rule="evenodd"
    d="M3.078 8.067 4.454 6.05h2.143L5.222 8.067H3.078Zm7.459-2.017v1.746h5.903v.271H8.766V6.05h1.77ZM15.227 12.1l-1.342 2.018h-2.127L13.1 12.1h2.127Zm-12.756 0H.5v2.018h6.494V12.53H2.177l.294-.43ZM5.224 20.168v-2.017h1.771v2.017h-1.77Zm5.976-2.017-1.342 2.017H7.73l1.342-2.017H11.2Z"
    fill="#E5E1F9">
  </path>

  <path
    fill-rule="evenodd"
    clip-rule="evenodd"
    d="M11.71 2.87V0l-1.617 2.371-4.466 6.55H7.77l-1.375 2.016H4.252l-1.087 1.594h2.143L9.94 5.74v3.18h1.77v1.745V2.87ZM.944 15.787l1.139-1.67h2.143l-.875 1.284H8.17V18.756l-.94 1.412h.94v3.975l7.791-11.707h-1.458l.223-.335h-2.127l-.223.335H9.94v-1.499h7.673v-.271h1.653l-.916 1.375L8.02 27.563 6.398 30v-9.832h.095v-2.017h-.095v-.98H0l.944-1.384Z"
    fill="#E5E1F9">
  </path>

  <path
    fill-rule="evenodd"
    clip-rule="evenodd"
    d="M3.58 8.067 4.954 6.05h2.143L5.723 8.067H3.579Zm7.458-2.017v1.746h5.903v.271H9.267V6.05h1.771ZM15.729 12.1l-1.342 2.018h-2.128l1.343-2.017h2.127Zm-12.757 0H1.004v2.018h6.493V12.53H2.679l.293-.43ZM5.726 20.168v-2.017h1.77v2.017h-1.77Zm5.976-2.017-1.342 2.017H8.232l1.343-2.017h2.127Z"
    fill="#E5E1F9">
  </path>

  <path
    fill-rule="evenodd"
    clip-rule="evenodd"
    d="M12.212 2.87V0l-1.617 2.371-4.466 6.55h2.143l-1.375 2.016H4.754l-1.087 1.594H5.81l4.631-6.791v3.18h1.771v1.745V2.87ZM1.446 15.787l1.139-1.67h2.143l-.875 1.284h4.818V18.756l-.94 1.412h.94v3.975l7.791-11.707h-1.458l.223-.335H13.1l-.223.335H10.44v-1.499h7.674v-.271h1.653l-.916 1.375-10.33 15.521L6.9 30v-9.832h.095v-2.017H6.9v-.98H.502l.944-1.384Z"
    fill="#E5E1F9">
  </path>

  <path
    fill-rule="evenodd"
    clip-rule="evenodd"
    d="M3.078 8.067 4.454 6.05h2.143L5.222 8.067H3.078Zm7.459-2.017v1.746h5.903v.271H8.766V6.05h1.77ZM15.227 12.1l-1.342 2.018h-2.127L13.1 12.1h2.127Zm-12.756 0H.5v2.018h6.494V12.53H2.177l.294-.43ZM5.224 20.168v-2.017h1.771v2.017h-1.77Zm5.976-2.017-1.342 2.017H7.73l1.342-2.017H11.2Z"
    fill="#E5E1F9">
  </path>

  <path
    fill-rule="evenodd"
    clip-rule="evenodd"
    d="M11.71 2.87V0l-1.617 2.371-4.466 6.55H7.77l-1.375 2.016H4.252l-1.087 1.594h2.143L9.94 5.74v3.18h1.77v1.745V2.87ZM.944 15.787l1.139-1.67h2.143l-.875 1.284H8.17V18.756l-.94 1.412h.94v3.975l7.791-11.707h-1.458l.223-.335h-2.127l-.223.335H9.94v-1.499h7.673v-.271h1.653l-.916 1.375L8.02 27.563 6.398 30v-9.832h.095v-2.017h-.095v-.98H0l.944-1.384Z"
    fill="#E5E1F9">
  </path>
</svg>
