<svg fill="none" viewBox="0 0 20 30" xmlns="http://www.w3.org/2000/svg">
  <g clip-rule="evenodd" fill="#e5e1f9" fill-rule="evenodd">
    <path d="m3.57947 8.06724 1.3754-2.01681h2.14346l-1.3754 2.01681zm7.45873-2.01681v1.74519h5.9029v.27162h-7.67371v-2.01681z"/>
    <path d="m15.7288 12.1009-1.3423 2.0168h-2.1273l1.3424-2.0168zm-12.75652 0h-1.96868v2.0168h6.49309v-.7015-.8854h-.88543-3.93215z"/>
    <path d="m5.72589 20.1681v-2.0168h1.77086v2.0168zm5.97601-2.0168-1.3423 2.0168h-2.12726l1.34232-2.0168z"/>
    <path d="m12.2124 2.86987v-2.86986237l-1.617 2.37099237-4.46642 6.5493h2.14339l-1.37541 2.0168h-2.14339l-1.08682 1.5937h2.14346l4.63129-6.79107v3.18057h1.7708v1.7452h.0001zm-10.76643 12.91733 1.13855-1.6695h2.14346l-.87493 1.2829h3.93216.88543v.8854 2.4698l-.94001 1.4123h.94001v3.9751l7.79166-11.7068h-1.4584l.2233-.3355h-2.1272l-.2233.3355h-1.5498-.8854v-.8855-.6138h7.6736v-.2716h.0001 1.6529l-.9158 1.376-10.33 15.5207-1.62252 2.4378v-2.9284-6.9035h.09526v-2.0168h-.09526v-.9798h-4.72229-1.675567z"/>
    <path d="m3.07812 8.06723 1.37541-2.01681h2.14346l-1.37541 2.01681zm7.45878-2.01681v1.7452h5.9029v.27161h-7.67375v-2.01681z"/>
    <path d="m15.2271 12.1009-1.3423 2.0168h-2.1272l1.3423-2.0168zm-12.75647 0h-1.968829v2.0168h6.493239v-.7015-.8854h-.88543-3.93215z"/>
    <path d="m5.22409 20.1681v-2.0168h1.77086v2.0168zm5.97601-2.0168-1.34233 2.0168h-2.12723l1.34232-2.0168z"/>
    <path d="m11.7104 2.86986v-2.86986l-1.6169 2.37099-4.46644 6.5493h2.14339l-1.37541 2.01681h-2.14339l-1.08682 1.5937h2.14346l4.63128-6.79108v3.18057h1.77083v1.74521zm-10.766348 12.91734 1.138538-1.6695h2.14346l-.87492 1.2829h3.93215.88543v.8854 2.47l-.93985 1.4121h.93985v3.9751l7.79169-11.7069h-1.4584l.2232-.3354h-2.1272l-.2233.3354h-1.5497-.88543v-.8854-.6138h7.67363v-.2716h.0001 1.6529l-.9158 1.376-10.33002 15.5207-1.62252 2.4378v-2.9284-6.9035h.09541v-2.0168h-.09541v-.9798h-4.72229-1.67557z"/>
    <path d="m3.57947 8.06724 1.3754-2.01681h2.14346l-1.3754 2.01681zm7.45873-2.01681v1.74519h5.9029v.27162h-7.67371v-2.01681z"/>
    <path d="m15.7288 12.1009-1.3423 2.0168h-2.1273l1.3424-2.0168zm-12.75652 0h-1.96868v2.0168h6.49309v-.7015-.8854h-.88543-3.93215z"/>
    <path d="m5.72589 20.1681v-2.0168h1.77086v2.0168zm5.97601-2.0168-1.3423 2.0168h-2.12726l1.34232-2.0168z"/>
    <path d="m12.2124 2.86987v-2.86986237l-1.617 2.37099237-4.46642 6.5493h2.14339l-1.37541 2.0168h-2.14339l-1.08682 1.5937h2.14346l4.63129-6.79107v3.18057h1.7708v1.7452h.0001zm-10.76643 12.91733 1.13855-1.6695h2.14346l-.87493 1.2829h3.93216.88543v.8854 2.4698l-.94001 1.4123h.94001v3.9751l7.79166-11.7068h-1.4584l.2233-.3355h-2.1272l-.2233.3355h-1.5498-.8854v-.8855-.6138h7.6736v-.2716h.0001 1.6529l-.9158 1.376-10.33 15.5207-1.62252 2.4378v-2.9284-6.9035h.09526v-2.0168h-.09526v-.9798h-4.72229-1.675567z"/>
    <path d="m3.07812 8.06723 1.37541-2.01681h2.14346l-1.37541 2.01681zm7.45878-2.01681v1.7452h5.9029v.27161h-7.67375v-2.01681z"/>
    <path d="m15.2271 12.1009-1.3423 2.0168h-2.1272l1.3423-2.0168zm-12.75647 0h-1.968829v2.0168h6.493239v-.7015-.8854h-.88543-3.93215z"/>
    <path d="m5.22409 20.1681v-2.0168h1.77086v2.0168zm5.97601-2.0168-1.34233 2.0168h-2.12723l1.34232-2.0168z"/>
    <path d="m11.7104 2.86986v-2.86986l-1.6169 2.37099-4.46644 6.5493h2.14339l-1.37541 2.01681h-2.14339l-1.08682 1.5937h2.14346l4.63128-6.79108v3.18057h1.77083v1.74521zm-10.766348 12.91734 1.138538-1.6695h2.14346l-.87492 1.2829h3.93215.88543v.8854 2.47l-.93985 1.4121h.93985v3.9751l7.79169-11.7069h-1.4584l.2232-.3354h-2.1272l-.2233.3354h-1.5497-.88543v-.8854-.6138h7.67363v-.2716h.0001 1.6529l-.9158 1.376-10.33002 15.5207-1.62252 2.4378v-2.9284-6.9035h.09541v-2.0168h-.09541v-.9798h-4.72229-1.67557z"/>
  </g>
</svg>
