<svg fill="none" xmlns="http://www.w3.org/2000/svg" viewBox="0 0 22 20"><path d="M4.85 3.908c3.516-5.21 9.218-5.21 12.735 0l.424.627a.91.91 0 0 1 0 .943L16.56 7.623c-.088.13-.23.13-.319 0l-.582-.863c-2.454-3.635-6.432-3.635-8.885 0l-.624.924c-.088.13-.23.13-.318 0L4.385 5.54a.91.91 0 0 1 0-.943l.464-.688Zm15.73 4.436 1.288 1.909a.91.91 0 0 1 0 .943l-5.81 8.609c-.176.26-.461.26-.637 0l-4.124-6.11c-.044-.065-.115-.065-.16 0l-4.123 6.11c-.176.26-.461.26-.637 0l-5.81-8.609a.91.91 0 0 1 0-.943l1.288-1.91c.176-.26.46-.26.637 0l4.124 6.11c.044.066.115.066.159 0l4.124-6.11c.176-.26.46-.26.637 0l4.124 6.11c.044.066.115.066.159 0l4.124-6.11c.176-.26.46-.26.637 0Z" fill="#3B99FC"/></svg>