<svg width="40" height="40" viewBox="0 0 40 40" fill="none" xmlns="http://www.w3.org/2000/svg">
<path d="M19.4782 38.9565C30.2725 38.9565 38.9565 30.2725 38.9565 19.4782C38.9565 8.684 30.2725 0 19.4782 0C8.684 0 0 8.684 0 19.4782C0 30.2725 8.684 38.9565 19.4782 38.9565Z" fill="#38305B"/>
<path d="M24.8348 22.562C24.8348 19.7216 23.1305 18.7476 19.7217 18.3419C17.287 18.0171 16.7999 17.368 16.7999 16.2316C16.7999 15.0952 17.6116 14.365 19.2348 14.365C20.6956 14.365 21.5073 14.8519 21.9131 16.0692C21.9942 16.3128 22.2377 16.475 22.4812 16.475H23.7796C24.1043 16.475 24.3478 16.2316 24.3478 15.9071V15.8258C24.0231 14.0403 22.5622 12.6606 20.6956 12.4984V10.5505C20.6956 10.2258 20.4521 9.98236 20.0465 9.90112H18.8291C18.5043 9.90112 18.2609 10.1446 18.1796 10.5505V12.4171C15.7448 12.7418 14.2029 14.365 14.2029 16.394C14.2029 19.0723 15.8261 20.1272 19.2348 20.5331C21.5073 20.9388 22.2377 21.4259 22.2377 22.7244C22.2377 24.023 21.1014 24.9158 19.5595 24.9158C17.4492 24.9158 16.7188 24.0228 16.4753 22.8056C16.3942 22.4809 16.1508 22.3185 15.9073 22.3185H14.5275C14.2029 22.3185 13.9595 22.562 13.9595 22.8867V22.968C14.284 24.9968 15.5826 26.4577 18.2609 26.8636V28.8115C18.2609 29.136 18.5043 29.3793 18.91 29.4606H20.1275C20.4521 29.4606 20.6956 29.2171 20.7769 28.8115V26.8636C23.2116 26.4577 24.8348 24.7532 24.8348 22.562Z" fill="#E5E1F9"/>
<path fill-rule="evenodd" clip-rule="evenodd" d="M8.11737 15.5013C5.76362 21.7508 9.01005 28.8116 15.3405 31.0839C15.584 31.2463 15.8274 31.5709 15.8274 31.8143V32.9508C15.8274 33.113 15.8274 33.1941 15.7462 33.2753C15.6652 33.5999 15.3405 33.7621 15.0158 33.5999C10.4709 32.1391 6.98101 28.6492 5.52013 24.1042C3.08535 16.3941 7.30572 8.19696 15.0158 5.76218C15.097 5.68115 15.2593 5.68115 15.3405 5.68115C15.6652 5.76218 15.8274 6.00566 15.8274 6.33037V7.46653C15.8274 7.87246 15.6652 8.11594 15.3405 8.27819C12.013 9.49558 9.33476 12.0926 8.11737 15.5013ZM23.213 6.08666C23.294 5.76195 23.6188 5.5997 23.9434 5.76195C28.4071 7.22283 31.9783 10.7128 33.4391 15.3388C35.8738 23.0489 31.6535 31.2461 23.9434 33.6809C23.8623 33.762 23.6999 33.762 23.6188 33.762C23.294 33.6809 23.1317 33.4375 23.1317 33.1127V31.9765C23.1317 31.5706 23.294 31.3271 23.6188 31.1649C26.9461 29.9476 29.6245 27.3505 30.8418 23.9418C33.1956 17.6924 29.9492 10.6315 23.6188 8.35918C23.3753 8.19674 23.1317 7.87222 23.1317 7.54754V6.41136C23.1317 6.24891 23.1317 6.16789 23.213 6.08666Z" fill="#E5E1F9"/>
</svg>
