<svg width="40" height="40" viewBox="0 0 40 40" fill="none" xmlns="http://www.w3.org/2000/svg">
<path d="M20 40C31.0834 40 40 31.0834 40 20C40 8.9166 31.0834 0 20 0C8.9166 0 0 8.9166 0 20C0 31.0834 8.9166 40 20 40Z" fill="#38305B"/>
<path d="M17.1342 19.8064V14.5806H10.0464V10H29.8524V14.6451H22.7646V19.8064H17.1342Z" fill="#E5E1F9"/>
<path fill-rule="evenodd" clip-rule="evenodd" d="M7 20.3869C7 18.6449 12.6967 17.2256 19.7845 17.2256C26.8722 17.2256 32.5689 18.6449 32.5689 20.3869C32.5689 22.1288 26.8722 23.5481 19.7845 23.5481C12.6967 23.5481 7 22.1288 7 20.3869ZM31.51 20.3868C31.0464 19.7416 27.2044 17.7416 19.7854 17.7416C12.3665 17.7416 8.52449 19.6771 8.06081 20.3868C8.52449 21.032 12.3665 21.9997 19.7854 21.9997C27.2706 21.9997 31.0464 21.032 31.51 20.3868Z" fill="#E5E1F9"/>
<path d="M22.7649 21.4192V17.8063C21.8375 17.7418 20.8439 17.6772 19.8503 17.6772C18.9229 17.6772 18.0618 17.6772 17.2007 17.7418V21.3546C17.9956 21.3546 18.9229 21.4192 19.8503 21.4192C20.8439 21.4837 21.8375 21.4837 22.7649 21.4192Z" fill="#E5E1F9"/>
<path d="M19.7849 23.5482C18.8575 23.5482 17.9964 23.5482 17.1353 23.4837V33.0966H22.6995V23.4192C21.7721 23.4837 20.7785 23.5482 19.7849 23.5482Z" fill="#E5E1F9"/>
</svg>
