<svg fill="none" height="216" viewBox="0 0 474 216" width="474" xmlns="http://www.w3.org/2000/svg" xmlns:xlink="http://www.w3.org/1999/xlink"><filter id="a" color-interpolation-filters="sRGB" filterUnits="userSpaceOnUse" height="777.756" width="809.226" x="-357.069" y="-273.794"><feFlood flood-opacity="0" result="BackgroundImageFix"/><feBlend in="SourceGraphic" in2="BackgroundImageFix" mode="normal" result="shape"/><feGaussianBlur result="effect1_foregroundBlur_5187_8921" stdDeviation="45.56"/></filter><filter id="b" color-interpolation-filters="sRGB" filterUnits="userSpaceOnUse" height="387.111" width="561.41" x="-36.1303" y="11.5145"><feFlood flood-opacity="0" result="BackgroundImageFix"/><feBlend in="SourceGraphic" in2="BackgroundImageFix" mode="normal" result="shape"/><feGaussianBlur result="effect1_foregroundBlur_5187_8921" stdDeviation="39.7037"/></filter><filter id="c" color-interpolation-filters="sRGB" filterUnits="userSpaceOnUse" height="486.37" width="702.359" x="-113.95" y="-87.7453"><feFlood flood-opacity="0" result="BackgroundImageFix"/><feBlend in="SourceGraphic" in2="BackgroundImageFix" mode="normal" result="shape"/><feGaussianBlur result="effect1_foregroundBlur_5187_8921" stdDeviation="39.7037"/></filter><filter id="d" color-interpolation-filters="sRGB" filterUnits="userSpaceOnUse" height="329.541" width="759.929" x="-142.139" y="136.58"><feFlood flood-opacity="0" result="BackgroundImageFix"/><feColorMatrix in="SourceAlpha" result="hardAlpha" type="matrix" values="0 0 0 0 0 0 0 0 0 0 0 0 0 0 0 0 0 0 127 0"/><feMorphology in="SourceAlpha" operator="dilate" radius="7.94074" result="effect1_dropShadow_5187_8921"/><feOffset dy="-1.58815"/><feGaussianBlur stdDeviation="39.7037"/><feComposite in2="hardAlpha" operator="out"/><feColorMatrix type="matrix" values="0 0 0 0 0.882353 0 0 0 0 0.866667 0 0 0 0 0.968627 0 0 0 1 0"/><feBlend in2="BackgroundImageFix" mode="normal" result="effect1_dropShadow_5187_8921"/><feBlend in="SourceGraphic" in2="effect1_dropShadow_5187_8921" mode="normal" result="shape"/></filter><radialGradient id="e" cx="0" cy="0" gradientTransform="matrix(-369.66315191 -76.3180896 39.57285197 -191.67965638 238.222 134)" gradientUnits="userSpaceOnUse" r="1"><stop offset=".776042" stop-color="#19152a"/><stop offset="1" stop-color="#0b0911"/></radialGradient><radialGradient id="f" cx="0" cy="0" gradientTransform="matrix(708.5057508 148.80197061 -61.16977922 291.25380646 -224.04 139.217)" gradientUnits="userSpaceOnUse" r="1"><stop offset=".411458" stop-color="#3966ff" stop-opacity="0"/><stop offset="1" stop-color="#ff599c"/></radialGradient><radialGradient id="g" cx="0" cy="0" gradientTransform="matrix(0 149.099 -262.933 0 244.575 164.572)" gradientUnits="userSpaceOnUse" r="1"><stop offset="0" stop-color="#e1ddf7"/><stop offset=".0001" stop-color="#cbc7e1" stop-opacity=".910625"/><stop offset=".0677083" stop-color="#bfbbd5" stop-opacity=".54"/><stop offset="1" stop-color="#1e1933" stop-opacity=".22"/></radialGradient><radialGradient id="h" cx="0" cy="0" gradientTransform="matrix(0 155.4 -257.87 0 237.23 155.859)" gradientUnits="userSpaceOnUse" r="1"><stop offset="0" stop-color="#df4395" stop-opacity=".49"/><stop offset="1" stop-color="#1e1933" stop-opacity=".22"/></radialGradient><radialGradient id="i" cx="0" cy="0" gradientTransform="matrix(0 74.0474 -279.861 0 237.825 225.517)" gradientUnits="userSpaceOnUse" r="1"><stop offset="0" stop-color="#5d5296" stop-opacity=".71"/><stop offset="1" stop-opacity="0"/></radialGradient><clipPath id="j"><rect height="216" rx="4" width="474"/></clipPath><clipPath id="k"><path d="m0 0h476.444v268h-476.444z"/></clipPath><g clip-path="url(#j)"><g clip-path="url(#k)"><path d="m0 0h476.444v268h-476.444z" fill="url(#e)"/><g filter="url(#a)" opacity=".3"><path d="m208.681 352.066-61.092 9.736-105.9195 51.04-134.9946-126.907 9.0176-91.943-181.6415-58.894 25.183-86.4222 80.046-132.2245 97.8564-99.1253 57.49178 1.991 129.39182 83.7924 175.141 64.9748 32.162 152.0908 29.713 156.809z" fill="url(#f)"/></g><g filter="url(#b)"><ellipse cx="244.575" cy="205.07" fill="url(#g)" rx="201.298" ry="114.148"/></g><g filter="url(#c)"><ellipse cx="237.23" cy="155.44" fill="url(#h)" rx="271.772" ry="163.778"/></g><g filter="url(#d)" shape-rendering="crispEdges"><ellipse cx="237.825" cy="302.939" fill="#0b0911" fill-opacity=".69" rx="292.616" ry="77.4222"/><path d="m530.045 302.939c0 10.474-8.029 20.554-22.809 29.799-14.759 9.233-36.143 17.562-62.601 24.563-52.912 13.999-126.03 22.663-206.81 22.663-80.779 0-153.8977-8.664-206.8091-22.663-26.45866-7.001-47.8419-15.33-62.6011-24.563-14.7798-9.245-22.8088-19.325-22.8088-29.799s8.029-20.554 22.8088-29.8c14.7592-9.232 36.14244-17.562 62.6011-24.562 52.9114-14 126.0301-22.663 206.8091-22.663 80.78 0 153.898 8.663 206.81 22.663 26.458 7 47.842 15.33 62.601 24.562 14.78 9.246 22.809 19.326 22.809 29.8z" stroke="url(#i)" stroke-width=".794074"/></g><g fill="#e1ddf7"><circle cx="78.4352" cy="164.927" fill-opacity=".4" r=".198519" transform="matrix(-.99834383 .05752918 -.05752918 -.99834383 166.228612 325.068539)"/><circle cx="99.6437" cy="132.685" fill-opacity=".4" r=".198519" transform="matrix(-.99834383 .05752918 -.05752918 -.99834383 206.755632 259.41783)"/><circle cx="204.942" cy="144.912" fill-opacity=".4" r=".198519" transform="matrix(-.99834383 .05752918 -.05752918 -.99834383 417.881249 277.793856)"/><circle cx="310.241" cy="157.137" fill-opacity=".4" r=".198519" transform="matrix(-.99834383 .05752918 -.05752918 -.99834383 629.008149 296.165844)"/><circle cx="299.61" cy="117.583" fill-opacity=".4" r=".198519" transform="matrix(-.99834383 .05752918 -.05752918 -.99834383 605.488247 217.734945)"/><circle cx="352.337" cy="87.1033" fill-opacity=".4" r=".198519" transform="matrix(-.99834383 .05752918 -.05752918 -.99834383 709.10145 153.792684)"/><circle cx="268.389" cy="100.293" fill-opacity=".4" r=".198519" transform="matrix(-.99834383 .05752918 -.05752918 -.99834383 542.103275 184.979699)"/><circle cx="350.673" cy="134.128" fill-opacity=".4" r=".198519" transform="matrix(-.99834383 .05752918 -.05752918 -.99834383 708.481498 247.859931)"/><circle cx="226.161" cy="181.868" fill-opacity=".4" r=".198519" transform="matrix(-.99834383 .05752918 -.05752918 -.99834383 462.410154 350.423938)"/><circle cx="146.769" cy="108.494" fill-opacity=".2" r=".992593" transform="matrix(-.99834383 .05752918 -.05752918 -.99834383 299.536496 208.364815)"/><circle cx="239.725" cy="127.397" fill-opacity=".3" r=".992593" transform="matrix(-.99834383 .05752918 -.05752918 -.99834383 486.382018 240.791826)"/><circle cx="60.6038" cy="83.2341" fill-opacity=".4" r=".992593" transform="matrix(-.99834383 .05752918 -.05752918 -.99834383 125.895619 162.843863)"/><circle cx="170.464" cy="160.817" fill-opacity=".4" r=".992593" transform="matrix(-.99834383 .05752918 -.05752918 -.99834383 349.897352 311.561005)"/><circle cx="435.763" cy="102.777" fill-opacity=".4" opacity=".5" r=".794074" transform="matrix(-.99834383 .05752918 -.05752918 -.99834383 876.716977 180.314696)"/><circle cx="384.908" cy="165.76" fill-opacity=".4" opacity=".5" r=".794074" transform="matrix(-.99834383 .05752918 -.05752918 -.99834383 778.714562 309.102032)"/><circle cx="441.704" cy="132.015" fill-opacity=".4" r=".198519"/><circle cx="418.676" cy="162.984" fill-opacity=".4" r=".198519"/><circle cx="314.255" cy="144.72" fill-opacity=".4" r=".198519"/><circle cx="209.834" cy="126.456" fill-opacity=".4" r=".198519"/><circle cx="218.172" cy="166.557" fill-opacity=".4" r=".198519"/><circle cx="163.778" cy="193.952" fill-opacity=".4" r=".198519"/><circle cx="248.347" cy="185.615" fill-opacity=".4" r=".198519"/><circle cx="168.145" cy="147.102" fill-opacity=".4" r=".198519"/><circle cx="295.197" cy="106.604" fill-opacity=".4" r=".198519"/><circle cx="422.249" cy="66.1067" fill-opacity=".4" r=".198519"/><circle cx="205.467" cy="212.614" fill-opacity=".4" r=".198519"/><circle cx="261.449" cy="213.01" fill-opacity=".4" r=".198519"/><circle cx="370.237" cy="184.423" fill-opacity=".2" r=".992593"/><circle cx="278.522" cy="160.205" fill-opacity=".3" r=".992593"/><circle cx="454.806" cy="214.598" fill-opacity=".4" r=".992593"/><circle cx="349.591" cy="130.824" fill-opacity=".4" r=".992593"/><circle cx="241.796" cy="68.2902" fill-opacity=".4" opacity=".5" r=".794074"/><circle cx="81.3927" cy="173.505" fill-opacity=".4" opacity=".5" r=".794074"/><circle cx="135.787" cy="113.552" fill-opacity=".4" opacity=".5" r=".794074"/><circle cx="393.255" cy="22.7708" fill-opacity=".4" r=".124205" transform="matrix(.44279266 -.89662404 .89662404 .44279266 198.707726 365.289942)"/><circle cx="404.249" cy="44.2688" fill-opacity=".4" r=".124205" transform="matrix(.44279266 -.89662404 .89662404 .44279266 185.55804 387.12627)"/><circle cx="365.075" cy="97.7874" fill-opacity=".4" r=".124205" transform="matrix(.44279266 -.89662404 .89662404 .44279266 115.743937 381.822877)"/><circle cx="325.901" cy="151.306" fill-opacity=".4" r=".124205" transform="matrix(.44279266 -.89662404 .89662404 .44279266 45.929833 376.519484)"/><circle cx="350.706" cy="157.738" fill-opacity=".4" r=".124205" transform="matrix(.44279266 -.89662404 .89662404 .44279266 53.984276 402.3442)"/><circle cx="351.005" cy="195.842" fill-opacity=".4" r=".124205" transform="matrix(.44279266 -.89662404 .89662404 .44279266 19.985918 423.84412)"/><circle cx="369.757" cy="146.09" fill-opacity=".4" r=".124205" transform="matrix(.44279266 -.89662404 .89662404 .44279266 75.043509 412.935434)"/><circle cx="325.933" cy="180.412" fill-opacity=".4" r=".124205" transform="matrix(.44279266 -.89662404 .89662404 .44279266 19.850525 392.766252)"/><circle cx="338.412" cy="97.9192" fill-opacity=".4" r=".124205" transform="matrix(.44279266 -.89662404 .89662404 .44279266 100.768942 357.98963)"/><circle cx="350.892" cy="15.4261" fill-opacity=".4" r=".124205" transform="matrix(.44279266 -.89662404 .89662404 .44279266 181.688186 323.213737)"/><circle cx="402.857" cy="77.3822" fill-opacity=".2" r=".621027" transform="matrix(.44279266 -.89662404 .89662404 .44279266 155.092137 404.329199)"/><circle cx="363.861" cy="122.123" fill-opacity=".3" r=".621027" transform="matrix(.44279266 -.89662404 .89662404 .44279266 93.247603 394.29435)"/><circle cx="443.213" cy="38.2992" fill-opacity=".4" r=".621027" transform="matrix(.44279266 -.89662404 .89662404 .44279266 212.621554 418.736024)"/><circle cx="367.069" cy="74.1146" fill-opacity=".4" r=".621027" transform="matrix(.44279266 -.89662404 .89662404 .44279266 138.08061 370.420087)"/><circle cx="302.125" cy="117.262" fill-opacity=".4" opacity=".5" r=".496822" transform="matrix(.44279266 -.89662404 .89662404 .44279266 63.20634 336.231784)"/><circle cx="298.148" cy="189.271" fill-opacity=".4" opacity=".5" r=".496822" transform="matrix(.44279266 -.89662404 .89662404 .44279266 -3.574674 372.789854)"/><circle cx="289.229" cy="208.502" fill-opacity=".4" r=".124205" transform="matrix(-.49363833 .86966729 -.86966729 -.49363833 613.33089 59.893576)"/><circle cx="331.417" cy="157.326" fill-opacity=".4" r=".124205" transform="matrix(-.49363833 .86966729 -.86966729 -.49363833 631.83841 -53.234383)"/><circle cx="373.606" cy="106.149" fill-opacity=".4" r=".124205" transform="matrix(-.49363833 .86966729 -.86966729 -.49363833 650.346554 -166.364705)"/><circle cx="349.211" cy="98.3006" fill-opacity=".4" r=".124205" transform="matrix(-.49363833 .86966729 -.86966729 -.49363833 607.08375 -156.871842)"/><circle cx="351.104" cy="60.243" fill-opacity=".4" r=".124205" transform="matrix(-.49363833 .86966729 -.86966729 -.49363833 576.813757 -215.362412)"/><circle cx="329.522" cy="108.834" fill-opacity=".4" r=".124205" transform="matrix(-.49363833 .86966729 -.86966729 -.49363833 586.836059 -124.015873)"/><circle cx="375.247" cy="77.0897" fill-opacity=".4" r=".124205" transform="matrix(-.49363833 .86966729 -.86966729 -.49363833 627.525692 -211.195913)"/><circle cx="358.043" cy="158.728" fill-opacity=".4" r=".124205" transform="matrix(-.49363833 .86966729 -.86966729 -.49363833 672.827297 -74.296063)"/><circle cx="328.075" cy="77.1629" fill-opacity=".4" r=".124205" transform="matrix(-.49363833 .86966729 -.86966729 -.49363833 557.131444 -170.062633)"/><circle cx="310.569" cy="107.502" fill-opacity=".4" r=".124205" transform="matrix(-.49363833 .86966729 -.86966729 -.49363833 557.368735 -109.522595)"/><circle cx="292.524" cy="175.524" fill-opacity=".2" r=".621027" transform="matrix(-.49363833 .86966729 -.86966729 -.49363833 589.57254 7.770818)"/><circle cx="334.028" cy="133.1" fill-opacity=".3" r=".621027" transform="matrix(-.49363833 .86966729 -.86966729 -.49363833 614.66974 -91.689966)"/><circle cx="249.986" cy="212.22" fill-opacity=".4" r=".621027" transform="matrix(-.49363833 .86966729 -.86966729 -.49363833 557.949464 99.575277)"/><circle cx="328.065" cy="180.845" fill-opacity=".4" r=".621027" transform="matrix(-.49363833 .86966729 -.86966729 -.49363833 647.285439 -15.190378)"/><circle cx="395.383" cy="141.505" fill-opacity=".4" opacity=".5" r=".496822" transform="matrix(-.49363833 .86966729 -.86966729 -.49363833 713.621473 -132.494373)"/><circle cx="387.675" cy="21.7308" fill-opacity=".4" opacity=".5" r=".496822" transform="matrix(-.49363833 .86966729 -.86966729 -.49363833 597.944804 -304.690313)"/><circle cx="403.497" cy="69.844" fill-opacity=".4" opacity=".5" r=".496822" transform="matrix(-.49363833 .86966729 -.86966729 -.49363833 663.419626 -246.586469)"/><circle cx="347.89" cy="139.441" fill-opacity=".4" r=".125127" transform="matrix(.95486973 -.29702492 .29702492 .95486973 -25.717081 109.625008)"/><circle cx="339.828" cy="162.391" fill-opacity=".4" r=".125127" transform="matrix(.95486973 -.29702492 .29702492 .95486973 -32.897643 108.266133)"/><circle cx="273.562" cy="170.949" fill-opacity=".4" r=".125127" transform="matrix(.95486973 -.29702492 .29702492 .95486973 -38.430185 88.969705)"/><circle cx="207.296" cy="179.505" fill-opacity=".4" r=".125127" transform="matrix(.95486973 -.29702492 .29702492 .95486973 -43.962133 69.673186)"/><circle cx="219.822" cy="202.079" fill-opacity=".4" r=".125127" transform="matrix(.95486973 -.29702492 .29702492 .95486973 -50.101872 74.412491)"/><circle cx="241.551" cy="207.901" fill-opacity=".4" r=".125127" transform="matrix(.95486973 -.29702492 .29702492 .95486973 -50.850515 81.129294)"/><circle cx="186.07" cy="199.736" fill-opacity=".4" r=".125127" transform="matrix(.95486973 -.29702492 .29702492 .95486973 -50.929179 64.281566)"/><circle cx="254.956" cy="151.575" fill-opacity=".4" r=".125127" transform="matrix(.95486973 -.29702492 .29702492 .95486973 -33.515318 82.568905)"/><circle cx="323.842" cy="103.415" fill-opacity=".4" r=".125127" transform="matrix(.95486973 -.29702492 .29702492 .95486973 -16.101754 100.85629)"/><circle cx="314.689" cy="184.364" fill-opacity=".2" r=".625637" transform="matrix(.95486973 -.29702492 .29702492 .95486973 -40.558702 101.790871)"/><circle cx="254.955" cy="186.957" fill-opacity=".3" r=".625637" transform="matrix(.95486973 -.29702492 .29702492 .95486973 -44.024699 84.165408)"/><circle cx="371.237" cy="186.692" fill-opacity=".4" r=".625637" transform="matrix(.95486973 -.29702492 .29702492 .95486973 -38.698149 118.692099)"/><circle cx="292.228" cy="155.969" fill-opacity=".4" r=".625637" transform="matrix(.95486973 -.29702492 .29702492 .95486973 -33.13835 93.83792)"/><circle cx="215.643" cy="138.514" fill-opacity=".4" opacity=".5" r=".50051" transform="matrix(.95486973 -.29702492 .29702492 .95486973 -31.410082 70.302518)"/><circle cx="160.314" cy="185.602" fill-opacity=".4" opacity=".5" r=".50051" transform="matrix(.95486973 -.29702492 .29702492 .95486973 -47.893404 55.993521)"/><circle cx="130.715" cy="214.891" fill-opacity=".4" r=".125127" transform="matrix(-.9703759 .24160012 -.24160012 -.9703759 309.475377 391.835287)"/><circle cx="140.083" cy="192.443" fill-opacity=".4" r=".125127" transform="matrix(-.9703759 .24160012 -.24160012 -.9703759 322.510419 345.340979)"/><circle cx="206.732" cy="187.712" fill-opacity=".4" r=".125127" transform="matrix(-.9703759 .24160012 -.24160012 -.9703759 452.690992 319.916724)"/><circle cx="273.38" cy="182.981" fill-opacity=".4" r=".125127" transform="matrix(-.9703759 .24160012 -.24160012 -.9703759 582.869594 294.492711)"/><circle cx="262.174" cy="159.724" fill-opacity=".4" r=".125127" transform="matrix(-.9703759 .24160012 -.24160012 -.9703759 555.170668 251.37505)"/><circle cx="291.271" cy="134.685" fill-opacity=".4" r=".125127" transform="matrix(-.9703759 .24160012 -.24160012 -.9703759 606.45327 195.008969)"/><circle cx="240.816" cy="152.663" fill-opacity=".4" r=".125127" transform="matrix(-.9703759 .24160012 -.24160012 -.9703759 511.381441 242.622321)"/><circle cx="295.735" cy="164.005" fill-opacity=".4" r=".125127" transform="matrix(-.9703759 .24160012 -.24160012 -.9703759 622.332744 251.701888)"/><circle cx="224.193" cy="208.123" fill-opacity=".4" r=".125127" transform="matrix(-.9703759 .24160012 -.24160012 -.9703759 492.027025 355.915487)"/><circle cx="262.931" cy="129.62" fill-opacity=".4" r=".125127" transform="matrix(-.9703759 .24160012 -.24160012 -.9703759 549.389113 191.875963)"/><circle cx="228.63" cy="137.902" fill-opacity=".4" r=".125127" transform="matrix(-.9703759 .24160012 -.24160012 -.9703759 483.804181 216.481742)"/><circle cx="166.445" cy="171.953" fill-opacity=".2" r=".625637" transform="matrix(-.9703759 .24160012 -.24160012 -.9703759 369.503082 298.598915)"/><circle cx="226.23" cy="172.8" fill-opacity=".3" r=".625637" transform="matrix(-.9703759 .24160012 -.24160012 -.9703759 487.50664 285.82376)"/><circle cx="110.125" cy="166.375" fill-opacity=".4" r=".625637" transform="matrix(-.9703759 .24160012 -.24160012 -.9703759 257.183866 301.215077)"/><circle cx="187.235" cy="201.593" fill-opacity=".4" r=".625637" transform="matrix(-.9703759 .24160012 -.24160012 -.9703759 417.628224 351.97799)"/><circle cx="344.775" cy="134.645" fill-opacity=".4" opacity=".5" r=".50051" transform="matrix(-.9703759 .24160012 -.24160012 -.9703759 711.866598 182.003581)"/><circle cx="320.635" cy="179.597" fill-opacity=".4" opacity=".5" r=".50051" transform="matrix(-.9703759 .24160012 -.24160012 -.9703759 675.162133 276.408146)"/><path d="m158.826 112.686-3.288-11.086h1.414l1.572 5.543 1.191 4.193h.08l1.191-4.193 1.572-5.543h1.366l-3.288 11.086zm10.745.19c-.571 0-1.09-.1-1.556-.302-.455-.201-.847-.487-1.175-.857-.318-.381-.561-.831-.731-1.35-.169-.53-.254-1.122-.254-1.779 0-.646.085-1.233.254-1.763.17-.529.413-.979.731-1.35.328-.381.72-.672 1.175-.873.466-.201.985-.302 1.556-.302.572 0 1.086.101 1.541.302.466.201.857.492 1.175.873.328.371.577.821.746 1.35.17.53.255 1.117.255 1.763 0 .657-.085 1.249-.255 1.779-.169.519-.418.969-.746 1.35-.318.37-.709.656-1.175.857-.455.202-.969.302-1.541.302zm0-1.096c.71 0 1.281-.211 1.716-.635.434-.423.651-1.08.651-1.969v-1.175c0-.89-.217-1.546-.651-1.97-.435-.423-1.006-.635-1.716-.635-.709 0-1.281.212-1.715.635-.434.424-.651 1.08-.651 1.97v1.175c0 .889.217 1.546.651 1.969.434.424 1.006.635 1.715.635zm6.347-.174h2.858v-9.593h-2.858v-1.08h4.129v10.673h2.859v1.08h-6.988zm13.731 1.08c-.625 0-1.085-.175-1.382-.525-.286-.349-.428-.799-.428-1.349v-5.241h-2.732v-1.08h2.033c.275 0 .466-.053.571-.159.117-.117.175-.312.175-.588v-2.144h1.223v2.891h3.732v1.08h-3.732v6.035h3.732v1.08zm6.029 0v-1.223l5.288-5.892h-5.114v-1.08h6.496v1.223l-5.289 5.892h5.448v1.08zm20.919-9.386h-.111v9.386h-1.207v-11.086h1.89l3.78 9.291h.111v-9.291h1.207v11.086h-1.89zm12.159 9.576c-.593 0-1.127-.1-1.604-.302-.466-.201-.868-.487-1.207-.857-.328-.381-.582-.831-.762-1.35-.18-.53-.27-1.117-.27-1.763 0-.656.09-1.249.27-1.779.19-.529.45-.979.778-1.35.328-.381.72-.672 1.175-.873.466-.201.98-.302 1.541-.302.55 0 1.048.101 1.493.302.455.201.841.482 1.159.842.318.349.561.767.731 1.254.169.487.254 1.022.254 1.604v.604h-6.067v.381c0 .36.058.693.175 1 .116.307.28.572.492.795.222.222.487.397.794.524.318.116.667.174 1.048.174.551 0 1.027-.127 1.429-.381.403-.254.71-.603.922-1.048l.937.635c-.244.551-.652 1.006-1.223 1.366-.561.349-1.25.524-2.065.524zm-.079-7.528c-.35 0-.673.064-.969.191s-.556.302-.778.524c-.212.222-.381.487-.508.794-.117.296-.175.625-.175.985v.111h4.701v-.175c0-.36-.058-.688-.175-.984-.106-.297-.259-.551-.46-.763-.191-.222-.429-.392-.715-.508-.275-.116-.582-.175-.921-.175zm5.489-.857h1.127l.937 7.083h.143l1.398-7.083h1.397l1.398 7.083h.143l.937-7.083h1.096l-1.255 8.195h-1.652l-1.302-6.861h-.127l-1.334 6.861h-1.652zm26.128 3.16h-4.32v5.035h-1.334v-11.086h1.334v4.892h4.32v-4.892h1.334v11.086h-1.334zm7.68 5.225c-.571 0-1.09-.1-1.556-.302-.455-.201-.847-.487-1.175-.857-.318-.381-.561-.831-.731-1.35-.169-.53-.254-1.122-.254-1.779 0-.646.085-1.233.254-1.763.17-.529.413-.979.731-1.35.328-.381.72-.672 1.175-.873.466-.201.985-.302 1.556-.302.572 0 1.086.101 1.541.302.466.201.858.492 1.175.873.328.371.577.821.747 1.35.169.53.254 1.117.254 1.763 0 .657-.085 1.249-.254 1.779-.17.519-.419.969-.747 1.35-.317.37-.709.656-1.175.857-.455.202-.969.302-1.541.302zm0-1.096c.71 0 1.282-.211 1.716-.635.434-.423.651-1.08.651-1.969v-1.175c0-.89-.217-1.546-.651-1.97-.434-.423-1.006-.635-1.716-.635-.709 0-1.281.212-1.715.635-.434.424-.651 1.08-.651 1.97v1.175c0 .889.217 1.546.651 1.969.434.424 1.006.635 1.715.635zm6.299-.174h2.398v-6.035h-2.398v-1.08h3.669v2.064h.079c.17-.646.487-1.148.953-1.508.477-.371 1.08-.556 1.811-.556h1.143v1.27h-1.54c-.731 0-1.324.212-1.779.635-.445.424-.667.98-.667 1.668v3.542h3.176v1.08h-6.845zm13.89-8.926c-.37 0-.63-.074-.778-.222-.148-.159-.222-.355-.222-.588v-.254c0-.233.074-.423.222-.572.148-.158.408-.238.778-.238.371 0 .63.08.779.238.148.149.222.339.222.572v.254c0 .233-.074.429-.222.588-.149.148-.408.222-.779.222zm-3.589 8.926h2.954v-6.035h-2.954v-1.08h4.225v7.115h2.763v1.08h-6.988zm9.507 1.08v-1.223l5.288-5.892h-5.113v-1.08h6.495v1.223l-5.288 5.892h5.447v1.08zm13.255.19c-.572 0-1.091-.1-1.557-.302-.455-.201-.847-.487-1.175-.857-.317-.381-.561-.831-.73-1.35-.17-.53-.255-1.122-.255-1.779 0-.646.085-1.233.255-1.763.169-.529.413-.979.73-1.35.328-.381.72-.672 1.175-.873.466-.201.985-.302 1.557-.302.571 0 1.085.101 1.54.302.466.201.858.492 1.175.873.329.371.578.821.747 1.35.169.53.254 1.117.254 1.763 0 .657-.085 1.249-.254 1.779-.169.519-.418.969-.747 1.35-.317.37-.709.656-1.175.857-.455.202-.969.302-1.54.302zm0-1.096c.709 0 1.281-.211 1.715-.635.434-.423.651-1.08.651-1.969v-1.175c0-.89-.217-1.546-.651-1.97-.434-.423-1.006-.635-1.715-.635-.71 0-1.281.212-1.715.635-.435.424-.652 1.08-.652 1.97v1.175c0 .889.217 1.546.652 1.969.434.424 1.005.635 1.715.635zm6.632.906v-8.195h1.271v1.334h.063c.085-.201.191-.392.318-.572.127-.191.28-.355.46-.492.191-.138.413-.249.667-.334s.551-.127.89-.127c.857 0 1.545.275 2.064.826.519.54.778 1.308.778 2.303v5.257h-1.27v-5.035c0-.752-.164-1.307-.492-1.667-.329-.371-.81-.556-1.446-.556-.254 0-.503.031-.746.095-.244.064-.461.159-.651.286-.191.127-.344.291-.461.492-.116.201-.174.434-.174.699v5.686zm-210.042 22-2.938-11.086h2.652l1.302 5.638.651 3.192h.127l.667-3.192 1.319-5.638h2.525l-2.938 11.086zm11.524.19c-.636 0-1.207-.095-1.716-.286-.508-.201-.942-.487-1.302-.857-.349-.371-.619-.821-.81-1.35-.19-.53-.286-1.128-.286-1.795s.096-1.265.286-1.794c.191-.53.461-.98.81-1.35.36-.371.794-.652 1.302-.842.509-.201 1.08-.302 1.716-.302.635 0 1.207.101 1.715.302.508.19.937.471 1.286.842.36.37.635.82.826 1.35.191.529.286 1.127.286 1.794s-.095 1.265-.286 1.795c-.191.529-.466.979-.826 1.35-.349.37-.778.656-1.286.857-.508.191-1.08.286-1.715.286zm0-1.747c.529 0 .942-.164 1.238-.492.297-.328.445-.794.445-1.398v-1.302c0-.604-.148-1.069-.445-1.398-.296-.328-.709-.492-1.238-.492-.53 0-.943.164-1.239.492-.297.329-.445.794-.445 1.398v1.302c0 .604.148 1.07.445 1.398.296.328.709.492 1.239.492zm6.155-.27h2.51v-8.099h-2.51v-1.827h4.86v9.926h2.509v1.827h-7.369zm14.16 1.827c-.847 0-1.476-.223-1.889-.667-.413-.445-.62-1.012-.62-1.7v-4.002h-2.223v-1.826h1.445c.349 0 .598-.069.746-.207.149-.137.223-.392.223-.762v-1.922h2.16v2.891h3.192v1.826h-3.192v4.542h3.192v1.827zm5.489 0v-1.954l4.558-4.415h-4.399v-1.826h7.115v1.953l-4.558 4.415h4.717v1.827zm22 0-2.938-8.195h2.477l1.064 3.51.778 2.731h.127l.779-2.731 1.064-3.51h2.382l-2.938 8.195zm15.287 0h-7.972v-2.176l3.494-2.907c.603-.518 1.037-.968 1.302-1.349.265-.382.397-.784.397-1.207v-.159c0-.466-.138-.816-.413-1.048-.275-.244-.646-.366-1.112-.366-.529 0-.937.154-1.222.461-.286.307-.488.672-.604 1.096l-2.08-.794c.127-.382.301-.742.524-1.08.222-.35.503-.651.841-.906.35-.254.752-.455 1.207-.603.456-.159.98-.238 1.573-.238.603 0 1.143.084 1.62.254.476.169.878.402 1.207.699.328.296.577.651.746 1.064.169.402.254.841.254 1.318 0 .466-.079.894-.238 1.286-.148.381-.36.741-.635 1.08-.265.339-.583.667-.953.985-.36.317-.747.635-1.16.953l-2.112 1.635h5.336zm13.948 0-2.938-11.086h2.652l1.302 5.638.651 3.192h.127l.667-3.192 1.318-5.638h2.526l-2.938 11.086zm11.523.19c-.635 0-1.207-.095-1.715-.286-.508-.201-.942-.487-1.302-.857-.349-.371-.619-.821-.81-1.35-.191-.53-.286-1.128-.286-1.795s.095-1.265.286-1.794c.191-.53.461-.98.81-1.35.36-.371.794-.652 1.302-.842.508-.201 1.08-.302 1.715-.302.636 0 1.207.101 1.716.302.508.19.937.471 1.286.842.36.37.635.82.826 1.35.19.529.286 1.127.286 1.794s-.096 1.265-.286 1.795c-.191.529-.466.979-.826 1.35-.349.37-.778.656-1.286.857-.509.191-1.08.286-1.716.286zm0-1.747c.53 0 .943-.164 1.239-.492.297-.328.445-.794.445-1.398v-1.302c0-.604-.148-1.069-.445-1.398-.296-.328-.709-.492-1.239-.492-.529 0-.942.164-1.238.492-.297.329-.445.794-.445 1.398v1.302c0 .604.148 1.07.445 1.398.296.328.709.492 1.238.492zm11.905-6.638h2.398l-3.859 9.513c-.243.603-.566 1.064-.969 1.381-.402.318-.952.477-1.651.477h-1.62v-1.827h1.969l.508-1.397-3.303-8.147h2.525l1.191 3.446.747 2.382h.127l.714-2.382zm10.746 8.195c-.487 0-.879-.122-1.175-.366-.297-.254-.471-.614-.524-1.08h-.08c-.148.54-.445.948-.889 1.223-.434.275-.969.413-1.604.413-.794 0-1.435-.212-1.922-.635-.476-.434-.715-1.038-.715-1.811 0-.857.313-1.492.937-1.905.625-.413 1.541-.62 2.748-.62h1.318v-.413c0-.487-.116-.852-.349-1.096-.223-.254-.604-.381-1.144-.381-.497 0-.9.096-1.207.286-.307.191-.571.44-.794.747l-1.286-1.144c.275-.466.704-.847 1.286-1.143.593-.307 1.35-.461 2.271-.461 1.123 0 1.996.26 2.621.778.635.509.953 1.281.953 2.319v3.589h.905v1.7zm-3.383-1.35c.413 0 .762-.101 1.048-.302s.429-.492.429-.874v-.984h-1.255c-.963 0-1.445.323-1.445.969v.317c0 .286.111.503.334.651.222.149.519.223.889.223zm14.748 2.175c0 .869-.365 1.509-1.096 1.922s-1.879.619-3.446.619c-.784 0-1.43-.047-1.938-.143-.508-.084-.916-.211-1.223-.381-.296-.169-.508-.37-.635-.603-.116-.233-.175-.487-.175-.762 0-.466.138-.821.413-1.065.276-.232.662-.412 1.16-.54v-.095c-.35-.106-.63-.254-.842-.444-.201-.202-.302-.482-.302-.842 0-.403.133-.699.397-.89.275-.19.635-.338 1.08-.444v-.096c-.487-.232-.868-.561-1.143-.984-.265-.424-.397-.937-.397-1.541 0-.476.084-.894.254-1.254.169-.371.407-.678.714-.921.318-.244.694-.429 1.128-.556s.921-.191 1.461-.191c.519 0 1.001.058 1.445.175v-.445c0-.317.111-.582.334-.794.222-.212.529-.318.921-.318h1.445v1.716h-1.969v.143c.445.232.789.555 1.032.968.254.403.381.895.381 1.477 0 .477-.084.895-.254 1.255-.169.36-.413.667-.73.921-.318.244-.699.429-1.144.556-.434.127-.921.191-1.461.191-.243 0-.476-.011-.699-.032-.222-.032-.434-.074-.635-.127-.116.063-.217.143-.302.238-.074.095-.111.217-.111.365 0 .127.032.228.095.302.064.074.149.132.255.175.116.031.248.053.397.063.148.011.301.016.46.016h1.874c.582 0 1.08.058 1.493.175.413.116.752.28 1.016.492.265.212.456.461.572.746.117.286.175.604.175.953zm-2.224.175c0-.212-.084-.381-.254-.508-.169-.117-.492-.175-.968-.175h-2.811c-.212.18-.318.403-.318.667 0 .254.106.461.318.62.222.169.592.254 1.111.254h1.382c.54 0 .932-.074 1.175-.223.244-.148.365-.36.365-.635zm-2.366-5.034c.477 0 .821-.117 1.032-.35.223-.233.334-.529.334-.889v-.381c0-.36-.111-.657-.334-.89-.211-.233-.555-.349-1.032-.349-.466 0-.805.116-1.016.349-.212.233-.318.53-.318.89v.381c0 .36.106.656.318.889.211.233.55.35 1.016.35zm10.158 4.224c-1.376 0-2.419-.381-3.129-1.143-.709-.763-1.064-1.8-1.064-3.113 0-.667.09-1.265.27-1.795.191-.54.456-.995.794-1.366.35-.381.768-.667 1.255-.857.498-.201 1.053-.302 1.668-.302.614 0 1.164.101 1.651.302.487.19.9.466 1.239.826s.598.799.778 1.318c.191.508.286 1.08.286 1.715v.699h-5.606v.143c0 .529.164.958.492 1.286.328.318.81.477 1.445.477.487 0 .906-.09 1.255-.27.349-.191.651-.44.905-.747l1.271 1.382c-.318.392-.762.73-1.334 1.016s-1.297.429-2.176.429zm-.191-6.892c-.508 0-.915.158-1.222.476-.297.307-.445.725-.445 1.255v.127h3.303v-.127c0-.54-.148-.964-.444-1.271-.286-.307-.683-.46-1.192-.46zm19.475 6.892c-.932 0-1.742-.153-2.43-.46s-1.244-.726-1.668-1.255l1.382-1.525c.402.445.842.773 1.318.985.487.212.979.318 1.477.318.572 0 1.006-.127 1.302-.382.297-.254.445-.619.445-1.095 0-.392-.116-.689-.349-.89-.223-.201-.604-.344-1.144-.429l-1.159-.19c-.995-.17-1.715-.535-2.16-1.096-.445-.572-.667-1.265-.667-2.08 0-1.07.349-1.896 1.048-2.478.699-.593 1.678-.889 2.938-.889.858 0 1.604.132 2.239.397.636.264 1.149.624 1.541 1.08l-1.35 1.508c-.296-.328-.646-.582-1.048-.762-.402-.19-.858-.286-1.366-.286-1.069 0-1.604.44-1.604 1.318 0 .382.116.667.349.858.244.191.636.334 1.176.429l1.159.206c.9.159 1.593.498 2.08 1.017.487.518.731 1.217.731 2.096 0 .519-.09 1.001-.27 1.445-.18.434-.45.815-.81 1.144-.36.317-.805.566-1.334.746-.519.18-1.128.27-1.826.27zm10.65-.19c-.847 0-1.477-.223-1.89-.667-.413-.445-.619-1.012-.619-1.7v-4.002h-2.224v-1.826h1.445c.35 0 .599-.069.747-.207.148-.137.222-.392.222-.762v-1.922h2.16v2.891h3.192v1.826h-3.192v4.542h3.192v1.827zm12.175 0c-.487 0-.879-.122-1.175-.366-.297-.254-.472-.614-.525-1.08h-.079c-.148.54-.445.948-.889 1.223-.434.275-.969.413-1.604.413-.794 0-1.435-.212-1.922-.635-.476-.434-.715-1.038-.715-1.811 0-.857.313-1.492.937-1.905.625-.413 1.541-.62 2.748-.62h1.318v-.413c0-.487-.116-.852-.349-1.096-.223-.254-.604-.381-1.144-.381-.497 0-.9.096-1.207.286-.307.191-.572.44-.794.747l-1.286-1.144c.275-.466.704-.847 1.286-1.143.593-.307 1.35-.461 2.271-.461 1.122 0 1.996.26 2.621.778.635.509.952 1.281.952 2.319v3.589h.906v1.7zm-3.383-1.35c.413 0 .762-.101 1.048-.302s.429-.492.429-.874v-.984h-1.255c-.963 0-1.445.323-1.445.969v.317c0 .286.111.503.334.651.222.149.518.223.889.223zm6.664-.477h1.89v-4.542h-1.89v-1.826h4.24v2.318h.112c.074-.296.174-.582.301-.857.138-.286.307-.535.509-.747.211-.222.465-.397.762-.524.296-.127.646-.19 1.048-.19h.778v2.16h-1.747c-.582 0-1.021.174-1.318.524-.296.338-.445.757-.445 1.254v2.43h2.7v1.827h-6.94zm14.065 1.827c-.847 0-1.477-.223-1.89-.667-.413-.445-.619-1.012-.619-1.7v-4.002h-2.224v-1.826h1.445c.35 0 .599-.069.747-.207.148-.137.222-.392.222-.762v-1.922h2.16v2.891h3.192v1.826h-3.192v4.542h3.192v1.827zm9.11.19c-.911 0-1.705-.138-2.383-.413-.667-.275-1.17-.651-1.508-1.127l1.318-1.223c.317.349.688.624 1.112.826.434.19.926.285 1.476.285.466 0 .832-.068 1.096-.206.265-.148.397-.371.397-.667 0-.233-.09-.392-.27-.476-.18-.096-.428-.17-.746-.223l-1.318-.206c-.371-.053-.715-.133-1.033-.238-.317-.117-.592-.27-.825-.461s-.419-.424-.556-.699c-.138-.275-.207-.609-.207-1 0-.858.329-1.53.985-2.017s1.578-.731 2.763-.731c.805 0 1.488.111 2.049.334.572.211 1.027.518 1.366.921l-1.175 1.334c-.244-.265-.556-.487-.937-.667-.382-.18-.842-.27-1.382-.27-.911 0-1.366.275-1.366.826 0 .243.09.413.27.508.18.085.429.153.747.206l1.302.207c.37.053.715.137 1.032.254.318.106.593.254.826.445.243.19.434.423.572.698.137.276.206.609.206 1.001 0 .857-.333 1.535-1 2.033-.657.497-1.594.746-2.811.746zm20.967-9.322v9.132h-2.383v-9.132h-3.192v-1.954h8.767v1.954zm8.649 9.322c-.635 0-1.207-.095-1.715-.286-.509-.201-.943-.487-1.303-.857-.349-.371-.619-.821-.81-1.35-.19-.53-.285-1.128-.285-1.795s.095-1.265.285-1.794c.191-.53.461-.98.81-1.35.36-.371.794-.652 1.303-.842.508-.201 1.08-.302 1.715-.302s1.207.101 1.715.302c.508.19.937.471 1.286.842.36.37.636.82.826 1.35.191.529.286 1.127.286 1.794s-.095 1.265-.286 1.795c-.19.529-.466.979-.826 1.35-.349.37-.778.656-1.286.857-.508.191-1.08.286-1.715.286zm0-1.747c.529 0 .942-.164 1.239-.492.296-.328.444-.794.444-1.398v-1.302c0-.604-.148-1.069-.444-1.398-.297-.328-.71-.492-1.239-.492-.53 0-.942.164-1.239.492-.296.329-.445.794-.445 1.398v1.302c0 .604.149 1.07.445 1.398.297.328.709.492 1.239.492zm11.317.064h-.111c-.212.497-.508.905-.889 1.223-.371.307-.884.46-1.541.46-.455 0-.873-.085-1.255-.254-.37-.169-.693-.429-.968-.778-.265-.35-.477-.794-.636-1.334-.148-.54-.222-1.181-.222-1.922s.074-1.382.222-1.922c.159-.54.371-.984.636-1.334.275-.349.598-.608.968-.778.382-.169.8-.254 1.255-.254.328 0 .619.042.874.127.254.085.476.201.667.35.201.148.37.328.508.54.148.201.275.423.381.667h.111v-5.051h2.351v11.753h-2.351zm-1.524-.143c.412 0 .767-.101 1.064-.302.307-.201.46-.519.46-.953v-2.414c0-.434-.153-.752-.46-.953-.297-.201-.652-.302-1.064-.302-.53 0-.937.165-1.223.493-.286.317-.429.762-.429 1.334v1.27c0 .572.143 1.022.429 1.35.286.318.693.477 1.223.477zm12.857 1.636c-.487 0-.878-.122-1.175-.366-.296-.254-.471-.614-.524-1.08h-.079c-.149.54-.445.948-.89 1.223-.434.275-.969.413-1.604.413-.794 0-1.434-.212-1.921-.635-.477-.434-.715-1.038-.715-1.811 0-.857.312-1.492.937-1.905s1.54-.62 2.747-.62h1.319v-.413c0-.487-.117-.852-.35-1.096-.222-.254-.603-.381-1.143-.381-.498 0-.9.096-1.207.286-.307.191-.572.44-.794.747l-1.287-1.144c.276-.466.704-.847 1.287-1.143.593-.307 1.35-.461 2.271-.461 1.122 0 1.995.26 2.62.778.635.509.953 1.281.953 2.319v3.589h.905v1.7zm-3.382-1.35c.412 0 .762-.101 1.048-.302s.429-.492.429-.874v-.984h-1.255c-.964 0-1.445.323-1.445.969v.317c0 .286.111.503.333.651.223.149.519.223.89.223zm12.317-6.845h2.398l-3.859 9.513c-.243.603-.566 1.064-.969 1.381-.402.318-.952.477-1.651.477h-1.62v-1.827h1.969l.508-1.397-3.303-8.147h2.525l1.191 3.446.747 2.382h.127l.714-2.382z" opacity=".8"/></g></g></g></svg>