<svg width="24" height="24" viewBox="0 0 24 24" fill="none" xmlns="http://www.w3.org/2000/svg">
<path d="M12 24C18.65 24 24 18.65 24 12C24 5.34996 18.65 0 12 0C5.34996 0 0 5.34996 0 12C0 18.65 5.34996 24 12 24Z" fill="#0C0A14"/>
<path d="M10.7042 11.5196V8.57821H6.71484V6H17.8627V8.61452H13.8733V11.5196H10.7042Z" fill="#E5E1F9"/>
<path fill-rule="evenodd" clip-rule="evenodd" d="M5 11.8463C5 10.8659 8.20641 10.067 12.1958 10.067C16.1851 10.067 19.3915 10.8659 19.3915 11.8463C19.3915 12.8268 16.1851 13.6257 12.1958 13.6257C8.20641 13.6257 5 12.8268 5 11.8463ZM18.7953 11.8463C18.5343 11.4832 16.3719 10.3575 12.1961 10.3575C8.02031 10.3575 5.85785 11.4469 5.59687 11.8463C5.85785 12.2095 8.02031 12.7542 12.1961 12.7542C16.4092 12.7542 18.5343 12.2095 18.7953 11.8463Z" fill="#E5E1F9"/>
<path d="M13.874 12.4273V10.3938C13.3521 10.3575 12.7928 10.3212 12.2335 10.3212C11.7116 10.3212 11.2269 10.3212 10.7422 10.3575V12.391C11.1896 12.391 11.7116 12.4273 12.2335 12.4273C12.7928 12.4636 13.3521 12.4636 13.874 12.4273Z" fill="#E5E1F9"/>
<path d="M12.1964 13.6257C11.6745 13.6257 11.1898 13.6257 10.7051 13.5894V19H13.8369V13.5531C13.3149 13.5894 12.7557 13.6257 12.1964 13.6257Z" fill="#E5E1F9"/>
</svg>
