<svg width="20" height="30" viewBox="0 0 20 30" fill="none" xmlns="http://www.w3.org/2000/svg">
<path fill-rule="evenodd" clip-rule="evenodd" d="M3.57959 8.06723L4.955 6.05042H7.09845L5.72305 8.06723H3.57959ZM11.0384 6.05042V7.79561H16.9412L16.9412 8.06723H9.26751V6.05042H11.0384Z" fill="#E1DDF7"/>
<path fill-rule="evenodd" clip-rule="evenodd" d="M15.7288 12.1009L14.3865 14.1177H12.2593L13.6016 12.1009H15.7288ZM2.97234 12.1009H1.00366V14.1177H7.49675V13.4162V12.5308H6.61132H2.67917L2.97234 12.1009Z" fill="#E1DDF7"/>
<path fill-rule="evenodd" clip-rule="evenodd" d="M5.72583 20.1681V18.1513H7.49669V20.1681H5.72583ZM11.7018 18.1513L10.3595 20.1681H8.23228L9.5746 18.1513H11.7018Z" fill="#E1DDF7"/>
<path fill-rule="evenodd" clip-rule="evenodd" d="M12.2124 2.86986V0L10.5954 2.37099L6.12901 8.9203H8.27247L10.4415 5.73972V8.9203H12.2124V2.86986ZM12.2124 10.6655V10.6655H18.1152L18.1152 10.9371H10.4415V11.5509V12.4363H11.327H12.8767L13.1 12.1009H15.2273L15.004 12.4363H16.4623L8.67067 24.1432V20.1681H7.73063L8.67067 18.7557V16.286V15.4006H7.78524H3.85308L4.72801 14.1177H2.58455L1.446 15.7872L0.501953 17.1715H2.17752H6.89981V18.1513H6.99504V20.1681H6.89981V27.0716V30L8.52233 27.5622L18.8523 12.0415L19.7682 10.6655H18.1152H12.2124ZM6.89706 10.9371L5.81025 12.5308H3.66679L4.7536 10.9371H6.89706Z" fill="#E1DDF7"/>
<path fill-rule="evenodd" clip-rule="evenodd" d="M3.07812 8.06723L4.45353 6.05042H6.59699L5.22158 8.06723H3.07812ZM10.5369 6.05042V7.79561H16.4398L16.4398 8.06723H8.76605V6.05042H10.5369Z" fill="#E1DDF7"/>
<path fill-rule="evenodd" clip-rule="evenodd" d="M15.227 12.1009L13.8847 14.1177H11.7575L13.0998 12.1009H15.227ZM2.47054 12.1009H0.501709V14.1177H6.99495V13.4162V12.5308H6.10952H2.17737L2.47054 12.1009Z" fill="#E1DDF7"/>
<path fill-rule="evenodd" clip-rule="evenodd" d="M5.22412 20.1681V18.1513H6.99498V20.1681H5.22412ZM11.2001 18.1513L9.8578 20.1681H7.73057L9.07289 18.1513H11.2001Z" fill="#E1DDF7"/>
<path fill-rule="evenodd" clip-rule="evenodd" d="M11.7104 2.86986V0L10.0935 2.37099L5.62705 8.9203H7.77042L6.39502 10.9371H4.25165L3.16483 12.5308H5.30829L9.93957 5.73972V8.9203H11.7103V10.6655H17.6132V10.9371H9.93957V11.5509V12.4363H10.825H12.3747L12.598 12.1009H14.7252L14.5019 12.4363H15.9604L8.16871 24.1432V20.1681H7.22883L8.16871 18.7559V16.286V15.4006H7.28328H3.35113L4.22605 14.1177H2.0826L0.944052 15.7872L0 17.1715H1.67557H6.39786V18.1513H6.49324V20.1681H6.39786V27.0716V30L8.02038 27.5622L18.3504 12.0415L19.2662 10.6655H17.6133H11.7104V2.86986Z" fill="#E1DDF7"/>
<path fill-rule="evenodd" clip-rule="evenodd" d="M3.57959 8.06723L4.955 6.05042H7.09845L5.72305 8.06723H3.57959ZM11.0384 6.05042V7.79561H16.9412L16.9412 8.06723H9.26751V6.05042H11.0384Z" fill="#E1DDF7"/>
<path fill-rule="evenodd" clip-rule="evenodd" d="M15.7288 12.1009L14.3865 14.1177H12.2593L13.6016 12.1009H15.7288ZM2.97234 12.1009H1.00366V14.1177H7.49675V13.4162V12.5308H6.61132H2.67917L2.97234 12.1009Z" fill="#E1DDF7"/>
<path fill-rule="evenodd" clip-rule="evenodd" d="M5.72583 20.1681V18.1513H7.49669V20.1681H5.72583ZM11.7018 18.1513L10.3595 20.1681H8.23228L9.5746 18.1513H11.7018Z" fill="#E1DDF7"/>
<path fill-rule="evenodd" clip-rule="evenodd" d="M12.2124 2.86986V0L10.5954 2.37099L6.12901 8.9203H8.27247L10.4415 5.73972V8.9203H12.2124V2.86986ZM12.2124 10.6655V10.6655H18.1152L18.1152 10.9371H10.4415V11.5509V12.4363H11.327H12.8767L13.1 12.1009H15.2273L15.004 12.4363H16.4623L8.67067 24.1432V20.1681H7.73063L8.67067 18.7557V16.286V15.4006H7.78524H3.85308L4.72801 14.1177H2.58455L1.446 15.7872L0.501953 17.1715H2.17752H6.89981V18.1513H6.99504V20.1681H6.89981V27.0716V30L8.52233 27.5622L18.8523 12.0415L19.7682 10.6655H18.1152H12.2124ZM6.89706 10.9371L5.81025 12.5308H3.66679L4.7536 10.9371H6.89706Z" fill="#E1DDF7"/>
<path fill-rule="evenodd" clip-rule="evenodd" d="M3.07812 8.06723L4.45353 6.05042H6.59699L5.22158 8.06723H3.07812ZM10.5369 6.05042V7.79561H16.4398L16.4398 8.06723H8.76605V6.05042H10.5369Z" fill="#E1DDF7"/>
<path fill-rule="evenodd" clip-rule="evenodd" d="M15.227 12.1009L13.8847 14.1177H11.7575L13.0998 12.1009H15.227ZM2.47054 12.1009H0.501709V14.1177H6.99495V13.4162V12.5308H6.10952H2.17737L2.47054 12.1009Z" fill="#E1DDF7"/>
<path fill-rule="evenodd" clip-rule="evenodd" d="M5.22412 20.1681V18.1513H6.99498V20.1681H5.22412ZM11.2001 18.1513L9.8578 20.1681H7.73057L9.07289 18.1513H11.2001Z" fill="#E1DDF7"/>
<path fill-rule="evenodd" clip-rule="evenodd" d="M11.7104 2.86986V0L10.0935 2.37099L5.62705 8.9203H7.77042L6.39502 10.9371H4.25165L3.16483 12.5308H5.30829L9.93957 5.73972V8.9203H11.7103V10.6655H17.6132V10.9371H9.93957V11.5509V12.4363H10.825H12.3747L12.598 12.1009H14.7252L14.5019 12.4363H15.9604L8.16871 24.1432V20.1681H7.22883L8.16871 18.7559V16.286V15.4006H7.28328H3.35113L4.22605 14.1177H2.0826L0.944052 15.7872L0 17.1715H1.67557H6.39786V18.1513H6.49324V20.1681H6.39786V27.0716V30L8.02038 27.5622L18.3504 12.0415L19.2662 10.6655H17.6133H11.7104V2.86986Z" fill="#E1DDF7"/>
</svg>
