<svg width="61" height="62" viewBox="0 0 61 62" fill="none" xmlns="http://www.w3.org/2000/svg">
<g filter="url(#filter0_d_2411_4231)">
<path fill-rule="evenodd" clip-rule="evenodd" d="M24.1954 20.0672L25.5708 18.0504H27.7142L26.3388 20.0672H24.1954ZM31.6541 18.0504V19.7956H37.557L37.557 20.0672H29.8833V18.0504H31.6541Z" fill="#E1DDF7"/>
<path fill-rule="evenodd" clip-rule="evenodd" d="M36.3447 24.1009L35.0024 26.1177H32.8752L34.2175 24.1009H36.3447ZM23.5882 24.1009H21.6195V26.1177H28.1126V25.4162V24.5307H27.2272H23.295L23.5882 24.1009Z" fill="#E1DDF7"/>
<path fill-rule="evenodd" clip-rule="evenodd" d="M26.3419 32.1681V30.1513H28.1127V32.1681H26.3419ZM32.3179 30.1513L30.9756 32.1681H28.8483L30.1907 30.1513H32.3179Z" fill="#E1DDF7"/>
<path fill-rule="evenodd" clip-rule="evenodd" d="M32.8283 14.8699V12L31.2113 14.371L26.7449 20.9203H28.8883L27.5129 22.9371H25.3695L24.2827 24.5308H26.4261L31.0574 17.7397V20.9203H32.8282V22.6655L32.8283 22.6655V14.8699ZM22.0619 27.7872L23.2005 26.1177H25.3439L24.469 27.4006H28.4011H29.2866V28.286V30.7558L28.3466 32.1681H29.2866V36.1432L37.0782 24.4363H35.6199L35.8432 24.1009H33.7159L33.4926 24.4363H31.9429H31.0574V23.5509V22.9371H38.7311L38.7311 22.6655L38.7312 22.6655H40.3841L39.4682 24.0415L29.1382 39.5622L27.5157 42V39.0716V32.1681H27.611V30.1513H27.5157V29.1715H22.7934H21.1179L22.0619 27.7872Z" fill="#E1DDF7"/>
<path fill-rule="evenodd" clip-rule="evenodd" d="M23.694 20.0672L25.0694 18.0504H27.2129L25.8375 20.0672H23.694ZM31.1528 18.0504V19.7956H37.0557L37.0557 20.0672H29.382V18.0504H31.1528Z" fill="#E1DDF7"/>
<path fill-rule="evenodd" clip-rule="evenodd" d="M35.8431 24.1009L34.5007 26.1177H32.3735L33.7158 24.1009H35.8431ZM23.0866 24.1009H21.1177V26.1177H27.611V25.4162V24.5307H26.7255H22.7934L23.0866 24.1009Z" fill="#E1DDF7"/>
<path fill-rule="evenodd" clip-rule="evenodd" d="M25.84 32.1681V30.1513H27.6108V32.1681H25.84ZM31.816 30.1513L30.4737 32.1681H28.3464L29.6888 30.1513H31.816Z" fill="#E1DDF7"/>
<path fill-rule="evenodd" clip-rule="evenodd" d="M32.3264 14.8699V12L30.7094 14.371L26.243 20.9203H28.3864L27.011 22.9371H24.8676L23.7808 24.5308H25.9242L30.5555 17.7397V20.9203H32.3263V22.6655L32.3264 22.6655V14.8699ZM21.56 27.7872L22.6985 26.1177H24.842L23.9671 27.4006H27.8992H28.7846V28.286V30.756L27.8448 32.1681H28.7846V36.1432L36.5763 24.4363H35.1179L35.3412 24.1009H33.2139L32.9907 24.4363H31.4409H30.5555V23.5509V22.9371H38.2292L38.2292 22.6655L38.2292 22.6655H39.8821L38.9663 24.0415L28.6363 39.5622L27.0138 42V39.0716V32.1681H27.1092V30.1513H27.0138V29.1715H22.2915H20.6159L21.56 27.7872Z" fill="#E1DDF7"/>
<path fill-rule="evenodd" clip-rule="evenodd" d="M24.1954 20.0672L25.5708 18.0504H27.7142L26.3388 20.0672H24.1954ZM31.6541 18.0504V19.7956H37.557L37.557 20.0672H29.8833V18.0504H31.6541Z" fill="#E1DDF7"/>
<path fill-rule="evenodd" clip-rule="evenodd" d="M36.3447 24.1009L35.0024 26.1177H32.8752L34.2175 24.1009H36.3447ZM23.5882 24.1009H21.6195V26.1177H28.1126V25.4162V24.5307H27.2272H23.295L23.5882 24.1009Z" fill="#E1DDF7"/>
<path fill-rule="evenodd" clip-rule="evenodd" d="M26.3419 32.1681V30.1513H28.1127V32.1681H26.3419ZM32.3179 30.1513L30.9756 32.1681H28.8483L30.1907 30.1513H32.3179Z" fill="#E1DDF7"/>
<path fill-rule="evenodd" clip-rule="evenodd" d="M32.8283 14.8699V12L31.2113 14.371L26.7449 20.9203H28.8883L27.5129 22.9371H25.3695L24.2827 24.5308H26.4261L31.0574 17.7397V20.9203H32.8282V22.6655L32.8283 22.6655V14.8699ZM22.0619 27.7872L23.2005 26.1177H25.3439L24.469 27.4006H28.4011H29.2866V28.286V30.7558L28.3466 32.1681H29.2866V36.1432L37.0782 24.4363H35.6199L35.8432 24.1009H33.7159L33.4926 24.4363H31.9429H31.0574V23.5509V22.9371H38.7311L38.7311 22.6655L38.7312 22.6655H40.3841L39.4682 24.0415L29.1382 39.5622L27.5157 42V39.0716V32.1681H27.611V30.1513H27.5157V29.1715H22.7934H21.1179L22.0619 27.7872Z" fill="#E1DDF7"/>
<path fill-rule="evenodd" clip-rule="evenodd" d="M23.694 20.0672L25.0694 18.0504H27.2129L25.8375 20.0672H23.694ZM31.1528 18.0504V19.7956H37.0557L37.0557 20.0672H29.382V18.0504H31.1528Z" fill="#E1DDF7"/>
<path fill-rule="evenodd" clip-rule="evenodd" d="M35.8431 24.1009L34.5007 26.1177H32.3735L33.7158 24.1009H35.8431ZM23.0866 24.1009H21.1177V26.1177H27.611V25.4162V24.5307H26.7255H22.7934L23.0866 24.1009Z" fill="#E1DDF7"/>
<path fill-rule="evenodd" clip-rule="evenodd" d="M25.84 32.1681V30.1513H27.6108V32.1681H25.84ZM31.816 30.1513L30.4737 32.1681H28.3464L29.6888 30.1513H31.816Z" fill="#E1DDF7"/>
<path fill-rule="evenodd" clip-rule="evenodd" d="M32.3264 14.8699V12L30.7094 14.371L26.243 20.9203H28.3864L27.011 22.9371H24.8676L23.7808 24.5308H25.9242L30.5555 17.7397V20.9203H32.3263V22.6655L32.3264 22.6655V14.8699ZM21.56 27.7872L22.6985 26.1177H24.842L23.9671 27.4006H27.8992H28.7846V28.286V30.756L27.8448 32.1681H28.7846V36.1432L36.5763 24.4363H35.1179L35.3412 24.1009H33.2139L32.9907 24.4363H31.4409H30.5555V23.5509V22.9371H38.2292L38.2292 22.6655L38.2292 22.6655H39.8821L38.9663 24.0415L28.6363 39.5622L27.0138 42V39.0716V32.1681H27.1092V30.1513H27.0138V29.1715H22.2915H20.6159L21.56 27.7872Z" fill="#E1DDF7"/>
</g>
<defs>
<filter id="filter0_d_2411_4231" x="0.615929" y="-8" width="59.7682" height="70" filterUnits="userSpaceOnUse" color-interpolation-filters="sRGB">
<feFlood flood-opacity="0" result="BackgroundImageFix"/>
<feColorMatrix in="SourceAlpha" type="matrix" values="0 0 0 0 0 0 0 0 0 0 0 0 0 0 0 0 0 0 127 0" result="hardAlpha"/>
<feOffset/>
<feGaussianBlur stdDeviation="10"/>
<feComposite in2="hardAlpha" operator="out"/>
<feColorMatrix type="matrix" values="0 0 0 0 1 0 0 0 0 0.290196 0 0 0 0 0.662745 0 0 0 1 0"/>
<feBlend mode="normal" in2="BackgroundImageFix" result="effect1_dropShadow_2411_4231"/>
<feBlend mode="normal" in="SourceGraphic" in2="effect1_dropShadow_2411_4231" result="shape"/>
</filter>
</defs>
</svg>
