<svg fill="none" xmlns="http://www.w3.org/2000/svg" viewBox="0 0 16 16"><path d="M7.028.606a.446.446 0 0 0-.457 0 .297.297 0 0 0-.068.388c1.405 2.435 1.703 5.749-.217 7.577A6.309 6.309 0 0 1 4.57 6.286a4.446 4.446 0 0 0-2.285 4A5.371 5.371 0 0 0 8 15.429c3.68 0 5.588-2.286 5.714-5.143.149-3.429-2.286-7.646-6.686-9.68Z" stroke="#E5E1F9" stroke-linecap="round" stroke-linejoin="round"/><path d="M10.857 10.286a2.285 2.285 0 0 1-2.286 2.285" stroke="#E5E1F9" stroke-linecap="round" stroke-linejoin="round"/></svg>