<svg fill="none" xmlns="http://www.w3.org/2000/svg" viewBox="0 0 16 16"><path d="M14.857 7.429A6.858 6.858 0 1 0 4 12.994v1.292a1.143 1.143 0 0 0 1.143 1.143h5.714A1.143 1.143 0 0 0 12 14.285v-1.292a6.856 6.856 0 0 0 2.857-5.565v0Z" stroke="#E5E1F9" stroke-linecap="round" stroke-linejoin="round"/><path d="M5.142 8.571a.571.571 0 1 0 0-1.143.571.571 0 0 0 0 1.143ZM10.857 8.571a.571.571 0 1 0 0-1.142.571.571 0 0 0 0 1.142ZM6.857 13.143v2.285M9.143 13.143v2.285" stroke="#E5E1F9" stroke-linecap="round" stroke-linejoin="round"/></svg>