<svg fill="none" xmlns="http://www.w3.org/2000/svg" viewBox="0 0 16 16"><g clip-path="url(#a)" stroke="#E5E1F9" stroke-linecap="round" stroke-linejoin="round"><path d="m9.668 5.5-2.378.781a.791.791 0 0 1-.6-1.459l2.304-1.151a1.618 1.618 0 0 1 1.274-.071l3.4 1.233V9.5l-4.004.76"/><path d="M2.334 9.5h1.667l2.393 2.683a.914.914 0 0 0 1.607-.597v-.42l.119.049a1.129 1.129 0 0 0 1.547-1.048h.334a1 1 0 0 0 .8-1.6L8.667 5.833M7.035 4.646l-.244-.2a1.43 1.43 0 0 0-1.38-.18L2.334 5.5M.334 4.167h1.333a.667.667 0 0 1 .667.666V9.5a.667.667 0 0 1-.667.667H.334M15.668 10.167h-1.333a.667.667 0 0 1-.667-.667V4.833a.667.667 0 0 1 .667-.666h1.333M8 11.167l-.666-.667M8.668 9.167l1 1"/></g><defs><clipPath id="a"><path fill="#fff" d="M0 0h16v16H0z"/></clipPath></defs></svg>