<svg width="30" height="29" viewBox="0 0 30 29" fill="none" xmlns="http://www.w3.org/2000/svg">
    <path d="M10.001 15.9985L14.0919 19.3318L20.001 9.33179" stroke="#4DE5FF" stroke-width="2" stroke-linecap="square"/>
    <mask id="path-2-inside-1_1136_912" fill="white">
        <path d="M29.1411 14.5217C29.0359 22.3315 22.6196 28.5773 14.8098 28.4721C7.00006 28.367 0.754236 21.9506 0.859396 14.1409C0.964556 6.33108 7.38088 0.0852489 15.1907 0.190409C23.0004 0.295568 29.2463 6.71189 29.1411 14.5217ZM2.25621 14.1597C2.16144 21.198 7.79031 26.9805 14.8287 27.0753C21.867 27.1701 27.6495 21.5412 27.7443 14.5029C27.8391 7.46452 22.2102 1.68199 15.1719 1.58722C8.13351 1.49245 2.35098 7.12132 2.25621 14.1597Z"/>
    </mask>
    <path d="M29.1411 14.5217C29.0359 22.3315 22.6196 28.5773 14.8098 28.4721C7.00006 28.367 0.754236 21.9506 0.859396 14.1409C0.964556 6.33108 7.38088 0.0852489 15.1907 0.190409C23.0004 0.295568 29.2463 6.71189 29.1411 14.5217ZM2.25621 14.1597C2.16144 21.198 7.79031 26.9805 14.8287 27.0753C21.867 27.1701 27.6495 21.5412 27.7443 14.5029C27.8391 7.46452 22.2102 1.68199 15.1719 1.58722C8.13351 1.49245 2.35098 7.12132 2.25621 14.1597Z" stroke="#E5E1F9" stroke-width="1.52888" stroke-linejoin="round" mask="url(#path-2-inside-1_1136_912)"/>
</svg>
