<svg viewBox="0 0 13 12" fill="none" xmlns="http://www.w3.org/2000/svg">
<path fill-rule="evenodd" clip-rule="evenodd" d="M4.9176 0.080247C5.10937 0.194241 5.22853 0.412086 5.22853 0.6487V11.3513C5.22853 11.7096 4.9599 12 4.62854 12C4.29717 12 4.02855 11.7096 4.02855 11.3513V1.82862L1.35006 3.66626C1.07028 3.85822 0.699535 3.7686 0.521992 3.4661C0.34445 3.16359 0.427337 2.76276 0.707126 2.5708L4.30707 0.10097C4.49185 -0.0258056 4.72582 -0.0337471 4.9176 0.080247Z" fill="#857EA5"/>
<path fill-rule="evenodd" clip-rule="evenodd" d="M8.22853 0C8.5599 0 8.82852 0.290433 8.82852 0.6487V10.1714L11.507 8.33374C11.7868 8.14178 12.1575 8.2314 12.3351 8.5339C12.5126 8.8364 12.4297 9.23724 12.1499 9.4292L8.55 11.899C8.36522 12.0258 8.13125 12.0337 7.93947 11.9198C7.7477 11.8058 7.62854 11.5879 7.62854 11.3513V0.6487C7.62854 0.290433 7.89716 0 8.22853 0Z" fill="#857EA5"/>
</svg>
