<svg width="24" height="24" viewBox="0 0 24 24" fill="none" xmlns="http://www.w3.org/2000/svg">
    <path d="M14.0344 11.4111L15.2224 9.39529L18.4247 14.3826L18.4262 15.3398L18.4158 8.75347C18.4082 8.59242 18.3227 8.4451 18.1863 8.3582L12.421 5.04221C12.2862 4.97591 12.1151 4.97671 11.9805 5.0443C11.9623 5.05345 11.9453 5.06331 11.929 5.07416L11.9089 5.0868L6.3127 8.32954L6.291 8.33949C6.26303 8.35223 6.23486 8.36866 6.20828 8.38757C6.10217 8.46361 6.03169 8.57619 6.0089 8.7023C6.00551 8.72142 6.00293 8.74093 6.00183 8.76063L6.01059 14.1278L8.99338 9.50498C9.36885 8.89202 10.1871 8.69444 10.9467 8.70529L11.8381 8.72878L6.58555 17.152L7.2047 17.5084L12.5202 8.73734L14.8697 8.72878L9.56794 17.7212L11.7773 18.992L12.0413 19.1437C12.153 19.1891 12.2845 19.1914 12.3971 19.1507L18.2434 15.7628L17.1257 16.4105L14.0344 11.4111ZM14.4876 17.9393L12.2562 14.4371L13.6184 12.1256L16.549 16.7446L14.4876 17.9393Z"
          fill="#0F0D18"/>
    <path d="M12.248 14.4355L14.4796 17.9376L16.5409 16.7431L13.6103 12.124L12.248 14.4355Z" fill="#A49EBF"/>
    <path d="M18.4309 15.339L18.4294 14.3819L15.2271 9.39453L14.0391 11.4104L17.1304 16.4097L18.2482 15.762C18.3578 15.6731 18.4242 15.5424 18.4312 15.4014L18.4309 15.339Z"
          fill="#A49EBF"/>
    <path d="M5.00781 16.2397L6.58625 17.1492L11.8388 8.72605L10.9474 8.70256C10.1879 8.69181 9.36965 8.88929 8.99408 9.50225L6.0113 14.1251L5.00781 15.6668V16.2397V16.2397Z"
          fill="#E1DDF7"/>
    <path d="M14.8739 8.72852L12.5244 8.73708L7.20898 17.5081L9.06694 18.5778L9.57212 17.7209L14.8739 8.72852Z"
          fill="#E1DDF7"/>
    <path d="M19.417 8.71748C19.3973 8.22617 19.1313 7.77645 18.7146 7.51457L12.8737 4.15578C12.4615 3.94824 11.9466 3.94794 11.5336 4.15568C11.4848 4.18026 5.85352 7.44609 5.85352 7.44609C5.77558 7.48342 5.70053 7.52791 5.62995 7.57847C5.25796 7.84514 5.0312 8.25941 5.00781 8.7145V15.6705L6.0113 14.1287L6.00254 8.76148C6.00373 8.74187 6.00622 8.72246 6.00961 8.70345C6.0323 8.57713 6.10288 8.46456 6.20899 8.38841C6.23557 8.3695 11.9629 5.0543 11.9811 5.04514C12.1158 4.97756 12.2868 4.97676 12.4216 5.04305L18.1869 8.35905C18.3233 8.44594 18.4088 8.59326 18.4164 8.75431V15.4029C18.4094 15.5439 18.3536 15.6746 18.244 15.7635L17.1263 16.4112L16.5495 16.7455L14.4882 17.94L12.3977 19.1514C12.2851 19.1921 12.1535 19.1898 12.0419 19.1444L9.56854 17.7219L9.06326 18.5788L11.286 19.8584C11.3595 19.9002 11.425 19.9373 11.4788 19.9675C11.562 20.0142 11.6187 20.0454 11.6387 20.0551C11.7967 20.1319 12.0239 20.1764 12.2288 20.1764C12.4165 20.1764 12.5997 20.142 12.773 20.0741L18.845 16.558C19.1935 16.2879 19.3985 15.8807 19.417 15.4397V8.71748Z"
          fill="#E1DDF7"/>
</svg>
