<svg width="40" height="40" viewBox="0 0 40 40" fill="none" xmlns="http://www.w3.org/2000/svg">
<path d="M20 0C31.0467 0 40 8.95509 40 20C40 31.0467 31.0467 40 20 40C8.95509 40 0 31.0458 0 20C0 8.95509 8.95509 0 20 0Z" fill="#38305B"/>
<path d="M19.9869 6.6665L19.8048 7.28505V25.2321L19.9869 25.4138L28.3176 20.4895L19.9869 6.6665Z" fill="#565468"/>
<path d="M19.987 6.6665L11.6561 20.4895L19.987 25.4138V16.7028V6.6665Z" fill="#E5E1F9"/>
<path d="M19.9867 26.9914L19.884 27.1165V33.5095L19.9867 33.8092L28.3224 22.0696L19.9867 26.9914Z" fill="#6C697E"/>
<path d="M19.987 33.8092V26.9914L11.6561 22.0696L19.987 33.8092Z" fill="#E5E1F9"/>
<path d="M19.9866 25.4139L28.3172 20.4896L19.9866 16.7029V25.4139Z" fill="#2D2B3D"/>
<path d="M11.6561 20.4896L19.987 25.4139V16.7029L11.6561 20.4896Z" fill="#6C697E"/>
</svg>
