<svg width="20" height="21" viewBox="0 0 20 21" fill="none" xmlns="http://www.w3.org/2000/svg">
<g id="dai" clip-path="url(#clip0_1071_4633)">
<path id="Vector" d="M10 0.5C15.5233 0.5 20 4.97754 20 10.5C20 16.0233 15.5233 20.5 10 20.5C4.47754 20.5 0 16.0229 0 10.5C0 4.97754 4.47754 0.5 10 0.5Z" fill="#272437"/>
<path id="Vector_2" fill-rule="evenodd" clip-rule="evenodd" d="M5.23752 16.0125V16.0499L5.23572 16.0512V16.0575H9.57331C10.0643 16.0642 10.5534 16.0251 11.0358 15.9387C11.5439 15.8392 12.0389 15.6826 12.511 15.4702C12.7156 15.3755 12.912 15.2609 13.1101 15.1453C13.1603 15.1161 13.2106 15.0867 13.2611 15.0576C13.4942 14.8916 13.7174 14.7116 13.9298 14.5203C14.5112 13.9947 14.9612 13.3391 15.2425 12.6078C15.2614 12.5259 15.3415 12.4732 15.4238 12.489H16.6051C16.6991 12.489 16.7302 12.4575 16.7302 12.3513V11.5948C16.7365 11.5224 16.7365 11.449 16.7302 11.3766C16.7302 11.3576 16.7351 11.3387 16.7399 11.3199C16.7496 11.2823 16.7592 11.2448 16.7302 11.2074H15.7433C15.6241 11.2074 15.6241 11.1947 15.6241 11.0886C15.6583 10.7079 15.6583 10.3258 15.6241 9.94506C15.6178 9.83256 15.643 9.83256 15.7303 9.83256H16.5929C16.6933 9.83256 16.7306 9.8074 16.7306 9.70748V8.68239C16.7276 8.61449 16.726 8.58006 16.708 8.56262C16.6894 8.54469 16.6536 8.54469 16.5808 8.54469H15.4621C15.3748 8.55954 15.2911 8.50059 15.2753 8.41329C15.1471 8.07804 14.9837 7.75718 14.7871 7.45703C14.5891 7.16093 14.3659 6.88282 14.1184 6.62587C13.7894 6.29737 13.42 6.01206 13.0186 5.77581C12.4133 5.42436 11.7513 5.1782 11.0624 5.05085C10.7281 4.9892 10.3901 4.95185 10.0499 4.93835H5.36263C5.23752 4.93835 5.23752 4.96355 5.23752 5.06345V8.43219C5.23752 8.55099 5.21232 8.55099 5.11872 8.55099H3.77501C3.67511 8.55099 3.67511 8.56944 3.67511 8.63829V9.73806C3.67511 9.83798 3.70616 9.83798 3.78131 9.83798H5.13762C5.23752 9.83798 5.23752 9.85648 5.23752 9.93156V11.1066C5.23752 11.2127 5.20602 11.2127 5.12502 11.2127H3.67511V12.4003C3.67511 12.5002 3.70616 12.5002 3.78131 12.5002H5.13762C5.23752 12.5002 5.23752 12.5124 5.23752 12.5938V14.0626V14.5563V16.0125ZM13.8691 8.44389C13.8799 8.47179 13.8799 8.50284 13.8691 8.53119H13.8992C13.8866 8.56854 13.8241 8.58114 13.8241 8.58114H6.61184C6.49304 8.58114 6.49304 8.55594 6.49304 8.46234V6.24381C6.49304 6.16236 6.50564 6.12501 6.59924 6.12501H9.95539C10.3126 6.12186 10.6691 6.15921 11.0178 6.23751C11.7091 6.40132 12.3521 6.72712 12.893 7.18748C13.001 7.26803 13.0973 7.36298 13.1806 7.46873C13.357 7.64378 13.5117 7.83863 13.6431 8.05014C13.7305 8.17389 13.8056 8.30574 13.8691 8.44389ZM14.1682 11.206H10.3684H6.64328C6.56728 11.206 6.52983 11.206 6.51136 11.1873C6.49343 11.1691 6.49343 11.1332 6.49343 11.0625V9.95006C6.49343 9.86231 6.51863 9.83123 6.61223 9.83123H14.1746C14.256 9.83123 14.2934 9.86231 14.2934 9.93748C14.3244 10.3245 14.3244 10.7132 14.2934 11.0998C14.2875 11.206 14.2492 11.206 14.1682 11.206ZM13.869 12.5061C13.7628 12.4944 13.6557 12.4944 13.5495 12.5061H6.61853C6.52493 12.5061 6.49343 12.5061 6.49343 12.6311V14.8002C6.49343 14.9001 6.49343 14.9253 6.61853 14.9253H9.81848C9.97148 14.937 10.1245 14.9262 10.2744 14.8942C10.7387 14.861 11.1956 14.7601 11.6311 14.5941C11.7896 14.5392 11.9426 14.4676 12.087 14.3817H12.1306C12.8808 13.9916 13.4901 13.3786 13.8744 12.6262C13.8744 12.6262 13.9181 12.5317 13.869 12.507V12.5061Z" fill="#E1DDF7"/>
</g>
<defs>
<clipPath id="clip0_1071_4633">
<rect width="20" height="20" fill="white" transform="translate(0 0.5)"/>
</clipPath>
</defs>
</svg>
