<svg width="20" height="21" viewBox="0 0 20 21" fill="none" xmlns="http://www.w3.org/2000/svg">
<g id="eth" clip-path="url(#clip0_1071_4604)">
<path id="Vector" d="M10 0.5C15.5233 0.5 20 4.97754 20 10.5C20 16.0233 15.5233 20.5 10 20.5C4.47754 20.5 0 16.0229 0 10.5C0 4.97754 4.47754 0.5 10 0.5Z" fill="#272437"/>
<g id="Ethereum (ETH)">
<path id="Ethereum (ETH)_2" d="M9.99885 3L9.90051 3.33402V13.0256L9.99885 13.1237L14.4975 10.4645L9.99885 3Z" fill="#565468"/>
<path id="Ethereum (ETH)_3" d="M9.99876 3L5.5 10.4645L9.99876 13.1237V8.4197V3Z" fill="#E5E1F9"/>
<path id="Ethereum (ETH)_4" d="M9.99866 13.9756L9.94324 14.0431V17.4954L9.99866 17.6572L14.5001 11.3177L9.99866 13.9756Z" fill="#6C697E"/>
<path id="Ethereum (ETH)_5" d="M9.99876 17.6572V13.9756L5.5 11.3177L9.99876 17.6572Z" fill="#E5E1F9"/>
<path id="Ethereum (ETH)_6" d="M9.99866 13.1238L14.4973 10.4646L9.99866 8.41974V13.1238Z" fill="#2D2B3D"/>
<path id="Ethereum (ETH)_7" d="M5.5 10.4646L9.99876 13.1238V8.41974L5.5 10.4646Z" fill="#6C697E"/>
</g>
</g>
<defs>
<clipPath id="clip0_1071_4604">
<rect width="20" height="20" fill="white" transform="translate(0 0.5)"/>
</clipPath>
</defs>
</svg>
