<svg width="20" height="21" viewBox="0 0 20 21" fill="none" xmlns="http://www.w3.org/2000/svg">
<g id="other" clip-path="url(#clip0_1071_4644)">
<path id="Vector" d="M10 0.5C15.5233 0.5 20 4.97754 20 10.5C20 16.0233 15.5233 20.5 10 20.5C4.47754 20.5 0 16.0229 0 10.5C0 4.97754 4.47754 0.5 10 0.5Z" fill="#272437"/>
<g id="piggy-bank--institution-saving-bank-payment-finance">
<path id="Vector 2206" d="M4 5.76376C4.24919 6.43088 4.72205 6.93612 5.20571 7.2942" stroke="#E1DDF7" stroke-width="0.886655" stroke-linecap="round" stroke-linejoin="round"/>
<path id="Vector 2207" d="M9.74294 7.94263H7.92407" stroke="#E1DDF7" stroke-width="0.886655" stroke-linecap="round" stroke-linejoin="round"/>
<g id="Group 4470">
<path id="Ellipse 1" d="M12.7688 9.41621C12.7037 9.41621 12.6413 9.39037 12.5953 9.34438C12.5493 9.29838 12.5235 9.236 12.5235 9.17095C12.5235 9.1059 12.5493 9.04352 12.5953 8.99753C12.6413 8.95153 12.7037 8.92569 12.7688 8.92569" stroke="#E1DDF7" stroke-width="0.886655" stroke-linecap="round" stroke-linejoin="round"/>
<path id="Ellipse 2" d="M12.7689 9.41621C12.8339 9.41621 12.8963 9.39037 12.9423 9.34438C12.9883 9.29838 13.0141 9.236 13.0141 9.17095C13.0141 9.1059 12.9883 9.04352 12.9423 8.99753C12.8963 8.95153 12.8339 8.92569 12.7689 8.92569" stroke="#E1DDF7" stroke-width="0.886655" stroke-linecap="round" stroke-linejoin="round"/>
</g>
<path id="Vector 2208" d="M13.5241 4.38634V6.42005C15.0575 7.05774 15.3331 8.14768 15.3331 9.57217L16.1916 10.2775V12.4545C15.6853 13.5425 14.7504 14.1095 13.5241 14.5441V15.5095C13.5241 15.6396 13.4724 15.7643 13.3804 15.8563C13.2884 15.9483 13.1637 16 13.0336 16H11.3167C11.1866 16 11.0619 15.9483 10.9699 15.8563C10.8779 15.7643 10.8262 15.6396 10.8262 15.5095V14.5441H7.74571V15.433C7.74571 15.563 7.69403 15.6878 7.60204 15.7798C7.51005 15.8718 7.38528 15.9235 7.25519 15.9235H5.52266C5.39256 15.9235 5.26779 15.8718 5.1758 15.7798C5.08381 15.6878 5.03213 15.563 5.03213 15.433V13.6965C5.03213 13.6504 4.94187 13.3992 4.82513 13.0107C4.48372 11.8747 3.9157 9.95576 4.73193 8.14866C5.41572 6.6349 7.06977 5.47923 10.6428 5.67936C11.1549 4.32551 12.5126 3.97135 13.2053 4.00177C13.4024 4.01158 13.5241 4.18817 13.5241 4.38634Z" stroke="#E1DDF7" stroke-width="0.886655" stroke-linecap="round" stroke-linejoin="round"/>
</g>
</g>
<defs>
<clipPath id="clip0_1071_4644">
<rect width="20" height="20" fill="white" transform="translate(0 0.5)"/>
</clipPath>
</defs>
</svg>
