<svg width="20" height="21" viewBox="0 0 20 21" fill="none" xmlns="http://www.w3.org/2000/svg">
<g id="usdc" clip-path="url(#clip0_1071_4621)">
<path id="Vector" d="M9.73912 19.9782C15.1362 19.9782 19.4782 15.6362 19.4782 10.2391C19.4782 4.842 15.1362 0.5 9.73912 0.5C4.342 0.5 0 4.842 0 10.2391C0 15.6362 4.342 19.9782 9.73912 19.9782Z" fill="#272437"/>
<path id="Vector_2" d="M12.4173 11.781C12.4173 10.3608 11.5652 9.87382 9.86079 9.67094C8.64343 9.50854 8.39991 9.18398 8.39991 8.61582C8.39991 8.0476 8.80575 7.68248 9.61735 7.68248C10.3477 7.68248 10.7536 7.92596 10.9565 8.53462C10.997 8.65638 11.1188 8.7375 11.2405 8.7375H11.8897C12.0521 8.7375 12.1738 8.61582 12.1738 8.45353V8.41291C12.0115 7.52013 11.281 6.83031 10.3477 6.74918V5.77527C10.3477 5.61291 10.226 5.49118 10.0232 5.45056H9.41447C9.25207 5.45056 9.13039 5.57231 9.08975 5.77527V6.70857C7.87236 6.87092 7.10141 7.68248 7.10141 8.69702C7.10141 10.0361 7.91298 10.5636 9.61735 10.7665C10.7536 10.9694 11.1188 11.2129 11.1188 11.8622C11.1188 12.5115 10.5506 12.9579 9.77967 12.9579C8.72455 12.9579 8.35935 12.5114 8.23759 11.9028C8.19703 11.7405 8.07535 11.6593 7.95359 11.6593H7.26367C7.10141 11.6593 6.97968 11.781 6.97968 11.9433V11.984C7.14193 12.9984 7.79124 13.7289 9.13039 13.9318V14.9057C9.13039 15.068 9.25207 15.1897 9.45495 15.2303H10.0637C10.226 15.2303 10.3477 15.1085 10.3884 14.9057V13.9318C11.6057 13.7289 12.4173 12.8766 12.4173 11.781Z" fill="#E1DDF7"/>
<path id="Vector_3" fill-rule="evenodd" clip-rule="evenodd" d="M4.05868 8.25072C2.88181 11.3755 4.50503 14.9059 7.67025 16.042C7.79199 16.1232 7.91372 16.2855 7.91372 16.4072V16.9755C7.91372 17.0566 7.91372 17.0971 7.87312 17.1377C7.8326 17.3 7.67025 17.3811 7.5079 17.3C5.23547 16.5696 3.49051 14.8247 2.76007 12.5522C1.54268 8.69713 3.65286 4.59854 7.5079 3.38115C7.54851 3.34064 7.62964 3.34064 7.67025 3.34064C7.8326 3.38115 7.91372 3.50289 7.91372 3.66525V4.23333C7.91372 4.43629 7.8326 4.55803 7.67025 4.63916C6.00652 5.24785 4.66738 6.54637 4.05868 8.25072ZM11.6065 3.54339C11.647 3.38104 11.8094 3.29991 11.9717 3.38104C14.2035 4.11148 15.9891 5.85644 16.7195 8.16948C17.9369 12.0245 15.8267 16.1231 11.9717 17.3405C11.9311 17.3811 11.8499 17.3811 11.8094 17.3811C11.647 17.3405 11.5659 17.2188 11.5659 17.0564V16.4883C11.5659 16.2854 11.647 16.1636 11.8094 16.0825C13.4731 15.4739 14.8123 14.1753 15.4209 12.471C16.5978 9.34625 14.9746 5.81582 11.8094 4.67965C11.6876 4.59843 11.5659 4.43617 11.5659 4.27383V3.70574C11.5659 3.62452 11.5659 3.58401 11.6065 3.54339Z" fill="#E1DDF7"/>
</g>
<defs>
<clipPath id="clip0_1071_4621">
<rect width="20" height="20" fill="white" transform="translate(0 0.5)"/>
</clipPath>
</defs>
</svg>
