<svg width="20" height="20" viewBox="0 0 20 20" fill="none" xmlns="http://www.w3.org/2000/svg">
<g clip-path="url(#clip0_4904_14302)">
<path d="M16.1676 3.43066H3.81897V14.6541H16.1676V3.43066Z" fill="white"/>
<path fill-rule="evenodd" clip-rule="evenodd" d="M19.9934 9.99989C19.9934 15.5154 15.5193 19.9866 10.0001 19.9866C4.48089 19.9866 0.00671387 15.5154 0.00671387 9.99989C0.00671387 4.48438 4.48089 0.0131836 10.0001 0.0131836C15.5193 0.0131836 19.9934 4.48438 19.9934 9.99989ZM7.16823 13.9741H5.2288C4.82127 13.9741 4.61997 13.9741 4.49723 13.8956C4.36465 13.8097 4.28364 13.6674 4.27382 13.5104C4.26645 13.3657 4.36711 13.189 4.56842 12.8357L9.35711 4.40062C9.56087 4.04243 9.66397 3.86333 9.79409 3.79709C9.93402 3.72595 10.101 3.72595 10.2409 3.79709C10.371 3.86333 10.4741 4.04243 10.6779 4.40062L11.6623 6.11796L11.6674 6.12672C11.8874 6.51099 11.999 6.70586 12.0478 6.91038C12.1018 7.13364 12.1018 7.36915 12.0478 7.59241C11.9987 7.79849 11.8882 7.99477 11.6648 8.38485L9.1494 12.8284L9.14289 12.8398C8.92136 13.2272 8.8091 13.4236 8.6535 13.5717C8.48411 13.7337 8.28034 13.8513 8.05693 13.9177C7.85317 13.9741 7.62486 13.9741 7.16823 13.9741ZM12.0659 13.9741H14.8449C15.2549 13.9741 15.4611 13.9741 15.584 13.8932C15.7165 13.8073 15.7999 13.6625 15.8074 13.5056C15.8144 13.3656 15.716 13.1958 15.523 12.863C15.5164 12.8517 15.5097 12.8402 15.5029 12.8284L14.1109 10.4487L14.0951 10.4219C13.8995 10.0913 13.8007 9.92441 13.6739 9.85989C13.5341 9.78873 13.3695 9.78873 13.2296 9.85989C13.1019 9.92612 12.9988 10.1003 12.7951 10.4511L11.408 12.8309L11.4032 12.8391C11.2002 13.1893 11.0987 13.3644 11.106 13.508C11.1159 13.665 11.1969 13.8097 11.3294 13.8956C11.4497 13.9741 11.6559 13.9741 12.0659 13.9741Z" fill="#E84142"/>
</g>
<defs>
<clipPath id="clip0_4904_14302">
<rect width="20" height="20" fill="white"/>
</clipPath>
</defs>
</svg>
