<svg fill="none" height="40" viewBox="0 0 40 40" width="40" xmlns="http://www.w3.org/2000/svg" xmlns:xlink="http://www.w3.org/1999/xlink"><clipPath id="a"><path d="m0 0h40v40h-40z"/></clipPath><g clip-path="url(#a)"><path d="m20 0c11.0466 0 20 8.95509 20 20 0 11.0466-8.9534 20-20 20-11.04491 0-20-8.9543-20-20 0-11.04491 8.95509-20 20-20z" fill="#181524"/><path d="m19.9975 5-.1967.66804v19.38326l.1967.1962 8.9973-5.3184z" fill="#565468"/><path d="m19.9975 5-8.9975 14.9291 8.9975 5.3184v-9.4081z" fill="#e5e1f9"/><path d="m19.9972 26.9511-.1108.1352v6.9046l.1108.3236 9.0028-12.679z" fill="#6c697e"/><path d="m19.9975 34.3145v-7.3634l-8.9975-5.3156z" fill="#e5e1f9"/><path d="m19.9971 25.2476 8.9973-5.3184-8.9973-4.0897z" fill="#2d2b3d"/><path d="m11 19.9292 8.9975 5.3184v-9.4081z" fill="#6c697e"/></g></svg>