<svg width="17" height="16" viewBox="0 0 17 16" fill="none" xmlns="http://www.w3.org/2000/svg">
<path d="M15.3495 1L9.45074 5.37626L10.5463 2.79437L15.3495 1Z" fill="#E17726" stroke="#E17726" stroke-width="0.0625004" stroke-linecap="round" stroke-linejoin="round"/>
<path d="M1.74603 1L7.59116 5.41768L6.54931 2.79437L1.74603 1Z" fill="#E27625" stroke="#E27625" stroke-width="0.0625004" stroke-linecap="round" stroke-linejoin="round"/>
<path d="M13.2294 11.1456L11.6602 13.5502L15.0179 14.4736L15.9775 11.1987L13.2294 11.1456Z" fill="#E27625" stroke="#E27625" stroke-width="0.0625004" stroke-linecap="round" stroke-linejoin="round"/>
<path d="M1.12396 11.1987L2.07773 14.4736L5.43547 13.5502L3.87211 11.1456L1.12396 11.1987Z" fill="#E27625" stroke="#E27625" stroke-width="0.0625004" stroke-linecap="round" stroke-linejoin="round"/>
<path d="M5.25209 7.08198L4.31641 8.49777L7.64498 8.64593L7.53239 5.06244L5.25209 7.08198Z" fill="#E27625" stroke="#E27625" stroke-width="0.0625004" stroke-linecap="round" stroke-linejoin="round"/>
<path d="M11.8436 7.08147L9.52775 5.02051L9.45074 8.64542L12.7793 8.49725L11.8436 7.08147Z" fill="#E27625" stroke="#E27625" stroke-width="0.0625004" stroke-linecap="round" stroke-linejoin="round"/>
<path d="M5.43555 13.5502L7.44343 12.5725L5.7138 11.2227L5.43555 13.5502Z" fill="#E27625" stroke="#E27625" stroke-width="0.0625004" stroke-linecap="round" stroke-linejoin="round"/>
<path d="M9.65234 12.5725L11.6602 13.5502L11.382 11.2227L9.65234 12.5725Z" fill="#E27625" stroke="#E27625" stroke-width="0.0625004" stroke-linecap="round" stroke-linejoin="round"/>
<path d="M11.6602 13.55L9.65234 12.5723L9.81218 13.8813L9.79468 14.432L11.6602 13.55Z" fill="#D5BFB2" stroke="#D5BFB2" stroke-width="0.0625004" stroke-linecap="round" stroke-linejoin="round"/>
<path d="M5.43555 13.55L7.30109 14.432L7.28942 13.8813L7.44343 12.5723L5.43555 13.55Z" fill="#D5BFB2" stroke="#D5BFB2" stroke-width="0.0625004" stroke-linecap="round" stroke-linejoin="round"/>
<path d="M7.33662 10.3573L5.6665 9.86616L6.84486 9.32715L7.33662 10.3573Z" fill="#233447" stroke="#233447" stroke-width="0.0625004" stroke-linecap="round" stroke-linejoin="round"/>
<path d="M9.75879 10.3574L10.2505 9.32721L11.4347 9.86622L9.75879 10.3574Z" fill="#233447" stroke="#233447" stroke-width="0.0625004" stroke-linecap="round" stroke-linejoin="round"/>
<path d="M5.43587 13.5502L5.72579 11.1456L3.8725 11.1987L5.43587 13.5502Z" fill="#CC6228" stroke="#CC6228" stroke-width="0.0625004" stroke-linecap="round" stroke-linejoin="round"/>
<path d="M11.3701 11.1455L11.66 13.5501L13.2292 11.1986L11.3701 11.1455Z" fill="#CC6228" stroke="#CC6228" stroke-width="0.0625004" stroke-linecap="round" stroke-linejoin="round"/>
<path d="M12.7793 8.49805L9.45068 8.64622L9.75869 10.3572L10.2505 9.32698L11.4346 9.86599L12.7793 8.49805Z" fill="#CC6228" stroke="#CC6228" stroke-width="0.0625004" stroke-linecap="round" stroke-linejoin="round"/>
<path d="M5.66685 9.86599L6.84521 9.32698L7.33697 10.3572L7.64498 8.64622L4.31641 8.49805L5.66685 9.86599Z" fill="#CC6228" stroke="#CC6228" stroke-width="0.0625004" stroke-linecap="round" stroke-linejoin="round"/>
<path d="M4.31641 8.49805L5.71411 11.2223L5.66685 9.86599L4.31641 8.49805Z" fill="#E27525" stroke="#E27525" stroke-width="0.0625004" stroke-linecap="round" stroke-linejoin="round"/>
<path d="M11.4349 9.86599L11.3818 11.2223L12.7795 8.49805L11.4349 9.86599Z" fill="#E27525" stroke="#E27525" stroke-width="0.0625004" stroke-linecap="round" stroke-linejoin="round"/>
<path d="M7.64492 8.64551L7.33691 10.3565L7.72776 12.376L7.81059 9.71711L7.64492 8.64551Z" fill="#E27525" stroke="#E27525" stroke-width="0.0625004" stroke-linecap="round" stroke-linejoin="round"/>
<path d="M9.45085 8.64551L9.29102 9.71128L9.36802 12.376L9.75886 10.3565L9.45085 8.64551Z" fill="#E27525" stroke="#E27525" stroke-width="0.0625004" stroke-linecap="round" stroke-linejoin="round"/>
<path d="M9.75852 10.3574L9.36768 12.3769L9.65177 12.5724L11.3814 11.2225L11.4345 9.86621L9.75852 10.3574Z" fill="#F5841F" stroke="#F5841F" stroke-width="0.0625004" stroke-linecap="round" stroke-linejoin="round"/>
<path d="M5.6665 9.86621L5.71375 11.2225L7.44338 12.5724L7.72747 12.3769L7.33662 10.3574L5.6665 9.86621Z" fill="#F5841F" stroke="#F5841F" stroke-width="0.0625004" stroke-linecap="round" stroke-linejoin="round"/>
<path d="M9.79431 14.4308L9.81181 13.8802L9.66423 13.7501H7.43118L7.28942 13.8802L7.30109 14.4308L5.43555 13.5488L6.08715 14.0814L7.41367 14.9996H9.68172L11.0083 14.0814L11.6599 13.5488L9.79431 14.4308Z" fill="#C0AC9D" stroke="#C0AC9D" stroke-width="0.0625004" stroke-linecap="round" stroke-linejoin="round"/>
<path d="M9.65259 12.5714L9.3685 12.376H7.72813L7.44404 12.5714L7.29004 13.8804L7.43179 13.7503H9.66484L9.81243 13.8804L9.65259 12.5714Z" fill="#C68E8E" stroke="#C68E8E" stroke-width="0.0625004" stroke-linecap="round" stroke-linejoin="round"/>
<path d="M15.5984 5.66094L16.096 3.24472L15.3499 1L9.65234 5.22868L11.844 7.08197L14.941 7.98849L15.6223 7.18872L15.326 6.9758L15.7996 6.54296L15.4386 6.25887L15.9122 5.89778L15.5984 5.66094Z" fill="#763E1A" stroke="#763E1A" stroke-width="0.0625004" stroke-linecap="round" stroke-linejoin="round"/>
<path d="M1 3.24472L1.50343 5.66094L1.18375 5.89778L1.65743 6.25887L1.29634 6.54296L1.77002 6.9758L1.47368 7.18872L2.15503 7.98849L5.25201 7.08197L7.44364 5.22868L1.7461 1L1 3.24472Z" fill="#763E1A" stroke="#763E1A" stroke-width="0.0625004" stroke-linecap="round" stroke-linejoin="round"/>
<path d="M14.9408 7.98758L11.8438 7.08105L12.7795 8.49684L11.3818 11.2211L13.2293 11.1971H15.9774L14.9408 7.98758Z" fill="#F5841F" stroke="#F5841F" stroke-width="0.0625004" stroke-linecap="round" stroke-linejoin="round"/>
<path d="M5.25178 7.08105L2.1548 7.98758L1.12402 11.1971H3.87217L5.71379 11.2211L4.31609 8.49684L5.25178 7.08105Z" fill="#F5841F" stroke="#F5841F" stroke-width="0.0625004" stroke-linecap="round" stroke-linejoin="round"/>
<path d="M9.45088 8.64647L9.65213 5.22923L10.5464 2.79492H6.54932L7.44359 5.22923L7.64484 8.64647L7.72184 9.72391L7.72767 12.377H9.36804L9.37388 9.72391L9.45088 8.64647Z" fill="#F5841F" stroke="#F5841F" stroke-width="0.0625004" stroke-linecap="round" stroke-linejoin="round"/>
</svg>
