<svg width="20" height="14" viewBox="0 0 20 14" fill="none" xmlns="http://www.w3.org/2000/svg">
<path d="M4.01247 2.73536C7.20877 -0.911785 12.391 -0.911785 15.5873 2.73536L15.972 3.17429C16.1318 3.35665 16.1318 3.65231 15.972 3.83467L14.6561 5.33619C14.5761 5.42737 14.4466 5.42737 14.3667 5.33619L13.8373 4.73216C11.6075 2.18782 7.99226 2.18782 5.76244 4.73216L5.19554 5.37903C5.11563 5.47021 4.98607 5.47021 4.90617 5.37903L3.59025 3.8775C3.43044 3.69515 3.43044 3.39949 3.59025 3.21713L4.01247 2.73536ZM18.3087 5.84067L19.4799 7.17703C19.6397 7.35938 19.6397 7.65504 19.4799 7.8374L14.199 13.8632C14.0392 14.0456 13.7801 14.0456 13.6203 13.8632C13.6203 13.8632 13.6203 13.8632 13.6203 13.8632L9.87225 9.58652C9.8323 9.54094 9.76752 9.54094 9.72756 9.58652C9.72756 9.58653 9.72756 9.58653 9.72756 9.58653L5.97961 13.8632C5.8198 14.0456 5.56069 14.0456 5.40087 13.8632C5.40087 13.8632 5.40087 13.8632 5.40087 13.8632L0.119861 7.83732C-0.0399537 7.65497 -0.0399537 7.35931 0.119861 7.17695L1.29103 5.84059C1.45084 5.65823 1.70995 5.65823 1.86977 5.84059L5.61785 10.1174C5.65781 10.1629 5.72259 10.1629 5.76254 10.1174C5.76254 10.1174 5.76254 10.1174 5.76254 10.1174L9.51044 5.84059C9.67025 5.65823 9.92936 5.65822 10.0892 5.84057C10.0892 5.84058 10.0892 5.84058 10.0892 5.84058L13.8373 10.1174C13.8772 10.1629 13.942 10.1629 13.982 10.1174L17.73 5.84067C17.8898 5.65831 18.1489 5.65831 18.3087 5.84067Z" fill="#3B99FC"/>
</svg>
